<svg width="24" height="24" viewBox="0 0 24 24" fill="none" xmlns="http://www.w3.org/2000/svg">
<g clip-path="url(#clip0_11_536)">
<path d="M23.9765 7.05606C23.9202 5.78085 23.714 4.90415 23.4186 4.14448C23.1139 3.33811 22.645 2.61617 22.0308 2.01602C21.4306 1.40652 20.7039 0.932921 19.9069 0.632936C19.1428 0.337529 18.2707 0.131312 16.9955 0.0750879C15.7107 0.0141019 15.3029 0 12.0444 0C8.786 0 8.37815 0.0141019 7.09817 0.0703262C5.82296 0.126551 4.94627 0.332951 4.18678 0.628174C3.38023 0.932921 2.65828 1.40176 2.05813 2.01602C1.44864 2.61617 0.975218 3.34288 0.67505 4.13991C0.379643 4.90415 0.173426 5.77609 0.117202 7.0513C0.0562161 8.33604 0.0421143 8.74389 0.0421143 12.0023C0.0421143 15.2608 0.0562161 15.6686 0.11244 16.9486C0.168665 18.2238 0.375065 19.1005 0.670471 19.8602C0.975218 20.6666 1.44864 21.3885 2.05813 21.9887C2.65828 22.5982 3.38499 23.0718 4.18202 23.3717C4.94627 23.6672 5.8182 23.8734 7.0936 23.9296C8.37339 23.986 8.78142 23.9999 12.0399 23.9999C15.2983 23.9999 15.7062 23.986 16.9861 23.9296C18.2614 23.8734 19.1381 23.6672 19.8975 23.3717C21.5105 22.7481 22.7857 21.4729 23.4093 19.8602C23.7045 19.0959 23.9109 18.2238 23.9671 16.9486C24.0233 15.6686 24.0374 15.2608 24.0374 12.0023C24.0374 8.74389 24.0327 8.33604 23.9765 7.05606ZM21.8152 16.8548C21.7636 18.027 21.5667 18.6599 21.4026 19.0818C20.9993 20.1274 20.1695 20.9572 19.1239 21.3605C18.702 21.5246 18.0645 21.7215 16.897 21.7729C15.6311 21.8293 15.2514 21.8432 12.0492 21.8432C8.84699 21.8432 8.46257 21.8293 7.20128 21.7729C6.02918 21.7215 5.39624 21.5246 4.97429 21.3605C4.45398 21.1682 3.98038 20.8634 3.59597 20.4649C3.19745 20.0758 2.89271 19.6069 2.70041 19.0866C2.53631 18.6646 2.33944 18.027 2.28797 16.8596C2.23157 15.5937 2.21765 15.2139 2.21765 12.0117C2.21765 8.80946 2.23157 8.42504 2.28797 7.16393C2.33944 5.99183 2.53631 5.35889 2.70041 4.93694C2.89271 4.41645 3.19745 3.94303 3.60073 3.55843C3.98972 3.15992 4.45856 2.85517 4.97905 2.66306C5.40101 2.49896 6.0387 2.30208 7.20604 2.25044C8.47192 2.19421 8.85175 2.18011 12.0538 2.18011C15.2608 2.18011 15.6404 2.19421 16.9017 2.25044C18.0738 2.30208 18.7068 2.49896 19.1287 2.66306C19.649 2.85517 20.1226 3.15992 20.507 3.55843C20.9055 3.94761 21.2103 4.41645 21.4026 4.93694C21.5667 5.35889 21.7636 5.99641 21.8152 7.16393C21.8714 8.42981 21.8855 8.80946 21.8855 12.0117C21.8855 15.2139 21.8714 15.589 21.8152 16.8548Z" fill="#1B0705"/>
<path d="M12.0444 5.83708C8.64074 5.83708 5.87915 8.59848 5.87915 12.0023C5.87915 15.4062 8.64074 18.1676 12.0444 18.1676C15.4483 18.1676 18.2097 15.4062 18.2097 12.0023C18.2097 8.59848 15.4483 5.83708 12.0444 5.83708ZM12.0444 16.0016C9.83629 16.0016 8.04516 14.2107 8.04516 12.0023C8.04516 9.79403 9.83629 8.00309 12.0444 8.00309C14.2527 8.00309 16.0437 9.79403 16.0437 12.0023C16.0437 14.2107 14.2527 16.0016 12.0444 16.0016Z" fill="#1B0705"/>
<path d="M19.893 5.59332C19.893 6.38815 19.2485 7.03262 18.4535 7.03262C17.6586 7.03262 17.0142 6.38815 17.0142 5.59332C17.0142 4.7983 17.6586 4.15401 18.4535 4.15401C19.2485 4.15401 19.893 4.7983 19.893 5.59332Z" fill="#1B0705"/>
</g>
<defs>
<clipPath id="clip0_11_536">
<rect width="24" height="24" fill="white"/>
</clipPath>
</defs>
</svg>
