<svg width="48" height="48" viewBox="0 0 48 48" fill="none" xmlns="http://www.w3.org/2000/svg">
<g clip-path="url(#clip0_312_15771)">
<path d="M31.8743 42.5495L27.4513 42.8673L23.1338 47.3001H6.50513L21.3316 35.9001L25.697 28.6238C26.4287 27.4042 28.1206 27.2158 29.1025 28.2448L37.2938 34.5202C38.5319 35.4686 38.6086 37.307 37.4539 38.3553L34.0109 41.4808C33.4111 42.0324 32.6691 42.4035 31.8743 42.5495Z" fill="#FED9A8"/>
<path d="M37.2939 34.5201L35.2912 32.9858C35.5066 33.8436 35.2647 34.7985 34.5479 35.4492L31.1049 38.5747C30.5051 39.1265 29.7632 39.4976 28.9683 39.6435L24.5453 39.9613L17.3975 47.3001H23.1339L27.4514 42.8673L31.8743 42.5495C32.6692 42.4035 33.4112 42.0323 34.011 41.4807L37.454 38.3552C38.6087 37.3068 38.532 35.4685 37.2939 34.5201Z" fill="#F4C28C"/>
<path d="M31.0596 30.9489L31.8861 31.8381C31.4208 31.8877 30.944 31.7298 30.6066 31.3668L29.8545 30.5578C30.2867 30.4782 30.7438 30.6093 31.0596 30.9489Z" fill="#E8D06B"/>
<path d="M41.7077 38.5578L36.4562 42.9745L22.6116 24.0389L25.3369 21.7467L41.7077 38.5578Z" fill="#FFC10D"/>
<path d="M5.94678 16.2906L10.4712 21.6702C13.6797 25.4851 18.7344 27.3596 24.0882 26.7201L27.2628 26.3408L28.1805 23.2783C29.7282 18.1132 28.7479 12.8121 25.5394 8.99727L21.0149 3.61771L5.94678 16.2906Z" fill="#FFC10D"/>
<path d="M25.5393 8.99718L21.0148 3.61761L17.7826 6.33608L22.5531 11.9834C25.7616 15.7983 26.7419 21.0994 25.1942 26.2644L25.0937 26.5999L27.2628 26.3407L28.1805 23.2782C29.7281 18.1132 28.7478 12.8121 25.5393 8.99718Z" fill="#FFC10D"/>
<path d="M22.4391 4.18707L6.26371 17.7914C6.02811 17.9896 5.67646 17.9592 5.47836 17.7236L4.45471 16.5066C4.25652 16.271 4.2869 15.9193 4.52249 15.7212L20.698 2.11688C20.9336 1.91869 21.2853 1.94907 21.4834 2.18466L22.5069 3.40172C22.7051 3.63732 22.6747 3.98897 22.4391 4.18707Z" fill="#FFB125"/>
<path d="M22.507 3.40172L21.4834 2.18466C21.2852 1.94907 20.9336 1.91869 20.698 2.11688L17.8405 4.52025L19.5817 6.59054L22.4393 4.18716C22.6748 3.98897 22.705 3.63732 22.507 3.40172Z" fill="#FF901D"/>
<path d="M17.4248 14.4719L20.3197 15.7407C20.3568 15.757 20.3996 15.7539 20.4341 15.7326L23.1205 14.0671C23.2072 14.0133 23.318 14.0824 23.3079 14.1839L22.9958 17.3292C22.9917 17.3695 23.0079 17.4093 23.0388 17.4354L25.453 19.4757C25.531 19.5416 25.4995 19.6683 25.3998 19.6901L22.312 20.3652C22.2724 20.3738 22.2396 20.4015 22.2242 20.439L21.0298 23.3654C20.9913 23.4599 20.8611 23.4692 20.8095 23.3811L19.2132 20.6529C19.1928 20.618 19.1564 20.5953 19.1159 20.5923L15.9637 20.3606C15.8619 20.3531 15.8128 20.2322 15.8807 20.156L17.982 17.7948C18.0089 17.7645 18.0193 17.7229 18.0096 17.6835L17.2557 14.6139C17.2314 14.5149 17.3313 14.4309 17.4248 14.4719Z" fill="white"/>
<path d="M45.6394 38.1782L35.7753 46.4744C35.347 46.8346 34.6988 46.7298 34.4058 46.2532L32.7755 43.6016C32.5379 43.2152 32.619 42.7131 32.9661 42.4211L42.1278 34.7158C42.4749 34.4239 42.9835 34.43 43.3234 34.7303L45.6564 36.791C46.0757 37.1615 46.0677 37.8181 45.6394 38.1782Z" fill="#FFB125"/>
<path d="M45.6562 36.791L43.3232 34.7303C42.9833 34.43 42.4747 34.4239 42.1276 34.7158L39.4545 36.964L43.1752 40.2506L45.6393 38.1782C46.0677 37.8181 46.0756 37.1614 45.6562 36.791Z" fill="#FF901D"/>
<path d="M35.6607 38.2094C36.3288 38.9291 37.4539 38.9708 38.1733 38.3023L40.3987 36.2349C41.1177 35.5669 41.1594 34.4425 40.4916 33.7232C39.8234 33.0035 38.6983 32.9619 37.9789 33.6303L35.7536 35.6977C35.0344 36.3656 34.9929 37.4901 35.6607 38.2094Z" fill="#F4C28C"/>
<path d="M35.7536 35.6976L37.9789 33.6302C38.6984 32.9619 39.8235 33.0034 40.4916 33.7231C40.879 34.1404 41.0272 34.694 40.9433 35.2158C40.2663 34.639 39.2499 34.6476 38.5823 35.2676L36.357 37.335C36.0551 37.6155 35.873 37.9764 35.8124 38.3541C35.7597 38.3092 35.7089 38.2613 35.6606 38.2092C34.9929 37.4901 35.0344 36.3656 35.7536 35.6976Z" fill="#FED9A8"/>
<path d="M33.8779 35.0015C34.5561 35.732 35.6982 35.7742 36.4285 35.0958L38.6145 33.065C39.3444 32.3869 39.3866 31.2455 38.7088 30.5152C38.0306 29.7846 36.8885 29.7425 36.1581 30.4209L33.9722 32.4517C33.2422 33.1299 33.2001 34.2712 33.8779 35.0015Z" fill="#F4C28C"/>
<path d="M33.9722 32.4517L36.1581 30.4209C36.8885 29.7425 38.0305 29.7846 38.7088 30.5152C39.0973 30.9337 39.2488 31.4873 39.1703 32.0113C38.4832 31.4134 37.4416 31.418 36.7592 32.0518L34.5732 34.0826C34.2617 34.372 34.0759 34.746 34.0174 35.1362C33.9691 35.0942 33.9224 35.0493 33.8779 35.0014C33.2001 34.2712 33.2422 33.1299 33.9722 32.4517Z" fill="#FED9A8"/>
<path d="M31.4104 32.3797C32.0886 33.1103 33.2307 33.1525 33.9611 32.4741L36.147 30.4432C36.8769 29.7652 36.9191 28.6238 36.2413 27.8935C35.5631 27.1629 34.421 27.1208 33.6907 27.7992L31.5047 29.83C30.7747 30.5081 30.7325 31.6495 31.4104 32.3797Z" fill="#F4C28C"/>
<path d="M31.5046 29.83L33.6906 27.7992C34.4209 27.1208 35.563 27.1629 36.2413 27.8935C36.288 27.944 36.3311 27.9965 36.371 28.0505C35.9744 28.0783 35.5843 28.2364 35.2703 28.5281L33.0843 30.5589C32.4047 31.1903 32.3217 32.2229 32.8603 32.9517C32.3343 32.9887 31.797 32.7963 31.4103 32.3798C30.7325 31.6495 30.7747 30.5081 31.5046 29.83Z" fill="#FED9A8"/>
<path d="M29.034 29.6597C29.7122 30.3903 30.8543 30.4325 31.5846 29.754L33.7706 27.7232C34.5006 27.0451 34.5427 25.9037 33.8649 25.1735C33.1867 24.4429 32.0446 24.4007 31.3143 25.0792L29.1283 27.11C28.3984 27.7882 28.3562 28.9295 29.034 29.6597Z" fill="#F4C28C"/>
<path d="M29.1282 27.11L31.3142 25.0792C32.0445 24.4007 33.1866 24.443 33.8648 25.1735C34.2529 25.5915 34.4045 26.1443 34.3266 26.6679C33.6395 26.0689 32.597 26.0731 31.9142 26.7074L29.7283 28.7382C29.4163 29.0281 29.2304 29.4026 29.1722 29.7935C29.1243 29.7517 29.0781 29.7072 29.0339 29.6597C28.3561 28.9295 28.3982 27.7882 29.1282 27.11Z" fill="#FED9A8"/>
<path d="M33.2107 31.0406L32.8054 31.4172C32.1676 32.0097 31.1834 31.9871 30.6065 31.3667L29.5859 30.2689C29.0863 29.7315 28.2329 29.7147 27.6838 30.2315C27.9911 34.9857 21.3317 35.9 21.3317 35.9L24.1622 28.9377C24.3366 28.4184 24.6387 27.9478 25.0402 27.57L27.0505 25.678C28.0279 24.7582 29.5468 24.7875 30.4368 25.7434L33.3207 28.8409C33.8987 29.4619 33.8494 30.4472 33.2107 31.0406Z" fill="#FED9A8"/>
<path d="M24.0043 14.253C24.0354 13.939 23.8884 13.6403 23.6206 13.4734C23.3528 13.3065 23.0198 13.306 22.7515 13.4723L20.3228 14.978L17.7057 13.8309C17.4166 13.7042 17.0871 13.7516 16.8455 13.9548C16.6039 14.158 16.5006 14.4747 16.576 14.7811L17.2575 17.5562L15.3579 19.6906C15.148 19.9264 15.0913 20.2545 15.2098 20.5471C15.3283 20.8396 15.5975 21.0357 15.9123 21.0588L18.7622 21.2682L20.2054 23.7348C20.3546 23.9898 20.6224 24.142 20.9142 24.142C20.934 24.142 20.954 24.1413 20.974 24.14C21.2887 24.1175 21.5584 23.9223 21.6777 23.63L22.7575 20.9842L25.5496 20.3738C25.8577 20.3062 26.0963 20.0739 26.1722 19.7677C26.248 19.4615 26.1455 19.1449 25.9045 18.9411L23.722 17.0967L24.0043 14.253ZM24.1085 19.256L22.1624 19.6815C21.8976 19.7394 21.6785 19.9238 21.5762 20.1745L20.8234 22.019L19.817 20.299C19.6802 20.0657 19.4375 19.9145 19.1672 19.8944L17.1804 19.7484L18.505 18.26C18.6849 18.0576 18.7537 17.7799 18.6892 17.5168L18.2141 15.5822L20.0382 16.3816C20.2863 16.4906 20.5719 16.4704 20.8027 16.3275L22.496 15.2778L22.2993 17.2601C22.2725 17.5297 22.38 17.7951 22.587 17.9702L24.1085 19.256Z" fill="#333333"/>
<path d="M46.1196 36.2664L43.7866 34.2057C43.1916 33.6802 42.2848 33.6693 41.6772 34.1801L41.5725 34.2682C41.4694 33.8965 41.281 33.5448 41.0045 33.247C40.6667 32.8832 40.2378 32.6343 39.7653 32.5223C40.0378 31.6853 39.8617 30.7286 39.2217 30.0391C38.7664 29.5487 38.1475 29.265 37.4788 29.2403C37.4587 29.2396 37.4387 29.2399 37.4187 29.2396C37.4493 28.5905 37.2301 27.9301 36.7543 27.4174C36.3046 26.933 35.6952 26.6508 35.0359 26.62C35.0953 25.939 34.8784 25.2365 34.3779 24.6973C33.9226 24.2069 33.3037 23.9232 32.6351 23.8986C31.9663 23.8733 31.3282 24.111 30.838 24.5663L30.5057 24.875C30.0231 24.5266 29.4457 24.3288 28.8325 24.3086C28.7552 24.306 28.6784 24.3071 28.6019 24.3101L28.8509 23.4792C29.2975 21.989 29.5753 19.2874 29.5671 19.4323C29.5912 19.4439 29.6148 19.456 29.6395 19.467C29.982 19.6198 30.3511 19.6957 30.7187 19.6957C31.1401 19.6957 31.5596 19.5959 31.9344 19.3974C32.7147 18.9844 33.2684 18.1209 33.3125 17.2488C33.3544 16.4188 32.9636 15.686 32.2121 15.1851C31.8903 14.9708 31.4558 15.0577 31.2415 15.3793C31.0272 15.701 31.1142 16.1355 31.4358 16.3499C31.77 16.5726 31.9311 16.8512 31.9145 17.1781C31.8951 17.5627 31.628 17.9757 31.2794 18.1602C30.9598 18.3295 30.55 18.3403 30.2097 18.1884C29.9923 18.0916 29.7106 17.8854 29.6028 17.4539C29.2817 16.1687 30.018 14.893 30.8705 13.4161C32.4147 10.7407 34.3363 7.4114 30.3137 2.65678L28.6478 0.687651C28.3123 0.290995 27.8424 0.0492138 27.3247 0.00665126C26.807 -0.0359112 26.3039 0.125901 25.9081 0.462464C24.8348 1.37512 24.2768 2.75709 24.4153 4.15912L24.4985 5.00025C24.5412 5.43159 24.375 5.85534 24.0553 6.1454L24.9573 7.2179C25.6303 6.63009 25.9796 5.75334 25.8914 4.86253L25.8083 4.0214C25.7148 3.07603 26.091 2.14425 26.8148 1.52887C26.9251 1.43503 27.065 1.38965 27.2099 1.40175C27.3543 1.41356 27.4854 1.48106 27.579 1.59168L29.245 3.56081C32.6318 7.56403 31.1873 10.0668 29.658 12.7162C29.4188 13.1307 29.1777 13.549 28.9595 13.9732C28.3812 11.9857 27.4132 10.1378 26.0748 8.54662L22.8714 4.73784L22.8894 4.72275C23.1464 4.50656 23.3039 4.20328 23.3328 3.86868C23.3617 3.534 23.2586 3.20821 23.0424 2.95125L22.0188 1.73428C21.8026 1.47721 21.4993 1.31971 21.1648 1.29084C20.8302 1.26206 20.5044 1.365 20.2472 1.58118L4.07197 15.1855C3.54144 15.6317 3.47281 16.4263 3.91897 16.957L4.94253 18.174C5.15872 18.4311 5.462 18.5886 5.79669 18.6174C5.83362 18.6206 5.87037 18.6222 5.90694 18.6222C6.20234 18.6222 6.48547 18.5194 6.71403 18.327L6.73212 18.3117L7.93522 19.7422C7.59641 20.0032 7.15484 20.0931 6.74047 19.9795L5.9255 19.7558C4.56706 19.3829 3.11066 19.7 2.03009 20.6042C1.63175 20.9377 1.38734 21.4061 1.34206 21.9237C1.29669 22.4412 1.45587 22.945 1.79028 23.3426L3.4505 25.3165C7.45916 30.0829 11.0649 28.7499 13.9621 27.6787C15.2697 27.1954 16.4314 26.766 17.4745 26.9166C17.6681 26.971 17.8629 27.0225 18.0592 27.0699C18.0915 27.0826 18.1238 27.0956 18.1559 27.1097C18.5631 27.2886 18.7188 27.601 18.7778 27.8316C18.87 28.1925 18.7903 28.5947 18.5696 28.8813C18.329 29.1937 17.8768 29.387 17.4944 29.3417C17.1694 29.3029 16.9219 29.0972 16.7587 28.7302C16.6017 28.3771 16.1881 28.2183 15.8347 28.3752C15.4815 28.5322 15.3225 28.9459 15.4796 29.2991C15.8466 30.1243 16.5032 30.6331 17.3283 30.7316C17.4194 30.7425 17.5112 30.7478 17.6034 30.7478C18.3892 30.7477 19.1965 30.3613 19.6784 29.7353C20.1629 29.1063 20.3332 28.265 20.1338 27.485C20.1292 27.4672 20.1237 27.4498 20.1187 27.4322C20.7553 27.5039 21.401 27.5416 22.0538 27.5416C22.753 27.5416 23.4602 27.4998 24.171 27.4149L24.233 27.4075C23.9142 27.7878 23.6661 28.2248 23.5057 28.6932L20.7544 35.4607L6.0785 46.7452C5.84094 46.9279 5.74597 47.2417 5.84253 47.5253C5.939 47.8091 6.20544 48 6.50516 48H23.1338C23.3226 48 23.5034 47.9237 23.6352 47.7885L24.5613 46.8376C24.831 46.5607 24.8252 46.1175 24.5483 45.8478C24.2713 45.5782 23.8282 45.5839 23.5586 45.8608L22.8385 46.6002H8.56372L21.7583 36.4549C21.768 36.4474 21.7768 36.4392 21.7859 36.4313C21.7922 36.426 21.7987 36.4208 21.8048 36.4152C21.8271 36.3948 21.8478 36.3732 21.8669 36.3505C21.8707 36.346 21.8742 36.3412 21.8778 36.3366C21.8953 36.3148 21.9112 36.2922 21.9257 36.2688C21.9284 36.2644 21.9314 36.2602 21.9341 36.2557C21.9506 36.2277 21.9648 36.1989 21.9772 36.1693C21.978 36.1673 21.9792 36.1656 21.98 36.1636L24.8105 29.2013C24.8159 29.1879 24.821 29.1743 24.8256 29.1607C24.963 28.7515 25.2031 28.3778 25.5198 28.0797L27.5301 26.1877C27.8753 25.8627 28.3204 25.6921 28.7863 25.7077C29.226 25.7222 29.6303 25.9042 29.9245 26.2202C29.9245 26.2202 29.9244 26.2201 29.9245 26.2202L32.8084 29.3177C32.8085 29.3178 32.8084 29.3177 32.8085 29.3178C32.8086 29.3179 32.8083 29.3176 32.8084 29.3177L32.8085 29.3178C32.8087 29.318 32.8082 29.3175 32.8084 29.3177C32.8086 29.3179 32.8082 29.3175 32.8084 29.3177C32.9552 29.4754 33.0315 29.6837 33.0236 29.9042C33.015 30.141 32.9123 30.3625 32.7344 30.5278L32.3292 30.9044C32.0488 31.1648 31.6503 31.2141 31.3409 31.0564C31.3329 31.052 31.3244 31.0483 31.3161 31.0442C31.2443 31.0043 31.1777 30.953 31.1191 30.8901L30.0985 29.7921C29.7337 29.3997 29.2353 29.1737 28.6952 29.1557C28.1418 29.1376 27.6116 29.3382 27.2041 29.7217C27.1662 29.7575 27.1326 29.7969 27.1039 29.8394C27.0322 29.9455 26.9907 30.0698 26.9847 30.1987C26.9834 30.2245 26.9837 30.2505 26.9854 30.2766C26.9855 30.2775 26.9855 30.2784 26.9855 30.2794C26.9889 30.3325 26.9912 30.3851 26.9926 30.4374C26.9934 30.4669 26.9933 30.496 26.9935 30.5253C26.9937 30.5478 26.994 30.5704 26.9938 30.5927C26.9934 30.63 26.9921 30.6669 26.9907 30.7038C26.9902 30.7172 26.9898 30.7306 26.9892 30.744C26.9871 30.7856 26.9842 30.827 26.9808 30.8679C26.9803 30.8733 26.98 30.8787 26.9795 30.8841C26.9775 30.9016 26.9759 30.9191 26.9753 30.9367C26.9099 31.5847 26.6758 32.1647 26.2665 32.6958C26.0306 33.002 26.0876 33.4415 26.3938 33.6773C26.6998 33.9132 27.1394 33.8562 27.3753 33.55C27.6178 33.2354 27.8166 32.904 27.9728 32.5573L33.9258 40.6994L33.7838 40.8188C33.6949 40.8493 33.6106 40.8979 33.5371 40.9656C33.0424 41.4207 32.4369 41.7275 31.7841 41.8542L27.4012 42.1692C27.2302 42.1815 27.0696 42.2561 26.95 42.3789L25.8311 43.5277C25.5613 43.8047 25.5672 44.2478 25.8441 44.5176C25.9801 44.65 26.1563 44.716 26.3323 44.716C26.5145 44.716 26.6966 44.6453 26.8337 44.5045L27.7669 43.5463L31.9244 43.2476C31.9324 43.2471 31.9402 43.2455 31.9481 43.2446C31.9662 43.4953 32.0412 43.7438 32.1792 43.9683L33.8095 46.6198C34.0559 47.0207 34.4637 47.2936 34.9281 47.3686C35.0142 47.3826 35.1004 47.3894 35.1862 47.3894C35.5638 47.3894 35.9323 47.257 36.2257 47.0102L46.0899 38.7141C46.45 38.4113 46.6597 37.9677 46.6655 37.4972C46.6712 37.0265 46.4723 36.5781 46.1196 36.2664ZM13.4768 26.3659C10.6072 27.4267 7.89688 28.4287 4.52187 24.4157L2.86166 22.4418C2.76847 22.3309 2.72403 22.1903 2.73669 22.046C2.74934 21.9016 2.8175 21.7708 2.92869 21.6779C3.65722 21.0682 4.63925 20.8545 5.55519 21.1058L6.37016 21.3295C7.22853 21.5649 8.14606 21.3722 8.83756 20.8151L9.93556 22.1207C11.2771 23.7158 12.9363 24.9886 14.8007 25.8995C14.3569 26.0407 13.915 26.2039 13.4768 26.3659ZM27.5099 23.0774L26.9815 24.8409C26.8375 24.9379 26.6998 25.0467 26.5707 25.1682L25.901 25.7985L24.0052 26.025C18.909 26.6339 14.0495 24.8374 11.0068 21.2197L7.8035 17.4109L9.05403 16.3591C9.34991 16.1103 9.38797 15.6687 9.13916 15.3729C8.89044 15.0771 8.44878 15.0387 8.153 15.2877L6.36706 16.7897C6.36697 16.7898 6.36688 16.7899 6.36678 16.7899C6.36669 16.79 6.36659 16.7901 6.3665 16.7902L5.92212 17.1639L5.08194 16.165L21.0394 2.74415L21.8796 3.74315L21.4359 4.11637C21.4356 4.11665 21.4352 4.11684 21.4349 4.11703C21.4347 4.11721 21.4344 4.11759 21.4341 4.11778L10.6773 13.1647C10.3815 13.4136 10.3434 13.855 10.5922 14.1508C10.8409 14.4467 11.2824 14.4846 11.5783 14.236L21.8003 5.63878L25.0036 9.44756C28.0464 13.0655 28.9833 18.1608 27.5099 23.0774ZM39.2286 33.8557C39.5163 33.8663 39.7828 33.9884 39.9786 34.1994C40.3125 34.5592 40.3583 35.0984 40.0988 35.5076L37.0492 38.0725C36.7207 38.1001 36.4017 37.979 36.1736 37.7332C35.7694 37.2979 35.7947 36.6148 36.2298 36.2105L36.6717 35.7999C36.7524 35.7411 36.8305 35.6776 36.9048 35.6086L38.6116 34.023C38.7943 33.9068 39.007 33.8484 39.2286 33.8557ZM36.7169 30.8643C36.909 30.7175 37.1415 30.6383 37.3852 30.6383C37.3991 30.6383 37.413 30.6386 37.427 30.6391C37.7219 30.6501 37.9949 30.7751 38.1958 30.9914C38.61 31.4376 38.5842 32.1378 38.1381 32.5522L37.735 32.9267C37.6544 32.9854 37.5766 33.0485 37.5025 33.1174L35.7936 34.7049C35.6059 34.8252 35.3867 34.8864 35.1595 34.8775C34.8645 34.8666 34.5915 34.7415 34.3907 34.5252C34.0036 34.1082 34.0011 33.4696 34.3665 33.0496C34.3903 33.0291 34.4142 33.0083 34.4373 32.9869L36.6233 30.9561C36.6555 30.9261 36.6867 30.8955 36.7169 30.8643ZM33.0072 27.4772L31.5018 25.8603L31.7907 25.5919C32.0068 25.3911 32.2883 25.2884 32.5832 25.2973C32.8782 25.3083 33.1512 25.4333 33.352 25.6496C33.7663 26.0958 33.7403 26.796 33.2942 27.2105L33.0072 27.4772ZM33.2818 31.93L33.6871 31.5533C34.1391 31.1335 34.4002 30.5658 34.4223 29.955C34.4415 29.4246 34.2765 28.9178 33.9555 28.5082L34.1669 28.3118C34.3831 28.111 34.664 28.0058 34.9595 28.0173C35.2543 28.0282 35.5273 28.1533 35.7282 28.3696C36.1154 28.7868 36.1178 29.4257 35.7521 29.8458C35.7283 29.8662 35.7047 29.8867 35.6817 29.908L33.4957 31.9388C33.4633 31.9689 33.432 31.9997 33.4017 32.031C33.2372 32.1568 33.0428 32.232 32.8376 32.2508C32.9943 32.1631 33.1442 32.0578 33.2818 31.93ZM28.3894 30.7555C28.3915 30.7027 28.3933 30.6501 28.3938 30.5968C28.414 30.5892 28.4346 30.5827 28.4554 30.577C28.5179 30.5602 28.5829 30.5527 28.6485 30.555C28.8133 30.5604 28.9641 30.6282 29.0732 30.7455L30.0939 31.8434C30.1983 31.9557 30.312 32.0546 30.4327 32.1401C30.5451 32.4041 30.7006 32.6441 30.8973 32.856C31.3526 33.3464 31.9715 33.6301 32.6402 33.6548C32.6604 33.6555 32.6803 33.6557 32.7004 33.656C32.6698 34.3049 32.889 34.9652 33.3648 35.4777C33.7059 35.8451 34.1388 36.0965 34.6157 36.2099C34.3371 37.0424 34.5095 37.9984 35.1476 38.6857C35.3257 38.8775 35.5312 39.0369 35.7548 39.1612L34.9994 39.7964L28.3894 30.7555ZM45.1888 37.6426L35.3247 45.9387C35.2588 45.9942 35.1876 45.9924 35.1513 45.9866C35.1148 45.9807 35.047 45.9599 35.0019 45.8866L33.3716 43.235C33.3151 43.1432 33.334 43.0262 33.4165 42.9568L42.578 35.2515C42.5784 35.2512 42.578 35.2515 42.5784 35.2512L42.578 35.2515C42.6178 35.2179 42.6674 35.2012 42.7169 35.2012C42.7682 35.2012 42.8194 35.2192 42.8598 35.2549L45.1928 37.3156C45.2573 37.3726 45.2662 37.4431 45.2657 37.4801C45.2654 37.517 45.2548 37.5873 45.1888 37.6426Z" fill="#333333"/>
</g>
<defs>
<clipPath id="clip0_312_15771">
<rect width="48" height="48" fill="white"/>
</clipPath>
</defs>
</svg>
