<svg width="48" height="48" viewBox="0 0 48 48" fill="none" xmlns="http://www.w3.org/2000/svg">
<g clip-path="url(#clip0_312_14942)">
<path d="M24.0019 33.8403C23.5674 33.8403 23.2152 33.4881 23.2152 33.0536V22.8272C23.2152 22.3928 23.5674 22.0405 24.0019 22.0405C24.4363 22.0405 24.7885 22.3928 24.7885 22.8272V33.0536C24.7885 33.4881 24.4363 33.8403 24.0019 33.8403Z" fill="#7D8F9F"/>
<path d="M42.8814 33.8403C42.447 33.8403 42.0948 33.4881 42.0948 33.0536V28.3337H5.90887V33.0536C5.90887 33.4881 5.55665 33.8403 5.12222 33.8403C4.68779 33.8403 4.33557 33.4881 4.33557 33.0536V26.7604H43.6681V33.0536C43.6681 33.4881 43.3159 33.8403 42.8814 33.8403Z" fill="#7D8F9F"/>
<path d="M24.0019 22.8272C30.0842 22.8272 35.015 17.8965 35.015 11.8141C35.015 5.73173 30.0842 0.800995 24.0019 0.800995C17.9195 0.800995 12.9888 5.73173 12.9888 11.8141C12.9888 17.8965 17.9195 22.8272 24.0019 22.8272Z" fill="#FFC10D"/>
<path d="M20.0686 18.1073H27.9351V15.7473C27.9353 14.7042 27.521 13.7035 26.7834 12.9658C25.2474 11.4297 22.7571 11.4297 21.221 12.9658C20.4832 13.7034 20.0686 14.704 20.0686 15.7473V18.1073Z" fill="#D73927"/>
<path d="M24.0019 15.7474C23.5674 15.7474 23.2152 15.3951 23.2152 14.9607V11.8141C23.2152 11.3797 23.5674 11.0275 24.0019 11.0275C24.4363 11.0275 24.7885 11.3797 24.7885 11.8141V14.9607C24.7885 15.3951 24.4363 15.7474 24.0019 15.7474Z" fill="#88D0EF"/>
<path d="M1.18909 47.2133H9.05558V44.8534C9.05578 43.8102 8.64151 42.8096 7.90393 42.0718C6.3679 40.5358 3.87756 40.5358 2.34153 42.0718C1.60365 42.8095 1.18909 43.81 1.18909 44.8534V47.2133Z" fill="#D73927"/>
<path d="M5.12234 40.9201C7.29461 40.9201 9.05558 39.1592 9.05558 36.9869C9.05558 34.8146 7.29461 33.0537 5.12234 33.0537C2.95006 33.0537 1.18909 34.8146 1.18909 36.9869C1.18909 39.1592 2.95006 40.9201 5.12234 40.9201Z" fill="#D73927"/>
<path d="M20.0687 47.2133H27.9352V44.8534C27.9354 43.8102 27.5211 42.8096 26.7836 42.0718C25.2475 40.5358 22.7572 40.5358 21.2212 42.0718C20.4833 42.8095 20.0687 43.81 20.0687 44.8534V47.2133Z" fill="#D73927"/>
<path d="M24.002 40.9201C26.1742 40.9201 27.9352 39.1592 27.9352 36.9869C27.9352 34.8146 26.1742 33.0537 24.002 33.0537C21.8297 33.0537 20.0687 34.8146 20.0687 36.9869C20.0687 39.1592 21.8297 40.9201 24.002 40.9201Z" fill="#D73927"/>
<path d="M38.9482 47.2133H46.8147V44.8534C46.8149 43.8102 46.4007 42.8096 45.6631 42.0718C44.127 40.5358 41.6367 40.5358 40.1007 42.0718C39.3628 42.8095 38.9482 43.81 38.9482 44.8534V47.2133Z" fill="#D73927"/>
<path d="M42.8815 40.9201C45.0538 40.9201 46.8147 39.1592 46.8147 36.9869C46.8147 34.8146 45.0538 33.0537 42.8815 33.0537C40.7092 33.0537 38.9482 34.8146 38.9482 36.9869C38.9482 39.1592 40.7092 40.9201 42.8815 40.9201Z" fill="#D73927"/>
<path d="M24.002 11.8141C26.1742 11.8141 27.9352 10.0531 27.9352 7.88085C27.9352 5.70858 26.1742 3.9476 24.002 3.9476C21.8297 3.9476 20.0687 5.70858 20.0687 7.88085C20.0687 10.0531 21.8297 11.8141 24.002 11.8141Z" fill="#D73927"/>
<path d="M28.7218 7.88085C28.7226 5.27409 26.61 3.16036 24.0033 3.15958C21.3965 3.15879 19.2828 5.27134 19.282 7.8781C19.2815 9.46143 20.075 10.9395 21.3949 11.8141C21.1322 11.9891 20.8874 12.1896 20.6641 12.4127C19.7768 13.2953 19.2791 14.4959 19.282 15.7473V18.1073C19.282 18.5417 19.6342 18.8939 20.0686 18.8939H27.9351C28.3696 18.8939 28.7218 18.5417 28.7218 18.1073V15.7473C28.7253 14.4951 28.2276 13.2934 27.3396 12.4104C27.1164 12.1879 26.8716 11.9881 26.6088 11.8141C27.928 10.94 28.7213 9.4632 28.7218 7.88085ZM27.1485 15.7473V17.3206H20.8553V15.7473C20.8531 14.9126 21.1848 14.1116 21.7765 13.5227C22.1747 13.1333 22.6725 12.8611 23.2152 12.7361V14.9607C23.2152 15.3951 23.5675 15.7473 24.0019 15.7473C24.4363 15.7473 24.7885 15.3951 24.7885 14.9607V12.7376C25.3313 12.8626 25.8292 13.1348 26.2273 13.5243C26.8186 14.1128 27.1502 14.9131 27.1485 15.7473ZM24.0019 11.0275C22.2641 11.0275 20.8553 9.61866 20.8553 7.88085C20.8553 6.14304 22.2641 4.73425 24.0019 4.73425C25.7397 4.73425 27.1485 6.14304 27.1485 7.88085C27.1485 9.61866 25.7397 11.0275 24.0019 11.0275Z" fill="black"/>
<path d="M47.6014 36.9869C47.5972 34.6862 45.9362 32.7232 43.6681 32.3378V27.5471C43.6681 27.1127 43.3159 26.7604 42.8815 26.7604H24.7885V23.5737C31.2909 23.1393 36.2098 17.5159 35.7754 11.0136C35.3409 4.51123 29.7176 -0.407786 23.2152 0.0267396C16.7129 0.461265 11.794 6.08453 12.2284 12.5869C12.6224 18.4838 17.3183 23.1797 23.2152 23.5737V26.7604H5.12228C4.68785 26.7604 4.33563 27.1127 4.33563 27.5471V32.3378C1.768 32.767 0.0345216 35.1965 0.463836 37.7641C0.679673 39.0554 1.42286 40.1987 2.51532 40.9201C2.25258 41.0952 2.00783 41.2957 1.78452 41.5188C0.897182 42.4013 0.399527 43.6019 0.402379 44.8534V47.2133C0.402379 47.6478 0.754601 48 1.18903 48H9.05553C9.48996 48 9.84218 47.6478 9.84218 47.2133V44.8534C9.84572 43.6012 9.34797 42.3994 8.46004 41.5164C8.23682 41.2939 7.99198 41.0942 7.72924 40.9201C9.90157 39.4855 10.4995 36.5616 9.06497 34.3893C8.34351 33.2968 7.20021 32.5536 5.90893 32.3378V28.3337H23.2152V32.3378C20.6476 32.7671 18.9141 35.1966 19.3434 37.7641C19.5593 39.0554 20.3025 40.1987 21.3949 40.9201C21.1322 41.0952 20.8874 41.2957 20.6641 41.5188C19.7768 42.4013 19.2791 43.6019 19.282 44.8534V47.2133C19.282 47.6478 19.6342 48 20.0686 48H27.9351C28.3696 48 28.7218 47.6478 28.7218 47.2133V44.8534C28.7253 43.6012 28.2276 42.3994 27.3396 41.5164C27.1164 41.2939 26.8716 41.0942 26.6088 40.9201C28.7812 39.4855 29.3791 36.5616 27.9446 34.3893C27.2231 33.2968 26.0798 32.5536 24.7885 32.3378V28.3337H42.0948V32.3378C39.5272 32.7671 37.7937 35.1966 38.223 37.7641C38.4389 39.0554 39.1821 40.1987 40.2745 40.9201C40.0118 41.0952 39.767 41.2957 39.5437 41.5188C38.6564 42.4013 38.1587 43.6019 38.1616 44.8534V47.2133C38.1616 47.6478 38.5138 48 38.9482 48H46.8147C47.2492 48 47.6014 47.6478 47.6014 47.2133V44.8534C47.6049 43.6012 47.1072 42.3994 46.2192 41.5164C45.996 41.2939 45.7512 41.0942 45.4884 40.9201C46.8076 40.0461 47.6009 38.5692 47.6014 36.9869ZM8.26888 44.8534V46.4267H1.97568V44.8534C1.97352 44.0187 2.30519 43.2177 2.89685 42.6288C4.1428 41.441 6.10176 41.441 7.34771 42.6288C7.93937 43.2177 8.27104 44.0186 8.26888 44.8534ZM8.26888 36.9869C8.26888 38.7247 6.86009 40.1335 5.12228 40.1335C3.38447 40.1335 1.97568 38.7247 1.97568 36.9869C1.97568 35.2491 3.38447 33.8403 5.12228 33.8403C6.86009 33.8403 8.26888 35.2491 8.26888 36.9869ZM27.1485 44.8534V46.4267H20.8553V44.8534C20.8531 44.0187 21.1848 43.2177 21.7764 42.6288C23.0224 41.441 24.9814 41.441 26.2273 42.6288C26.819 43.2177 27.1506 44.0186 27.1485 44.8534ZM27.1485 36.9869C27.1485 38.7247 25.7397 40.1335 24.0019 40.1335C22.2641 40.1335 20.8553 38.7247 20.8553 36.9869C20.8553 35.2491 22.2641 33.8403 24.0019 33.8403C25.7397 33.8403 27.1485 35.2491 27.1485 36.9869ZM24.0019 22.0405C18.3539 22.0405 13.7754 17.462 13.7754 11.8141C13.7754 6.16615 18.3539 1.58765 24.0019 1.58765C29.6498 1.58765 34.2283 6.16615 34.2283 11.8141C34.2218 17.4593 29.6471 22.034 24.0019 22.0405ZM46.0281 44.8534V46.4267H39.7349V44.8534C39.7327 44.0187 40.0644 43.2177 40.656 42.6288C41.902 41.441 43.861 41.441 45.1069 42.6288C45.6986 43.2177 46.0302 44.0186 46.0281 44.8534ZM42.8815 40.1335C41.1437 40.1335 39.7349 38.7247 39.7349 36.9869C39.7349 35.2491 41.1437 33.8403 42.8815 33.8403C44.6193 33.8403 46.0281 35.2491 46.0281 36.9869C46.0281 38.7247 44.6193 40.1335 42.8815 40.1335Z" fill="black"/>
</g>
<defs>
<clipPath id="clip0_312_14942">
<rect width="48" height="48" fill="white"/>
</clipPath>
</defs>
</svg>
