<svg width="48" height="48" viewBox="0 0 48 48" fill="none" xmlns="http://www.w3.org/2000/svg">
<g clip-path="url(#clip0_312_15597)">
<path d="M10.7776 36.2606H9.3948L8.59033 36.8437V47.2969H11.7786V37.2616C11.7786 36.7087 11.3305 36.2606 10.7776 36.2606Z" fill="#D73927"/>
<path d="M20.7968 30.9086H19.2784L18.5121 31.5938V47.2969H21.7976V31.9096C21.7976 31.3568 21.3495 30.9086 20.7968 30.9086Z" fill="#FFC10D"/>
<path d="M30.8161 25.5566H29.2565L28.4966 26.1094V47.2969H31.817V26.5576C31.8169 26.0049 31.3688 25.5566 30.8161 25.5566Z" fill="#FFC10D"/>
<path d="M40.8353 20.2047H39.2014L38.6216 20.7187V47.2969H41.8362V21.2056C41.8363 20.6528 41.3881 20.2047 40.8353 20.2047Z" fill="#FF5595"/>
<path d="M16.0474 0.871674H14.2661L10.1683 3.5577L7.16833 9.7813L8.59024 16.0838L14.4926 19.207L16.0474 19.4124C20.4087 18.5795 23.7051 14.746 23.7051 10.142C23.7052 5.53808 20.4087 1.70464 16.0474 0.871674Z" fill="#D73927"/>
<path d="M8.38977 10.1421C8.38977 5.53809 11.6862 1.70475 16.0475 0.871688C15.4705 0.761531 14.8752 0.703125 14.2662 0.703125C9.05324 0.703125 4.82727 4.92909 4.82727 10.1421C4.82727 15.355 9.05324 19.581 14.2662 19.581C14.8752 19.581 15.4705 19.5226 16.0475 19.4124C11.6863 18.5795 8.38977 14.746 8.38977 10.1421Z" fill="#D73927"/>
<path d="M14.2662 16.7264C17.9027 16.7264 20.8506 13.7785 20.8506 10.1421C20.8506 6.50562 17.9027 3.55771 14.2662 3.55771C10.6298 3.55771 7.68188 6.50562 7.68188 10.1421C7.68188 13.7785 10.6298 16.7264 14.2662 16.7264Z" fill="#DBEDFF"/>
<path d="M11.2444 10.1421C11.2444 7.12311 13.2769 4.58061 16.0475 3.80352C15.4807 3.64452 14.8838 3.55771 14.2662 3.55771C10.6298 3.55771 7.68188 6.50568 7.68188 10.1421C7.68188 13.7786 10.6299 16.7266 14.2662 16.7266C14.8838 16.7266 15.4807 16.6397 16.0475 16.4808C13.2769 15.7035 11.2444 13.161 11.2444 10.1421Z" fill="#B5DCFF"/>
<path d="M9.97231 36.2606H7.16515C6.61231 36.2606 6.16418 36.7087 6.16418 37.2616V47.2969H8.97134V37.2616C8.97134 36.7087 9.41947 36.2606 9.97231 36.2606Z" fill="#D73927"/>
<path d="M19.9916 30.9086H17.1844C16.6317 30.9086 16.1835 31.3568 16.1835 31.9096V47.2969H18.9906V31.9096C18.9906 31.3568 19.4388 30.9086 19.9916 30.9086Z" fill="#98D829"/>
<path d="M30.0108 25.5566H27.2036C26.6508 25.5566 26.2026 26.0048 26.2026 26.5576V47.2969H29.0098V26.5576C29.0099 26.0049 29.458 25.5566 30.0108 25.5566Z" fill="#FFA90F"/>
<path d="M40.03 20.2047H37.2229C36.67 20.2047 36.2219 20.6528 36.2219 21.2057V47.2969H39.0291V21.2056C39.0291 20.6528 39.4772 20.2047 40.03 20.2047Z" fill="#666666"/>
<path d="M32.3247 13.9531L34.1216 17.1972H34.4571L35.9978 14.2616C36.2135 13.8508 35.9199 13.3569 35.456 13.35L32.6567 13.3082L32.3247 13.9531Z" fill="#FF5595"/>
<path d="M32.6863 14.218C32.4771 13.8662 32.6611 13.4373 33.014 13.3136L30.6056 13.2776C30.1189 13.2703 29.8125 13.7995 30.0613 14.218L32.6573 18.5857C32.906 19.0042 33.5173 18.9879 33.7435 18.5569L34.457 17.1972L32.6863 14.218Z" fill="#666666"/>
<path d="M8.68882 29.8764C8.88729 30.2105 9.31891 30.3199 9.65247 30.1216L31.1138 17.3655L32.0526 18.9448C32.583 19.8377 33.8854 19.7992 34.3658 18.8836L36.62 14.5885C37.0798 13.7128 36.4534 12.6618 35.4662 12.6471L30.6159 12.5747C30.1386 12.569 29.6892 12.8209 29.4488 13.236C29.2086 13.6511 29.2115 14.1651 29.4566 14.5774L30.3954 16.1568L8.93397 28.9127C8.60013 29.1112 8.49035 29.5426 8.68882 29.8764ZM35.3139 14.0511L33.1877 18.1023L30.7391 13.9828L35.3139 14.0511Z" fill="#1B0705"/>
<path d="M4.82703 48H43.1729C43.5613 48 43.876 47.6852 43.876 47.2969C43.876 46.9086 43.5613 46.5938 43.1729 46.5938H42.539V36.2606C42.539 35.8723 42.2243 35.5575 41.8359 35.5575C41.4475 35.5575 41.1327 35.8723 41.1327 36.2606V46.5938H36.9248V21.2056C36.9248 21.0414 37.0584 20.9077 37.2225 20.9077H40.8349C40.9991 20.9077 41.1327 21.0413 41.1327 21.2056V32.9794C41.1327 33.3677 41.4475 33.6825 41.8359 33.6825C42.2243 33.6825 42.539 33.3677 42.539 32.9794V21.2056C42.539 20.2659 41.7746 19.5015 40.8349 19.5015H37.2225C36.283 19.5015 35.5185 20.2659 35.5185 21.2056V46.5938H32.5197V26.5576C32.5197 25.618 31.7553 24.8535 30.8156 24.8535H27.2035C26.2639 24.8535 25.4994 25.6179 25.4994 26.5576V46.5938H22.5007V31.9096C22.5007 30.97 21.7362 30.2055 20.7966 30.2055H17.1842C16.2446 30.2055 15.4801 30.9699 15.4801 31.9096V46.5938H12.4814V37.2616C12.4814 36.322 11.717 35.5575 10.7773 35.5575H7.16506C6.2255 35.5575 5.46096 36.3219 5.46096 37.2616V46.5938H4.82703C4.43862 46.5938 4.1239 46.9086 4.1239 47.2969C4.1239 47.6852 4.43871 48 4.82703 48ZM26.9056 26.5576C26.9056 26.3934 27.0392 26.2597 27.2035 26.2597H30.8157C30.98 26.2597 31.1136 26.3933 31.1136 26.5576V46.5938H26.9056V26.5576ZM16.8864 31.9096C16.8864 31.7454 17.02 31.6117 17.1842 31.6117H20.7966C20.9608 31.6117 21.0944 31.7453 21.0944 31.9096V46.5938H16.8864V31.9096ZM6.86721 37.2616C6.86721 37.0974 7.00081 36.9638 7.16506 36.9638H10.7773C10.9416 36.9638 11.0752 37.0973 11.0752 37.2616V46.5938H6.86721V37.2616Z" fill="#1B0705"/>
<path d="M21.5535 10.1421C21.5535 6.12374 18.2843 2.85458 14.266 2.85458C10.2477 2.85458 6.97852 6.12374 6.97852 10.1421C6.97852 14.1604 10.2477 17.4295 14.266 17.4295C18.2843 17.4295 21.5535 14.1604 21.5535 10.1421ZM14.9691 15.9798V15.7556C14.9691 15.3673 14.6544 15.0525 14.266 15.0525C13.8776 15.0525 13.5629 15.3673 13.5629 15.7556V15.9798C10.8811 15.6587 8.74936 13.5269 8.42817 10.8452H8.65242C9.04083 10.8452 9.35555 10.5304 9.35555 10.1421C9.35555 9.75374 9.04083 9.43893 8.65242 9.43893H8.42817C8.74936 6.75721 10.881 4.62543 13.5629 4.30433V4.52849C13.5629 4.9168 13.8776 5.23161 14.266 5.23161C14.6544 5.23161 14.9691 4.9168 14.9691 4.52849V4.30433C17.6508 4.62543 19.7826 6.75721 20.1038 9.43893H19.8796C19.4912 9.43893 19.1765 9.75374 19.1765 10.1421C19.1765 10.5304 19.4912 10.8452 19.8796 10.8452H20.1038C19.7826 13.5269 17.6508 15.6587 14.9691 15.9798Z" fill="#1B0705"/>
<path d="M16.7846 9.43894H14.9691V6.90985C14.9691 6.52154 14.6544 6.20673 14.266 6.20673C13.8776 6.20673 13.5629 6.52154 13.5629 6.90985V10.1422C13.5629 10.5305 13.8776 10.8453 14.266 10.8453H16.7846C17.173 10.8453 17.4877 10.5305 17.4877 10.1422C17.4877 9.75385 17.173 9.43894 16.7846 9.43894Z" fill="#1B0705"/>
<path d="M12.504 20.1311C12.8869 20.1988 13.251 19.9424 13.3181 19.56C13.3851 19.1775 13.1293 18.8131 12.7468 18.7461C8.56521 18.0131 5.53015 14.3947 5.53015 10.1421C5.53015 5.32509 9.44909 1.40625 14.2661 1.40625C19.083 1.40625 23.0019 5.32509 23.0019 10.1421C23.0019 14.3947 19.9669 18.0131 15.7853 18.7461C15.4028 18.8131 15.147 19.1775 15.2141 19.56C15.274 19.9014 15.5708 20.1419 15.9058 20.1419C15.9461 20.1419 15.987 20.1384 16.0281 20.1312C20.8838 19.2802 24.4081 15.0791 24.4081 10.1422C24.4081 4.54969 19.8583 0 14.2661 0C8.67368 0 4.1239 4.54969 4.1239 10.1421C4.1239 15.0791 7.64824 19.2802 12.504 20.1311Z" fill="#1B0705"/>
</g>
<defs>
<clipPath id="clip0_312_15597">
<rect width="48" height="48" fill="white"/>
</clipPath>
</defs>
</svg>
