<svg width="48" height="48" viewBox="0 0 48 48" fill="none" xmlns="http://www.w3.org/2000/svg">
<path d="M36.0435 6.72467L32.7585 3.43964L30.4646 4.93246C29.3721 4.26109 28.17 3.75567 26.8878 3.44909L26.3226 0.774193H21.6775L21.1116 3.44909C19.8293 3.75567 18.6272 4.26109 17.5347 4.93246L15.2408 3.43964L11.9558 6.72467L13.1451 9.56137L13.2581 15.4839H14.7097C14.7097 10.3533 18.8695 6.19355 24 6.19355C29.1306 6.19355 33.2904 10.3533 33.2904 15.4839H34.8387L34.8327 9.56137L36.0435 6.72467Z" fill="#FCD770"/>
<path d="M12.4049 7.79448L13.1458 9.56137L13.1613 15.4839H14.7097C14.7097 13.4887 15.3444 11.6447 16.4154 10.131C15.4336 8.88168 14.0145 8.0092 12.4049 7.79448Z" fill="#FFC729"/>
<path d="M35.5849 7.80015C33.956 8.01222 32.5286 8.86051 31.5507 10.0838C32.6409 11.6069 33.2903 13.4679 33.2903 15.4839H34.8387L34.8327 9.56136L35.5849 7.80015Z" fill="#FFC729"/>
<path d="M44.9032 28.6451V24.8694C44.9032 23.4488 43.9363 22.21 42.5576 21.8649L38.7097 20.9032L38.7082 19.5034C40.0963 18.6997 41.0323 17.2027 41.0323 15.4839V14.1305C41.0323 11.5872 39.0718 9.36933 36.5304 9.29259C33.8997 9.21359 31.7419 11.3226 31.7419 13.9355V15.4839C31.7419 17.2027 32.6772 18.699 34.0645 19.5026V20.9032L30.2166 21.8657C28.838 22.21 27.871 23.4488 27.871 24.8694V28.6451H44.9032Z" fill="#CCD1D9"/>
<path d="M34.0645 24.8695C34.0645 23.4579 33.4241 22.1806 32.3986 21.3198L30.2166 21.8657C28.838 22.2101 27.871 23.4488 27.871 24.8695V28.6452H34.0645V24.8695Z" fill="#AAB2BD"/>
<path d="M20.1291 28.6451V24.8694C20.1291 23.4488 19.1621 22.21 17.7834 21.8649L13.9355 20.9032L13.934 19.5034C15.3221 18.6997 16.2581 17.2027 16.2581 15.4839V14.1305C16.2581 11.5872 14.2977 9.36933 11.7562 9.29259C9.12553 9.21359 6.96777 11.3226 6.96777 13.9355V15.4839C6.96777 17.2027 7.903 18.699 9.29035 19.5026V20.9032L5.44244 21.8657C4.06379 22.21 3.0968 23.4488 3.0968 24.8694V28.6451H20.1291Z" fill="#CCD1D9"/>
<path d="M20.129 24.8694C20.129 23.4481 19.162 22.2101 17.7833 21.8649L15.6014 21.3191C14.5758 22.1806 13.9354 23.4587 13.9354 24.8694V28.6451H20.129V24.8694Z" fill="#AAB2BD"/>
<path d="M32.5162 28.6451V24.8694C32.5162 23.4488 31.5492 22.21 30.1705 21.8649L26.3226 20.9032L26.3211 19.5034C27.7092 18.6997 28.6452 17.2027 28.6452 15.4839V14.1305C28.6452 11.5872 26.6848 9.36933 24.1433 9.29259C21.5126 9.21359 19.3549 11.3226 19.3549 13.9355V15.4839C19.3549 17.2027 20.2901 18.699 21.6774 19.5026V20.9032L17.8295 21.8657C16.4509 22.21 15.4839 23.4488 15.4839 24.8694V28.6451H32.5162Z" fill="#CCD1D9"/>
<path d="M44.9032 24.8695C44.9032 23.4481 43.9362 22.2101 42.5576 21.8649L41.7044 21.6517L31.3594 27.0968H31.1844L27.871 26.1506V28.6452H44.9032V24.8695Z" fill="#AAB2BD"/>
<path d="M32.5161 26.4881L31.3594 27.0968H31.1844L26.5279 25.7669C26.1203 25.6497 25.7019 25.5934 25.2804 25.5699L21.899 24.4884C20.8855 24.1641 19.8312 24 18.7655 24C18.0155 24 17.2651 24.082 16.5204 24.2476L15.5172 24.4801C15.5001 24.6086 15.4839 24.7371 15.4839 24.8695V28.6451H32.5161V26.4881Z" fill="#AAB2BD"/>
<path d="M16.5204 24.2476L13.1613 25.026V23.8847L8.42165 21.1198L5.44244 21.8649C4.06379 22.2101 3.0968 23.4488 3.0968 24.8694V28.6451H20.1291V24.8694C20.1291 24.5977 20.0833 24.3368 20.0168 24.0835C19.6025 24.0333 19.1851 24 18.7655 24C18.0163 24 17.2651 24.082 16.5204 24.2476Z" fill="#AAB2BD"/>
<path d="M32.7585 37.4569L26.2164 31.5692L24.9716 27.0968L21.4272 25.9635C20.5672 25.6886 19.669 25.5484 18.7655 25.5484C18.1278 25.5484 17.4924 25.6179 16.8697 25.7567L7.74197 27.871L6.96777 34.0645L12.4257 37.4943L22.3549 45.7742L23.5517 46.83C23.8405 47.0848 24.2129 47.2258 24.5985 47.2258H24.741C25.6142 47.2258 26.3226 46.5174 26.3226 45.6441C26.3226 45.175 26.1143 44.7297 25.7537 44.4288C26.1215 44.7354 26.585 44.9032 27.0635 44.9032C27.9368 44.9032 28.6452 44.1948 28.6452 43.3216C28.6452 42.8524 28.4369 42.4071 28.0763 42.1062L25.1095 39.6339L28.2048 42.2136C28.4895 42.4506 28.8482 42.5806 29.2183 42.5806H29.3861C30.2594 42.5806 30.9678 41.8722 30.9678 40.999C30.9678 40.5299 30.7595 40.0845 30.3989 39.7836L30.521 39.8857C30.8098 40.1265 31.1738 40.2581 31.5492 40.2581H31.683C32.571 40.2581 33.2904 39.5387 33.2904 38.6507C33.2904 38.1956 33.0968 37.7612 32.7585 37.4569Z" fill="#ECC19C"/>
<path d="M32.7584 37.4569L26.2163 31.5692C25.7869 31.1821 25.2278 30.9678 24.6486 30.9678C24.2237 30.9678 23.8072 31.0831 23.4431 31.3015L20.5611 33.031C20.2783 33.2004 19.9547 33.2903 19.6251 33.2903C18.6207 33.2903 17.8064 32.4761 17.8064 31.4717V31.3178C17.8064 30.6287 18.1958 29.9993 18.8119 29.6912L23.1312 27.5319C23.7028 27.2453 24.333 27.0968 24.9715 27.0968C25.354 27.0968 25.7351 27.1501 26.1025 27.2556L30.9677 28.6452H31.7419L46.4516 20.9032H47.2258V30.9678L33.2903 37.9355L32.7584 37.4569Z" fill="#F5E0CD"/>
<path d="M23.9999 38.7097L22.9237 39.829L27.2143 43.4044C27.5814 43.7094 28.0142 43.9147 28.4716 44.0277C28.5793 43.8138 28.6451 43.5764 28.6451 43.3216C28.6451 42.8525 28.4368 42.4071 28.0762 42.1062L23.9999 38.7097Z" fill="#DFB28B"/>
<path d="M19.3549 44.8095C19.3549 45.716 20.0905 46.4516 20.997 46.4516C21.4329 46.4516 21.8502 46.2789 22.1583 45.9708L23.5184 44.6106C23.8265 44.3025 23.9993 43.8852 23.9993 43.4493C24 42.5421 23.2644 41.8065 22.3579 41.8065C21.922 41.8065 21.5047 41.9792 21.1966 42.2873L19.8365 43.6474C19.5276 43.9563 19.3549 44.3736 19.3549 44.8095Z" fill="#F5E0CD"/>
<path d="M17.0322 42.4869C17.0322 43.3934 17.7679 44.129 18.6744 44.129C19.1102 44.129 19.5276 43.9563 19.8357 43.6482L21.1958 42.2881C21.5039 41.98 21.6766 41.5626 21.6766 41.1268C21.6774 40.2195 20.9418 39.4839 20.0353 39.4839C19.5994 39.4839 19.182 39.6566 18.874 39.9647L17.5138 41.3249C17.205 41.6337 17.0322 42.051 17.0322 42.4869Z" fill="#F5E0CD"/>
<path d="M14.7097 40.1643C14.7097 41.0708 15.4454 41.8064 16.3519 41.8064C16.7877 41.8064 17.2051 41.6337 17.5131 41.3256L18.8733 39.9655C19.1814 39.6574 19.3541 39.24 19.3541 38.8042C19.3549 37.8969 18.6192 37.1613 17.7127 37.1613C17.2769 37.1613 16.8595 37.334 16.5515 37.6421L15.1913 39.0023C14.8825 39.3111 14.7097 39.7284 14.7097 40.1643Z" fill="#F5E0CD"/>
<path d="M17.6462 38.7369C18.0325 38.3506 18.2979 37.8637 18.4461 37.3416C18.2246 37.2301 17.9777 37.1613 17.7127 37.1613C17.2769 37.1613 16.8595 37.334 16.5514 37.6421L15.1913 39.0023C14.8832 39.3104 14.7097 39.7285 14.7097 40.1643C14.7097 40.4293 14.7785 40.6762 14.89 40.8977C15.4121 40.7495 15.8997 40.4841 16.2853 40.0978L17.6462 38.7369Z" fill="#F0D0B4"/>
<path d="M19.9687 41.0595C20.3551 40.6731 20.6204 40.1862 20.7686 39.6642C20.5471 39.5527 20.3002 39.4839 20.0352 39.4839C19.5994 39.4839 19.182 39.6566 18.874 39.9647L17.5138 41.3249C17.2057 41.6329 17.0322 42.051 17.0322 42.4869C17.0322 42.7519 17.101 42.9987 17.2125 43.2203C17.7346 43.0721 18.2222 42.8067 18.6078 42.4204L19.9687 41.0595Z" fill="#F0D0B4"/>
<path d="M22.2913 43.3821C22.6777 42.9957 22.9431 42.5088 23.0912 41.9868C22.8697 41.8753 22.6229 41.8065 22.3579 41.8065C21.922 41.8065 21.5047 41.9792 21.1966 42.2873L19.8365 43.6474C19.5284 43.9555 19.3549 44.3736 19.3549 44.8095C19.3549 45.0745 19.4237 45.3213 19.5352 45.5429C20.0572 45.3947 20.5449 45.1293 20.9305 44.743L22.2913 43.3821Z" fill="#F0D0B4"/>
<path d="M12.3871 37.8417C12.3871 38.7482 13.1227 39.4839 14.0292 39.4839C14.4651 39.4839 14.8824 39.3111 15.1905 39.003L16.5506 37.6429C16.8587 37.3348 17.0315 36.9175 17.0315 36.4816C17.0322 35.5743 16.2966 34.8387 15.3901 34.8387C14.9542 34.8387 14.5369 35.0115 14.2288 35.3196L12.8687 36.6797C12.5598 36.9885 12.3871 37.4059 12.3871 37.8417Z" fill="#F5E0CD"/>
<path d="M12.9012 26.6757L7.74197 27.871L6.96777 34.0645L10.2086 36.1006L12.9012 26.6757Z" fill="#DFB28B"/>
<path d="M11.6129 25.5484L8.5161 36.3871H7.74191L0.77417 34.0645V19.3548H2.32256L11.6129 24.7742V25.5484Z" fill="#E6E9ED"/>
<path d="M8.56714 22.9975L2.32256 19.3548H0.77417V34.0645L5.41933 35.6129L8.51611 23.2258L8.56714 22.9975Z" fill="#B4DD7F"/>
<path d="M26.3226 36.3871L25.2463 37.5064L29.5369 41.0818C29.904 41.3869 30.3368 41.5921 30.7942 41.7051C30.902 41.4912 30.9677 41.2538 30.9677 40.999C30.9677 40.5299 30.7594 40.0846 30.3988 39.7836L26.3226 36.3871Z" fill="#DFB28B"/>
<path d="M48 20.129H46.2603L43.6675 21.4933C43.3756 21.3323 43.0721 21.1958 42.7447 21.1138L39.4831 20.2976V19.9268C40.926 18.9197 41.8064 17.256 41.8064 15.4839V14.1305C41.8064 11.123 39.4498 8.6061 36.5534 8.5184C36.4064 8.51462 36.2616 8.51991 36.1161 8.52709L36.9617 6.54738L32.862 2.44884L30.4453 4.0218C29.5271 3.50466 28.5559 3.10207 27.5474 2.81968L26.9505 0H21.0503L20.4534 2.82044C19.4448 3.10282 18.4729 3.50542 17.5554 4.02256L15.1387 2.4496L11.0425 6.54587L11.8737 8.52709C11.842 8.52558 11.8117 8.51991 11.78 8.51915C10.2974 8.47606 8.90096 9.01701 7.84022 10.0467C6.77797 11.0757 6.19355 12.4567 6.19355 13.9355V15.4839C6.19355 17.256 7.07321 18.919 8.51613 19.926V20.2976L6.38861 20.8295L2.53238 18.5806H0V34.6229L7.61643 37.1613H9.0998L9.28503 36.5126L11.6197 37.9139C11.6579 39.1833 12.6759 40.2048 13.9442 40.2494C13.9888 41.5123 15.0038 42.5273 16.2668 42.5719C16.3114 43.8349 17.3264 44.8499 18.5893 44.8945C18.6355 46.187 19.6939 47.2258 20.997 47.2258C21.4808 47.2258 21.9553 47.075 22.3541 46.8062L23.0398 47.4118C23.4696 47.7902 24.0231 48 24.5977 48H24.7409C26.0292 48 27.0775 46.9585 27.0938 45.6744C28.3681 45.6581 29.4001 44.6261 29.4163 43.3518C30.6914 43.3356 31.7242 42.302 31.7389 41.027C33.0257 40.9967 34.0645 39.9454 34.0645 38.6515C34.0645 38.5736 34.0607 38.4968 34.0528 38.4194L48 31.4463V20.129ZM40.2581 14.1305V15.4839C40.2581 16.858 39.5156 18.1418 38.3203 18.8339L37.9332 19.0577L37.9362 21.5077L41.8042 22.4739L33.2903 26.955V24.8695C33.2903 23.8288 32.87 22.8758 32.1816 22.1715L34.8387 21.5077V19.0558L34.4524 18.8324C33.2578 18.1418 32.5161 16.858 32.5161 15.4839V13.9355C32.5161 12.8797 32.9335 11.8923 33.6922 11.157C34.4501 10.4221 35.4556 10.026 36.5069 10.0668C38.5751 10.1288 40.2581 11.952 40.2581 14.1305ZM25.1673 26.3464L21.6627 25.2263C20.0655 24.7145 18.3368 24.6381 16.7019 25.0003L16.2581 25.0985V24.8695C16.2581 23.8019 16.982 22.875 18.017 22.6157L22.4516 21.5077V19.0558L22.0653 18.8324C20.8707 18.1418 20.129 16.858 20.129 15.4839V13.9355C20.129 12.8797 20.5464 11.8923 21.3051 11.157C22.063 10.4221 23.075 10.026 24.1198 10.0668C26.188 10.1288 27.871 11.952 27.871 14.1305V15.4839C27.871 16.858 27.1285 18.1418 25.9332 18.8339L25.5461 19.0577L25.5491 21.5077L29.983 22.6157C31.018 22.875 31.7419 23.8019 31.7419 24.8695V27.7704L31.5507 27.871H31.0762L26.3165 26.5108C25.9415 26.4046 25.5552 26.3611 25.1673 26.3464ZM16.4316 11.5872C17.8855 8.77016 20.8117 6.96774 24 6.96774C27.158 6.96774 30.0718 8.74597 31.5367 11.5248C31.1681 12.2639 30.9677 13.0823 30.9677 13.9355V15.4839C30.9677 17.256 31.8474 18.919 33.2903 19.926V20.2976L30.1935 21.073L27.096 20.2976V19.9268C28.5389 18.9197 29.4194 17.256 29.4194 15.4839V14.1305C29.4194 11.123 27.0628 8.6061 24.1663 8.5184C22.6845 8.47492 21.2873 9.01625 20.2266 10.046C19.1651 11.0757 18.5806 12.4567 18.5806 13.9355V15.4839C18.5806 17.256 19.4603 18.919 20.9032 19.926V20.2976L17.8065 21.073L14.7089 20.2976V19.9268C16.1518 18.9197 17.0323 17.256 17.0323 15.4839V14.1305C17.0323 13.2195 16.813 12.3546 16.4316 11.5872ZM12.871 6.90499L15.3444 4.43158L17.5214 5.84841L17.938 5.59287C18.9817 4.95325 20.1098 4.48488 21.2903 4.20249L21.7666 4.08833L22.3053 1.54839H25.6954L26.2326 4.08758L26.7089 4.20136C27.8895 4.48412 29.0175 4.95249 30.0612 5.59211L30.4778 5.84766L32.6549 4.43082L35.1253 6.90197L34.2471 8.95804C33.6494 9.2151 33.0953 9.57686 32.6129 10.0445C32.5812 10.0755 32.5539 10.1087 32.5229 10.1405C30.699 7.24105 27.4744 5.41935 24 5.41935C20.5006 5.41935 17.267 7.25806 15.4476 10.187C14.9607 9.67742 14.3816 9.26462 13.7397 8.97618L12.871 6.90499ZM10.0645 21.5077V19.0558L9.67817 18.8324C8.48362 18.1418 7.74194 16.858 7.74194 15.4839V13.9355C7.74194 12.8797 8.15927 11.8923 8.91797 11.157C9.67591 10.4221 10.6837 10.026 11.7327 10.0668C13.8009 10.1288 15.4839 11.952 15.4839 14.1305V15.4839C15.4839 16.858 14.7414 18.1418 13.5461 18.8339L13.159 19.0577L13.162 21.5077L15.8184 22.1715C15.13 22.8758 14.7097 23.8288 14.7097 24.8695V25.4429L12.2949 25.9797L12.3576 25.7605L12.3871 24.3296L8.30406 21.9477L10.0645 21.5077ZM1.54839 20.129H2.11278L7.6807 23.3766L4.87122 34.6142L1.54839 33.5062V20.129ZM7.86744 35.6129L6.34362 35.1052L9.07296 24.189L10.8387 25.2188V25.4399L7.93246 35.6129H7.86744ZM13.1613 37.8417C13.1613 37.6134 13.2535 37.3896 13.4153 37.2278L14.7762 35.8669C14.938 35.7051 15.1618 35.6129 15.3901 35.6129C15.8687 35.6129 16.2581 36.0023 16.2581 36.4808C16.2581 36.7092 16.1658 36.933 16.004 37.0948L14.6431 38.4556C14.4813 38.6174 14.2576 38.7097 14.0292 38.7097C13.5507 38.7097 13.1613 38.3203 13.1613 37.8417ZM15.4839 40.1643C15.4839 39.936 15.5761 39.7122 15.7379 39.5504L17.0988 38.1895C17.2606 38.0277 17.4844 37.9355 17.7127 37.9355C18.1913 37.9355 18.5806 38.3248 18.5806 38.8034C18.5806 39.0318 18.4884 39.2555 18.3266 39.4173L16.9657 40.7782C16.8039 40.94 16.5801 41.0323 16.3518 41.0323C15.8732 41.0323 15.4839 40.6429 15.4839 40.1643ZM17.8065 42.4869C17.8065 42.2586 17.8987 42.0348 18.0605 41.873L19.4214 40.5121C19.5832 40.3503 19.807 40.2581 20.0353 40.2581C20.5139 40.2581 20.9032 40.6474 20.9032 41.126C20.9032 41.3543 20.811 41.5781 20.6492 41.7399L19.2883 43.1008C19.1265 43.2626 18.9027 43.3548 18.6744 43.3548C18.1958 43.3548 17.8065 42.9655 17.8065 42.4869ZM20.997 45.6774C20.5184 45.6774 20.129 45.2881 20.129 44.8095C20.129 44.5811 20.2213 44.3574 20.3831 44.1956L21.744 42.8347C21.9057 42.6729 22.1295 42.5806 22.3579 42.5806C22.8364 42.5806 23.2258 42.97 23.2258 43.4486C23.2258 43.6769 23.1336 43.9007 22.9718 44.0625L21.6109 45.4234C21.4491 45.5852 21.2253 45.6774 20.997 45.6774ZM24.7409 46.4516H24.5977C24.4003 46.4516 24.2113 46.3798 24.0643 46.2494L23.4851 45.7387L24.0665 45.1573C24.2741 44.9497 24.4351 44.7029 24.5542 44.4379L25.2581 45.0238C25.4422 45.1773 25.5484 45.4034 25.5484 45.6442C25.5484 46.0895 25.1862 46.4516 24.7409 46.4516ZM31.6837 39.4839H31.5499C31.3556 39.4839 31.1658 39.4151 31.0173 39.2903L26.8189 35.7917L25.827 36.9817L29.904 40.3787C30.0873 40.5321 30.1935 40.7582 30.1935 40.999C30.1935 41.4443 29.8314 41.8064 29.3861 41.8064H29.2171C29.0292 41.8064 28.8455 41.7399 28.7007 41.6189L24.4956 38.115L23.5037 39.3051L27.5806 42.7024C27.7647 42.8547 27.871 43.0808 27.871 43.3216C27.871 43.7669 27.5088 44.129 27.0635 44.129C26.7664 44.129 26.4768 44.0236 26.2489 43.8342L24.5209 42.3939C24.1402 41.6159 23.3581 41.0735 22.4422 41.041C22.3976 39.778 21.3826 38.763 20.1196 38.7184C20.075 37.4554 19.06 36.4404 17.797 36.3958C17.7516 35.1033 16.6932 34.0645 15.3901 34.0645C14.7539 34.0645 14.1313 34.3223 13.6815 34.7722L12.3206 36.1331C12.2393 36.2143 12.172 36.3066 12.1036 36.3981L9.72543 34.971L11.8102 27.6744L17.0368 26.5123C18.4079 26.2058 19.8535 26.2723 21.1905 26.7002L22.331 27.065L18.4646 28.9982C17.5811 29.4409 17.0323 30.3296 17.0323 31.3178V31.4709C17.0323 32.901 18.1958 34.0645 19.6259 34.0645C20.0958 34.0645 20.5581 33.9367 20.9599 33.6944L23.8427 31.9657C24.4219 31.6187 25.1991 31.6947 25.6992 32.1445L32.2405 38.0315C32.4156 38.1903 32.5161 38.4156 32.5161 38.6515C32.5161 39.1108 32.143 39.4839 31.6837 39.4839ZM46.4516 30.4892L33.4086 37.0112C33.3663 36.9662 33.3221 36.9235 33.2756 36.8819L26.7354 30.995C26.1623 30.4778 25.4214 30.1935 24.6494 30.1935C24.0851 30.1935 23.5309 30.347 23.0455 30.6381L20.1615 32.3676C19.9997 32.4651 19.8149 32.5161 19.6259 32.5161C19.049 32.5161 18.5806 32.0478 18.5806 31.4709V31.3178C18.5806 30.919 18.8022 30.5614 19.1583 30.3833L23.4768 28.224C24.2159 27.854 25.0932 27.7712 25.8897 28.0003L30.7549 29.3899L31.9332 29.4194L46.4516 21.778V30.4892Z" fill="black"/>
</svg>
