<svg width="48" height="48" viewBox="0 0 48 48" fill="none" xmlns="http://www.w3.org/2000/svg">
<path d="M19.065 46.5H3V40.2825C3 38.07 3.9 36.06 5.355 34.605C5.985 33.975 6.72 33.45 7.53 33.06C8.5875 32.5425 9.78 32.25 11.0325 32.25C11.3625 32.25 11.685 32.2725 12 32.31C14.115 32.565 16.005 33.645 17.2875 35.25C18.1725 36.345 18.7725 37.6725 18.9825 39.15L19.5 42.75L19.5225 42.81L23.13 41.1675L24.615 44.5125L21.33 46.0125C20.6175 46.335 19.845 46.5 19.065 46.5Z" fill="#FCD770"/>
<path d="M28.065 42.7425C28.4775 41.88 28.5 41.73 28.5 41.5725C28.5 40.5675 27.6825 39.75 26.6775 39.75H26.6475C26.385 39.75 26.13 39.8025 25.89 39.915L24.99 40.32C25.77 39.0375 27.1725 38.25 28.68 38.25H30C30.5475 38.25 31.0575 38.4 31.5 38.655C31.725 38.7825 31.935 38.9475 32.1225 39.1275C32.6625 39.675 33 40.425 33 41.25C33 42.075 32.325 42.75 31.5 42.75H28.0725L28.065 42.7425Z" fill="#B4DD7F"/>
<path d="M24.99 40.32L24.9825 40.3275L24 40.77V35.25H31.5V38.655C31.0575 38.4 30.5475 38.25 30 38.25H28.68C27.1725 38.25 25.77 39.0375 24.99 40.32Z" fill="#AAB2BD"/>
<path d="M46.5 29.25V32.25C46.5 33.9075 45.1575 35.25 43.5 35.25H39H31.5H24H17.2875C16.005 33.645 14.115 32.565 12 32.31V30H11.76C12.3975 30 13.005 29.745 13.4475 29.3025L13.5 29.25H46.5Z" fill="#CCD1D9"/>
<path d="M43.5 9.75H28.5H16.4625H16.455C16.2075 12.345 14.625 14.55 12.405 15.6825C13.0725 16.2375 13.5 17.07 13.5 18H15.75C16.575 18 17.25 18.6675 17.25 19.5C17.25 19.9125 17.085 20.2875 16.8075 20.5575C16.5375 20.835 16.1625 21 15.75 21H13.5L14.1375 27.375C14.145 27.45 14.145 27.5325 14.145 27.6075C14.145 28.215 13.92 28.8 13.5 29.25H46.5V12.75C46.5 11.0925 45.1575 9.75 43.5 9.75Z" fill="#69D6F4"/>
<path d="M36 17.25C40.1421 17.25 43.5 13.8921 43.5 9.75C43.5 5.60786 40.1421 2.25 36 2.25C31.8579 2.25 28.5 5.60786 28.5 9.75C28.5 13.8921 31.8579 17.25 36 17.25Z" fill="#E6E9ED"/>
<path d="M20.25 21.75H26.25V26.25H20.25V21.75Z" fill="#FCD770"/>
<path d="M16.455 9.75C16.2075 12.345 14.625 14.55 12.405 15.6825C11.8875 15.255 11.22 15 10.5 15H7.5C6.72 15 5.985 15.195 5.3475 15.5475C3.0525 14.265 1.5 11.8125 1.5 9C1.5 4.86 4.86 1.5 9 1.5C13.14 1.5 16.5 4.86 16.5 9C16.5 9.255 16.485 9.5025 16.455 9.75Z" fill="#E6E9ED"/>
<path d="M7.5 26.25V30C4.815 29.1075 3 26.5875 3 23.7525V21H7.5L6.795 21.705C6.285 22.215 6 22.905 6 23.625C6 24.345 6.285 25.035 6.795 25.545L7.5 26.25Z" fill="#656D78"/>
<path d="M13.5 18H11.43C10.86 18 10.3425 18.3225 10.0875 18.825L9 21H7.5H3V19.5C3 17.7975 3.9525 16.3125 5.3475 15.5475C5.985 15.195 6.72 15 7.5 15H10.5C11.22 15 11.8875 15.255 12.405 15.6825C13.0725 16.2375 13.5 17.07 13.5 18Z" fill="#FF826E"/>
<path d="M15.75 18C16.575 18 17.25 18.6675 17.25 19.5C17.25 19.9125 17.085 20.2875 16.8075 20.5575C16.5375 20.835 16.1625 21 15.75 21H13.5H9L10.0875 18.825C10.3425 18.3225 10.86 18 11.43 18H13.5H15.75Z" fill="#FC6E51"/>
<path d="M26.6775 39.75C27.6825 39.75 28.5 40.5675 28.5 41.5725C28.5 41.73 28.4775 41.88 28.065 42.7425C27.9 42.9525 27.6825 43.1175 27.4275 43.2375L24.615 44.5125L23.13 41.1675L24 40.77L24.9825 40.3275L24.99 40.32L25.89 39.915C26.13 39.8025 26.385 39.75 26.6475 39.75H26.6775Z" fill="#F0D0B4"/>
<path d="M7.5 30V26.25L6.795 25.545C6.285 25.035 6 24.345 6 23.625C6 22.905 6.285 22.215 6.795 21.705L7.5 21H9H13.5L14.1375 27.375C14.145 27.45 14.145 27.5325 14.145 27.6075C14.145 28.215 13.92 28.8 13.5 29.25C13.4775 29.2725 13.4625 29.2875 13.4475 29.3025C13.005 29.745 12.3975 30 11.76 30H12V32.31C11.685 32.2725 11.3625 32.25 11.0325 32.25C9.78 32.25 8.5875 32.5425 7.53 33.06L7.5 33V30Z" fill="#F0D0B4"/>
<path d="M9.75 7.6215L10.7093 10.5H14.25V9H11.7907L9.75 2.8785L7.3605 10.0455L6.4635 8.25H3.75V9.75H5.5365L7.6395 13.9545L9.75 7.6215Z" fill="black"/>
<path d="M43.5 36C45.5677 36 47.25 34.3177 47.25 32.25V12.75C47.25 10.9275 45.942 9.408 44.2155 9.072C43.869 4.83975 40.32 1.5 36 1.5C31.704 1.5 28.1685 4.8015 27.7882 9H17.25C17.25 4.45125 13.5487 0.75 9 0.75C4.45125 0.75 0.75 4.45125 0.75 9C0.75 11.601 1.9815 14.0303 4.023 15.5775C2.9385 16.5398 2.25 17.9392 2.25 19.5V20.9993V21.7493V23.7562C2.25 26.733 4.03725 29.3835 6.75 30.5168V32.6228C4.06875 34.128 2.25 36.996 2.25 40.2832V47.25H19.392V47.2327C20.1698 47.1922 20.925 47.0168 21.6375 46.6927L27.7395 43.9193C27.9772 43.8112 28.1917 43.6688 28.3815 43.5H31.5C32.4765 43.5 33.3015 42.8708 33.612 42H45C46.2405 42 47.25 40.9905 47.25 39.75C47.25 38.5095 46.2405 37.5 45 37.5H40.5C40.086 37.5 39.75 37.164 39.75 36.75V36H43.5ZM43.5 34.5H17.616C16.3583 33.075 14.6573 32.061 12.75 31.6763V30.5737C13.1243 30.4485 13.4693 30.255 13.773 30H45.75V32.25C45.75 33.4905 44.7405 34.5 43.5 34.5ZM30 37.5H28.677C27.1402 37.5 25.6785 38.2125 24.75 39.357V36H30.75V37.5758C30.5077 37.5263 30.2565 37.5 30 37.5ZM20.1105 41.7173L19.728 39.0413C19.5713 37.9463 19.2105 36.9217 18.6908 36H23.25V40.29L20.1105 41.7173ZM10.2135 20.2493L10.7565 19.164C10.884 18.9083 11.1413 18.7493 11.4278 18.7493H15.75C16.164 18.7493 16.5 19.086 16.5 19.4993C16.5 19.9125 16.164 20.2493 15.75 20.2493H10.2135ZM36 3C39.7222 3 42.75 6.0285 42.75 9.75C42.75 13.4715 39.7222 16.5 36 16.5C32.2778 16.5 29.25 13.4715 29.25 9.75C29.25 6.0285 32.2778 3 36 3ZM27.7882 10.5C28.1685 14.6985 31.704 18 36 18C40.254 18 43.7648 14.763 44.2028 10.6237C45.0983 10.9207 45.75 11.7563 45.75 12.75V28.5H14.757C14.871 28.1152 14.925 27.7102 14.883 27.2985L14.328 21.7493H15.75C16.9905 21.7493 18 20.7397 18 19.4993C18 18.2588 16.9905 17.2493 15.75 17.2493H14.1742C14.07 16.7393 13.8517 16.2735 13.563 15.861C15.4342 14.619 16.695 12.69 17.097 10.5H27.7882ZM2.25 9C2.25 5.2785 5.27775 2.25 9 2.25C12.7222 2.25 15.75 5.2785 15.75 9C15.75 11.4052 14.4832 13.5795 12.4335 14.7945C11.868 14.4517 11.2088 14.25 10.5008 14.25H7.5C6.75225 14.25 6.042 14.4097 5.39775 14.6925C3.453 13.4587 2.25 11.3175 2.25 9ZM3.75 19.5C3.75 17.4323 5.43225 15.75 7.5 15.75H10.5008C11.4788 15.75 12.312 16.3763 12.621 17.2493H11.427C10.569 17.2493 9.798 17.7255 9.414 18.4928L8.53575 20.2493H3.75V19.5ZM3.75 23.7562V21.7493H5.80575C5.4465 22.3043 5.25 22.9485 5.25 23.625C5.25 24.537 5.61975 25.4303 6.2655 26.076L6.75 26.5605V28.8428C4.9245 27.828 3.75 25.902 3.75 23.7562ZM7.326 25.0155C6.96 24.6495 6.75 24.1425 6.75 23.625C6.75 23.1 6.954 22.6065 7.326 22.2345L7.81125 21.7493H12.8212L13.3912 27.4492C13.4408 27.939 13.269 28.4212 12.9195 28.7708C12.615 29.0753 12.192 29.2507 11.7607 29.2507H9.75V30.7507H11.25V31.5105C11.1772 31.5082 11.106 31.5 11.0333 31.5C10.0598 31.5 9.126 31.6657 8.25 31.9597V25.9395L7.326 25.0155ZM21.0165 45.3278C20.4007 45.6082 19.7445 45.75 19.0665 45.75C16.968 45.75 15.153 44.3993 14.5507 42.39L13.4692 38.7848L12.0322 39.2152L13.1138 42.8205C13.4678 44.0018 14.1518 44.9955 15.033 45.75H3.75V40.2832C3.75 36.267 7.017 33 11.0333 33C14.634 33 17.7337 35.688 18.2423 39.2535L18.687 42.3638L17.6895 42.8175L18.3105 44.1825L22.7512 42.1635L23.6295 44.139L21.0165 45.3278ZM27.1193 42.5535L24.996 43.5188L24.1178 41.5425L26.2013 40.5952C26.3393 40.533 26.4923 40.5 26.6745 40.5C27.267 40.5 27.75 40.983 27.75 41.5755C27.75 41.9955 27.5025 42.3795 27.1193 42.5535ZM31.5 42H29.211C29.235 41.8605 29.25 41.7195 29.25 41.5755C29.25 40.4827 28.5638 39.5535 27.588 39.18C27.9375 39.0667 28.3027 39 28.677 39H30C31.2405 39 32.25 40.0095 32.25 41.25C32.25 41.664 31.914 42 31.5 42ZM40.5 39H45C45.414 39 45.75 39.336 45.75 39.75C45.75 40.164 45.414 40.5 45 40.5H33.6742C33.489 39.5902 32.9647 38.8102 32.25 38.2695V36H38.25V36.75C38.25 37.9905 39.2595 39 40.5 39Z" fill="black"/>
<path d="M42.75 31.5H44.25V33H42.75V31.5Z" fill="black"/>
<path d="M39.75 31.5H41.25V33H39.75V31.5Z" fill="black"/>
<path d="M36.75 31.5H38.25V33H36.75V31.5Z" fill="black"/>
<path d="M31.5 6H33V7.5H31.5V6Z" fill="black"/>
<path d="M34.5 6H40.5V7.5H34.5V6Z" fill="black"/>
<path d="M31.5 9H33V10.5H31.5V9Z" fill="black"/>
<path d="M34.5 9H40.5V10.5H34.5V9Z" fill="black"/>
<path d="M31.5 12H33V13.5H31.5V12Z" fill="black"/>
<path d="M34.5 12H40.5V13.5H34.5V12Z" fill="black"/>
<path d="M27 21H19.5V27H27V21ZM25.5 25.5H21V22.5H25.5V25.5Z" fill="black"/>
<path d="M19.5 18H27V19.5H19.5V18Z" fill="black"/>
<path d="M19.5 15H27V16.5H19.5V15Z" fill="black"/>
<path d="M19.5 12H27V13.5H19.5V12Z" fill="black"/>
<path d="M28.5 25.5H30V27H28.5V25.5Z" fill="black"/>
<path d="M31.5 25.5H44.25V27H31.5V25.5Z" fill="black"/>
<path d="M28.5 22.5H44.25V24H28.5V22.5Z" fill="black"/>
<path d="M28.5 19.5H44.25V21H28.5V19.5Z" fill="black"/>
</svg>
