<svg width="48" height="48" viewBox="0 0 48 48" fill="none" xmlns="http://www.w3.org/2000/svg">
<path d="M46.3712 32.2824C45.4511 30.702 43.4135 30.1605 41.8202 31.0731L34.2379 35.4148C33.7035 35.7208 33.0784 35.8292 32.472 35.721L22.5798 33.9547L21.2049 33.7974H29.3231C31.148 33.7974 32.6274 32.3181 32.6274 30.4931C32.6274 29.9196 32.1624 29.4546 31.5889 29.4546H22.2035C21.5456 29.4546 20.8955 29.5972 20.2982 29.8731L14.1408 32.7142C13.1786 33.1582 12.1314 33.3883 11.0717 33.3883H10.8632V42.0739H12.6802L33.38 40.2564C33.3948 40.2551 33.4099 40.254 33.4247 40.2529L34.022 40.2041C34.511 40.1541 34.9841 40.002 35.4105 39.7579L45.9877 33.7012C46.4887 33.4142 46.6603 32.7791 46.3712 32.2824Z" fill="#F9CFCF"/>
<path d="M12.6802 42.4489H10.8632C10.6562 42.4489 10.4882 42.2809 10.4882 42.0739V33.3881C10.4882 33.1811 10.6562 33.0131 10.8632 33.0131H11.0717C12.0703 33.0131 13.0772 32.7921 13.9837 32.3737L20.1408 29.5326C20.783 29.2361 21.4963 29.0796 22.2033 29.0796H31.5889C32.3681 29.0796 33.0022 29.7137 33.0022 30.4931C33.0022 32.5219 31.3517 34.1724 29.3231 34.1724H25.932L32.5378 35.352C33.0564 35.4446 33.5942 35.3514 34.0511 35.0897L41.6334 30.7479C43.4027 29.7349 45.6731 30.3388 46.695 32.094C46.8851 32.4206 46.9359 32.8011 46.8382 33.1657C46.7404 33.5317 46.5043 33.8376 46.1741 34.0267L35.5969 40.0834C35.1221 40.3554 34.605 40.5216 34.0603 40.5774L33.4121 40.6303L12.7128 42.4477C12.7022 42.4483 12.6913 42.4489 12.6802 42.4489ZM11.2383 41.6989H12.6641L33.3973 39.8788L33.992 39.8304C34.424 39.786 34.8412 39.6519 35.2245 39.4324L45.8017 33.3756C45.9574 33.2865 46.0684 33.1429 46.1143 32.9713C46.1599 32.8012 46.136 32.6237 46.0474 32.4712C45.2321 31.0708 43.4194 30.5899 42.0067 31.3986L34.4244 35.7405C33.8149 36.0894 33.0984 36.2137 32.4064 36.0904L22.5257 34.3262L21.1623 34.17C20.9649 34.1473 20.8192 33.9746 20.8307 33.7761C20.8419 33.5775 21.0062 33.4224 21.2051 33.4224H29.3235C30.9386 33.4224 32.2526 32.1084 32.2526 30.4931C32.2526 30.1271 31.955 29.8296 31.5892 29.8296H22.2037C21.6043 29.8296 20.9998 29.9623 20.4555 30.2136L14.2983 33.0547C13.3443 33.495 12.29 33.738 11.2385 33.7614V41.6989H11.2383Z" fill="#D73927"/>
<path d="M10.3506 31.3399H8.2384V43.7149H10.3506C10.6339 43.7149 10.8634 43.4852 10.8634 43.2021V31.8527C10.8634 31.5694 10.6337 31.3399 10.3506 31.3399Z" fill="#E0EBFC"/>
<path d="M26.1447 25.6601C32.3579 25.6601 37.3947 20.6233 37.3947 14.4101C37.3947 8.19692 32.3579 3.16013 26.1447 3.16013C19.9314 3.16013 14.8947 8.19692 14.8947 14.4101C14.8947 20.6233 19.9314 25.6601 26.1447 25.6601Z" fill="white"/>
<path d="M29.6721 22.924C34.3742 20.9762 36.6071 15.5855 34.6594 10.8833C32.7116 6.18118 27.3209 3.94829 22.6187 5.89602C17.9166 7.84375 15.6837 13.2345 17.6314 17.9367C19.5791 22.6388 24.9699 24.8717 29.6721 22.924Z" fill="#FFC10D"/>
<path d="M25.3971 20.4467C23.751 20.1982 22.5587 19.179 22.4235 17.5134C22.4095 17.34 22.5503 17.1921 22.7243 17.1921H24.0266C24.1753 17.1921 24.2987 17.3016 24.3236 17.4482C24.4223 18.0276 24.7121 18.4807 25.2163 18.7198C25.4175 18.8152 25.6508 18.6718 25.6508 18.4491V15.3037C25.6508 15.1689 25.561 15.0508 25.4312 15.0142C23.9515 14.5957 22.4108 14.0492 22.4108 11.7377C22.4108 9.89625 23.6224 8.60456 25.3991 8.32837C25.5443 8.30587 25.6508 8.1795 25.6508 8.0325V7.18631C25.6508 7.02018 25.7854 6.88556 25.9515 6.88556H26.353C26.5191 6.88556 26.6537 7.02018 26.6537 7.18631V8.01431C26.6537 8.16112 26.7598 8.28843 26.9051 8.31037C28.4378 8.54175 29.4973 9.49631 29.7341 11.1377C29.7602 11.3181 29.6175 11.4797 29.4353 11.4797H28.1453C28.0011 11.4797 27.8816 11.3766 27.8503 11.2359C27.754 10.8034 27.5066 10.4111 27.1249 10.1608C26.9228 10.0282 26.6539 10.1679 26.6539 10.4098V13.4346C26.6539 13.5705 26.7452 13.6892 26.8765 13.725C28.3541 14.127 29.8787 14.6589 29.8787 16.9687C29.8787 18.5692 28.8285 20.1225 26.9053 20.4292C26.7604 20.4523 26.6539 20.5781 26.6539 20.7249V21.5717C26.6539 21.7378 26.5193 21.8724 26.3531 21.8724H25.9517C25.7856 21.8724 25.651 21.7378 25.651 21.5717V20.7433C25.6506 20.5952 25.5431 20.4688 25.3971 20.4467ZM25.6506 12.9229V10.2776C25.6506 10.0742 25.4505 9.92325 25.2585 9.99056C24.6225 10.2139 24.2003 10.755 24.2003 11.6344C24.2003 12.4483 24.6109 12.8961 25.2143 13.1921C25.4153 13.2907 25.6506 13.1466 25.6506 12.9229ZM26.6537 15.8158V18.4575C26.6537 18.6759 26.8787 18.8196 27.079 18.7324C27.7384 18.4455 28.1042 17.8185 28.1042 17.0715C28.1042 16.2707 27.6926 15.837 27.088 15.5454C26.8873 15.4489 26.6537 15.5931 26.6537 15.8158Z" fill="#D73927"/>
<path d="M26.1447 26.0351C19.7346 26.0351 14.5197 20.8202 14.5197 14.4101C14.5197 8.00006 19.7346 2.78513 26.1447 2.78513C32.5547 2.78513 37.7697 8.00006 37.7697 14.4101C37.7697 20.8202 32.5545 26.0351 26.1447 26.0351ZM26.1447 3.53513C20.1482 3.53513 15.2697 8.41369 15.2697 14.4101C15.2697 20.4066 20.1482 25.2851 26.1447 25.2851C32.1411 25.2851 37.0197 20.4066 37.0197 14.4101C37.0197 8.41369 32.1411 3.53513 26.1447 3.53513Z" fill="#D73927"/>
<path d="M38.7199 21.0396V12.2265C38.7199 12.0193 38.5521 11.8515 38.3449 11.8515H34.7824C34.5752 11.8515 34.4074 12.0193 34.4074 12.2265V21.0397C34.4074 21.2469 34.2396 21.4147 34.0324 21.4147H33.0499C32.7158 21.4147 32.5486 21.8186 32.7848 22.0549L36.1919 25.4614C36.3383 25.6078 36.5757 25.6078 36.7221 25.4614L40.1292 22.0549C40.3654 21.8186 40.1982 21.4147 39.8641 21.4147H39.0949C38.8879 21.4146 38.7199 21.2467 38.7199 21.0396Z" fill="#F9A7A7"/>
<path d="M7.67384 44.8397H1.4884V29.8397H7.67384C7.98565 29.8397 8.2384 30.0924 8.2384 30.4042V44.2751C8.2384 44.5869 7.98565 44.8397 7.67384 44.8397Z" fill="#D73927"/>
<path d="M7.67365 45.2149H1.4884C1.2814 45.2149 1.1134 45.0469 1.1134 44.8399V29.8399C1.1134 29.6329 1.2814 29.4649 1.4884 29.4649H7.67384C8.1919 29.4649 8.6134 29.8864 8.6134 30.4044V44.2753C8.6134 44.7932 8.19172 45.2149 7.67365 45.2149ZM1.8634 44.4649H7.67384C7.77847 44.4649 7.8634 44.3797 7.8634 44.2753V30.4044C7.8634 30.2998 7.77828 30.2149 7.67384 30.2149H1.8634V44.4649Z" fill="#D73927"/>
<path d="M36.4571 25.9457C36.2651 25.9457 36.0731 25.8726 35.9269 25.7265L32.5198 22.32C32.3046 22.1048 32.2408 21.7839 32.3572 21.5027C32.4737 21.2214 32.7456 21.0398 33.0501 21.0398H34.0326V12.2265C34.0326 11.8129 34.3689 11.4765 34.7826 11.4765H38.3451C38.7587 11.4765 39.0951 11.8129 39.0951 12.2265V21.0401L39.8642 21.0398C40.1687 21.0398 40.4407 21.2216 40.5572 21.5029C40.6736 21.7841 40.6097 22.1049 40.3944 22.32L36.9874 25.7265C36.8411 25.8728 36.6491 25.9457 36.4571 25.9457ZM33.0501 21.7896L36.4571 25.1961L39.8642 21.7896H39.0951C38.6814 21.7896 38.3451 21.4532 38.3451 21.0396V12.2265H34.7826V21.0398C34.7826 21.4534 34.4462 21.7898 34.0326 21.7898H33.0501V21.7896Z" fill="#D73927"/>
<path d="M10.3506 44.0899H8.2384C8.0314 44.0899 7.8634 43.9219 7.8634 43.7149V31.3399C7.8634 31.1329 8.0314 30.9649 8.2384 30.9649H10.3506C10.8402 30.9649 11.2384 31.3631 11.2384 31.8527V43.2021C11.2384 43.6914 10.84 44.0899 10.3506 44.0899ZM8.6134 43.3399H10.3506C10.4265 43.3399 10.4884 43.278 10.4884 43.2021V31.8527C10.4884 31.7767 10.4265 31.7149 10.3506 31.7149H8.6134V43.3399Z" fill="#D73927"/>
</svg>
