<svg width="40" height="40" viewBox="0 0 40 40" fill="none" xmlns="http://www.w3.org/2000/svg">
<g clip-path="url(#clip0_1193_4340)">
<path d="M32.0501 25.4334L27.8167 24.9501C26.8001 24.8334 25.8001 25.1834 25.0834 25.9001L22.0167 28.9667C17.3001 26.5667 13.4334 22.7167 11.0334 17.9834L14.1167 14.9001C14.8334 14.1834 15.1834 13.1834 15.0667 12.1667L14.5834 7.96672C14.3834 6.28339 12.9667 5.01672 11.2667 5.01672H8.3834C6.50007 5.01672 4.9334 6.58339 5.05007 8.46672C5.9334 22.7001 17.3167 34.0667 31.5334 34.9501C33.4167 35.0667 34.9834 33.5001 34.9834 31.6167V28.7334C35.0001 27.0501 33.7334 25.6334 32.0501 25.4334Z" fill="#D73927"/>
</g>
<defs>
<clipPath id="clip0_1193_4340">
<rect width="40" height="40" fill="white"/>
</clipPath>
</defs>
</svg>
