<svg width="150" height="136" viewBox="0 0 150 136" fill="none" xmlns="http://www.w3.org/2000/svg">
<path d="M95.9816 54.8345L94.7079 74.3195L35.4443 122.191L44.5162 98.1328L95.9816 54.8345Z" fill="#FFC10D"/>
<path d="M0 136L35.4889 115.067L41.0136 101.091L0 136Z" fill="#D73927"/>
<path d="M95.9927 48.98L54.1467 56.6058L98.3277 9.7926L95.9927 48.98Z" fill="#FFC10D"/>
<path d="M23.9871 112.332L53.767 59.302L95.613 51.6761L23.9871 112.332Z" fill="#FFC10D"/>
<path d="M100.596 10.1213L114.835 24.8048L98.6742 43.2426L100.596 10.1213Z" fill="#FFC10D"/>
<path d="M150 40.736L116.623 26.0526L111.958 31.4391L150 40.736Z" fill="#D73927"/>
<path d="M81.6586 24.2533L55.8729 0L96.4452 8.89584L81.6586 24.2533Z" fill="#FFC10D"/>
<path d="M95.4621 62.5382L35.4443 122.191L94.7079 74.3195L95.4621 62.5382Z" fill="#D73927"/>
<path d="M95.6074 51.704L33.3663 95.7153L23.9871 112.332L95.6074 51.704Z" fill="#F89F1F"/>
<path d="M72.7487 3.69871L64.3192 7.94331L55.8729 0L72.7487 3.69871Z" fill="#D73927"/>
<path d="M96.6239 37.611L54.2025 56.5669L96.1379 49.0079L96.6239 37.611Z" fill="#FAAC2B"/>
</svg>
