<svg width="88" height="88" viewBox="0 0 88 88" fill="none" xmlns="http://www.w3.org/2000/svg">
<path d="M46.6555 75.6026C42.4677 75.9513 38.2522 75.4718 34.2497 74.1914C30.2472 72.9109 26.5361 70.8547 23.3283 68.1401C20.1205 65.4255 17.4788 62.1056 15.554 58.37C13.6292 54.6344 12.459 50.5563 12.1103 46.3685L15.2993 46.103C15.6131 49.872 16.6663 53.5423 18.3986 56.9043C20.1309 60.2663 22.5085 63.2542 25.3955 65.6974C28.2825 68.1405 31.6225 69.9911 35.2247 71.1435C38.827 72.2959 42.6209 72.7275 46.3899 72.4136L46.6555 75.6026Z" fill="#FFC10D"/>
<path d="M16.2873 27.7128C18.3885 24.0735 21.1859 20.8837 24.5198 18.3255C27.8537 15.7673 31.6588 13.8909 35.7179 12.8032C39.777 11.7156 44.0106 11.4381 48.177 11.9866C52.3433 12.5351 56.3608 13.8989 60.0001 16L58.4001 18.7713C55.1248 16.8803 51.509 15.6529 47.7593 15.1592C44.0096 14.6656 40.1993 14.9153 36.5462 15.8942C32.893 16.8731 29.4683 18.5619 26.4678 20.8643C23.4673 23.1666 20.9496 26.0375 19.0586 29.3128L16.2873 27.7128Z" fill="#FFC10D"/>
<path d="M71.7128 27.7129C73.8139 31.3522 75.1777 35.3697 75.7262 39.536C76.2747 43.7024 75.9972 47.936 74.9096 51.9951C73.822 56.0542 71.9455 59.8593 69.3873 63.1932C66.8291 66.5271 63.6393 69.3245 60 71.4257L58.4 68.6544C61.6754 66.7634 64.5462 64.2457 66.8486 61.2452C69.1509 58.2447 70.8398 54.8201 71.8186 51.1669C72.7975 47.5137 73.0473 43.7034 72.5536 39.9537C72.0599 36.204 70.8325 32.5882 68.9415 29.3129L71.7128 27.7129Z" fill="#FFC10D"/>
<g clip-path="url(#clip0_1193_3436)">
<path d="M49.2741 54.3326C41.5684 58.2777 32.4107 52.6483 32.4107 44.0099C32.4107 34.8571 42.6276 29.2527 50.3451 34.3096C57.7927 39.1917 57.1744 50.289 49.2741 54.3326Z" fill="#E26A5C"/>
<path d="M53.756 37.7509C46.0758 32.8129 35.8539 38.3507 35.9078 47.5758C35.9171 49.1627 33.7119 49.5818 33.1532 48.0965C32.3851 46.0546 32.1962 43.8058 32.6595 41.6114C34.7878 31.497 48.1637 29.0539 53.756 37.7509Z" fill="#EB9C93"/>
<path d="M54.4319 49.0653L52.4662 46.1599C52.2369 45.8212 52.2154 45.3826 52.4103 45.0229L53.1271 43.6996C53.2935 43.3924 53.3035 43.0237 53.1536 42.708L52.2974 40.8997C52.1385 40.565 51.8218 40.3327 51.4551 40.2822L50.2137 40.1119C49.7781 40.0524 49.4204 39.7382 49.3045 39.3141L48.7346 37.224C48.6471 36.9032 48.7101 36.56 48.9054 36.2908L50.3451 34.3096C55.2973 37.5559 56.9356 43.9079 54.4319 49.0653Z" fill="#D73927"/>
<path d="M49.7217 49.392C49.9859 49.6498 50.1028 50.0225 50.0334 50.3851L49.2741 54.3326C47.7744 55.1004 46.0854 55.551 44.296 55.5955L41.1439 52.4888C40.9266 52.2744 40.8087 51.9792 40.8177 51.674L40.8796 49.6353C40.8936 49.1687 40.6103 48.7441 40.1742 48.5773L36.2043 47.0636C35.9041 46.9492 35.6693 46.7089 35.5619 46.4062L34.1701 42.4967C34.0472 42.152 33.761 41.8913 33.4063 41.8014C33.4046 41.8009 32.661 41.6123 32.6595 41.6115C33.0446 39.7812 33.8614 38.1097 34.9994 36.7089C35.0129 36.7202 34.7046 36.6508 39.0168 37.5816C39.3195 37.6471 39.5803 37.8369 39.7351 38.1047L40.4425 39.3286C40.6383 39.6673 41 39.8761 41.3916 39.8761H41.5445C41.9426 39.8761 42.3098 39.6603 42.5031 39.3121C42.6863 38.9827 42.9174 38.4049 43.6681 38.4049C44.2736 38.4049 44.7646 38.896 44.7646 39.5014V43.4329C44.7646 43.7911 44.5898 44.1268 44.296 44.3321L43.174 45.1154C42.2975 45.7272 42.7329 47.1111 43.802 47.1111H46.9347C47.2209 47.1111 47.4957 47.223 47.7005 47.4223L49.7217 49.392Z" fill="#D73927"/>
<path d="M50.9029 36.4259C50.3192 36.2467 49.7158 36.1124 49.0967 36.027L50.3451 34.3096C50.771 34.5888 51.1774 34.8953 51.5619 35.2266C52.1341 35.7198 51.6251 36.6475 50.9029 36.4259Z" fill="#E26A5C"/>
<path d="M40.0409 38.6337C37.6463 40.6501 36.0899 43.6055 35.9231 46.9048C35.5831 46.6425 35.6823 46.7446 34.1701 42.4967C33.9337 41.8337 33.3692 41.792 32.6605 41.612L32.6595 41.6115C33.0446 39.7812 33.8614 38.1097 34.9994 36.7089L35.0084 36.7164C39.8615 37.764 39.3272 37.3988 40.0409 38.6337Z" fill="#E26A5C"/>
<path d="M44.3 55.9991C44.0695 55.9991 44.2776 56.1385 40.8635 52.7731C40.2785 52.1965 40.4161 51.7335 40.48 49.6233C40.489 49.3268 40.3088 49.0565 40.0316 48.9508L36.0617 47.4368C35.6518 47.2805 35.3323 46.9538 35.1852 46.5404L34.1695 43.6869C33.9924 43.1895 34.7452 42.9208 34.9225 43.4189C36.012 46.48 35.9457 46.5371 36.3465 46.69L40.3164 48.2041C40.9114 48.431 41.2982 49.0111 41.2789 49.6476C41.213 51.8227 41.1412 51.9247 41.4246 52.2039L44.4539 55.19C46.0558 55.1267 47.5637 54.7365 48.9149 54.0836C49.6938 50.0334 49.8013 50.0279 49.4427 49.6785C47.2585 47.55 47.3129 47.5109 46.9348 47.5109H43.802C42.3395 47.5109 41.7508 45.6213 42.9454 44.7874L44.0672 44.0044C44.4705 43.7227 44.3652 43.6796 44.3652 39.5014C44.3652 39.1355 44.0766 38.8043 43.6525 38.8043C42.6943 38.8043 43.1603 40.2759 41.3919 40.2759C40.8593 40.2759 40.3628 39.9894 40.0963 39.5284L39.3891 38.3049C39.1789 37.9413 39.2126 38.0328 35.154 37.1567C30.2816 43.442 33.3846 52.6576 40.972 54.7854C41.4171 54.9102 41.3258 55.5699 40.8643 55.5699C40.6994 55.5699 37.0933 54.6956 34.4918 51.3135C31.0426 46.8296 31.265 40.6727 34.6888 36.4569C34.9008 36.1959 34.7467 36.2511 39.1013 37.1911C39.9088 37.3654 40.0916 37.9231 40.7883 39.1283C41.0076 39.5077 41.3887 39.4766 41.5443 39.4766C42.0186 39.4766 42.1637 39.1001 42.3444 38.7747C43.0839 37.4438 45.1645 37.9456 45.1645 39.5014C45.1645 44.6864 45.5663 43.9325 43.403 45.4428C42.847 45.8309 43.1202 46.7115 43.802 46.7115C47.1129 46.7115 47.4156 46.5869 47.9792 47.1362L50.0006 49.106C50.3621 49.4583 50.521 49.9645 50.4257 50.4603L49.8236 53.591C56.6422 49.4721 57.0887 39.5562 50.4377 34.862C49.1535 36.6292 49.0062 36.7006 49.1203 37.1188L49.6903 39.2088C49.9825 40.2803 51.9569 39.2472 52.6584 40.7283L53.515 42.5366C54.1939 43.9693 52.202 45.056 52.7973 45.9359C52.9774 46.202 52.7845 46.5595 52.4667 46.5595C52.0243 46.5595 51.6407 45.6047 52.0589 44.8325C52.7905 43.4818 52.9881 43.2913 52.7927 42.8789C51.6002 40.3613 52.0967 40.7738 50.1594 40.5079C49.5641 40.4262 49.0773 39.9988 48.9192 39.4191C48.0329 36.1693 47.9273 36.9571 49.7679 34.4241C46.053 32.1806 41.209 32.2407 37.4867 34.9099C37.0576 35.2176 36.5912 34.5686 37.0209 34.2604C44.9703 28.5598 55.9896 34.3139 55.9896 44.0098C55.9896 50.9437 50.1972 55.9991 44.3 55.9991Z" fill="#FFC10D"/>
</g>
<defs>
<clipPath id="clip0_1193_3436">
<rect width="24" height="24" fill="white" transform="translate(32.0001 31.9999)"/>
</clipPath>
</defs>
</svg>
