<svg width="88" height="88" viewBox="0 0 88 88" fill="none" xmlns="http://www.w3.org/2000/svg">
<path d="M46.6555 75.6026C42.4677 75.9513 38.2522 75.4718 34.2497 74.1914C30.2473 72.9109 26.5362 70.8547 23.3284 68.1401C20.1205 65.4255 17.4788 62.1056 15.554 58.37C13.6292 54.6344 12.4591 50.5563 12.1103 46.3685L15.2993 46.103C15.6132 49.872 16.6663 53.5423 18.3986 56.9043C20.1309 60.2663 22.5085 63.2542 25.3955 65.6974C28.2825 68.1405 31.6225 69.9911 35.2248 71.1435C38.827 72.2959 42.6209 72.7275 46.39 72.4136L46.6555 75.6026Z" fill="#FFC10D"/>
<path d="M16.2873 27.7128C18.3885 24.0735 21.1859 20.8837 24.5198 18.3255C27.8537 15.7673 31.6588 13.8909 35.7179 12.8032C39.777 11.7156 44.0106 11.4381 48.177 11.9866C52.3433 12.5351 56.3608 13.8989 60.0001 16L58.4001 18.7713C55.1248 16.8803 51.509 15.6529 47.7593 15.1592C44.0096 14.6656 40.1993 14.9153 36.5462 15.8942C32.893 16.8731 29.4683 18.5619 26.4678 20.8643C23.4673 23.1666 20.9496 26.0375 19.0586 29.3128L16.2873 27.7128Z" fill="#FFC10D"/>
<path d="M71.7128 27.7129C73.8139 31.3522 75.1777 35.3697 75.7262 39.536C76.2747 43.7024 75.9972 47.936 74.9096 51.9951C73.822 56.0542 71.9455 59.8593 69.3873 63.1932C66.8291 66.5271 63.6393 69.3245 60 71.4257L58.4 68.6544C61.6754 66.7634 64.5462 64.2457 66.8486 61.2452C69.1509 58.2447 70.8398 54.8201 71.8186 51.1669C72.7975 47.5137 73.0473 43.7034 72.5536 39.9537C72.0599 36.204 70.8325 32.5882 68.9415 29.3129L71.7128 27.7129Z" fill="#FFC10D"/>
<g clip-path="url(#clip0_1193_2398)">
<path d="M39.2732 36.7244H37.7372V33.6219C37.7372 33.2182 38.0645 32.8909 38.4682 32.8909H38.5423C38.9459 32.8909 39.2732 33.2182 39.2732 33.6219V36.7244H39.2732Z" fill="#FFE69E"/>
<path d="M38.5422 32.8909H38.4681C38.3229 32.8909 38.188 32.9338 38.0743 33.0068C38.2768 33.1367 38.4114 33.3634 38.4114 33.6219V36.7244H39.2731V33.6219C39.2732 33.2182 38.9459 32.8909 38.5422 32.8909Z" fill="#F0B5AE"/>
<path d="M45.644 55.1106H35.1766V37.6746C35.1766 37.1859 35.4888 36.7517 35.952 36.5959L45.644 33.3381V55.1106Z" fill="#EB9C93"/>
<path d="M44.6337 33.6777V55.1106H45.644V33.3381L44.6337 33.6777Z" fill="#F0B5AE"/>
<path d="M52.9237 44.0772V55.1106H45.644V43.2977H52.1441C52.5749 43.2977 52.9237 43.6464 52.9237 44.0772Z" fill="white"/>
<path d="M52.1441 43.2974H51.1337C51.5644 43.2974 51.9135 43.6465 51.9135 44.0772V55.1106H52.9239V44.0773C52.9239 43.6466 52.5748 43.2974 52.1441 43.2974Z" fill="#E26A5C"/>
<path d="M45.644 55.1106H55.1199C55.4118 55.1106 55.6485 54.8739 55.6485 54.582V52.9235H45.644V55.1106Z" fill="#FFDA6E"/>
<path d="M52.9237 50.2501V52.9234H50.6362V52.2029C50.6362 51.122 51.5127 50.2459 52.5937 50.2459H52.7919C52.836 50.2459 52.8801 50.2473 52.9237 50.2501Z" fill="#E26A5C"/>
<path d="M54.6382 52.9235V54.5821C54.6382 54.874 54.4015 55.1107 54.1095 55.1107H55.1199C55.4118 55.1107 55.6485 54.874 55.6485 54.5821V52.9235H54.6382Z" fill="#FFC10D"/>
<path d="M53.4926 50.2457H53.6911C54.7721 50.2457 55.6485 51.1221 55.6485 52.2031V52.9235H51.5352V52.2031C51.5352 51.1221 52.4116 50.2457 53.4926 50.2457Z" fill="#FFC10D"/>
<path d="M53.6911 50.2457H53.4926C53.3534 50.2457 53.2177 50.2605 53.0867 50.2881C53.9729 50.4751 54.6382 51.2613 54.6382 52.2031V52.9235H55.6485V52.2031C55.6485 51.1221 54.7721 50.2457 53.6911 50.2457Z" fill="#FFC10D"/>
<path d="M32.8802 55.1106H35.1766V52.9235H32.3516V54.5821C32.3516 54.8739 32.5883 55.1106 32.8802 55.1106Z" fill="#FFDA6E"/>
<path d="M34.1663 52.9235H35.1766V55.1106H34.1663V52.9235Z" fill="#FFC10D"/>
<path d="M34.9002 50.2457H35.1766V52.9235H32.3516V52.7943C32.3516 51.3868 33.4927 50.2457 34.9002 50.2457Z" fill="#FFC10D"/>
<path d="M34.9002 50.2457C34.645 50.2457 34.3988 50.2837 34.1663 50.3535V52.9235H35.1767V50.2457H34.9002Z" fill="#FFC10D"/>
<path d="M45.644 33.3381L48.9368 36.5211C49.1587 36.7355 49.2839 37.0308 49.2839 37.3393V43.2975H45.644V33.3381Z" fill="#E26A5C"/>
<path d="M48.9369 36.521L45.6441 33.3381V34.3147L47.9266 36.521C48.1484 36.7354 48.2737 37.0307 48.2737 37.3392V43.2974H49.284V37.3393C49.284 37.0307 49.1587 36.7355 48.9369 36.521Z" fill="#F5CDC9"/>
<path d="M41.9037 55.1106H37.7371V52.124C37.7371 51.8924 37.8914 51.6892 38.1144 51.627L41.3866 50.7135C41.6464 50.641 41.9037 50.8363 41.9037 51.106V55.1106Z" fill="#E26A5C"/>
<path d="M41.3866 50.7134L40.8191 50.8719C40.8653 50.9375 40.8934 51.0176 40.8934 51.1059V55.1106H41.9037V51.1059C41.9037 50.8362 41.6464 50.6409 41.3866 50.7134Z" fill="#F5CDC9"/>
<path d="M50.9829 46.1974H47.5352C47.4019 46.1974 47.2939 46.0893 47.2939 45.956V45.1098C47.2939 44.9765 47.4019 44.8684 47.5352 44.8684H50.9829C51.1162 44.8684 51.2243 44.9765 51.2243 45.1098V45.956C51.2243 46.0893 51.1162 46.1974 50.9829 46.1974Z" fill="#EB9C93"/>
<path d="M50.9829 44.8684H49.9726C50.1059 44.8684 50.214 44.9765 50.214 45.1098V45.956C50.214 46.0893 50.1059 46.1973 49.9726 46.1973H50.9829C51.1163 46.1973 51.2243 46.0893 51.2243 45.956V45.1098C51.2243 44.9765 51.1163 44.8684 50.9829 44.8684Z" fill="#F0B5AE"/>
<path d="M50.9829 48.8706H47.5352C47.4019 48.8706 47.2939 48.7626 47.2939 48.6293V47.783C47.2939 47.6497 47.4019 47.5417 47.5352 47.5417H50.9829C51.1162 47.5417 51.2243 47.6497 51.2243 47.783V48.6293C51.2243 48.7626 51.1162 48.8706 50.9829 48.8706Z" fill="#EB9C93"/>
<path d="M50.9829 47.5417H49.9726C50.1059 47.5417 50.214 47.6497 50.214 47.783V48.6292C50.214 48.7625 50.1059 48.8706 49.9726 48.8706H50.9829C51.1163 48.8706 51.2243 48.7625 51.2243 48.6292V47.783C51.2243 47.6497 51.1163 47.5417 50.9829 47.5417Z" fill="#F0B5AE"/>
<path d="M48.6756 51.5712H47.5352C47.4019 51.5712 47.2939 51.4632 47.2939 51.3298V50.4836C47.2939 50.3503 47.4019 50.2422 47.5352 50.2422H48.6756C48.8089 50.2422 48.917 50.3503 48.917 50.4836V51.3298C48.917 51.4632 48.8089 51.5712 48.6756 51.5712Z" fill="#EB9C93"/>
<path d="M48.6756 50.2423H47.6653C47.7986 50.2423 47.9066 50.3504 47.9066 50.4837V51.3299C47.9066 51.4632 47.7986 51.5713 47.6653 51.5713H48.6756C48.8089 51.5713 48.917 51.4632 48.917 51.3299V50.4837C48.917 50.3504 48.8089 50.2423 48.6756 50.2423Z" fill="#F0B5AE"/>
<path d="M53.6911 49.8942C53.5037 49.8964 53.5243 49.8873 53.2752 49.9047V44.0772C53.2752 43.4535 52.7678 42.9461 52.1441 42.9461H49.2885C49.287 42.9461 49.2855 42.9459 49.284 42.9459H45.9956V34.1669L48.6925 36.7738C48.845 36.9212 48.9324 37.1273 48.9324 37.3393V41.6403C48.9324 41.8344 49.0898 41.9918 49.284 41.9918C49.4781 41.9918 49.6355 41.8344 49.6355 41.6403V37.3393C49.6355 36.9378 49.47 36.5474 49.1812 36.2683L45.8883 33.0853C45.8143 33.0159 45.6725 32.9535 45.532 33.0049L39.6247 34.9905V33.6217C39.6292 33.0237 39.0926 32.5031 38.4683 32.5394C37.8713 32.5394 37.3855 33.0249 37.3855 33.6217V35.7432L35.84 36.2627C35.2329 36.4668 34.825 37.0341 34.825 37.6746V49.8961C33.2606 49.9362 32.0001 51.2204 32.0001 52.7943V54.582C32.0001 55.0674 32.3949 55.4621 32.8802 55.4621H55.1199C55.6052 55.4621 56 55.0673 56 54.582V52.2031C56.0001 50.93 54.9643 49.8942 53.6911 49.8942ZM53.6911 50.5973C54.5766 50.5973 55.2969 51.3177 55.2969 52.2032V52.572H51.8868V52.2032C51.8876 51.2422 52.7319 50.5141 53.6911 50.5973ZM52.5721 44.0772V50.0861C51.7558 50.4425 51.1837 51.257 51.1837 52.2031V52.5719H45.9956V43.6492H52.1441C52.3801 43.6492 52.5721 43.8412 52.5721 44.0772ZM38.0887 33.6217C38.0887 33.4126 38.259 33.2425 38.4683 33.2425C38.6564 33.2149 38.9095 33.3623 38.9216 33.6217V35.2268L38.0887 35.5068V33.6217ZM34.8251 50.5986V52.572H32.7143C32.8237 51.4891 33.7227 50.6358 34.8251 50.5986ZM32.7032 54.5821V53.2751H34.8251V54.7591H32.8802C32.7826 54.7591 32.7032 54.6797 32.7032 54.5821ZM35.5282 37.6746C35.5282 37.3365 35.7435 37.0369 36.0641 36.9292L45.2925 33.8272V35.7427L37.6251 38.3201C37.441 38.3819 37.342 38.5812 37.4039 38.7653C37.4532 38.9122 37.5902 39.0049 37.737 39.0049C37.7742 39.0049 37.812 38.999 37.8491 38.9865L45.2925 36.4846V38.2731L37.6251 40.8504C37.441 40.9122 37.342 41.1116 37.4039 41.2956C37.4532 41.4425 37.5902 41.5353 37.737 41.5353C37.7742 41.5353 37.812 41.5294 37.8491 41.5168L45.2925 39.0148V40.8034L37.6251 43.3807C37.441 43.4425 37.342 43.6419 37.4039 43.8259C37.4532 43.9729 37.5902 44.0656 37.737 44.0656C37.7742 44.0656 37.812 44.0597 37.8491 44.0471L45.2925 41.5452V43.2964C45.2925 43.2968 45.2925 43.2972 45.2925 43.2977V43.3338L37.6251 45.911C37.441 45.9729 37.342 46.1722 37.4039 46.3563C37.4532 46.5032 37.5902 46.5959 37.737 46.5959C37.7742 46.5959 37.812 46.59 37.8491 46.5775L45.2924 44.0755V45.864L40.5047 47.4733C40.3207 47.5352 40.2217 47.7345 40.2835 47.9186C40.3329 48.0655 40.4699 48.1582 40.6167 48.1582C40.6538 48.1582 40.6916 48.1523 40.7288 48.1398L45.2924 46.6058V54.759H42.2553V51.1059C42.2553 50.8665 42.1459 50.6461 41.9551 50.5013C41.7644 50.3566 41.5227 50.3104 41.2921 50.3748L38.0199 51.2883C37.6464 51.3926 37.3856 51.7362 37.3856 52.1239V54.759H35.5282V37.6746ZM38.0887 52.124C38.0887 52.0505 38.1382 51.9854 38.2089 51.9656L39.4688 51.6138V54.7591H38.0887V52.124H38.0887ZM40.172 54.7591V51.4175L41.4811 51.0521C41.4988 51.0471 41.5153 51.0502 41.53 51.0614C41.5447 51.0725 41.5521 51.0875 41.5521 51.106V54.7591H40.172ZM45.9956 54.7591V53.2751H51.1837V54.7591H45.9956ZM55.2969 54.5821C55.2969 54.6797 55.2175 54.7591 55.1199 54.7591H51.8868V53.2751H55.2969V54.5821Z" fill="#1B0705"/>
<path d="M37.737 49.1262C37.7742 49.1262 37.812 49.1203 37.8491 49.1078L39.1544 48.669C39.3384 48.6072 39.4375 48.4078 39.3756 48.2237C39.3137 48.0397 39.1144 47.9406 38.9303 48.0025L37.6251 48.4413C37.441 48.5031 37.342 48.7025 37.4039 48.8866C37.4532 49.0334 37.5902 49.1262 37.737 49.1262Z" fill="#1B0705"/>
<path d="M47.5352 46.5489H50.9829C51.3099 46.5489 51.5759 46.283 51.5759 45.9561V45.1098C51.5759 44.7829 51.3099 44.5169 50.9829 44.5169H47.5352C47.2083 44.5169 46.9424 44.7829 46.9424 45.1098V45.9561C46.9424 46.283 47.2083 46.5489 47.5352 46.5489ZM47.6455 45.22H50.8727V45.8458H47.6455V45.22Z" fill="#1B0705"/>
<path d="M47.5352 49.2222H50.9829C51.3099 49.2222 51.5759 48.9563 51.5759 48.6293V47.7831C51.5759 47.4561 51.3099 47.1902 50.9829 47.1902H47.5352C47.2083 47.1902 46.9424 47.4562 46.9424 47.7831V48.6293C46.9424 48.9563 47.2083 49.2222 47.5352 49.2222ZM47.6455 47.8933H50.8727V48.5191H47.6455V47.8933Z" fill="#1B0705"/>
<path d="M47.5352 51.9228H48.6756C49.0026 51.9228 49.2685 51.6568 49.2685 51.3299V50.4837C49.2685 50.1567 49.0026 49.8907 48.6756 49.8907H47.5352C47.2083 49.8907 46.9424 50.1567 46.9424 50.4837V51.3299C46.9424 51.6568 47.2083 51.9228 47.5352 51.9228ZM47.6455 50.5939H48.5654V51.2197H47.6455V50.5939Z" fill="#1B0705"/>
</g>
<defs>
<clipPath id="clip0_1193_2398">
<rect width="24" height="24" fill="white" transform="translate(32.0001 31.9999)"/>
</clipPath>
</defs>
</svg>
