<svg width="157" height="33" viewBox="0 0 157 33" fill="none" xmlns="http://www.w3.org/2000/svg">
<path fill-rule="evenodd" clip-rule="evenodd" d="M125.066 22.2166C125.295 21.5631 125.381 20.739 125.381 19.3751C125.381 18.0109 125.295 17.2153 125.066 16.5333C124.608 15.1694 123.549 14.4872 122.033 14.4872C120.516 14.4872 119.485 15.1976 119.028 16.5333C118.798 17.2723 118.712 18.1533 118.712 19.3751C118.712 20.6254 118.798 21.5062 119.028 22.2166C119.485 23.5523 120.516 24.291 122.033 24.291C123.549 24.291 124.608 23.5805 125.066 22.2166ZM125.667 26.1951C125.496 26.1951 125.381 26.0814 125.381 25.9109V24.6039H125.353C124.694 25.6834 123.521 26.5074 121.46 26.5074C119.085 26.5074 117.425 25.3992 116.738 23.2394C116.366 22.1599 116.252 21.0802 116.252 19.3751C116.252 17.6985 116.366 16.6185 116.738 15.5387C117.425 13.3789 119.085 12.2707 121.46 12.2707C123.521 12.2707 124.694 13.0666 125.353 14.1461H125.381V7.15582C125.381 6.98526 125.496 6.87137 125.667 6.87137H127.499C127.671 6.87137 127.785 6.98526 127.785 7.15582V25.9109C127.785 26.0814 127.671 26.1951 127.499 26.1951H125.667ZM139.577 21.7905V20.2842C139.577 20.1706 139.52 20.1137 139.406 20.1137H136.658C134.283 20.1137 133.252 20.7959 133.252 22.3301C133.252 23.7228 134.283 24.4617 136.114 24.4617C138.261 24.4617 139.577 23.4671 139.577 21.7905ZM139.921 26.195C139.749 26.195 139.635 26.0814 139.635 25.9108V24.7174H139.606C138.976 25.7402 137.631 26.5076 135.542 26.5076C132.938 26.5076 130.934 25.1722 130.934 22.4155C130.934 19.5456 132.938 18.2099 136.286 18.2099H139.406C139.52 18.2099 139.577 18.1532 139.577 18.0393V17.0447C139.577 15.1693 138.833 14.3735 136.286 14.3735C134.741 14.3735 133.768 14.7713 132.966 15.3399C132.823 15.4535 132.651 15.4535 132.565 15.3111L131.792 14.0042C131.707 13.8336 131.735 13.72 131.85 13.6064C132.88 12.8108 134.483 12.2709 136.515 12.2709C140.407 12.2709 141.895 13.5494 141.895 16.9029V25.9108C141.895 26.0814 141.781 26.195 141.609 26.195H139.921ZM145.617 31.31C145.445 31.31 145.331 31.1964 145.331 31.0258V29.3777C145.331 29.2072 145.445 29.0935 145.617 29.0935H146.132C147.249 29.0935 147.849 28.6106 148.45 27.0474L148.908 25.7973L143.871 12.8673C143.814 12.697 143.9 12.5831 144.1 12.5831H146.103C146.275 12.5831 146.39 12.6686 146.447 12.8673L150.053 22.6999H150.11L153.574 12.8673C153.631 12.6686 153.745 12.5831 153.917 12.5831H155.863C156.035 12.5831 156.149 12.697 156.092 12.8673L150.683 27.2467C149.481 30.4575 148.422 31.31 146.361 31.31H145.617Z" fill="#1B0705"/>
<path fill-rule="evenodd" clip-rule="evenodd" d="M76.1252 12.6411C76.1252 10.5382 74.7228 9.23098 72.3188 9.23098H67.9686C67.8541 9.23098 67.7968 9.28792 67.7968 9.40154V15.8806C67.7968 15.9943 67.8541 16.0509 67.9686 16.0509H72.3188C74.7228 16.0509 76.1252 14.7439 76.1252 12.6411ZM65.5358 26.1958C65.3643 26.1958 65.2496 26.0822 65.2496 25.9117V7.1566C65.2496 6.98631 65.3643 6.87243 65.5358 6.87243H72.4619C76.211 6.87243 78.6437 9.14583 78.6437 12.6411C78.6437 16.1363 76.211 18.4095 72.4619 18.4095H67.9686C67.8541 18.4095 67.7968 18.4664 67.7968 18.58V25.9117C67.7968 26.0822 67.6823 26.1958 67.5106 26.1958H65.5358ZM84.5692 26.3381C82.1648 26.3381 81.2204 25.2014 81.2204 22.7575V7.15679C81.2204 6.98623 81.3348 6.87234 81.5066 6.87234H83.3383C83.5101 6.87234 83.6245 6.98623 83.6245 7.15679V22.6154C83.6245 23.7521 84.0538 24.1214 84.9982 24.1214H85.5422C85.7137 24.1214 85.8282 24.235 85.8282 24.4056V26.0537C85.8282 26.2242 85.7137 26.3381 85.5422 26.3381H84.5692ZM96.3039 21.7914V20.2851C96.3039 20.1715 96.2465 20.1146 96.1321 20.1146H93.3847C91.009 20.1146 89.9786 20.7968 89.9786 22.331C89.9786 23.7237 91.009 24.4626 92.8407 24.4626C94.9873 24.4626 96.3039 23.468 96.3039 21.7914ZM96.6472 26.1959C96.4754 26.1959 96.361 26.0823 96.361 25.9117V24.7183H96.3323C95.7028 25.7411 94.3575 26.5085 92.2683 26.5085C89.664 26.5085 87.6606 25.1731 87.6606 22.4164C87.6606 19.5465 89.664 18.2107 93.0125 18.2107H96.1321C96.2465 18.2107 96.3039 18.1541 96.3039 18.0402V17.0456C96.3039 15.1702 95.5594 14.3744 93.0125 14.3744C91.467 14.3744 90.494 14.7722 89.6924 15.3408C89.5496 15.4544 89.3778 15.4544 89.2918 15.312L88.5189 14.0051C88.4334 13.8345 88.4618 13.7209 88.5763 13.6073C89.6067 12.8117 91.2095 12.2718 93.2413 12.2718C97.1338 12.2718 98.622 13.5503 98.622 16.9038V25.9117C98.622 26.0823 98.5075 26.1959 98.3357 26.1959H96.6472ZM111.244 26.1959C111.072 26.1959 110.958 26.0823 110.958 25.9118V17.9548C110.958 15.7668 109.956 14.488 107.895 14.488C106.035 14.488 104.747 15.7956 104.747 17.813V25.9118C104.747 26.0823 104.633 26.1959 104.461 26.1959H102.629C102.458 26.1959 102.343 26.0823 102.343 25.9118V12.8684C102.343 12.6981 102.458 12.5842 102.629 12.5842H104.461C104.633 12.5842 104.747 12.6981 104.747 12.8684V14.1187H104.776C105.434 13.0674 106.751 12.2716 108.611 12.2716C111.588 12.2716 113.362 14.2893 113.362 17.3867V25.9118C113.362 26.0823 113.248 26.1959 113.076 26.1959H111.244Z" fill="#1B0705"/>
<path fill-rule="evenodd" clip-rule="evenodd" d="M41.3653 13.6421C40.7612 10.918 39.2739 8.34202 36.8818 6.34926C31.0369 1.4795 22.7475 2.44266 18.0726 7.9746L18.0724 7.97487L18.0721 7.97514L1.09187 28.0678C-0.0098136 29.3716 0.0759396 30.8217 1.29833 31.8402C2.52072 32.8587 3.97416 32.6906 5.07584 31.3871L15.2431 19.356L22.0096 11.3495L22.011 11.3505C22.0263 11.3318 22.0408 11.3126 22.0563 11.2941C22.1489 11.1846 22.2434 11.0788 22.3393 10.9755C22.3548 10.959 22.3712 10.943 22.3868 10.9262C25.4897 7.64622 30.3711 7.58684 33.5781 10.2586C33.5781 10.2586 33.5972 10.2705 33.6333 10.2903C37.4001 13.4735 37.2 18.571 34.552 21.7043C34.4597 21.8135 34.2374 22.0554 34.2215 22.0719C31.1189 25.3519 26.3112 25.4224 22.9753 22.7078C22.2789 22.1194 21.7182 21.4656 21.2837 20.7706C20.7627 19.9374 19.5747 19.8533 18.9408 20.6055L16.7631 23.1889C17.5158 24.4563 18.5022 25.629 19.7265 26.6491C25.5714 31.5186 33.8608 30.5555 38.5357 25.0238C38.5357 25.0238 42.2722 20.7216 41.3653 13.6421Z" fill="#1B0705"/>
<path fill-rule="evenodd" clip-rule="evenodd" d="M41.3739 13.6439L51.5414 1.61302C52.6431 0.309278 54.0962 0.14143 55.3186 1.15964C56.541 2.17811 56.627 3.62855 55.5253 4.93202L38.5358 25.0234C33.8609 30.5553 25.5713 31.5182 19.7264 26.6487C18.5024 25.6289 17.5159 24.4558 16.763 23.1887L18.9407 20.6051C19.5748 19.8532 20.7628 19.9372 21.2839 20.7705C21.7184 21.4652 22.2875 22.1211 22.9839 22.7096C26.2942 25.4136 31.1135 25.3542 34.2165 22.0742C34.2206 22.0699 34.479 21.7865 34.547 21.7063L41.3739 13.6439Z" fill="#1B0705"/>
</svg>
