<svg width="88" height="88" viewBox="0 0 88 88" fill="none" xmlns="http://www.w3.org/2000/svg">
<path d="M46.6555 75.6026C42.4677 75.9513 38.2522 75.4718 34.2497 74.1914C30.2473 72.9109 26.5362 70.8547 23.3284 68.1401C20.1205 65.4255 17.4788 62.1056 15.554 58.37C13.6292 54.6344 12.4591 50.5563 12.1103 46.3685L15.2993 46.103C15.6132 49.872 16.6663 53.5423 18.3986 56.9043C20.1309 60.2663 22.5085 63.2542 25.3955 65.6974C28.2825 68.1405 31.6225 69.9911 35.2248 71.1435C38.827 72.2959 42.6209 72.7275 46.39 72.4136L46.6555 75.6026Z" fill="#FFC10D"/>
<path d="M16.2873 27.7128C18.3885 24.0735 21.1859 20.8837 24.5198 18.3255C27.8537 15.7673 31.6588 13.8909 35.7179 12.8032C39.777 11.7156 44.0106 11.4381 48.177 11.9866C52.3433 12.5351 56.3608 13.8989 60.0001 16L58.4001 18.7713C55.1248 16.8803 51.509 15.6529 47.7593 15.1592C44.0096 14.6656 40.1993 14.9153 36.5462 15.8942C32.893 16.8731 29.4683 18.5619 26.4678 20.8643C23.4673 23.1666 20.9496 26.0375 19.0586 29.3128L16.2873 27.7128Z" fill="#FFC10D"/>
<path d="M71.7128 27.7129C73.8139 31.3522 75.1777 35.3697 75.7262 39.536C76.2747 43.7024 75.9972 47.936 74.9096 51.9951C73.822 56.0542 71.9455 59.8593 69.3873 63.1932C66.8291 66.5271 63.6393 69.3245 60 71.4257L58.4 68.6544C61.6754 66.7634 64.5462 64.2457 66.8486 61.2452C69.1509 58.2447 70.8398 54.8201 71.8186 51.1669C72.7975 47.5137 73.0473 43.7034 72.5536 39.9537C72.0599 36.204 70.8325 32.5882 68.9415 29.3129L71.7128 27.7129Z" fill="#FFC10D"/>
<g clip-path="url(#clip0_1193_3653)">
<path d="M51.0001 36.8599L42.0091 41.2429L38.5081 39.5419L37.0501 38.8309L33.0001 36.8599L41.9911 32.4859L45.8251 34.3499L47.3551 35.0879L51.0001 36.8599Z" fill="#FFC10D"/>
<path d="M41.9901 51.7789L32.5001 46.8399V37.3599L41.9901 41.7299V51.7789Z" fill="#FFE69E"/>
<path d="M51.5001 37.3599V46.8399L42.0101 51.7789V41.7299L51.5001 37.3599Z" fill="#FFC10D"/>
<path d="M49.5001 55.3499C46.2741 55.3499 43.6501 52.7259 43.6501 49.4999C43.6501 46.2739 46.2741 43.6499 49.5001 43.6499C52.7261 43.6499 55.3501 46.2739 55.3501 49.4999C55.3501 52.7259 52.7261 55.3499 49.5001 55.3499Z" fill="white"/>
<path d="M48.5001 52.2499C48.3011 52.2499 48.1101 52.1709 47.9701 52.0299L46.2201 50.2799C45.9271 49.9869 45.9271 49.5119 46.2201 49.2189C46.5131 48.9259 46.9881 48.9259 47.2811 49.2189L48.4621 50.3989L51.1841 47.2579C51.4561 46.9459 51.9281 46.9099 52.2421 47.1819C52.5551 47.4529 52.5891 47.9269 52.3181 48.2399L49.0681 51.9899C48.9311 52.1469 48.7361 52.2409 48.5281 52.2479C48.5181 52.2499 48.5091 52.2499 48.5001 52.2499Z" fill="#E68378"/>
<path d="M49.5001 55.9999C45.9161 55.9999 43.0001 53.0839 43.0001 49.4999C43.0001 45.9159 45.9161 42.9999 49.5001 42.9999C53.0841 42.9999 56.0001 45.9159 56.0001 49.4999C56.0001 53.0839 53.0841 55.9999 49.5001 55.9999ZM49.5001 44.4999C46.7431 44.4999 44.5001 46.7429 44.5001 49.4999C44.5001 52.2569 46.7431 54.4999 49.5001 54.4999C52.2571 54.4999 54.5001 52.2569 54.5001 49.4999C54.5001 46.7429 52.2571 44.4999 49.5001 44.4999Z" fill="#D73927"/>
<path d="M42.007 42.4999C41.729 42.4999 41.462 42.3449 41.332 42.0779C41.151 41.7059 41.306 41.2569 41.678 41.0759L50.922 36.5759C51.156 36.4629 51.429 36.4779 51.648 36.6149C51.867 36.7509 52 36.9919 52 37.2499V41.2499C52 41.6639 51.664 41.9999 51.25 41.9999C50.836 41.9999 50.5 41.6639 50.5 41.2499V38.4489L42.334 42.4239C42.229 42.4759 42.117 42.4999 42.007 42.4999Z" fill="#D73927"/>
<path d="M41.2501 51.9999C41.1251 51.9999 41.0001 51.9689 40.8841 51.9049L32.3841 47.1549C32.1471 47.0219 32.0001 46.7709 32.0001 46.4999V37.2499C32.0001 36.9919 32.1331 36.7509 32.3531 36.6139C32.5711 36.4759 32.8461 36.4619 33.0791 36.5749L42.3231 41.0749C42.6961 41.2559 42.8501 41.7049 42.6691 42.0769C42.4871 42.4499 42.0371 42.6029 41.6671 42.4229L33.5001 38.4489V46.0599L41.6161 50.5949C41.9781 50.7969 42.1071 51.2539 41.9051 51.6159C41.7681 51.8619 41.5121 51.9999 41.2501 51.9999Z" fill="#DD5141"/>
<path d="M32.7501 37.9999C32.4731 37.9999 32.2061 37.8449 32.0761 37.5779C31.8951 37.2059 32.0501 36.7569 32.4221 36.5759L41.6661 32.0759C41.8731 31.9749 42.1151 31.9749 42.3221 32.0759L51.5781 36.5759C51.9511 36.7569 52.1051 37.2059 51.9241 37.5779C51.7431 37.9499 51.2951 38.1069 50.9221 37.9239L41.9941 33.5839L33.0781 37.9239C32.9731 37.9759 32.8611 37.9999 32.7501 37.9999Z" fill="#D73927"/>
<path d="M37.2501 43.9899C36.8361 43.9899 36.5001 43.6539 36.5001 43.2399V39.4399C36.5001 39.1569 36.6601 38.8979 36.9131 38.7699L46.0031 34.1889C46.3721 34.0039 46.8231 34.1509 47.0101 34.5219C47.1961 34.8919 47.0481 35.3429 46.6771 35.5289L38.0001 39.9019V43.2399C38.0001 43.6539 37.6641 43.9899 37.2501 43.9899Z" fill="#D73927"/>
</g>
<defs>
<clipPath id="clip0_1193_3653">
<rect width="24" height="24" fill="white" transform="translate(32.0001 31.9999)"/>
</clipPath>
</defs>
</svg>
