<svg width="88" height="88" viewBox="0 0 88 88" fill="none" xmlns="http://www.w3.org/2000/svg">
<path d="M46.6555 75.6026C42.4677 75.9513 38.2522 75.4718 34.2497 74.1914C30.2473 72.9109 26.5362 70.8547 23.3284 68.1401C20.1205 65.4255 17.4788 62.1056 15.554 58.37C13.6292 54.6344 12.4591 50.5563 12.1103 46.3685L15.2993 46.103C15.6132 49.872 16.6663 53.5423 18.3986 56.9043C20.1309 60.2663 22.5085 63.2542 25.3955 65.6974C28.2825 68.1405 31.6225 69.9911 35.2248 71.1435C38.827 72.2959 42.6209 72.7275 46.39 72.4136L46.6555 75.6026Z" fill="#FFC10D"/>
<path d="M16.2873 27.7128C18.3885 24.0735 21.1859 20.8837 24.5198 18.3255C27.8537 15.7673 31.6588 13.8909 35.7179 12.8032C39.777 11.7156 44.0106 11.4381 48.177 11.9866C52.3433 12.5351 56.3608 13.8989 60.0001 16L58.4001 18.7713C55.1248 16.8803 51.509 15.6529 47.7593 15.1592C44.0096 14.6656 40.1993 14.9153 36.5462 15.8942C32.893 16.8731 29.4683 18.5619 26.4678 20.8643C23.4673 23.1666 20.9496 26.0375 19.0586 29.3128L16.2873 27.7128Z" fill="#FFC10D"/>
<path d="M71.7128 27.7129C73.8139 31.3522 75.1777 35.3697 75.7262 39.536C76.2747 43.7024 75.9972 47.936 74.9096 51.9951C73.822 56.0542 71.9455 59.8593 69.3873 63.1932C66.8291 66.5271 63.6393 69.3245 60 71.4257L58.4 68.6544C61.6753 66.7634 64.5462 64.2457 66.8486 61.2452C69.1509 58.2447 70.8398 54.8201 71.8186 51.1669C72.7975 47.5137 73.0473 43.7034 72.5536 39.9537C72.0599 36.204 70.8325 32.5882 68.9415 29.3129L71.7128 27.7129Z" fill="#FFC10D"/>
<g clip-path="url(#clip0_1193_3613)">
<path d="M53.969 36.8074H34.0312V53.8722H53.969V36.8074Z" fill="#E9EAEB"/>
<path d="M53.969 36.8074H51.4377V53.8722H53.969V36.8074Z" fill="#B9BBC1"/>
<path d="M54.0385 36.8073H33.9616V34.0059C33.9616 33.7821 34.143 33.6007 34.3669 33.6007H53.6333C53.8571 33.6007 54.0385 33.7821 54.0385 34.0059V36.8073Z" fill="#FDC74F"/>
<path d="M53.6332 33.6007H51.5072V35.7096H54.0385V34.0059C54.0385 33.7821 53.857 33.6007 53.6332 33.6007Z" fill="#FCA629"/>
<path d="M34.0312 41.8872C33.1136 41.8872 32.3698 41.1433 32.3698 40.2257V38.8721H35.6927V40.2257C35.6927 41.1433 34.9488 41.8872 34.0312 41.8872Z" fill="#E60D28"/>
<path d="M37.3542 41.8872C36.4365 41.8872 35.6927 41.1433 35.6927 40.2257V38.8721H39.0156V40.2257C39.0157 41.1433 38.2718 41.8872 37.3542 41.8872Z" fill="#F2F2F2"/>
<path d="M40.6771 41.8872C39.7595 41.8872 39.0157 41.1433 39.0157 40.2257V38.8721H42.3386V40.2257C42.3386 41.1433 41.5947 41.8872 40.6771 41.8872Z" fill="#E60D28"/>
<path d="M44.0001 41.8872C43.0824 41.8872 42.3386 41.1433 42.3386 40.2257V38.8721H45.6615V40.2257C45.6615 41.1433 44.9177 41.8872 44.0001 41.8872Z" fill="#F2F2F2"/>
<path d="M47.323 41.8872C46.4054 41.8872 45.6615 41.1433 45.6615 40.2257V38.8721H48.9845V40.2257C48.9845 41.1433 48.2406 41.8872 47.323 41.8872Z" fill="#E60D28"/>
<path d="M50.6459 41.8872C49.7283 41.8872 48.9845 41.1433 48.9845 40.2257V38.8721H52.3074V40.2257C52.3074 41.1433 51.5636 41.8872 50.6459 41.8872Z" fill="#F2F2F2"/>
<path d="M53.9689 41.8872C53.0512 41.8872 52.3074 41.1433 52.3074 40.2257V38.8721H55.6303V40.2257C55.6304 41.1433 54.8865 41.8872 53.9689 41.8872Z" fill="#E60D28"/>
<path d="M35.6927 38.8722H32.3698L33.9599 35.7096H36.8286L35.6927 38.8722Z" fill="#FC502A"/>
<path d="M39.0157 38.8722H35.6927L36.8286 35.7096H39.6972L39.0157 38.8722Z" fill="white"/>
<path d="M42.3386 38.8722H39.0157L39.6972 35.7096H42.5658L42.3386 38.8722Z" fill="#FC502A"/>
<path d="M45.6615 38.8722H42.3386L42.5658 35.7096H45.4343L45.6615 38.8722Z" fill="white"/>
<path d="M48.9845 38.8722H45.6615L45.4343 35.7096H48.303L48.9845 38.8722Z" fill="#FC502A"/>
<path d="M52.3074 38.8722H48.9845L48.3029 35.7096H51.1716L52.3074 38.8722Z" fill="white"/>
<path d="M55.6304 38.8722H52.3074L51.1716 35.7096H54.0402L55.6304 38.8722Z" fill="#FC502A"/>
<path d="M54.8896 52.3131H33.1104C32.6913 52.3131 32.3516 52.6529 32.3516 53.072V54.184C32.3516 54.3028 32.448 54.3991 32.5667 54.3991H55.4334C55.5522 54.3991 55.6485 54.3028 55.6485 54.184V53.072C55.6485 52.6529 55.3087 52.3131 54.8896 52.3131Z" fill="#8B8996"/>
<path d="M54.8897 52.3131H53.1095V54.399H55.4334C55.5522 54.399 55.6485 54.3028 55.6485 54.1839V53.0719C55.6485 52.6529 55.3087 52.3131 54.8897 52.3131Z" fill="#706F7F"/>
<path d="M52.0051 50.0828H41.7712C41.6042 50.0828 41.4688 49.9474 41.4688 49.7805V44.1491C41.4688 43.9822 41.6042 43.8468 41.7712 43.8468H52.0051C52.1721 43.8468 52.3074 43.9822 52.3074 44.1491V49.7805C52.3074 49.9475 52.1721 50.0828 52.0051 50.0828Z" fill="#00C6C8"/>
<path d="M52.0051 43.8468H49.7684V50.0828H52.0051C52.1721 50.0828 52.3074 49.9474 52.3074 49.7805V44.1491C52.3074 43.9821 52.1721 43.8468 52.0051 43.8468Z" fill="#0FB0C0"/>
<path d="M40.0314 52.3131H35.3623V44.1491C35.3623 43.9822 35.4976 43.8468 35.6646 43.8468H39.7291C39.8961 43.8468 40.0314 43.9822 40.0314 44.1491V52.3131Z" fill="#00C6C8"/>
<path d="M39.7291 43.8468H37.4924V52.3131H40.0314V44.1491C40.0314 43.9821 39.8961 43.8468 39.7291 43.8468Z" fill="#0FB0C0"/>
<path d="M38.7266 48.629C38.9208 48.629 39.0782 48.4716 39.0782 48.2775V47.6447C39.0782 47.4505 38.9208 47.2931 38.7266 47.2931C38.5325 47.2931 38.3751 47.4505 38.3751 47.6447V48.2775C38.3751 48.4716 38.5325 48.629 38.7266 48.629Z" fill="black"/>
<path d="M54.8897 51.9615H54.3205V42.2074C55.2634 42.0405 55.982 41.2157 55.982 40.2257V38.8721C55.982 38.8652 55.9813 38.8585 55.9809 38.8517C55.9807 38.8479 55.9807 38.8441 55.9804 38.8403C55.9791 38.8264 55.9772 38.8128 55.9744 38.7995C55.9742 38.7987 55.974 38.7979 55.9738 38.7972C55.971 38.7844 55.9674 38.7719 55.9633 38.7597C55.9622 38.7566 55.961 38.7535 55.9599 38.7504C55.956 38.7399 55.9517 38.7297 55.9469 38.7197C55.946 38.7179 55.9454 38.716 55.9445 38.7142L54.39 35.6228V34.0059C54.39 33.5887 54.0505 33.2491 53.6332 33.2491H37.6464C37.4523 33.2491 37.2949 33.4066 37.2949 33.6007C37.2949 33.7949 37.4523 33.9523 37.6464 33.9523H53.6332C53.6628 33.9523 53.6869 33.9764 53.6869 34.0059V35.358H34.3132V34.0059C34.3132 33.9764 34.3373 33.9523 34.3669 33.9523H36.0107C36.2048 33.9523 36.3622 33.7949 36.3622 33.6007C36.3622 33.4066 36.2048 33.2491 36.0107 33.2491H34.3669C33.9496 33.2491 33.6101 33.5887 33.6101 34.0059V35.6228L32.0557 38.7142C32.0548 38.716 32.0542 38.718 32.0533 38.7197C32.0485 38.7297 32.0442 38.7399 32.0403 38.7504C32.0392 38.7535 32.0379 38.7566 32.0369 38.7597C32.0328 38.7719 32.0292 38.7844 32.0264 38.7972C32.0262 38.7979 32.026 38.7987 32.0258 38.7995C32.023 38.8128 32.021 38.8264 32.0198 38.8403C32.0195 38.8441 32.0195 38.8479 32.0192 38.8517C32.0189 38.8585 32.0182 38.8652 32.0182 38.8721V40.2257C32.0182 41.2157 32.7368 42.0405 33.6797 42.2074V51.9615H33.1104C32.4982 51.9615 32.0001 52.4597 32.0001 53.072V54.1839C32.0001 54.4964 32.2543 54.7506 32.5667 54.7506H55.4334C55.7459 54.7506 56.0001 54.4964 56.0001 54.1839V53.072C56.0001 52.4597 55.502 51.9615 54.8897 51.9615ZM55.2788 40.2257C55.2788 40.948 54.6912 41.5357 53.9689 41.5357C53.2466 41.5357 52.659 40.948 52.659 40.2257V39.2237H55.2788V40.2257ZM53.8234 36.0611L55.0601 38.5206H52.5547L51.6714 36.0611H53.8234ZM50.9242 36.0611L51.8076 38.5206H49.2683L48.7383 36.0611H50.9242ZM51.9559 39.2237V40.2257C51.9559 40.948 51.3682 41.5356 50.646 41.5356C49.9237 41.5356 49.336 40.948 49.336 40.2257V39.2237H51.9559ZM48.0191 36.0611L48.5491 38.5206H45.9888L45.8121 36.0611H48.0191ZM48.6329 39.2237V40.2257C48.6329 40.948 48.0453 41.5356 47.323 41.5356C46.6008 41.5356 46.0131 40.948 46.0131 40.2257V39.2237H48.6329ZM42.893 36.0611H45.1071L45.2838 38.5206H42.7163L42.893 36.0611ZM42.6901 39.2237H45.31V40.2257C45.31 40.948 44.7224 41.5356 44.0001 41.5356C43.2778 41.5356 42.6901 40.948 42.6901 40.2257V39.2237ZM44.0001 42.2387C44.6893 42.2387 45.2985 41.8904 45.6615 41.3607C46.0245 41.8904 46.6338 42.2387 47.323 42.2387C48.0123 42.2387 48.6215 41.8904 48.9845 41.3607C49.3475 41.8904 49.9567 42.2387 50.646 42.2387C51.3352 42.2387 51.9444 41.8904 52.3074 41.3607C52.6072 41.7982 53.0752 42.1114 53.6174 42.2074V51.9615H40.383V44.1492C40.383 43.7886 40.0897 43.4953 39.7291 43.4953H35.6646C35.304 43.4953 35.0107 43.7886 35.0107 44.1492V51.9615H34.3828V42.2074C34.925 42.1114 35.3929 41.7982 35.6927 41.3607C36.0557 41.8904 36.665 42.2387 37.3542 42.2387C38.0435 42.2387 38.6527 41.8904 39.0157 41.3607C39.3787 41.8904 39.9879 42.2387 40.6771 42.2387C41.3663 42.2387 41.9756 41.8904 42.3386 41.3607C42.7016 41.8904 43.3108 42.2387 44.0001 42.2387ZM39.6799 44.1984V51.9615H35.7138V44.1984H39.6799ZM36.0442 40.2257V39.2237H38.6641V40.2257C38.6641 40.948 38.0765 41.5357 37.3542 41.5357C36.6319 41.5357 36.0442 40.948 36.0442 40.2257ZM39.981 36.0611H42.188L42.0113 38.5206H39.451L39.981 36.0611ZM39.3672 39.2237H41.987V40.2257C41.987 40.948 41.3994 41.5356 40.6771 41.5356C39.9548 41.5356 39.3672 40.948 39.3672 40.2257V39.2237ZM39.2617 36.0611L38.7317 38.5206H36.1925L37.0758 36.0611H39.2617ZM34.1767 36.0611H36.3287L35.4454 38.5206H32.94L34.1767 36.0611ZM32.7213 40.2257V39.2237H35.3412V40.2257C35.3412 40.948 34.7535 41.5357 34.0312 41.5357C33.309 41.5357 32.7213 40.948 32.7213 40.2257ZM55.2969 54.0475H32.7032V53.0719C32.7032 52.8473 32.8859 52.6647 33.1104 52.6647H54.8896C55.1142 52.6647 55.2969 52.8473 55.2969 53.0719V54.0475H55.2969Z" fill="black"/>
<path d="M41.1172 44.1491V49.7805C41.1172 50.1411 41.4106 50.4344 41.7712 50.4344H52.005C52.3656 50.4344 52.659 50.1411 52.659 49.7805V44.1491C52.659 43.7886 52.3656 43.4952 52.005 43.4952H47.706C47.5118 43.4952 47.3544 43.6526 47.3544 43.8468C47.3544 44.041 47.5118 44.1984 47.706 44.1984H51.9559V49.7313H41.8204V44.1984H46.0508C46.245 44.1984 46.4024 44.041 46.4024 43.8468C46.4024 43.6526 46.245 43.4952 46.0508 43.4952H41.7712C41.4106 43.4952 41.1172 43.7885 41.1172 44.1491Z" fill="black"/>
</g>
<defs>
<clipPath id="clip0_1193_3613">
<rect width="24" height="24" fill="white" transform="translate(32.0001 31.9999)"/>
</clipPath>
</defs>
</svg>
