<svg width="48" height="48" viewBox="0 0 48 48" fill="none" xmlns="http://www.w3.org/2000/svg">
<path d="M30.7141 19.3533L30.3066 26.2304L11.3422 43.1263L14.2452 34.6351L30.7141 19.3533Z" fill="#FFC10D"/>
<path d="M0 48L11.3565 40.6118L13.1244 35.679L0 48Z" fill="#D73927"/>
<path d="M30.7177 17.2871L17.327 19.9785L31.4649 3.45621L30.7177 17.2871Z" fill="#FFC10D"/>
<path d="M7.67584 39.6465L17.2054 20.9301L30.5962 18.2386L7.67584 39.6465Z" fill="#FFC10D"/>
<path d="M32.1907 3.5722L36.7472 8.75459L31.5758 15.2621L32.1907 3.5722Z" fill="#FFC10D"/>
<path d="M48 14.3774L37.3193 9.19501L35.8266 11.0961L48 14.3774Z" fill="#D73927"/>
<path d="M26.1308 8.55998L17.8793 0L30.8625 3.13971L26.1308 8.55998Z" fill="#FFC10D"/>
<path d="M30.5479 22.0724L11.3422 43.1263L30.3066 26.2305L30.5479 22.0724Z" fill="#D73927"/>
<path d="M30.5944 18.2484L10.6772 33.7818L7.67584 39.6464L30.5944 18.2484Z" fill="#F89F1F"/>
<path d="M23.2796 1.30543L20.5821 2.80352L17.8793 0L23.2796 1.30543Z" fill="#D73927"/>
<path d="M30.9197 13.2745L17.3448 19.9648L30.7642 17.2969L30.9197 13.2745Z" fill="#FAAC2B"/>
</svg>
