<svg width="70" height="64" viewBox="0 0 70 64" fill="none" xmlns="http://www.w3.org/2000/svg">
<g clip-path="url(#clip0_1301_4358)">
<path d="M25.2884 25.8203L25.8817 34.9954L53.4888 57.537L49.2627 46.2085L25.2884 25.8203Z" fill="#FFC10D"/>
<path d="M70 64.0393L53.468 54.1823L50.8944 47.6013L70 64.0393Z" fill="#D73927"/>
<path d="M25.2831 23.0635L44.7764 26.6544L24.1953 4.61108L25.2831 23.0635Z" fill="#FFC10D"/>
<path d="M58.8262 52.8943L44.9537 27.9238L25.4604 24.333L58.8262 52.8943Z" fill="#FFC10D"/>
<path d="M23.139 4.76587L16.5059 11.68L24.0342 20.3619L23.139 4.76587Z" fill="#FFC10D"/>
<path d="M0.125 19.1817L15.6733 12.2676L17.8462 14.804L0.125 19.1817Z" fill="#D73927"/>
<path d="M31.9608 11.4203L43.9727 0L25.0727 4.18885L31.9608 11.4203Z" fill="#FFC10D"/>
<path d="M25.5304 29.4478L53.4888 57.5369L25.8817 34.9953L25.5304 29.4478Z" fill="#D73927"/>
<path d="M25.463 24.3462L54.457 45.0701L58.8262 52.8944L25.463 24.3462Z" fill="#F89F1F"/>
<path d="M36.1113 1.74164L40.0381 3.74033L43.9727 0L36.1113 1.74164Z" fill="#D73927"/>
<path d="M24.9892 17.7102L44.7505 26.6361L25.2155 23.0768L24.9892 17.7102Z" fill="#FAAC2B"/>
</g>
<defs>
<clipPath id="clip0_1301_4358">
<rect width="70" height="64" fill="white" transform="matrix(-1 0 0 1 70 0)"/>
</clipPath>
</defs>
</svg>
