<svg width="48" height="48" viewBox="0 0 48 48" fill="none" xmlns="http://www.w3.org/2000/svg">
<path d="M40.485 13.4925C43.7987 13.4925 46.485 10.8062 46.485 7.4925C46.485 4.17879 43.7987 1.4925 40.485 1.4925C37.1713 1.4925 34.485 4.17879 34.485 7.4925C34.485 10.8062 37.1713 13.4925 40.485 13.4925Z" fill="#FF826E"/>
<path d="M29.985 7.4925V29.2425H28.485H26.985V6.7425C26.985 6.3225 26.6475 5.9925 26.235 5.9925H22.485V2.9925H26.985C28.635 2.9925 29.985 4.335 29.985 5.9925V7.4925Z" fill="#5CD6B3"/>
<path d="M23.985 41.2425V41.9925H4.48499C2.82749 41.9925 1.48499 40.6425 1.48499 38.9925V5.9925C1.48499 4.335 2.82749 2.9925 4.48499 2.9925H8.98499V5.9925H5.23499C4.81499 5.9925 4.48499 6.3225 4.48499 6.7425V38.2425C4.48499 38.655 4.81499 38.9925 5.23499 38.9925H23.985V41.2425Z" fill="#5CD6B3"/>
<path d="M26.985 6.7425V29.2425H23.985V38.9925H5.23499C4.81499 38.9925 4.48499 38.655 4.48499 38.2425V6.7425C4.48499 6.3225 4.81499 5.9925 5.23499 5.9925H8.98499C8.98499 6.8175 9.65249 7.4925 10.485 7.4925H20.985C21.81 7.4925 22.485 6.8175 22.485 5.9925H26.235C26.6475 5.9925 26.985 6.3225 26.985 6.7425Z" fill="#E6E9ED"/>
<path d="M7.48499 29.9925H14.985V35.9925H7.48499V29.9925Z" fill="#FCD770"/>
<path d="M22.485 2.9925V5.9925C22.485 6.8175 21.81 7.4925 20.985 7.4925H10.485C9.65249 7.4925 8.98499 6.8175 8.98499 5.9925V2.9925C8.98499 2.16 9.65249 1.4925 10.485 1.4925H20.985C21.81 1.4925 22.485 2.16 22.485 2.9925Z" fill="#AAB2BD"/>
<path d="M23.985 41.2425H37.485H46.485V42.7425C46.485 43.5675 45.81 44.2425 44.985 44.2425H43.485C43.485 42.9975 42.4725 41.9925 41.235 41.9925C39.99 41.9925 38.985 42.9975 38.985 44.2425H31.485C31.485 42.9975 30.4725 41.9925 29.235 41.9925C27.99 41.9925 26.985 42.9975 26.985 44.2425H25.485C24.6525 44.2425 23.985 43.5675 23.985 42.7425V41.9925V41.2425Z" fill="#CCD1D9"/>
<path d="M41.235 46.4925C42.4776 46.4925 43.485 45.4851 43.485 44.2425C43.485 42.9998 42.4776 41.9925 41.235 41.9925C39.9923 41.9925 38.985 42.9998 38.985 44.2425C38.985 45.4851 39.9923 46.4925 41.235 46.4925Z" fill="#969FAA"/>
<path d="M29.235 46.4925C30.4776 46.4925 31.485 45.4851 31.485 44.2425C31.485 42.9998 30.4776 41.9925 29.235 41.9925C27.9923 41.9925 26.985 42.9998 26.985 44.2425C26.985 45.4851 27.9923 46.4925 29.235 46.4925Z" fill="#969FAA"/>
<path d="M46.485 35.2425V41.2425H37.485V32.2425H40.485H44.235L46.485 35.2425Z" fill="#FF826E"/>
<path d="M23.985 29.2425H37.485V41.2425H23.985V29.2425Z" fill="#D3A06C"/>
<path d="M29.985 29.2425H32.985V32.2425H28.485V29.2425H29.985Z" fill="#B27946"/>
<path d="M44.0114 5.769L42.9509 4.7085L38.9812 8.67825L38.0114 7.7085L36.9509 8.769L38.9812 10.7992L44.0114 5.769Z" fill="black"/>
<path d="M13.3312 10.1888L12.1312 9.28951L8.15018 14.5973L7.26143 13.7085L6.20093 14.769L8.31218 16.881L13.3312 10.1888Z" fill="black"/>
<path d="M41.2312 31.4887V14.1945C44.601 13.8202 47.2312 10.9575 47.2312 7.48875C47.2312 3.7665 44.2027 0.73875 40.4812 0.73875C37.0132 0.73875 34.1497 3.369 33.7755 6.73875H30.7312V5.98875C30.7312 3.921 29.049 2.23875 26.9812 2.23875H23.0932C22.7827 1.368 21.9577 0.73875 20.9812 0.73875H10.4812C9.5047 0.73875 8.6797 1.368 8.3692 2.23875H4.4812C2.41345 2.23875 0.731201 3.921 0.731201 5.98875V38.9887C0.731201 41.0565 2.41345 42.7387 4.4812 42.7387H23.2312C23.2312 43.9792 24.2407 44.9887 25.4812 44.9887H26.3377C26.673 46.2795 27.8377 47.2387 29.2312 47.2387C30.6247 47.2387 31.7895 46.2795 32.1247 44.9887H38.3377C38.673 46.2795 39.8377 47.2387 41.2312 47.2387C42.6247 47.2387 43.7895 46.2795 44.1247 44.9887H44.9812C46.2217 44.9887 47.2312 43.9792 47.2312 42.7387V34.989L44.6062 31.4887H41.2312ZM40.4812 2.23875C43.3762 2.23875 45.7312 4.5945 45.7312 7.48875C45.7312 10.383 43.3762 12.7387 40.4812 12.7387C37.5862 12.7387 35.2312 10.383 35.2312 7.48875C35.2312 4.5945 37.5862 2.23875 40.4812 2.23875ZM33.7755 8.23875C34.1227 11.3625 36.6082 13.8472 39.7312 14.1945V31.4887H38.2312V28.4887H30.7312V8.23875H33.7755ZM24.7312 40.4887V29.9887H27.7312V32.9887H33.7312V29.9887H36.7312V40.4887H24.7312ZM8.3692 6.73875C8.6797 7.6095 9.5047 8.23875 10.4812 8.23875H20.9812C21.9577 8.23875 22.7827 7.6095 23.0932 6.73875H26.2312V28.4887H23.2312V38.2387H5.2312V6.73875H8.3692ZM29.2312 29.9887H32.2312V31.4887H29.2312V29.9887ZM29.2312 5.98875V28.4887H27.7312V6.73875C27.7312 5.9115 27.0585 5.23875 26.2312 5.23875H23.2312V3.73875H26.9812C28.2217 3.73875 29.2312 4.74825 29.2312 5.98875ZM9.7312 2.98875C9.7312 2.57475 10.068 2.23875 10.4812 2.23875H20.9812C21.3945 2.23875 21.7312 2.57475 21.7312 2.98875V5.98875C21.7312 6.40275 21.3945 6.73875 20.9812 6.73875H10.4812C10.068 6.73875 9.7312 6.40275 9.7312 5.98875V2.98875ZM4.4812 41.2387C3.2407 41.2387 2.2312 40.2292 2.2312 38.9887V5.98875C2.2312 4.74825 3.2407 3.73875 4.4812 3.73875H8.2312V5.23875H5.2312C4.40395 5.23875 3.7312 5.9115 3.7312 6.73875V38.2387C3.7312 39.066 4.40395 39.7387 5.2312 39.7387H23.2312V40.4887V41.2387H4.4812ZM26.3377 43.4887H25.4812C25.068 43.4887 24.7312 43.1527 24.7312 42.7387V41.9887H27.2677C26.82 42.3802 26.4915 42.897 26.3377 43.4887ZM29.2312 45.7387C28.404 45.7387 27.7312 45.066 27.7312 44.2387C27.7312 43.4115 28.404 42.7387 29.2312 42.7387C30.0585 42.7387 30.7312 43.4115 30.7312 44.2387C30.7312 45.066 30.0585 45.7387 29.2312 45.7387ZM38.3377 43.4887H32.1247C31.971 42.8962 31.6425 42.3795 31.1947 41.9887H39.2677C38.82 42.3802 38.4915 42.897 38.3377 43.4887ZM41.2312 45.7387C40.404 45.7387 39.7312 45.066 39.7312 44.2387C39.7312 43.4115 40.404 42.7387 41.2312 42.7387C42.0585 42.7387 42.7312 43.4115 42.7312 44.2387C42.7312 45.066 42.0585 45.7387 41.2312 45.7387ZM44.9812 43.4887H44.1247C43.971 42.8962 43.6425 42.3795 43.1947 41.9887H45.7312V42.7387C45.7312 43.1527 45.3945 43.4887 44.9812 43.4887ZM45.7312 40.4887H38.2312V32.9887H43.8562L45.7312 35.4885V40.4887Z" fill="black"/>
<path d="M14.9812 9.73875H24.7312V11.2388H14.9812V9.73875Z" fill="black"/>
<path d="M23.2312 12.7387H24.7312V14.2387H23.2312V12.7387Z" fill="black"/>
<path d="M14.9812 12.7387H21.7312V14.2387H14.9812V12.7387Z" fill="black"/>
<path d="M14.9812 15.7387H24.7312V17.2387H14.9812V15.7387Z" fill="black"/>
<path d="M13.3312 19.1887L12.1312 18.2895L8.15018 23.5972L7.26143 22.7085L6.20093 23.769L8.31218 25.881L13.3312 19.1887Z" fill="black"/>
<path d="M14.9812 18.7387H24.7312V20.2387H14.9812V18.7387Z" fill="black"/>
<path d="M23.2312 21.7387H24.7312V23.2387H23.2312V21.7387Z" fill="black"/>
<path d="M14.9812 21.7387H21.7312V23.2387H14.9812V21.7387Z" fill="black"/>
<path d="M14.9812 24.7387H24.7312V26.2387H14.9812V24.7387Z" fill="black"/>
<path d="M6.7312 36.7387H15.7312V29.2387H6.7312V36.7387ZM8.2312 30.7387H14.2312V35.2387H8.2312V30.7387Z" fill="black"/>
<path d="M17.2312 29.2387H21.7312V30.7387H17.2312V29.2387Z" fill="black"/>
<path d="M17.2312 32.2387H21.7312V33.7387H17.2312V32.2387Z" fill="black"/>
<path d="M17.2312 35.2387H21.7312V36.7387H17.2312V35.2387Z" fill="black"/>
</svg>
