<svg width="48" height="48" viewBox="0 0 48 48" fill="none" xmlns="http://www.w3.org/2000/svg">
<g clip-path="url(#clip0_311_14643)">
<path d="M7.01922 10.5196C3.69634 14.4154 1.69141 19.4674 1.69141 24.9878C1.69141 37.3088 11.6794 47.2969 24.0004 47.2969C24.4069 47.2969 24.8113 47.2862 25.2129 47.264L30.1742 42.3027V32.0439L21.7862 28.3024V13.4006L7.01922 10.5196Z" fill="#FFC10D"/>
<path d="M44.0994 34.6779C45.515 31.7478 46.3085 28.4598 46.3085 24.9878C46.3085 19.5255 44.3442 14.5208 41.0842 10.6425L21.7861 13.4006V28.3024L30.1741 32.0439L44.0994 34.6779Z" fill="#FFC10D"/>
<path d="M7.6035 26.9463C7.6035 21.1804 9.57065 15.874 12.8699 11.6611L7.01934 10.5196C3.69647 14.4154 1.69153 19.4674 1.69153 24.9878C1.69153 34.6945 7.8914 42.9518 16.5466 46.0195C11.0822 41.4681 7.6035 34.6137 7.6035 26.9463Z" fill="#FFC10D"/>
<path d="M44.0994 34.6778C40.6595 41.8027 33.5424 46.8179 25.2129 47.264L24.6333 45.857C24.2616 44.9548 24.5642 43.9184 25.3542 43.3547C25.9068 42.9628 26.2338 42.327 26.2338 41.6497C26.1872 41.2453 26.4337 40.3233 25.6677 39.5063L24.5752 38.3413C23.9046 37.6262 23.8205 36.5406 24.373 35.7306L24.6662 35.3009C25.451 34.1494 24.9129 32.5673 23.5901 32.1328L20.4182 31.0916C20.1269 30.9958 19.8821 30.7974 19.7283 30.5323L17.553 26.7905C17.0798 25.9748 15.907 25.9593 15.4115 26.7624L14.891 27.6062C14.6607 27.9788 14.2571 28.1993 13.8294 28.1993C13.0095 28.1993 12.4146 27.4251 12.6199 26.6356L13.7462 22.3237C13.8352 21.9802 14.0675 21.6909 14.3829 21.5284L16.6782 20.3468C17.1955 20.0816 17.4469 19.503 17.3255 18.966C17.1126 18.007 16.3405 17.2726 15.3728 17.1071C14.201 16.8625 13.4506 16.915 12.5115 16.3447L9.18082 14.3232C8.35732 13.823 7.75067 13.0324 7.48161 12.1073L7.01904 10.5194V10.5185C11.1112 5.7209 17.1996 2.67862 24.0003 2.67862C30.858 2.67862 36.9928 5.77312 41.084 10.6423L40.1774 12.2544C39.8328 12.8703 39.1918 13.2983 38.454 13.3576C37.7166 13.4167 37.0596 13.8462 36.7103 14.4975L35.8801 16.0447C35.4746 16.8005 34.6627 17.2476 33.8064 17.1865C33.288 17.1518 33.1903 17.1352 32.9433 17.1352C31.8159 17.1352 30.7351 17.6065 29.9668 18.4435C28.451 20.0985 29.1796 21.8551 27.9319 23.5131L26.0391 26.0386C25.5989 26.6269 25.7246 27.462 26.3197 27.8935L27.9599 29.0828C28.2783 29.3131 28.6827 29.3895 29.064 29.2908C31.3049 28.7321 31.4495 28.6125 31.9979 28.6125C32.6714 28.6125 33.3264 28.8796 33.8113 29.3721C35.1863 30.7694 36.6864 29.6697 38.1106 30.4287C39.3714 31.1086 39.4978 31.1367 39.7788 31.3548L44.0994 34.6778Z" fill="#71D5B4"/>
<path d="M18.5265 3.35606C13.9721 4.50497 9.97485 7.05356 7.01929 10.5187V10.5196L7.48185 12.1075C7.75082 13.0326 8.35757 13.8232 9.18107 14.3234L10.5726 15.1679C12.4801 11.6378 15.2196 8.62481 18.5266 6.38681V3.35606H18.5265Z" fill="#31C695"/>
<path d="M17.4353 0.703126C14.6235 0.692908 12.4403 3.13144 12.6078 5.93831C12.7788 8.80294 14.6814 11.3822 16.0415 12.8783C16.7784 13.6889 18.0538 13.6913 18.7909 12.8809C20.2163 11.3136 22.2393 8.55515 22.2393 5.52506C22.2394 2.868 20.0902 0.712876 17.4353 0.703126Z" fill="#D73927"/>
<path d="M35.1156 24.8476C32.3038 24.8374 30.1206 27.2759 30.2881 30.0828C30.4591 32.9474 32.3616 35.5267 33.7218 37.0228C34.4586 37.8334 35.7341 37.8358 36.4712 37.0253C37.8965 35.458 39.9196 32.6996 39.9196 29.6695C39.9196 27.0124 37.7705 24.8573 35.1156 24.8476Z" fill="#D73927"/>
<path d="M16.4021 5.82731C16.4021 3.88134 17.1636 2.11434 18.4029 0.803999C18.0904 0.739124 17.7669 0.704437 17.4353 0.703218C14.6235 0.692999 12.4403 3.13162 12.6078 5.93841C12.7788 8.80303 14.6814 11.3823 16.0415 12.8784C16.7784 13.689 18.0538 13.6914 18.7909 12.881C19.055 12.5905 19.3396 12.2591 19.6281 11.8928C17.6818 10.5786 16.4021 8.35238 16.4021 5.82731Z" fill="#D73927"/>
<path d="M34.0823 29.9717C34.0823 28.0257 34.8437 26.2587 36.0831 24.9484C35.7705 24.8835 35.447 24.8488 35.1154 24.8476C32.3037 24.8374 30.1204 27.276 30.288 30.0828C30.459 32.9474 32.3615 35.5267 33.7216 37.0228C34.4585 37.8334 35.734 37.8358 36.471 37.0253C36.7351 36.7349 37.0198 36.4035 37.3082 36.0371C35.3621 34.7229 34.0823 32.4968 34.0823 29.9717Z" fill="#D73927"/>
<path d="M17.4173 7.29037C18.3922 7.29037 19.1826 6.50002 19.1826 5.52506C19.1826 4.55011 18.3922 3.75975 17.4173 3.75975C16.4423 3.75975 15.652 4.55011 15.652 5.52506C15.652 6.50002 16.4423 7.29037 17.4173 7.29037Z" fill="#F5CDC9"/>
<path d="M35.0976 31.4348C36.0725 31.4348 36.8629 30.6445 36.8629 29.6695C36.8629 28.6946 36.0725 27.9042 35.0976 27.9042C34.1226 27.9042 33.3323 28.6946 33.3323 29.6695C33.3323 30.6445 34.1226 31.4348 35.0976 31.4348Z" fill="#F5CDC9"/>
<path d="M17.4174 7.9935C18.7785 7.9935 19.8859 6.88613 19.8859 5.52506C19.8859 4.164 18.7785 3.05663 17.4174 3.05663C16.0564 3.05663 14.949 4.164 14.949 5.52506C14.949 6.88613 16.0564 7.9935 17.4174 7.9935ZM17.4174 4.46297C18.0031 4.46297 18.4796 4.9395 18.4796 5.52516C18.4796 6.11081 18.0031 6.58734 17.4174 6.58734C16.8318 6.58734 16.3552 6.11081 16.3552 5.52516C16.3552 4.9395 16.8318 4.46297 17.4174 4.46297Z" fill="black"/>
<path d="M35.0976 32.138C36.4588 32.138 37.5661 31.0306 37.5661 29.6695C37.5661 28.3085 36.4587 27.2011 35.0976 27.2011C33.7366 27.2011 32.6293 28.3085 32.6293 29.6695C32.6293 31.0306 33.7366 32.138 35.0976 32.138ZM35.0976 28.6074C35.6833 28.6074 36.1598 29.0839 36.1598 29.6696C36.1598 30.2553 35.6833 30.7318 35.0976 30.7318C34.512 30.7318 34.0355 30.2553 34.0355 29.6696C34.0355 29.0839 34.512 28.6074 35.0976 28.6074Z" fill="black"/>
<path d="M41.6224 10.19C40.0104 8.27147 38.1084 6.63675 35.9693 5.33118C35.6379 5.12887 35.2052 5.23359 35.0028 5.56509C34.8005 5.89659 34.9052 6.32925 35.2367 6.53156C37.1077 7.67334 38.7854 9.08334 40.23 10.7271C39.7373 11.4205 39.548 12.5646 38.3981 12.6567C37.4207 12.735 36.5569 13.2965 36.091 14.1651L35.2608 15.7123C34.6879 16.7799 33.5612 16.4321 32.9436 16.4321C31.6188 16.4321 30.3451 16.992 29.4486 17.9687C28.5076 18.996 28.3057 20.0649 28.1276 21.0082C27.9906 21.7339 27.8713 22.362 27.4567 22.9699C27.3848 23.0752 27.46 22.9691 25.4766 25.6174C24.806 26.5133 24.9859 27.794 25.9074 28.4629L27.5482 29.6526C28.0447 30.0116 28.6625 30.1212 29.2345 29.9732C29.3498 29.9444 29.4622 29.9162 29.5729 29.8882C29.5744 29.8878 29.5759 29.8874 29.5773 29.887C29.5787 29.9664 29.5817 30.0456 29.5865 30.1246C29.7502 32.8686 31.3515 35.4604 33.2018 37.4957C34.2291 38.6258 35.9887 38.6012 36.9916 37.4983C36.9925 37.4974 36.9933 37.4964 36.9941 37.4955C38.3035 36.0557 39.4792 34.357 40.1191 32.5033L43.212 34.8821C39.7761 41.5462 33.1358 45.9578 25.6711 46.5296C25.6034 46.1857 24.5531 44.7902 25.7612 43.9282C26.4975 43.406 26.9371 42.5542 26.9371 41.6497C26.9371 40.9107 26.9854 40.315 26.598 39.6021C26.493 39.4087 26.3583 39.2146 26.1807 39.0253L25.0883 37.8603C24.6465 37.3893 24.5901 36.6603 24.9539 36.1269L25.2474 35.6969C26.2924 34.1635 25.5844 32.0482 23.8096 31.4648L20.6381 30.4238C20.5108 30.3819 20.4037 30.2952 20.3363 30.1791L18.1614 26.4378C17.4276 25.1725 15.5934 25.1287 14.8134 26.3933L14.2931 27.2366C14.1926 27.3993 14.0194 27.4964 13.8297 27.4964C13.4666 27.4964 13.2119 27.1541 13.3005 26.8135L14.4272 22.5004C14.4658 22.3511 14.5673 22.2247 14.7051 22.1537L16.9993 20.9727C17.6513 20.6385 18.0386 19.9846 18.0592 19.2992C18.0967 18.0829 17.0579 16.6889 15.505 16.4166C14.3332 16.1732 13.668 16.2247 12.8767 15.7437L9.54631 13.7225C8.86878 13.3108 8.37706 12.6668 8.15712 11.9108L7.80162 10.6901C9.04859 9.27834 10.4677 8.04046 12.0334 6.99787C12.0438 7.05093 12.1302 7.54396 12.3425 8.19318C13.0943 10.4933 14.9349 12.8475 15.7126 13.5405C16.7777 14.489 18.3821 14.3758 19.3113 13.3539C21.2705 11.2002 22.941 8.43984 22.9426 5.52797C22.9426 5.52703 22.9426 5.526 22.9426 5.52506C22.9426 4.80562 22.7999 4.08534 22.5322 3.43162C23.0224 3.39853 23.5135 3.38184 24.0007 3.38184C27.0292 3.38184 29.9587 3.99656 32.7079 5.20875C33.0633 5.3655 33.4783 5.20443 33.6349 4.84912C33.7916 4.49381 33.6306 4.07878 33.2753 3.92212C30.3462 2.63053 27.2258 1.97559 24.0007 1.97559C23.2494 1.97559 22.4902 2.01506 21.7373 2.08875C20.7277 0.822746 19.1762 0.00637133 17.438 -3.66587e-06C14.3969 -0.0137849 12.0203 2.45718 11.9011 5.41247C9.86234 6.67462 8.04134 8.23706 6.48453 10.0623C6.48059 10.067 6.47712 10.072 6.47327 10.0767C2.93628 14.2299 0.988525 19.5246 0.988525 24.9878C0.988525 30.898 3.22587 36.5158 7.28853 40.8065C7.55553 41.0884 8.00056 41.1006 8.28256 40.8337C8.56456 40.5667 8.57665 40.1216 8.30965 39.8396C4.49543 35.8113 2.39487 30.5368 2.39487 24.9879C2.39487 20.2985 3.92318 15.7413 6.72274 12.0147C6.84415 12.3292 7.10009 13.8809 8.81656 14.9246L12.1469 16.9459C13.4793 17.7552 15.0042 17.589 15.7408 17.9602C16.1956 18.1897 16.5267 18.6111 16.6402 19.1212C16.6933 19.3567 16.576 19.6096 16.3569 19.7219L14.0612 20.9035C13.5677 21.1579 13.205 21.6113 13.0664 22.1462L11.9398 26.4588C11.6191 27.694 12.5491 28.9025 13.8299 28.9025C14.5178 28.9025 15.1348 28.5497 15.4899 27.9754C16.1755 26.8641 15.9549 27.2216 16.0105 27.1315C16.2303 26.7751 16.7416 26.7922 16.9455 27.1438C19.2423 31.0893 19.1249 30.9057 19.2172 31.0356C19.4576 31.3745 19.8007 31.6286 20.1993 31.7597L23.3711 32.8008C24.2487 33.0887 24.6077 34.1382 24.0858 34.9044C23.823 35.2938 23.7598 35.3709 23.663 35.5425C23.067 36.5998 23.2141 37.9171 24.0627 38.8221L25.1552 39.9871C25.6781 40.5449 25.4876 41.1468 25.5308 41.6794C25.5209 42.137 25.2809 42.5447 24.9462 42.7822C22.8963 44.245 24.1745 46.5695 24.1765 46.5929C24.118 46.5934 24.0595 46.5936 24.0009 46.5936C19.0157 46.5936 14.1515 44.8548 10.3044 41.6976C10.0041 41.4512 9.56112 41.4949 9.31484 41.7951C9.06846 42.0952 9.11215 42.5383 9.41234 42.7847C13.51 46.1479 18.6909 48 24.0005 48C24.6756 48 25.1171 47.9716 25.251 47.9661C25.2604 47.9629 38.5232 47.8434 44.7324 34.984C44.7325 34.9839 44.7325 34.9838 44.7326 34.9837C46.2449 31.8535 47.0118 28.4904 47.0118 24.9877C47.0117 19.5799 45.0978 14.3245 41.6224 10.19C41.6224 10.19 41.6225 10.1901 41.6224 10.19ZM17.4176 1.40625H17.4327C19.7009 1.4145 21.5363 3.26756 21.5363 5.52506C21.5363 8.38931 19.4904 11.0667 18.2708 12.4078C17.8092 12.9153 17.018 12.907 16.5618 12.4054C14.9632 10.6466 13.4093 8.20996 13.3074 5.82693L13.3061 5.78409C13.3061 5.78296 13.3059 5.78193 13.3059 5.78081C13.2293 3.43359 15.054 1.40625 17.4176 1.40625ZM35.0923 25.5508C35.0943 25.5508 35.0962 25.5507 35.0981 25.5507H35.113C37.3756 25.559 39.2165 27.4066 39.2165 29.6695C39.2165 32.1697 37.6441 34.6897 35.951 36.5523C35.4905 37.0586 34.7002 37.0536 34.242 36.5498C33.0974 35.2907 31.1529 32.7708 30.9899 30.0409C30.8463 27.6265 32.7128 25.5542 35.0923 25.5508ZM43.8286 33.5826L40.5034 31.0252C40.5728 30.6317 40.6226 30.1274 40.6226 29.6696C40.6226 26.6342 38.1533 24.1557 35.118 24.1446C35.1179 24.1446 35.1177 24.1446 35.1176 24.1446C35.1109 24.1446 35.1044 24.1446 35.0978 24.1446C32.542 24.1446 30.3634 25.9093 29.7477 28.3914C28.897 28.613 28.6645 28.7248 28.3727 28.5138L26.7326 27.3246C26.4554 27.1236 26.3966 26.7345 26.6018 26.4605L28.4936 23.936C29.1297 23.0908 29.323 22.2544 29.5091 21.2693C29.6731 20.4007 29.8148 19.6507 30.4848 18.9192C31.1152 18.2324 32.0112 17.8386 32.9433 17.8386C33.553 17.8386 35.4806 18.2766 36.4997 16.3774L37.3299 14.8301C37.5696 14.3834 38.0164 14.0982 38.5102 14.0587C40.3741 13.9092 40.9256 12.2783 41.0576 12.1238L41.1863 11.8952C44.0427 15.6432 45.6053 20.2533 45.6053 24.988C45.6055 27.9843 45.0082 30.8712 43.8286 33.5826Z" fill="black"/>
</g>
<defs>
<clipPath id="clip0_311_14643">
<rect width="48" height="48" fill="white"/>
</clipPath>
</defs>
</svg>
