<svg width="48" height="48" viewBox="0 0 48 48" fill="none" xmlns="http://www.w3.org/2000/svg">
<path d="M29.6794 43.7512H18.8832L20.1244 40.0256L20.5613 38.7131H28.0013L28.4382 40.0256L29.6794 43.7512Z" fill="#71C1E8"/>
<path d="M28.4381 40.0256H20.1244L20.5613 38.7131H28.0013L28.4381 40.0256Z" fill="#4BA4C7"/>
<path d="M46.83 17.2913V36.8381C46.83 37.8737 45.9906 38.7131 44.955 38.7131H3.60754C2.57198 38.7131 1.73254 37.8737 1.73254 36.8381V17.2913C1.73254 16.2557 2.57198 15.4163 3.60754 15.4163H10.4607C10.365 16.3425 10.3632 17.2856 10.4607 18.2288C10.5169 18.8006 10.6107 19.3725 10.74 19.9406L8.97942 20.9588C8.64379 21.1519 8.52942 21.5813 8.72254 21.9169L12.09 27.75C12.285 28.0856 12.7125 28.2 13.0482 28.0069L14.8125 26.9888C16.2638 28.3388 18.0038 29.3831 19.9294 30.0188V32.1413C19.9294 32.5296 20.2442 32.8444 20.6325 32.8444H27.9319C28.3193 32.8444 28.6332 32.5305 28.6332 32.1431V30.0188C30.5588 29.3831 32.2988 28.3388 33.75 26.9888L35.5144 28.0069C35.85 28.2 36.2775 28.0856 36.4725 27.75L39.84 21.9169C40.0332 21.5813 39.9188 21.1519 39.5832 20.9588L37.8225 19.9406C37.9519 19.38 38.0457 18.8081 38.1019 18.2288C38.1975 17.3025 38.1994 16.3594 38.1019 15.4163H44.955C45.9906 15.4163 46.83 16.2557 46.83 17.2913Z" fill="#71C1E8"/>
<path d="M33.1781 46.5836H15.3844C14.6025 46.5836 13.9688 45.9499 13.9688 45.168V45.1665C13.9688 44.3846 14.6025 43.7509 15.3844 43.7509H33.1781C33.96 43.7509 34.5938 44.3846 34.5938 45.1665V45.168C34.5938 45.9499 33.96 46.5836 33.1781 46.5836Z" fill="#71C1E8"/>
<path d="M24.2813 25.6573C29.1607 25.6573 33.1162 21.7019 33.1162 16.8225C33.1162 11.9432 29.1607 7.9877 24.2813 7.9877C19.402 7.9877 15.4465 11.9432 15.4465 16.8225C15.4465 21.7019 19.402 25.6573 24.2813 25.6573Z" fill="#EEEEEE"/>
<path d="M44.0175 18.7913V35.3381C44.0175 35.6488 43.7657 35.9006 43.455 35.9006H5.10754C4.79686 35.9006 4.54504 35.6488 4.54504 35.3381V18.7913C4.54504 18.4806 4.79686 18.2288 5.10754 18.2288H10.4607C10.5169 18.8006 10.6107 19.3725 10.74 19.9406L8.97942 20.9588C8.64379 21.1519 8.52942 21.5813 8.72254 21.9169L12.09 27.75C12.285 28.0856 12.7125 28.2 13.0482 28.0069L14.8125 26.9888C16.2638 28.3388 18.0038 29.3831 19.9294 30.0188V32.1413C19.9294 32.5296 20.2442 32.8444 20.6325 32.8444H27.9319C28.3193 32.8444 28.6332 32.5305 28.6332 32.1431V30.0188C30.5588 29.3831 32.2988 28.3388 33.75 26.9888L35.5144 28.0069C35.85 28.2 36.2775 28.0856 36.4725 27.75L39.84 21.9169C40.0332 21.5813 39.9188 21.1519 39.5832 20.9588L37.8225 19.9406C37.9519 19.38 38.0457 18.8081 38.1019 18.2288H43.455C43.7657 18.2288 44.0175 18.4806 44.0175 18.7913Z" fill="#EFBF27"/>
<path d="M40.9782 22.5713L37.6088 28.4063C37.0555 29.3631 35.8238 29.7008 34.8601 29.145L33.9057 28.5938C32.7132 29.5669 31.3688 30.3619 29.9457 30.9356V32.1413C29.9457 33.2531 29.0419 34.1569 27.9319 34.1569H20.6307C19.5207 34.1569 18.6169 33.2531 18.6169 32.1413V30.9356C17.1938 30.3619 15.8494 29.5669 14.6569 28.5938L13.7044 29.1431C12.7371 29.7034 11.5049 29.3599 10.9557 28.4081L7.58633 22.5731C7.03133 21.6075 7.3632 20.3756 8.32508 19.8206L9.27383 19.2731C9.19264 18.7613 9.14633 18.3144 9.14258 18.2288H10.4607C10.517 18.8006 10.6107 19.3725 10.7401 19.9406L8.97945 20.9588C8.64383 21.1519 8.52945 21.5813 8.72258 21.9169L12.0901 27.75C12.2851 28.0856 12.7126 28.2 13.0482 28.0069L14.8126 26.9888C16.2638 28.3388 18.0038 29.3831 19.9294 30.0188V32.1413C19.9294 32.5294 20.2426 32.8444 20.6307 32.8444H27.9319C28.3201 32.8444 28.6332 32.5294 28.6332 32.1413V30.0188C30.5588 29.3831 32.2988 28.3388 33.7501 26.9888L35.5144 28.0069C35.8501 28.2 36.2776 28.0856 36.4726 27.75L39.8401 21.9169C40.0332 21.5813 39.9188 21.1519 39.5832 20.9588L37.8226 19.9406C37.9519 19.38 38.0457 18.8081 38.1019 18.2288H39.4201C39.3959 18.5198 39.3503 18.9015 39.2907 19.2731L40.2394 19.8225C41.1994 20.3756 41.5313 21.6075 40.9782 22.5713Z" fill="#CE9320"/>
<path d="M10.4607 15.4163C10.3651 16.3425 10.3632 17.2856 10.4607 18.2288H9.14257C9.05257 17.3006 9.05257 16.3538 9.14257 15.4163H10.4607Z" fill="#4BA4C7"/>
<path d="M39.4201 18.2288H38.1019C38.1976 17.3025 38.1994 16.3594 38.1019 15.4163H39.4201C39.5101 16.3444 39.5101 17.2913 39.4201 18.2288Z" fill="#4BA4C7"/>
<path d="M39.84 21.9169L36.4725 27.75C36.2775 28.0856 35.85 28.2 35.5144 28.0069L33.75 26.9887C32.2987 28.3387 30.5587 29.3831 28.6331 30.0187V32.1412C28.6331 32.5294 28.32 32.8444 27.9319 32.8444H20.6306C20.2425 32.8444 19.9294 32.5294 19.9294 32.1412V30.0187C18.0037 29.3831 16.2637 28.3387 14.8125 26.9887L13.0481 28.0069C12.7125 28.2 12.285 28.0856 12.09 27.75L8.7225 21.9169C8.52937 21.5813 8.64375 21.1519 8.97937 20.9588L10.74 19.9406C10.6106 19.3725 10.5169 18.8006 10.4606 18.2288C10.3631 17.2856 10.365 16.3425 10.4606 15.4163C10.5169 14.8369 10.6106 14.265 10.74 13.7044L8.97937 12.6881C8.64375 12.4931 8.52937 12.0638 8.7225 11.7281L12.09 5.895C12.285 5.55938 12.7125 5.445 13.0481 5.63813L14.8125 6.65625C16.2637 5.30625 18.0037 4.26188 19.9294 3.62625V1.50375C19.9294 1.11563 20.2425 0.800629 20.6306 0.800629H27.9319C28.32 0.800629 28.6331 1.11563 28.6331 1.50375V3.62625C30.5587 4.26188 32.2987 5.30625 33.75 6.65625L35.5144 5.63813C35.85 5.445 36.2775 5.55938 36.4725 5.895L39.84 11.7281C40.0331 12.0638 39.9187 12.4931 39.5831 12.6881L37.8225 13.7044C37.9519 14.2725 38.0456 14.8444 38.1019 15.4163C38.1994 16.3594 38.1975 17.3025 38.1019 18.2288C38.0456 18.8081 37.9519 19.38 37.8225 19.9406L39.5831 20.9588C39.9187 21.1519 40.0331 21.5813 39.84 21.9169Z" fill="#FB5C3C"/>
<path d="M24.2813 25.6573C29.1607 25.6573 33.1162 21.7019 33.1162 16.8225C33.1162 11.9432 29.1607 7.9877 24.2813 7.9877C19.402 7.9877 15.4465 11.9432 15.4465 16.8225C15.4465 21.7019 19.402 25.6573 24.2813 25.6573Z" fill="#EEEEEE"/>
<path d="M43.5608 12.9833C43.3405 12.033 43.1948 11.4053 41.9069 10.9796C41.4786 10.8383 41.4796 10.2306 41.9069 10.0894C42.6545 9.84245 43.1947 9.66395 43.5608 8.08576C43.6728 7.60464 44.3618 7.60332 44.4742 8.08576C44.8492 9.70145 45.4117 9.85295 46.1281 10.0896C46.5564 10.2309 46.5554 10.8384 46.1281 10.9796C45.3803 11.2268 44.8402 11.4054 44.4742 12.9833C44.3622 13.4664 43.673 13.4666 43.5608 12.9833Z" fill="black"/>
<path d="M44.8389 10.5388C44.5332 10.7451 44.2595 11.0282 44.0289 11.4557C43.8432 11.1257 43.577 10.8145 43.172 10.5463C43.4945 10.3345 43.7795 10.042 44.0195 9.59009C44.2632 10.0495 44.5464 10.3401 44.8389 10.5388Z" fill="#F0C020"/>
<path d="M4.0883 12.9833C3.86799 12.033 3.7223 11.4053 2.43436 10.9796C2.00611 10.8383 2.00705 10.2306 2.43436 10.0894C3.18192 9.84245 3.72211 9.66395 4.0883 8.08576C4.20024 7.60464 4.8893 7.60332 5.00161 8.08576C5.37661 9.70145 5.93911 9.85295 6.65555 10.0896C7.0838 10.2309 7.08286 10.8384 6.65555 10.9796C5.9078 11.2268 5.36761 11.4054 5.00161 12.9833C4.88967 13.4664 4.20042 13.4666 4.0883 12.9833Z" fill="black"/>
<path d="M5.36634 10.5388C5.06071 10.7451 4.78696 11.0282 4.55634 11.4557C4.37071 11.1257 4.10446 10.8145 3.69946 10.5463C4.02196 10.3345 4.30696 10.042 4.54696 9.59009C4.79071 10.0495 5.07384 10.3401 5.36634 10.5388Z" fill="#F0C020"/>
<path d="M28.3418 15.7091L24.216 19.8334C23.6886 20.3608 22.8353 20.3481 22.3206 19.8334C22.3204 19.8332 20.2204 17.7332 20.2204 17.733C19.7012 17.2138 19.6939 16.3641 20.2204 15.8376C20.7439 15.3141 21.5923 15.3141 22.1158 15.8376L23.2684 16.9901L26.4465 13.8137C26.97 13.2902 27.8185 13.2902 28.342 13.8137C28.8653 14.3372 28.8653 15.1856 28.3418 15.7091Z" fill="#13BF6D"/>
<path d="M24.2811 28.7604C21.9714 28.7604 19.7321 28.1031 17.8057 26.8594C17.5882 26.7189 17.5256 26.4287 17.6661 26.2114C17.8067 25.9937 18.0971 25.9318 18.3141 26.0717C20.0889 27.2173 22.1522 27.8229 24.2811 27.8229C34.0612 27.8229 38.973 15.951 32.0634 9.04032C31.8802 8.85713 31.8802 8.56032 32.0634 8.3775C32.2466 8.19432 32.5432 8.19432 32.7262 8.3775C40.2487 15.9 34.8576 28.7604 24.2811 28.7604ZM16.26 25.6714C16.1167 25.5414 15.9742 25.4057 15.8362 25.2677C15.6531 25.0845 15.6531 24.7879 15.8362 24.6049C16.0194 24.4219 16.3161 24.4217 16.4991 24.6049C16.6264 24.7322 16.7578 24.8574 16.8898 24.9771C17.0814 25.1511 17.0961 25.4475 16.9221 25.6391C16.7482 25.8309 16.4514 25.8454 16.26 25.6714Z" fill="#FFCAC2"/>
<path d="M26.2855 17.1C26.1036 17.2836 26.1036 17.5817 26.2855 17.7638C26.4701 17.9479 26.7686 17.9443 26.9492 17.7638C27.1313 17.5817 27.1313 17.2836 26.9492 17.1C26.7731 16.9238 26.4638 16.9238 26.2855 17.1Z" fill="black"/>
<path d="M21.9882 20.1638C22.6924 20.8676 23.8446 20.8701 24.5475 20.1638L25.6238 19.0894C25.803 18.9101 25.81 18.6137 25.6238 18.4277C25.4457 18.2496 25.1361 18.2496 24.96 18.4256L23.8857 19.5019C23.5326 19.851 22.9774 19.8274 22.6519 19.5019L20.5519 17.4019C20.2112 17.0612 20.212 16.5058 20.5519 16.1702C20.8819 15.8361 21.4313 15.8196 21.7838 16.1681L22.9369 17.3213C23.113 17.4973 23.4225 17.4973 23.6007 17.3213L26.7767 14.145C27.117 13.8047 27.6705 13.8051 28.0105 14.145C28.3528 14.4913 28.3485 15.0368 28.0105 15.3788L27.613 15.7763C27.4294 15.9523 27.4266 16.2555 27.613 16.4381C27.7892 16.6142 28.0986 16.6142 28.2748 16.4381L28.6723 16.0406C29.3961 15.3169 29.3631 14.1722 28.6723 13.4813C27.9677 12.777 26.821 12.7751 26.1149 13.4813L23.2688 16.3275L22.4475 15.5063C21.7514 14.8097 20.6065 14.7878 19.8882 15.5063C19.194 16.2008 19.1732 17.3484 19.8882 18.0638L21.9882 20.1638Z" fill="black"/>
<path d="M3.60754 14.9475C2.31548 14.9475 1.26379 15.9994 1.26379 17.2913V36.8381C1.26379 38.13 2.31548 39.1819 3.60754 39.1819H7.87317C8.13192 39.1819 8.34192 38.9719 8.34192 38.7131C8.34192 38.4562 8.13379 38.2462 7.87692 38.2444C7.87504 38.2444 7.87317 38.2444 7.87317 38.2444H3.60754C2.83298 38.2425 2.20317 37.6125 2.20129 36.8381V17.2913C2.20317 16.5169 2.83298 15.8869 3.60754 15.885H9.95385C9.9066 16.5926 9.90735 17.0593 9.95385 17.76H5.10754C4.53904 17.76 4.07629 18.2228 4.07629 18.7913V35.3381C4.07629 35.9066 4.53904 36.3694 5.10754 36.3694H43.455C44.0235 36.3694 44.4863 35.9066 44.4863 35.3381V18.7913C44.4863 18.2228 44.0235 17.76 43.455 17.76H38.6076C38.6524 17.0704 38.6539 16.5953 38.608 15.885H44.955C45.7294 15.8869 46.3594 16.5169 46.3613 17.2913V36.8381C46.3594 37.6125 45.7294 38.2425 44.955 38.2444C44.5793 38.2444 12.4682 38.2444 11.6232 38.2444C11.3642 38.2444 11.1544 38.4544 11.1544 38.7131C11.1544 38.9719 11.3642 39.1819 11.6232 39.1819H19.911L18.5453 43.2821H15.3844C14.3455 43.2821 13.5 44.1276 13.5 45.168C13.5 46.2071 14.3455 47.0526 15.3844 47.0526H33.1782C34.2171 47.0526 35.0625 46.2071 35.0625 45.1665C35.0625 44.1276 34.2171 43.2821 33.1782 43.2821H30.0173L28.6515 39.1819H44.955C46.2469 39.1819 47.2988 38.13 47.2988 36.8381V17.2913C47.2988 15.9994 46.2469 14.9475 44.955 14.9475H38.5161C38.4722 14.6117 38.4207 14.2748 38.3532 13.9388L39.8175 13.0931C40.3673 12.7742 40.572 12.0658 40.2469 11.4938L36.8775 5.66063C36.5492 5.09494 35.8279 4.91213 35.28 5.23331L33.8119 6.07894C32.4244 4.84875 30.8398 3.91125 29.1019 3.29269V1.50375C29.1 0.856879 28.5748 0.331879 27.9319 0.331879H20.6307C19.9874 0.331879 19.4625 0.856879 19.4607 1.50375V3.2925C19.1907 3.38813 18.9186 3.49313 18.6544 3.60769C18.4197 3.70613 18.304 3.97669 18.4069 4.2225C18.5063 4.45313 18.7894 4.56957 19.0219 4.47C19.0238 4.47 19.0238 4.46813 19.0257 4.46813C19.3763 4.31813 19.7288 4.18482 20.0757 4.0725C20.2688 4.00688 20.3984 3.82875 20.3984 3.62625V1.50375C20.3984 1.37457 20.5034 1.26938 20.6309 1.26938H27.9319C28.0594 1.26938 28.1644 1.37457 28.1644 1.50375V3.62625C28.1644 3.82875 28.2936 4.00688 28.4869 4.0725C30.3075 4.6725 32.0175 5.685 33.4313 6.99938C33.5775 7.13607 33.81 7.1625 33.9844 7.06125L35.7488 6.045C35.854 5.98144 35.9993 6.01257 36.0673 6.13125L39.433 11.9625C39.5007 12.0853 39.4547 12.2196 39.3467 12.2831L37.588 13.2994C37.4119 13.4006 37.3198 13.6106 37.365 13.8094C37.821 15.8042 37.816 17.8901 37.365 19.8358C37.32 20.0327 37.4098 20.2446 37.588 20.3458L39.3486 21.3639C39.4643 21.4322 39.496 21.5709 39.433 21.6846L36.0655 27.516C36.0073 27.6163 35.8737 27.6697 35.7467 27.6004L33.9844 26.5821C33.8098 26.4829 33.5775 26.5089 33.4313 26.6458C32.0175 27.9604 30.3075 28.9727 28.4869 29.5727C28.2938 29.6364 28.1644 29.8164 28.1644 30.0189V32.1414C28.1644 32.2727 28.0613 32.3758 27.9319 32.3758H20.6307C20.5013 32.3758 20.3982 32.2727 20.3982 32.1414V30.0187C20.3982 29.8162 20.2688 29.6362 20.0755 29.5725C18.2549 28.9725 16.545 27.96 15.1313 26.6456C14.985 26.5089 14.7524 26.4827 14.5782 26.5819L12.8138 27.6002C12.6942 27.669 12.5573 27.6193 12.495 27.5139L9.12942 21.6825C9.06885 21.5871 9.09098 21.4358 9.21192 21.3658L10.9744 20.3458C11.1524 20.2427 11.2425 20.0383 11.1974 19.8358C10.7579 17.9203 10.7305 15.8239 11.1974 13.8094C11.2424 13.6069 11.1544 13.4025 10.9744 13.2994L9.21379 12.2813C9.09529 12.2145 9.06773 12.0621 9.12754 11.9644L12.4969 6.12938C12.5614 6.01538 12.7022 5.98219 12.8138 6.04313L14.5782 7.06144C14.7525 7.16269 14.985 7.13625 15.1313 6.99957C15.3825 6.76707 15.6469 6.53831 15.9207 6.32082C16.1211 6.15956 16.155 5.86519 15.9938 5.66269C15.84 5.46563 15.5325 5.43019 15.3357 5.58769C15.135 5.74707 14.9382 5.91207 14.7507 6.07894L13.2825 5.23125C12.7139 4.908 12.0042 5.106 11.6849 5.66063L8.31567 11.4938C7.99673 12.0493 8.1816 12.7656 8.74317 13.0931L10.2094 13.9388C10.1419 14.2708 10.0902 14.6089 10.0465 14.9475H3.60754ZM34.125 45.168C34.125 45.6902 33.7002 46.1151 33.1782 46.1151H15.3844C14.8624 46.1151 14.4375 45.6902 14.4375 45.1665C14.4375 44.6445 14.8624 44.2196 15.3844 44.2196H33.1782C33.7002 44.2196 34.125 44.6445 34.125 45.168ZM29.0292 43.2821H19.5336L20.8994 39.1819H27.6632L29.0292 43.2821ZM8.74504 20.5538C8.18723 20.8716 7.99392 21.5852 8.31567 22.1513L11.685 27.9844C12.0049 28.5373 12.7172 28.7374 13.2809 28.4137L14.7509 27.5661C16.1382 28.7942 17.7227 29.7337 19.4609 30.3523V32.1411C19.4627 32.7879 19.9877 33.3129 20.6309 33.3129H27.9319C28.575 33.3129 29.1 32.7879 29.1019 32.1411V30.3523C30.84 29.7315 32.4261 28.794 33.8119 27.5661L35.28 28.4119C35.8378 28.7349 36.5513 28.5452 36.8775 27.9861L40.245 22.1511C40.5705 21.5828 40.3737 20.8716 39.8175 20.5517L38.3532 19.7061C38.4207 19.3729 38.4722 19.0354 38.5161 18.6973H43.455C43.5066 18.6973 43.5488 18.7395 43.5488 18.7911V35.3379C43.5488 35.3895 43.5066 35.4317 43.455 35.4317H5.10754C5.05598 35.4317 5.01379 35.3895 5.01379 35.3379V18.7911C5.01379 18.7395 5.05598 18.6973 5.10754 18.6973H10.0465C10.0902 19.0322 10.1419 19.3691 10.2094 19.7061L8.74504 20.5538Z" fill="black"/>
<path d="M9.74817 39.1819C10.0071 39.1819 10.2169 38.972 10.2169 38.7131C10.2169 38.4542 10.0071 38.2444 9.74817 38.2444C9.48929 38.2444 9.27942 38.4542 9.27942 38.7131C9.27942 38.972 9.48929 39.1819 9.74817 39.1819Z" fill="black"/>
<path d="M17.4094 5.28939C17.6309 5.15814 17.7038 4.86939 17.5707 4.64814C17.4432 4.43421 17.1432 4.35752 16.9275 4.48502C16.7061 4.61814 16.6332 4.90689 16.7663 5.12814C16.9007 5.35202 17.1925 5.42308 17.4094 5.28939Z" fill="black"/>
<path d="M24.2813 26.1263C29.4113 26.1263 33.5849 21.9527 33.5849 16.8227C33.5849 11.6927 29.4113 7.51913 24.2813 7.51913C19.1513 7.51913 14.9778 11.6925 14.9778 16.8227C14.9778 21.9529 19.1513 26.1263 24.2813 26.1263ZM24.2813 8.45663C28.8946 8.45663 32.6474 12.2096 32.6474 16.8227C32.6474 21.4358 28.8946 25.1888 24.2813 25.1888C19.6681 25.1888 15.9153 21.4358 15.9153 16.8227C15.9153 12.2096 19.6681 8.45663 24.2813 8.45663Z" fill="black"/>
</svg>
