<svg width="48" height="48" viewBox="0 0 48 48" fill="none" xmlns="http://www.w3.org/2000/svg">
<path d="M23.9999 47.2983C21.6302 47.2983 19.7091 45.3772 19.7091 43.0074V42.4633H28.2908V43.0074C28.2908 45.3772 26.3697 47.2983 23.9999 47.2983Z" fill="#8D9CA8"/>
<path d="M28.2907 42.4629V43.0074C28.2907 45.3773 26.3699 47.2981 24 47.2981C23.6857 47.2981 23.3787 47.2644 23.0831 47.1998C25.0114 46.7798 26.456 45.0621 26.456 43.0074V42.4629H28.2907Z" fill="#7A8C98"/>
<path d="M30.7876 39.3904H17.2123C16.7811 39.3904 16.4315 39.0408 16.4315 38.6096V37.0981C16.4315 36.6669 16.7811 36.3173 17.2123 36.3173H30.7876C31.2188 36.3173 31.5684 36.6669 31.5684 37.0981V38.6096C31.5684 39.0408 31.2189 39.3904 30.7876 39.3904Z" fill="#C5D3DD"/>
<path d="M28.9801 42.4633H19.0198C18.5886 42.4633 18.239 42.1137 18.239 41.6826V40.171C18.239 39.7399 18.5886 39.3903 19.0198 39.3903H28.9802C29.4114 39.3903 29.761 39.7399 29.761 40.171V41.6826C29.7609 42.1138 29.4114 42.4633 28.9801 42.4633Z" fill="#C5D3DD"/>
<path d="M31.5679 37.0983V38.6092C31.5679 39.0406 31.219 39.3905 30.7877 39.3905H28.9165C29.3478 39.3905 29.6968 39.0406 29.6968 38.6092V37.0983C29.6968 36.6669 29.3478 36.3171 28.9165 36.3171H30.7877C31.219 36.3171 31.5679 36.667 31.5679 37.0983Z" fill="#B6C4CF"/>
<path d="M29.7614 40.1708V41.6827C29.7614 42.114 29.4115 42.4629 28.9802 42.4629H27.109C27.5404 42.4629 27.8902 42.114 27.8902 41.6827V40.1708C27.8902 39.7394 27.5404 39.3905 27.109 39.3905H28.9802C29.4114 39.3905 29.7614 39.7395 29.7614 40.1708Z" fill="#B6C4CF"/>
<path d="M37.3927 19.127C37.3927 11.7923 31.4965 5.83472 24.1854 5.73553C16.6919 5.63391 10.5044 11.8235 10.6086 19.3169C10.6714 23.8363 12.9728 27.8146 16.4541 30.193C18.4817 31.5784 19.7104 33.8611 19.7104 36.3168V36.3174H28.2896C28.2896 33.8864 29.4734 31.5934 31.4878 30.2325C35.0503 27.8257 37.3927 23.7499 37.3927 19.127Z" fill="#FEDBA6"/>
<path d="M37.393 19.1274C37.393 23.7502 35.0503 27.8257 31.4875 30.232C30.4799 30.9122 29.6809 31.8262 29.1336 32.8732C28.5853 33.9211 28.2896 35.1018 28.2896 36.3172H26.3623C26.3623 35.0448 26.5356 33.4274 27.109 32.3308C27.6826 31.2343 28.5208 30.2772 29.5752 29.5652C33.3054 27.0447 35.895 23.158 35.895 18.3172C35.895 14.1295 34.0594 10.3703 31.1487 7.80028C34.9015 10.1729 37.393 14.3587 37.393 19.1274Z" fill="#FECE85"/>
<path d="M36.5972 14.5151C36.2268 14.629 36.0189 15.0217 36.1327 15.3921C36.5031 16.5968 36.691 17.8535 36.691 19.127C36.691 23.3497 34.599 27.2838 31.095 29.651C29.0912 31.0047 27.8243 33.1981 27.6177 35.6157H26.4008V28.5293L29.6023 25.43C29.8807 25.1604 29.888 24.7163 29.6185 24.4378C29.3489 24.1595 28.9048 24.1522 28.6262 24.4217L28.1156 24.916L27.0865 24.531C26.9278 24.4717 26.7534 24.4717 26.5947 24.531L25.4201 24.9705L24.2457 24.531C24.0871 24.4717 23.9125 24.4717 23.7538 24.531L22.5795 24.9705L21.4052 24.531C21.2466 24.4717 21.0719 24.4717 20.9133 24.531L19.8846 24.9159L19.374 24.4217C19.0955 24.1521 18.6512 24.1594 18.3818 24.4378C18.1122 24.7163 18.1195 25.1604 18.3979 25.43L21.5995 28.5293V35.6157H20.3817C20.1712 33.2101 18.8846 31.0035 16.8501 29.6137C13.4387 27.283 11.3678 23.4301 11.3104 19.3072C11.2627 15.874 12.5888 12.6305 15.0444 10.1741C17.5001 7.71769 20.7437 6.38878 24.1761 6.43716C28.5965 6.49716 32.5988 8.79844 34.8824 12.5932C35.0822 12.9252 35.5134 13.0323 35.8454 12.8326C36.1775 12.6328 36.2846 12.2017 36.0848 11.8695C34.8698 9.85041 33.1533 8.15325 31.1211 6.96122C29.0277 5.73347 26.6328 5.067 24.195 5.03381C20.3805 4.98281 16.7775 6.45516 14.0517 9.18188C11.3261 11.9085 9.854 15.5113 9.90715 19.3266C9.97081 23.9055 12.2703 28.1843 16.0584 30.7723C17.7087 31.8998 18.7643 33.6743 18.9709 35.6156H17.2124C16.395 35.6156 15.73 36.2807 15.73 37.0981V38.6095C15.73 39.427 16.395 40.092 17.2124 40.092H17.5415C17.5401 40.1183 17.5375 40.1443 17.5375 40.171V41.6826C17.5375 42.4971 18.1979 43.1599 19.0114 43.1646C19.0302 43.7799 19.1589 44.3778 19.3971 44.9435C19.5475 45.3007 19.9591 45.4684 20.316 45.3178C20.6733 45.1674 20.8408 44.756 20.6905 44.3988C20.5253 44.0064 20.4326 43.5921 20.4144 43.1649H27.5859C27.5031 45.0712 25.9264 46.5966 24.0001 46.5966C23.4889 46.5966 22.9956 46.4916 22.5335 46.2844C22.1802 46.126 21.7647 46.2839 21.6061 46.6376C21.4476 46.9912 21.6057 47.4065 21.9594 47.565C22.6031 47.8537 23.2898 48 24.0001 48C26.7003 48 28.9052 45.8449 28.9886 43.1646C29.8021 43.16 30.4627 42.4972 30.4627 41.6826V40.171C30.4627 40.1443 30.4601 40.1183 30.4586 40.092H30.7877C31.6051 40.092 32.2702 39.427 32.2702 38.6095V37.0981C32.2702 36.2807 31.6051 35.6156 30.7877 35.6156H29.0281C29.2296 33.6663 30.2635 31.9063 31.8806 30.8138C35.7715 28.1853 38.0944 23.8164 38.0944 19.127C38.0944 17.7135 37.8857 16.3182 37.4742 14.9797C37.3601 14.6092 36.9675 14.4014 36.5972 14.5151ZM21.0008 25.9967L21.1591 25.9374L22.3334 26.3769C22.4921 26.4363 22.6667 26.4363 22.8253 26.3769L23.9996 25.9374L25.174 26.3769C25.3326 26.4363 25.5073 26.4363 25.6658 26.3769L26.8405 25.9374L26.999 25.9968L25.2108 27.7278C25.0743 27.86 24.9971 28.0419 24.9971 28.232V35.6157H23.0024V28.232C23.0024 28.0419 22.9253 27.86 22.7888 27.7278L21.0008 25.9967ZM29.0591 41.6827C29.0591 41.7262 29.0237 41.7617 28.9801 41.7617H19.0197C18.9762 41.7617 18.9407 41.7262 18.9407 41.6827V40.1711C18.9407 40.1275 18.9762 40.0921 19.0197 40.0921H28.9801C29.0237 40.0921 29.0591 40.1275 29.0591 40.1711V41.6827ZM30.7876 37.0191C30.8312 37.0191 30.8666 37.0545 30.8666 37.0981V38.6095C30.8666 38.6531 30.8312 38.6887 30.7876 38.6887H17.2122C17.1687 38.6887 17.1332 38.6531 17.1332 38.6095V37.0981C17.1332 37.0545 17.1687 37.0191 17.2122 37.0191H30.7876Z" fill="black"/>
<path d="M23.9999 2.92266C24.3875 2.92266 24.7017 2.6085 24.7017 2.22094V0.701719C24.7017 0.314156 24.3875 0 23.9999 0C23.6124 0 23.2982 0.314156 23.2982 0.701719V2.22094C23.2982 2.6085 23.6124 2.92266 23.9999 2.92266Z" fill="black"/>
<path d="M14.4798 4.95993C14.6097 5.18503 14.8456 5.31093 15.0881 5.31093C15.2072 5.31093 15.3279 5.28056 15.4384 5.21681C15.774 5.02303 15.8889 4.59393 15.6953 4.25831L14.9356 2.94262C14.7419 2.6069 14.3124 2.49196 13.9771 2.68574C13.6415 2.87953 13.5264 3.30862 13.7202 3.64424L14.4798 4.95993Z" fill="black"/>
<path d="M8.91385 10.5258L7.59816 9.76612C7.26235 9.57225 6.83335 9.68728 6.63966 10.023C6.44588 10.3586 6.56091 10.7877 6.89653 10.9815L8.21222 11.7412C8.32275 11.805 8.44341 11.8353 8.56247 11.8353C8.805 11.8353 9.04088 11.7094 9.17082 11.4843C9.3645 11.1487 9.24947 10.7197 8.91385 10.5258Z" fill="black"/>
<path d="M41.1035 29.1105L39.7879 28.3508C39.4523 28.157 39.0231 28.272 38.8294 28.6077C38.6356 28.9433 38.7506 29.3724 39.0862 29.5662L40.4019 30.3259C40.5123 30.3897 40.6331 30.42 40.7522 30.42C40.9946 30.42 41.2305 30.2941 41.3605 30.069C41.5541 29.7335 41.4391 29.3043 41.1035 29.1105Z" fill="black"/>
<path d="M6.87664 20.046C6.87664 19.6584 6.56248 19.3443 6.17492 19.3443H4.6557C4.26814 19.3443 3.95398 19.6584 3.95398 20.046C3.95398 20.4336 4.26814 20.7477 4.6557 20.7477H6.17492C6.56248 20.7477 6.87664 20.4336 6.87664 20.046Z" fill="black"/>
<path d="M43.3442 19.3444H41.825C41.4374 19.3444 41.1233 19.6585 41.1233 20.0461C41.1233 20.4337 41.4374 20.7478 41.825 20.7478H43.3442C43.7318 20.7478 44.0459 20.4337 44.0459 20.0461C44.0459 19.6585 43.7318 19.3444 43.3442 19.3444Z" fill="black"/>
<path d="M8.2121 28.3508L6.89641 29.1105C6.56079 29.3043 6.44575 29.7335 6.63954 30.069C6.76957 30.2941 7.00535 30.42 7.24788 30.42C7.36694 30.42 7.4876 30.3896 7.59813 30.3259L8.91382 29.5662C9.24944 29.3724 9.36447 28.9432 9.17069 28.6077C8.97682 28.272 8.54754 28.1572 8.2121 28.3508Z" fill="black"/>
<path d="M39.4376 11.8354C39.5567 11.8354 39.6773 11.805 39.7879 11.7413L41.1035 10.9816C41.4392 10.7878 41.5542 10.3586 41.3604 10.0231C41.1665 9.68747 40.7373 9.57244 40.4019 9.76622L39.0862 10.5259C38.7506 10.7197 38.6356 11.1488 38.8294 11.4844C38.9593 11.7095 39.1952 11.8354 39.4376 11.8354Z" fill="black"/>
<path d="M32.5616 5.21672C32.6721 5.28056 32.7928 5.31085 32.9119 5.31085C33.1543 5.31085 33.3903 5.18494 33.5202 4.95985L34.2799 3.64416C34.4736 3.30853 34.3586 2.87935 34.023 2.68566C33.6872 2.49178 33.2582 2.60691 33.0645 2.94253L32.3048 4.25822C32.111 4.59385 32.2261 5.02303 32.5616 5.21672Z" fill="black"/>
</svg>
