<svg width="81" height="80" viewBox="0 0 81 80" fill="none" xmlns="http://www.w3.org/2000/svg">
<circle cx="40.5" cy="40" r="39.5" fill="white" stroke="#D73927" stroke-dasharray="10 10"/>
<path d="M41.125 46V51.875H26.125C25.462 51.875 24.8261 51.6116 24.3572 51.1428C23.8884 50.6739 23.625 50.038 23.625 49.375V46C23.6241 44.9737 23.94 43.9722 24.5294 43.1321C25.1189 42.2921 25.9534 41.6544 26.9188 41.3063L30.5 40C30.5 40.4973 30.6975 40.9742 31.0492 41.3258C31.4008 41.6775 31.8777 41.875 32.375 41.875C32.8723 41.875 33.3492 41.6775 33.7008 41.3258C34.0525 40.9742 34.25 40.4973 34.25 40L37.8312 41.3063C38.7966 41.6544 39.631 42.2921 40.2205 43.1321C40.81 43.9722 41.1259 44.9737 41.125 46Z" fill="#D73927"/>
<path d="M58.625 51.875V54.375H56.75H24.25H22.375V51.875H26.125H28.625H31.75H37.375H41.125H42.375H43H43.625H44.875H54.4438H58.625Z" fill="#D73927"/>
<path d="M55.3 31.5437C55.1536 32.1197 54.9241 32.6714 54.6188 33.1813L55.8813 34.8625L54.1125 36.6313L52.4313 35.3688C51.9214 35.6741 51.3697 35.9036 50.7938 36.05L50.5 38.125H48L47.7062 36.05C47.1303 35.9036 46.5786 35.6741 46.0687 35.3688L44.3875 36.6313L42.6187 34.8625L43.8812 33.1813C43.5759 32.6714 43.3464 32.1197 43.2 31.5437L41.125 31.25V28.75L43.2 28.4562C43.3464 27.8803 43.5759 27.3286 43.8812 26.8187L42.6187 25.1375L44.3875 23.3687L46.0687 24.6312C46.5786 24.3259 47.1303 24.0964 47.7062 23.95L48 21.875H50.5L50.7938 23.95C51.3697 24.0964 51.9214 24.3259 52.4313 24.6312L54.1125 23.3687L55.8813 25.1375L54.6188 26.8187C54.9241 27.3286 55.1536 27.8803 55.3 28.4562L57.375 28.75V31.25L55.3 31.5437Z" fill="#D73927"/>
<path d="M57.1312 42.0813L55.675 50.8313C55.6255 51.1224 55.4749 51.3867 55.2497 51.5776C55.0244 51.7686 54.739 51.8739 54.4437 51.875H44.875L46.75 40.625H55.9C56.0815 40.6252 56.2607 40.665 56.4253 40.7415C56.5898 40.818 56.7358 40.9294 56.8529 41.0679C56.9701 41.2065 57.0557 41.3689 57.1037 41.5439C57.1518 41.7189 57.1612 41.9023 57.1312 42.0813Z" fill="#D73927"/>
<path d="M24.25 54.375H56.75V58.125H24.25V54.375Z" fill="#D73927"/>
<path d="M51.125 47.5C51.8154 47.5 52.375 46.9404 52.375 46.25C52.375 45.5596 51.8154 45 51.125 45C50.4346 45 49.875 45.5596 49.875 46.25C49.875 46.9404 50.4346 47.5 51.125 47.5Z" fill="#E6E7E8"/>
<path d="M49.25 33.125C50.9759 33.125 52.375 31.7259 52.375 30C52.375 28.2741 50.9759 26.875 49.25 26.875C47.5241 26.875 46.125 28.2741 46.125 30C46.125 31.7259 47.5241 33.125 49.25 33.125Z" fill="#FFC10D"/>
<path d="M46.75 40.625L44.875 51.875H42.375L42.7937 49.375L43.9875 42.1937C44.0601 41.7555 44.2859 41.3572 44.6247 41.0699C44.9635 40.7826 45.3933 40.625 45.8375 40.625H46.75Z" fill="#ACABB1"/>
<path d="M41.125 49.375H36.125V50.625C36.126 50.9562 36.258 51.2736 36.4922 51.5078C36.7264 51.742 37.0438 51.874 37.375 51.875H42.375L42.7937 49.375H41.125Z" fill="#898890"/>
<path d="M38 25.625V28.7937C36.35 29.0062 35.4813 29.375 33.625 29.375C31.5438 29.375 31.9562 28.75 29.875 28.75V30C29.874 30.3312 29.742 30.6486 29.5078 30.8828C29.2736 31.117 28.9562 31.249 28.625 31.25H28V28.125C28 27.462 28.2634 26.8261 28.7322 26.3572C29.2011 25.8884 29.837 25.625 30.5 25.625H38Z" fill="#57565C"/>
<path d="M34.25 38.5937V40C34.25 40.4972 34.0525 40.9741 33.7008 41.3258C33.3492 41.6774 32.8723 41.875 32.375 41.875C31.8777 41.875 31.4008 41.6774 31.0492 41.3258C30.6975 40.9741 30.5 40.4972 30.5 40V38.075C31.2579 38.5197 32.1213 38.7529 33 38.75C33.4215 38.7492 33.8413 38.6967 34.25 38.5937Z" fill="#FFC477"/>
<path d="M31.75 51.25V51.875H28.625V48.75H29.25C29.913 48.75 30.5489 49.0134 31.0178 49.4822C31.4866 49.9511 31.75 50.587 31.75 51.25Z" fill="#FFC477"/>
<path d="M34.25 38.5937V39.8437C33.8413 39.9468 33.4215 39.9992 33 40C32.1213 40.0029 31.2579 39.7698 30.5 39.325V38.075C31.2579 38.5197 32.1213 38.7529 33 38.75C33.4215 38.7492 33.8413 38.6967 34.25 38.5937Z" fill="#FFB655"/>
<path d="M33.625 29.375C31.5438 29.375 31.9562 28.75 29.875 28.75V30C29.874 30.3312 29.742 30.6486 29.5078 30.8828C29.2736 31.117 28.9562 31.249 28.625 31.25H28C27.6685 31.25 27.3505 31.3817 27.1161 31.6161C26.8817 31.8505 26.75 32.1685 26.75 32.5C26.75 32.8315 26.8817 33.1495 27.1161 33.3839C27.3505 33.6183 27.6685 33.75 28 33.75C27.9999 35.0763 28.5259 36.3485 29.4625 37.2875C29.7704 37.5965 30.1195 37.8616 30.5 38.075C31.2579 38.5198 32.1213 38.7529 33 38.75C33.4215 38.7493 33.8413 38.6968 34.25 38.5937C35.3234 38.3159 36.2741 37.6895 36.9528 36.8128C37.6316 35.9361 37.9999 34.8587 38 33.75V28.7937C36.35 29.0062 35.4813 29.375 33.625 29.375Z" fill="#FFC477"/>
<path d="M24.25 54.375H56.75V55.625H24.25V54.375Z" fill="#8B5E3C"/>
<path d="M58.625 51.25H56.2063C56.2465 51.1475 56.2738 51.0405 56.2875 50.9313L57.75 42.1813C57.7945 41.9128 57.7799 41.6378 57.7074 41.3755C57.6349 41.1132 57.5062 40.8698 57.3301 40.6622C57.1541 40.4546 56.935 40.2879 56.688 40.1735C56.4411 40.0592 56.1722 40 55.9 40H45.8375C45.2461 39.999 44.6735 40.2085 44.2224 40.5909C43.7712 40.9734 43.4709 41.5039 43.375 42.0875L42.2625 48.75H41.75V46C41.7487 44.8458 41.3924 43.7199 40.7293 42.7752C40.0663 41.8304 39.1287 41.1125 38.0437 40.7188L34.875 39.5625V39.0437C35.9706 38.6573 36.9195 37.9407 37.5911 36.9927C38.2626 36.0447 38.6238 34.9118 38.625 33.75V25.625C38.625 25.4592 38.5592 25.3003 38.4419 25.1831C38.3247 25.0658 38.1658 25 38 25H30.5C29.6712 25 28.8763 25.3292 28.2903 25.9153C27.7042 26.5013 27.375 27.2962 27.375 28.125V30.7313C27.0075 30.8613 26.6896 31.1028 26.4657 31.4219C26.2418 31.7411 26.1229 32.1222 26.1257 32.512C26.1284 32.9019 26.2526 33.2812 26.481 33.5972C26.7094 33.9132 27.0307 34.1501 27.4 34.275C27.5184 35.5823 28.0937 36.8061 29.025 37.7313C29.2864 37.9901 29.5709 38.2244 29.875 38.4312V39.5625L26.7063 40.7188C25.6213 41.1125 24.6837 41.8304 24.0207 42.7752C23.3576 43.7199 23.0013 44.8458 23 46V49.375C23.0019 50.0539 23.2282 50.7131 23.6438 51.25H22.375C22.2092 51.25 22.0503 51.3158 21.9331 51.4331C21.8158 51.5503 21.75 51.7092 21.75 51.875V54.375C21.75 54.5408 21.8158 54.6997 21.9331 54.8169C22.0503 54.9342 22.2092 55 22.375 55H23.625V58.125C23.625 58.2908 23.6908 58.4497 23.8081 58.5669C23.9253 58.6842 24.0842 58.75 24.25 58.75H56.75C56.9158 58.75 57.0747 58.6842 57.1919 58.5669C57.3092 58.4497 57.375 58.2908 57.375 58.125V55H58.625C58.7908 55 58.9497 54.9342 59.0669 54.8169C59.1842 54.6997 59.25 54.5408 59.25 54.375V51.875C59.25 51.7092 59.1842 51.5503 59.0669 51.4331C58.9497 51.3158 58.7908 51.25 58.625 51.25V51.25ZM55.9 41.25C55.9903 41.25 56.0795 41.2695 56.1615 41.3073C56.2435 41.3451 56.3163 41.4001 56.375 41.4687C56.4347 41.5386 56.4785 41.6207 56.5033 41.7092C56.5281 41.7977 56.5334 41.8905 56.5188 41.9812L55.0563 50.7312C55.0326 50.8765 54.9579 51.0085 54.8457 51.1036C54.7334 51.1987 54.5909 51.2506 54.4438 51.25H45.6125L47.2812 41.25H55.9ZM44.6062 42.2937C44.6537 42.0017 44.8037 41.7362 45.0294 41.5449C45.2551 41.3535 45.5416 41.249 45.8375 41.25H46.0125L44.3438 51.25H43.1125L44.6062 42.2937ZM42.0563 50L41.8438 51.25H37.375C37.2092 51.25 37.0503 51.1842 36.9331 51.0669C36.8158 50.9497 36.75 50.7908 36.75 50.625V50H42.0563ZM28.625 28.125C28.6265 27.6282 28.8245 27.1521 29.1758 26.8008C29.5271 26.4495 30.0032 26.2515 30.5 26.25H37.375V28.2563C37.0063 28.3125 36.6688 28.3813 36.3375 28.4438C35.4469 28.6427 34.5375 28.7454 33.625 28.75C33.0594 28.7814 32.4939 28.6875 31.9688 28.475C31.3028 28.2137 30.5897 28.0945 29.875 28.125C29.7092 28.125 29.5503 28.1908 29.4331 28.3081C29.3158 28.4253 29.25 28.5842 29.25 28.75V30C29.25 30.1658 29.1842 30.3247 29.0669 30.4419C28.9497 30.5592 28.7908 30.625 28.625 30.625V28.125ZM28.625 33.75C28.625 33.5842 28.5592 33.4253 28.4419 33.3081C28.3247 33.1908 28.1658 33.125 28 33.125C27.8342 33.125 27.6753 33.0592 27.5581 32.9419C27.4408 32.8247 27.375 32.6658 27.375 32.5C27.375 32.3342 27.4408 32.1753 27.5581 32.0581C27.6753 31.9408 27.8342 31.875 28 31.875H28.625C29.1218 31.8735 29.5979 31.6755 29.9492 31.3242C30.3005 30.9729 30.4985 30.4968 30.5 30V29.4C30.8551 29.4265 31.2034 29.511 31.5312 29.65C32.1972 29.9113 32.9103 30.0305 33.625 30C34.6194 29.9952 35.6104 29.8841 36.5812 29.6688C36.8312 29.6188 37.1 29.5687 37.375 29.525V33.75C37.375 34.9103 36.9141 36.0231 36.0936 36.8436C35.2731 37.6641 34.1603 38.125 33 38.125C31.8397 38.125 30.7269 37.6641 29.9064 36.8436C29.0859 36.0231 28.625 34.9103 28.625 33.75V33.75ZM33.625 39.3375V40C33.625 40.3315 33.4933 40.6495 33.2589 40.8839C33.0245 41.1183 32.7065 41.25 32.375 41.25C32.0435 41.25 31.7255 41.1183 31.4911 40.8839C31.2567 40.6495 31.125 40.3315 31.125 40V39.05C31.7274 39.2624 32.3612 39.3723 33 39.375C33.2089 39.3752 33.4176 39.3626 33.625 39.3375V39.3375ZM24.25 46C24.2501 45.1024 24.5268 44.2267 25.0423 43.492C25.5579 42.7572 26.2873 42.1992 27.1312 41.8937L30.0312 40.8375C30.2013 41.3235 30.5182 41.7445 30.9381 42.0425C31.358 42.3404 31.8601 42.5004 32.375 42.5004C32.8899 42.5004 33.392 42.3404 33.8119 42.0425C34.2318 41.7445 34.5487 41.3235 34.7188 40.8375L37.6187 41.8937C38.4627 42.1992 39.1921 42.7572 39.7077 43.492C40.2232 44.2267 40.4999 45.1024 40.5 46V48.75H38.625V45H37.375V48.75H36.125C35.9592 48.75 35.8003 48.8158 35.6831 48.9331C35.5658 49.0503 35.5 49.2092 35.5 49.375V50.625C35.5017 50.8382 35.5397 51.0496 35.6125 51.25H32.375C32.375 50.4212 32.0458 49.6263 31.4597 49.0403C30.8737 48.4542 30.0788 48.125 29.25 48.125H27.375V45H26.125V48.75C26.125 48.9158 26.1908 49.0747 26.3081 49.1919C26.4253 49.3092 26.5842 49.375 26.75 49.375H28V51.25H26.125C25.6282 51.2485 25.1521 51.0505 24.8008 50.6992C24.4495 50.3479 24.2515 49.8718 24.25 49.375V46ZM31.125 51.25H29.25V49.375C29.7468 49.3765 30.2229 49.5745 30.5742 49.9258C30.9255 50.2771 31.1235 50.7532 31.125 51.25V51.25ZM56.125 57.5H24.875V55H56.125V57.5ZM58 53.75H23V52.5H58V53.75Z" fill="#1B0705"/>
<path d="M51.125 48.125C51.4958 48.125 51.8584 48.015 52.1667 47.809C52.475 47.603 52.7154 47.3101 52.8573 46.9675C52.9992 46.6249 53.0363 46.2479 52.964 45.8842C52.8916 45.5205 52.7131 45.1864 52.4508 44.9242C52.1886 44.662 51.8545 44.4834 51.4908 44.411C51.1271 44.3387 50.7501 44.3758 50.4075 44.5177C50.0649 44.6596 49.772 44.9 49.566 45.2083C49.36 45.5167 49.25 45.8792 49.25 46.25C49.25 46.7473 49.4475 47.2242 49.7992 47.5758C50.1508 47.9275 50.6277 48.125 51.125 48.125ZM51.125 45.625C51.2486 45.625 51.3695 45.6617 51.4722 45.7303C51.575 45.799 51.6551 45.8966 51.7024 46.0108C51.7497 46.125 51.7621 46.2507 51.738 46.3719C51.7139 46.4932 51.6544 46.6045 51.5669 46.6919C51.4795 46.7794 51.3682 46.8389 51.2469 46.863C51.1257 46.8871 51 46.8747 50.8858 46.8274C50.7716 46.7801 50.674 46.7 50.6053 46.5972C50.5367 46.4945 50.5 46.3736 50.5 46.25C50.5 46.0842 50.5659 45.9253 50.6831 45.8081C50.8003 45.6909 50.9592 45.625 51.125 45.625Z" fill="#1B0705"/>
<path d="M31.125 31.25H32.375V32.5H31.125V31.25Z" fill="#1B0705"/>
<path d="M34.875 31.25H36.125V32.5H34.875V31.25Z" fill="#1B0705"/>
<path d="M41.0363 31.8687L42.7125 32.1081C42.8258 32.4606 42.9677 32.8032 43.1369 33.1325L42.1213 34.4869C42.0312 34.6072 41.9875 34.7559 41.9982 34.9058C42.0088 35.0557 42.0732 35.1968 42.1794 35.3031L43.9469 37.0706C44.0532 37.1768 44.1943 37.2412 44.3442 37.2518C44.4941 37.2625 44.6428 37.2188 44.7631 37.1288L46.1175 36.1131C46.4468 36.2823 46.7894 36.4242 47.1419 36.5375L47.3812 38.2138C47.4026 38.3626 47.4769 38.4988 47.5906 38.5973C47.7042 38.6958 47.8496 38.75 48 38.75H50.5C50.6504 38.75 50.7958 38.6958 50.9094 38.5973C51.0231 38.4988 51.0974 38.3626 51.1188 38.2138L51.3581 36.5375C51.7105 36.4241 52.0531 36.2822 52.3825 36.1131L53.7369 37.1288C53.8572 37.2188 54.0059 37.2625 54.1558 37.2518C54.3057 37.2412 54.4468 37.1768 54.5531 37.0706L56.3206 35.3031C56.4268 35.1968 56.4912 35.0557 56.5018 34.9058C56.5125 34.7559 56.4688 34.6072 56.3787 34.4869L55.3631 33.1325C55.5323 32.8032 55.6742 32.4606 55.7875 32.1081L57.4637 31.8687C57.6126 31.8474 57.7488 31.7731 57.8473 31.6594C57.9458 31.5458 58 31.4004 58 31.25V28.75C58 28.5996 57.9458 28.4542 57.8473 28.3406C57.7488 28.2269 57.6126 28.1526 57.4637 28.1313L55.7875 27.8919C55.6742 27.5394 55.5323 27.1968 55.3631 26.8675L56.3787 25.5131C56.4688 25.3928 56.5125 25.2441 56.5018 25.0942C56.4912 24.9443 56.4268 24.8032 56.3206 24.6969L54.5531 22.9294C54.4468 22.8232 54.3057 22.7588 54.1558 22.7482C54.0059 22.7375 53.8572 22.7812 53.7369 22.8712L52.3825 23.8869C52.0531 23.7178 51.7105 23.5759 51.3581 23.4625L51.1188 21.7863C51.0974 21.6374 51.0231 21.5012 50.9094 21.4027C50.7958 21.3042 50.6504 21.25 50.5 21.25H48C47.8496 21.25 47.7042 21.3042 47.5906 21.4027C47.4769 21.5012 47.4026 21.6374 47.3812 21.7863L47.1419 23.4625C46.7894 23.5758 46.4468 23.7177 46.1175 23.8869L44.7631 22.8712C44.6428 22.7812 44.4941 22.7375 44.3442 22.7482C44.1943 22.7588 44.0532 22.8232 43.9469 22.9294L42.1794 24.6969C42.0732 24.8032 42.0088 24.9443 41.9982 25.0942C41.9875 25.2441 42.0312 25.3928 42.1213 25.5131L43.1369 26.8675C42.9677 27.1968 42.8258 27.5394 42.7125 27.8919L41.0363 28.1313C40.8874 28.1526 40.7512 28.2269 40.6527 28.3406C40.5542 28.4542 40.5 28.5996 40.5 28.75V31.25C40.5 31.4004 40.5542 31.5458 40.6527 31.6594C40.7512 31.7731 40.8874 31.8474 41.0363 31.8687V31.8687ZM41.75 29.2919L43.2894 29.0725C43.4119 29.0549 43.5264 29.0013 43.6184 28.9185C43.7105 28.8357 43.7758 28.7275 43.8063 28.6075C43.938 28.0899 44.1437 27.594 44.4169 27.135C44.4799 27.0286 44.5099 26.9058 44.5031 26.7823C44.4963 26.6588 44.453 26.5401 44.3788 26.4412L43.4463 25.1969L44.4462 24.1969L45.6906 25.1294C45.7895 25.2037 45.9082 25.2469 46.0317 25.2537C46.1552 25.2605 46.2779 25.2305 46.3844 25.1675C46.8433 24.8943 47.3393 24.6887 47.8569 24.5569C47.9769 24.5264 48.0851 24.4611 48.1679 24.3691C48.2507 24.277 48.3043 24.1625 48.3219 24.04L48.5419 22.5H49.9581L50.1775 24.0394C50.1951 24.1619 50.2487 24.2764 50.3315 24.3684C50.4143 24.4605 50.5225 24.5258 50.6425 24.5562C51.1601 24.688 51.656 24.8937 52.115 25.1669C52.2214 25.2299 52.3442 25.2599 52.4677 25.2531C52.5912 25.2463 52.7099 25.203 52.8088 25.1288L54.0531 24.1963L55.0531 25.1963L54.1206 26.4406C54.0463 26.5395 54.0031 26.6582 53.9963 26.7817C53.9895 26.9052 54.0195 27.0279 54.0825 27.1344C54.3557 27.5933 54.5613 28.0893 54.6931 28.6069C54.7236 28.7269 54.7889 28.8351 54.8809 28.9179C54.973 29.0007 55.0875 29.0543 55.21 29.0719L56.75 29.2919V30.7081L55.2106 30.9275C55.0881 30.9451 54.9736 30.9987 54.8816 31.0815C54.7895 31.1643 54.7242 31.2725 54.6937 31.3925C54.562 31.9101 54.3563 32.406 54.0831 32.865C54.0201 32.9714 53.9901 33.0942 53.9969 33.2177C54.0037 33.3412 54.047 33.4599 54.1212 33.5588L55.0537 34.8031L54.0538 35.8031L52.8094 34.8706C52.7105 34.7963 52.5918 34.7531 52.4683 34.7463C52.3448 34.7395 52.2221 34.7695 52.1156 34.8325C51.6567 35.1057 51.1607 35.3113 50.6431 35.4431C50.5231 35.4736 50.4149 35.5389 50.3321 35.6309C50.2493 35.723 50.1957 35.8375 50.1781 35.96L49.9581 37.5H48.5419L48.3225 35.9606C48.3049 35.8381 48.2513 35.7236 48.1685 35.6316C48.0857 35.5395 47.9775 35.4742 47.8575 35.4437C47.3399 35.312 46.844 35.1063 46.385 34.8331C46.2786 34.7701 46.1558 34.7401 46.0323 34.7469C45.9088 34.7537 45.7901 34.797 45.6912 34.8713L44.4469 35.8037L43.4469 34.8038L44.3794 33.5594C44.4537 33.4605 44.4969 33.3418 44.5037 33.2183C44.5105 33.0948 44.4805 32.9721 44.4175 32.8656C44.1443 32.4067 43.9387 31.9107 43.8069 31.3931C43.7764 31.2731 43.7111 31.1649 43.6191 31.0821C43.527 30.9993 43.4125 30.9457 43.29 30.9281L41.75 30.7081V29.2919Z" fill="#1B0705"/>
<path d="M49.25 33.75C49.9917 33.75 50.7167 33.5301 51.3334 33.118C51.9501 32.706 52.4307 32.1203 52.7145 31.4351C52.9984 30.7498 53.0726 29.9958 52.9279 29.2684C52.7832 28.541 52.4261 27.8728 51.9016 27.3484C51.3772 26.8239 50.709 26.4668 49.9816 26.3221C49.2542 26.1774 48.5002 26.2516 47.8149 26.5355C47.1297 26.8193 46.544 27.2999 46.132 27.9166C45.7199 28.5333 45.5 29.2583 45.5 30C45.501 30.9943 45.8964 31.9475 46.5994 32.6506C47.3025 33.3536 48.2557 33.749 49.25 33.75ZM49.25 27.5C49.7445 27.5 50.2278 27.6466 50.6389 27.9213C51.05 28.196 51.3705 28.5865 51.5597 29.0433C51.7489 29.5001 51.7984 30.0028 51.702 30.4877C51.6055 30.9727 51.3674 31.4181 51.0178 31.7678C50.6681 32.1174 50.2227 32.3555 49.7377 32.452C49.2528 32.5484 48.7501 32.4989 48.2933 32.3097C47.8365 32.1205 47.446 31.8 47.1713 31.3889C46.8966 30.9778 46.75 30.4945 46.75 30C46.75 29.337 47.0134 28.7011 47.4822 28.2322C47.9511 27.7634 48.587 27.5 49.25 27.5V27.5Z" fill="#1B0705"/>
<path d="M33.625 36.875C34.288 36.875 34.9239 36.6116 35.3928 36.1428C35.8616 35.6739 36.125 35.038 36.125 34.375H34.875C34.875 34.7065 34.7433 35.0245 34.5089 35.2589C34.2745 35.4933 33.9565 35.625 33.625 35.625C33.2935 35.625 32.9755 35.4933 32.7411 35.2589C32.5067 35.0245 32.375 34.7065 32.375 34.375H31.125C31.125 35.038 31.3884 35.6739 31.8572 36.1428C32.3261 36.6116 32.962 36.875 33.625 36.875Z" fill="#1B0705"/>
</svg>
