<svg width="81" height="80" viewBox="0 0 81 80" fill="none" xmlns="http://www.w3.org/2000/svg">
<circle cx="40.5" cy="40" r="39.5" fill="white" stroke="#D73927" stroke-dasharray="10 10"/>
<path fill-rule="evenodd" clip-rule="evenodd" d="M44.3312 36.0848C45.0102 35.9909 45.4845 35.3643 45.3906 34.6853L44.9153 31.2844L47.2734 28.7971C47.4643 28.619 47.6009 28.3797 47.6492 28.1027C47.7673 27.4264 47.3148 26.7824 46.6384 26.6643L43.2586 26.0656L41.587 22.9906C41.475 22.7849 41.3039 22.6085 41.0818 22.49C40.4779 22.168 39.7273 22.3964 39.4053 23.0002L37.7916 26.0295L34.3871 26.6622C34.1417 26.699 33.905 26.8097 33.7125 26.9948C33.2188 27.4698 33.2036 28.2553 33.6786 28.749L36.0624 31.2215L35.6185 34.6055C35.5651 34.8648 35.5937 35.1432 35.7185 35.3997C36.0191 36.0169 36.7632 36.2736 37.3804 35.9731L40.4648 34.4717L43.6266 35.9779C43.8382 36.0789 44.0816 36.1194 44.3312 36.0848V36.0848Z" fill="#FFC10D"/>
<path fill-rule="evenodd" clip-rule="evenodd" d="M44.4062 40.4688H36.5937C35.7344 40.4688 35.0312 41.1719 35.0312 42.0312V43.5939V59.2188H45.9687V46.7188V42.0312C45.9687 41.1718 45.2655 40.4688 44.4062 40.4688V40.4688Z" fill="#F5CDC9"/>
<path fill-rule="evenodd" clip-rule="evenodd" d="M35.0312 59.2188V43.5939H25.6562C24.7969 43.5939 24.0938 44.297 24.0938 45.1563V59.2187H35.0312V59.2188Z" fill="#D73927"/>
<path fill-rule="evenodd" clip-rule="evenodd" d="M45.9688 46.7189V59.2189H56.9062V48.2814C56.9062 47.422 56.203 46.7189 55.3437 46.7189H45.9688Z" fill="#D73927"/>
<path d="M55.3435 45.9375H46.7498V42.0312C46.7498 40.7389 45.6984 39.6875 44.4061 39.6875H36.5936C35.3013 39.6875 34.2499 40.7389 34.2499 42.0312V42.8126H25.6562C24.3639 42.8126 23.3125 43.864 23.3125 45.1563V59.2188C23.3125 59.6502 23.6623 60 24.0937 60H56.906C57.3375 60 57.6872 59.6502 57.6872 59.2188V48.2813C57.6872 46.9889 56.6358 45.9375 55.3435 45.9375V45.9375ZM45.1873 58.4374H35.8124V56.4841C35.8124 56.0526 35.4626 55.7028 35.0312 55.7028C34.5997 55.7028 34.2499 56.0526 34.2499 56.4841V58.4374H24.875V45.1562C24.875 44.7254 25.2255 44.375 25.6562 44.375H34.2499V49.4529C34.2499 49.8844 34.5997 50.2341 35.0312 50.2341C35.4626 50.2341 35.8124 49.8844 35.8124 49.4529V42.0312C35.8124 41.6004 36.1629 41.2499 36.5936 41.2499H44.4061C44.8369 41.2499 45.1873 41.6004 45.1873 42.0312V58.4374ZM56.1247 58.4375H46.7498V47.5H55.3435C55.7743 47.5 56.1247 47.8505 56.1247 48.2813V58.4375Z" fill="#51150F"/>
<path d="M53.392 51.4063C53.392 50.1139 52.3438 49.0625 51.0554 49.0625C50.3722 49.0625 49.7252 49.3613 49.2804 49.8823C49.0002 50.2104 49.0391 50.7035 49.3672 50.9838C49.6954 51.2639 50.1884 51.2251 50.4686 50.897C50.6161 50.7242 50.8301 50.6251 51.0554 50.6251C51.4822 50.6251 51.8295 50.9755 51.8295 51.4063C51.8295 51.6186 51.7465 51.8172 51.5958 51.9655C51.4292 52.1296 51.3448 52.3597 51.3659 52.5926C51.387 52.8255 51.5112 53.0367 51.7046 53.1682C52.0263 53.387 52.2183 53.7505 52.2183 54.1407C52.2183 54.7869 51.6967 55.3126 51.0555 55.3126C50.7983 55.3126 50.5547 55.2297 50.351 55.073C50.009 54.8099 49.5186 54.8739 49.2554 55.2158C48.9922 55.5577 49.0562 56.0483 49.3982 56.3114C49.8776 56.6802 50.4506 56.8752 51.0555 56.8752C52.5582 56.8752 53.7808 55.6485 53.7808 54.1408C53.7808 53.5024 53.5595 52.8943 53.1674 52.4123C53.3145 52.1021 53.392 51.7605 53.392 51.4063V51.4063Z" fill="#51150F"/>
<path d="M31.1248 52.1875H29.2422C29.4143 52.0293 29.6299 51.86 29.8816 51.6657C30.7751 50.9764 31.887 50.1184 31.9059 48.5023C31.9198 47.3154 31.1607 46.2904 30.0598 46.0096C29.0074 45.7413 27.9812 46.2203 27.4456 47.23C27.2434 47.6112 27.3886 48.0841 27.7698 48.2863C28.151 48.4885 28.6238 48.3433 28.826 47.9622C29.0921 47.4604 29.4714 47.4722 29.6737 47.5236C30.0118 47.6099 30.35 47.9403 30.3436 48.484C30.3342 49.2857 29.8022 49.7536 28.9272 50.4287C28.1264 51.0466 27.2188 51.7469 27.2188 52.9688C27.2188 53.4003 27.5685 53.75 28 53.75H31.1248C31.5562 53.75 31.906 53.4003 31.906 52.9688C31.906 52.5373 31.5562 52.1875 31.1248 52.1875Z" fill="#51150F"/>
<path d="M41.3663 49.0624H41.2813V43.5937C41.2813 43.3146 41.1324 43.0567 40.8907 42.9172C40.6491 42.7776 40.3513 42.7776 40.1095 42.9172L39.2433 43.4173C38.8696 43.633 38.7416 44.1108 38.9574 44.4844C39.1171 44.761 39.4205 44.9028 39.7188 44.8706V49.0624H39.6339C39.2024 49.0624 38.8527 49.4122 38.8527 49.8437C38.8527 50.2752 39.2024 50.6249 39.6339 50.6249H41.3663C41.7977 50.6249 42.1475 50.2752 42.1475 49.8437C42.1475 49.4122 41.7977 49.0624 41.3663 49.0624V49.0624Z" fill="#51150F"/>
<path d="M35.2389 31.4928L34.8472 34.4789C34.7653 34.9099 34.8235 35.3458 35.0162 35.7416C35.3664 36.4607 36.0888 36.8796 36.8395 36.8796C37.1364 36.8796 37.438 36.8139 37.7224 36.6754L40.4685 35.3387L43.2902 36.6829C43.6456 36.8526 44.0427 36.9133 44.4383 36.8586C44.9734 36.7846 45.4476 36.5067 45.7737 36.0759C46.0997 35.6451 46.2385 35.1132 46.1644 34.5771L45.7412 31.5487L47.8259 29.3498C48.1393 29.0498 48.3441 28.6656 48.4189 28.2369C48.5118 27.7042 48.3918 27.1673 48.081 26.7249C47.7701 26.2824 47.3055 25.9876 46.7748 25.8949L43.7654 25.3618L42.2734 22.6174C42.2734 22.6172 42.2734 22.6172 42.2733 22.617C42.0841 22.2694 41.7992 21.9871 41.4495 21.8005C40.9734 21.5466 40.4268 21.4933 39.9105 21.6504C39.3942 21.8075 38.97 22.1563 38.7159 22.6328L37.279 25.33L34.256 25.8917C33.846 25.9565 33.4712 26.1429 33.1709 26.4317C32.7817 26.806 32.5616 27.3096 32.5512 27.8496C32.5407 28.3896 32.7412 28.9013 33.1162 29.2912L35.2389 31.4928ZM34.2542 27.5578C34.3415 27.4738 34.4379 27.4445 34.5033 27.4346C34.5122 27.4333 34.521 27.4318 34.5298 27.4302L37.9344 26.7975C38.1682 26.7541 38.3694 26.6066 38.4812 26.3967L40.0948 23.3678C40.1523 23.2599 40.2485 23.1808 40.3655 23.1452C40.4096 23.1318 40.4546 23.1251 40.4994 23.1251C40.5735 23.1251 40.6471 23.1433 40.7142 23.1792C40.7937 23.2215 40.8582 23.2854 40.901 23.364L42.5724 26.4385C42.6859 26.6474 42.8884 26.7932 43.1226 26.8347L46.5044 27.4338C46.6259 27.4549 46.7318 27.5222 46.8028 27.6231C46.8737 27.7241 46.9011 27.8466 46.8799 27.9682C46.8579 28.0942 46.792 28.1778 46.7407 28.2257C46.729 28.2366 46.7177 28.2478 46.7067 28.2594L44.3486 30.7466C44.185 30.9191 44.1089 31.1568 44.1418 31.3923L44.6169 34.7921C44.6337 34.9138 44.6022 35.0347 44.528 35.1327C44.4538 35.2306 44.346 35.2939 44.2244 35.3107C44.1326 35.3234 44.0421 35.3102 43.9627 35.2724L40.801 33.7661C40.5863 33.6639 40.3368 33.665 40.1231 33.769L37.0386 35.2704C36.8096 35.3821 36.5325 35.2864 36.4211 35.0574C36.3642 34.9406 36.3694 34.8328 36.3838 34.7629C36.3876 34.7443 36.3908 34.7256 36.3933 34.7068L36.8371 31.3228C36.868 31.0871 36.7899 30.8501 36.6249 30.679L34.2417 28.2072C34.1567 28.1188 34.1112 28.0025 34.1135 27.8798C34.1158 27.7573 34.1658 27.6428 34.2542 27.5578Z" fill="#51150F"/>
<path d="M28.2736 21.4579L31.3575 23.2384C31.4805 23.3095 31.6148 23.3433 31.7474 23.3433C32.0174 23.3433 32.28 23.2031 32.4247 22.9525C32.6404 22.5788 32.5124 22.101 32.1387 21.8853L29.0548 20.1048C28.6812 19.889 28.2033 20.0171 27.9876 20.3908C27.7719 20.7644 27.8999 21.2422 28.2736 21.4579V21.4579Z" fill="#51150F"/>
<path d="M26.0191 30.8239C26.0565 30.8239 26.0944 30.8212 26.1326 30.8157L29.6565 30.303C30.0834 30.2409 30.3792 29.8443 30.3171 29.4174C30.2549 28.9904 29.8586 28.6947 29.4315 28.7568L25.9076 29.2695C25.4807 29.3316 25.1849 29.7282 25.247 30.1551C25.3036 30.5439 25.6375 30.8239 26.0191 30.8239V30.8239Z" fill="#51150F"/>
<path d="M31.3869 35.5777L28.8689 38.0957C28.5639 38.4008 28.5639 38.8955 28.8689 39.2006C29.0215 39.3532 29.2214 39.4294 29.4214 39.4294C29.6213 39.4294 29.8213 39.3532 29.9738 39.2006L32.4918 36.6826C32.7968 36.3776 32.7968 35.8829 32.4918 35.5777C32.1867 35.2726 31.692 35.2726 31.3869 35.5777Z" fill="#51150F"/>
<path d="M49.2528 23.3433C49.3853 23.3433 49.5197 23.3095 49.6427 23.2384L52.7266 21.458C53.1003 21.2423 53.2283 20.7645 53.0126 20.3908C52.7968 20.017 52.319 19.8891 51.9454 20.1048L48.8615 21.8853C48.4878 22.101 48.3597 22.5788 48.5755 22.9525C48.7201 23.2031 48.9828 23.3433 49.2528 23.3433V23.3433Z" fill="#51150F"/>
<path d="M50.683 29.4174C50.6209 29.8444 50.9167 30.2409 51.3437 30.3031L54.8675 30.8158C54.9056 30.8213 54.9435 30.824 54.981 30.824C55.3627 30.824 55.6966 30.544 55.7531 30.1551C55.8152 29.7281 55.5195 29.3316 55.0925 29.2695L51.5687 28.7567C51.142 28.6948 50.7452 28.9905 50.683 29.4174V29.4174Z" fill="#51150F"/>
<path d="M48.5081 35.5778C48.203 35.8829 48.203 36.3776 48.5081 36.6827L51.0261 39.2007C51.1786 39.3533 51.3786 39.4295 51.5785 39.4295C51.7784 39.4295 51.9784 39.3533 52.1309 39.2007C52.436 38.8956 52.436 38.4009 52.1309 38.0958L49.6129 35.5778C49.3079 35.2727 48.8133 35.2727 48.5081 35.5778V35.5778Z" fill="#51150F"/>
<path d="M35.0312 52.1873C34.5998 52.1873 34.25 52.5373 34.25 52.9687C34.25 53.4002 34.5998 53.75 35.0312 53.75C35.4627 53.75 35.8125 53.4002 35.8125 52.9687V52.9682C35.8125 52.5368 35.4627 52.1873 35.0312 52.1873Z" fill="#51150F"/>
</svg>
