<svg width="80" height="80" viewBox="0 0 80 80" fill="none" xmlns="http://www.w3.org/2000/svg">
<circle cx="40" cy="40" r="39.5" fill="white" stroke="#D73927" stroke-dasharray="10 10"/>
<g clip-path="url(#clip0_1193_1685)">
<path d="M58.291 34.8071H50.5822C49.9456 34.8071 49.4277 35.325 49.4277 35.9616V37.0038C49.4277 37.6401 49.9456 38.158 50.5822 38.158H58.291C58.9276 38.158 59.4454 37.6401 59.4454 37.0038V35.9616C59.4454 35.325 58.9276 34.8071 58.291 34.8071Z" fill="#FEB644"/>
<path d="M52.1624 37.0038V35.9616C52.1624 35.325 52.6803 34.8071 53.3166 34.8071H50.5822C49.9456 34.8071 49.4277 35.325 49.4277 35.9616V37.0038C49.4277 37.6401 49.9456 38.158 50.5822 38.158H53.3166C52.6803 38.158 52.1624 37.6401 52.1624 37.0038Z" fill="#F9972D"/>
<path d="M43.8466 41.354H36.1379C35.5013 41.354 34.9834 41.8719 34.9834 42.5085V43.5507C34.9834 44.187 35.5013 44.7048 36.1379 44.7048H43.8466C44.4832 44.7048 45.0008 44.187 45.0008 43.5507V42.5085C45.0008 41.8719 44.4832 41.354 43.8466 41.354V41.354Z" fill="#D73927"/>
<path d="M37.7181 43.5507V42.5085C37.7181 41.8719 38.236 41.354 38.8723 41.354H36.1379C35.5013 41.354 34.9834 41.8719 34.9834 42.5085V43.5507C34.9834 44.187 35.5013 44.7048 36.1379 44.7048H38.8723C38.236 44.7048 37.7181 44.187 37.7181 43.5507V43.5507Z" fill="#D73927"/>
<path d="M29.4023 47.901H21.6935C21.0569 47.901 20.5391 48.4189 20.5391 49.0555V50.0977C20.5391 50.7339 21.0569 51.2518 21.6935 51.2518H29.4023C30.0386 51.2518 30.5565 50.7339 30.5565 50.0977V49.0555C30.5565 48.4189 30.0386 47.901 29.4023 47.901V47.901Z" fill="#FEB644"/>
<path d="M23.2737 50.0977V49.0555C23.2737 48.4189 23.7913 47.901 24.4279 47.901H21.6935C21.0569 47.901 20.5391 48.4189 20.5391 49.0555V50.0977C20.5391 50.7339 21.0569 51.2518 21.6935 51.2518H24.4279C23.7913 51.2518 23.2737 50.7339 23.2737 50.0977Z" fill="#F9972D"/>
<path d="M54.4102 25.458L57.404 21.1791C57.5572 20.96 57.3949 20.66 57.1278 20.6689L51.9081 20.841C51.6673 20.8489 51.519 21.1077 51.6338 21.3198L53.8591 25.4266C53.9742 25.6387 54.272 25.6555 54.4102 25.458V25.458Z" fill="#D73927"/>
<path d="M54.3683 21.1489C54.2935 21.0109 54.3307 20.8535 54.432 20.7579L51.9082 20.8409C51.6675 20.8489 51.5188 21.1077 51.6339 21.3198L53.8592 25.4265C53.9743 25.6386 54.2718 25.6554 54.4104 25.4579L55.7025 23.611L54.3683 21.1489Z" fill="#D73927"/>
<path d="M29.4023 44.6283H21.6935C21.0569 44.6283 20.5391 45.1462 20.5391 45.7825V46.8246C20.5391 47.4612 21.0569 47.9791 21.6935 47.9791H29.4023C30.0386 47.9791 30.5565 47.4612 30.5565 46.8246V45.7825C30.5565 45.1462 30.0386 44.6283 29.4023 44.6283Z" fill="#FFC10D"/>
<path d="M23.2737 46.8246V45.7825C23.2737 45.1462 23.7913 44.6283 24.4279 44.6283H21.6935C21.0569 44.6283 20.5391 45.1462 20.5391 45.7825V46.8246C20.5391 47.4612 21.0569 47.9791 21.6935 47.9791H24.4279C23.7913 47.9791 23.2737 47.4612 23.2737 46.8246V46.8246Z" fill="#FEB644"/>
<path d="M43.8466 38.0825H36.1379C35.5013 38.0825 34.9834 38.6004 34.9834 39.237V40.2792C34.9834 40.9158 35.5013 41.4336 36.1379 41.4336H43.8466C44.4832 41.4336 45.0008 40.9158 45.0008 40.2792V39.237C45.0008 38.6004 44.4832 38.0825 43.8466 38.0825V38.0825Z" fill="#FFC10D"/>
<path d="M58.291 31.5371H50.5822C49.9456 31.5371 49.4277 32.055 49.4277 32.6913V33.7335C49.4277 34.3701 49.9456 34.8879 50.5822 34.8879H58.291C58.9276 34.8879 59.4454 34.3701 59.4454 33.7335V32.6913C59.4454 32.055 58.9276 31.5371 58.291 31.5371Z" fill="#FFC10D"/>
<path d="M29.4023 54.4479H21.6935C21.0569 54.4479 20.5391 54.9658 20.5391 55.6024V56.6445C20.5391 57.2808 21.0569 57.7987 21.6935 57.7987H29.4023C30.0386 57.7987 30.5565 57.2808 30.5565 56.6445V55.6024C30.5565 54.9658 30.0386 54.4479 29.4023 54.4479V54.4479Z" fill="#FEB644"/>
<path d="M23.2737 56.6445V55.6024C23.2737 54.9658 23.7913 54.4479 24.4279 54.4479H21.6935C21.0569 54.4479 20.5391 54.9658 20.5391 55.6024V56.6445C20.5391 57.2808 21.0569 57.7987 21.6935 57.7987H24.4279C23.7913 57.7987 23.2737 57.2808 23.2737 56.6445V56.6445Z" fill="#F9972D"/>
<path d="M29.4023 51.1752H21.6935C21.0569 51.1752 20.5391 51.6931 20.5391 52.3297V53.3715C20.5391 54.0081 21.0569 54.526 21.6935 54.526H29.4023C30.0386 54.526 30.5565 54.0081 30.5565 53.3715V52.3297C30.5565 51.6931 30.0386 51.1752 29.4023 51.1752Z" fill="#FFC10D"/>
<path d="M23.2737 53.3715V52.3297C23.2737 51.6931 23.7913 51.1752 24.4279 51.1752H21.6935C21.0569 51.1752 20.5391 51.6931 20.5391 52.3297V53.3715C20.5391 54.0081 21.0569 54.526 21.6935 54.526H24.4279C23.7913 54.526 23.2737 54.0081 23.2737 53.3715Z" fill="#FEB644"/>
<path d="M43.8466 47.901H36.1379C35.5013 47.901 34.9834 48.4189 34.9834 49.0555V50.0977C34.9834 50.7339 35.5013 51.2518 36.1379 51.2518H43.8466C44.4832 51.2518 45.0008 50.7339 45.0008 50.0977V49.0555C45.0008 48.4189 44.4832 47.901 43.8466 47.901V47.901Z" fill="#FEB644"/>
<path d="M37.7181 50.0977V49.0555C37.7181 48.4189 38.236 47.901 38.8723 47.901H36.1379C35.5013 47.901 34.9834 48.4189 34.9834 49.0555V50.0977C34.9834 50.7339 35.5013 51.2518 36.1379 51.2518H38.8723C38.236 51.2518 37.7181 50.7339 37.7181 50.0977Z" fill="#F9972D"/>
<path d="M43.8466 44.6283H36.1379C35.5013 44.6283 34.9834 45.1462 34.9834 45.7825V46.8246C34.9834 47.4612 35.5013 47.9791 36.1379 47.9791H43.8466C44.4832 47.9791 45.0008 47.4612 45.0008 46.8246V45.7825C45.0008 45.1462 44.4832 44.6283 43.8466 44.6283Z" fill="#FFC10D"/>
<path d="M37.7181 46.8246V45.7825C37.7181 45.1462 38.236 44.6283 38.8723 44.6283H36.1379C35.5013 44.6283 34.9834 45.1462 34.9834 45.7825V46.8246C34.9834 47.4612 35.5013 47.9791 36.1379 47.9791H38.8723C38.236 47.9791 37.7181 47.4612 37.7181 46.8246V46.8246Z" fill="#FEB644"/>
<path d="M43.8466 54.4479H36.1379C35.5013 54.4479 34.9834 54.9658 34.9834 55.6024V56.6445C34.9834 57.2808 35.5013 57.7987 36.1379 57.7987H43.8466C44.4832 57.7987 45.0008 57.2808 45.0008 56.6445V55.6024C45.0008 54.9658 44.4832 54.4479 43.8466 54.4479V54.4479Z" fill="#FEB644"/>
<path d="M37.7181 56.6445V55.6024C37.7181 54.9658 38.236 54.4479 38.8723 54.4479H36.1379C35.5013 54.4479 34.9834 54.9658 34.9834 55.6024V56.6445C34.9834 57.2808 35.5013 57.7987 36.1379 57.7987H38.8723C38.236 57.7987 37.7181 57.2808 37.7181 56.6445V56.6445Z" fill="#F9972D"/>
<path d="M43.8466 51.1752H36.1379C35.5013 51.1752 34.9834 51.6931 34.9834 52.3297V53.3715C34.9834 54.0081 35.5013 54.526 36.1379 54.526H43.8466C44.4832 54.526 45.0008 54.0081 45.0008 53.3715V52.3297C45.0008 51.6931 44.4832 51.1752 43.8466 51.1752Z" fill="#FFC10D"/>
<path d="M37.7181 53.3716V52.3298C37.7181 51.6932 38.236 51.1753 38.8723 51.1753H36.1379C35.5013 51.1753 34.9834 51.6932 34.9834 52.3298V53.3716C34.9834 54.0082 35.5013 54.5261 36.1379 54.5261H38.8723C38.236 54.5261 37.7181 54.0082 37.7181 53.3716Z" fill="#FEB644"/>
<path d="M37.7181 40.2792V39.2371C37.7181 38.6005 38.236 38.0829 38.8723 38.0829H36.1379C35.5013 38.0829 34.9834 38.6005 34.9834 39.2371V40.2792C34.9834 40.9158 35.5013 41.4337 36.1379 41.4337H38.8723C38.236 41.4337 37.7181 40.9158 37.7181 40.2792Z" fill="#FEB644"/>
<path d="M58.291 41.3541H50.5822C49.9456 41.3541 49.4277 41.872 49.4277 42.5086V43.5508C49.4277 44.1871 49.9456 44.705 50.5822 44.705H58.291C58.9275 44.705 59.4454 44.1871 59.4454 43.5508V42.5086C59.4454 41.872 58.9275 41.3541 58.291 41.3541V41.3541Z" fill="#FEB644"/>
<path d="M52.1624 43.5507V42.5085C52.1624 41.8719 52.6803 41.354 53.3166 41.354H50.5822C49.9456 41.354 49.4277 41.8719 49.4277 42.5085V43.5507C49.4277 44.187 49.9456 44.7048 50.5822 44.7048H53.3166C52.6803 44.7048 52.1624 44.187 52.1624 43.5507V43.5507Z" fill="#F9972D"/>
<path d="M58.291 38.0825H50.5822C49.9456 38.0825 49.4277 38.6004 49.4277 39.237V40.2792C49.4277 40.9158 49.9456 41.4336 50.5822 41.4336H58.291C58.9276 41.4336 59.4454 40.9158 59.4454 40.2792V39.237C59.4454 38.6004 58.9276 38.0825 58.291 38.0825V38.0825Z" fill="#FFC10D"/>
<path d="M58.291 47.901H50.5822C49.9456 47.901 49.4277 48.4189 49.4277 49.0555V50.0977C49.4277 50.7339 49.9456 51.2518 50.5822 51.2518H58.291C58.9276 51.2518 59.4454 50.7339 59.4454 50.0977V49.0555C59.4454 48.4189 58.9276 47.901 58.291 47.901V47.901Z" fill="#FEB644"/>
<path d="M52.1624 50.0977V49.0555C52.1624 48.4189 52.6803 47.901 53.3166 47.901H50.5822C49.9456 47.901 49.4277 48.4189 49.4277 49.0555V50.0977C49.4277 50.7339 49.9456 51.2518 50.5822 51.2518H53.3166C52.6803 51.2518 52.1624 50.7339 52.1624 50.0977Z" fill="#F9972D"/>
<path d="M58.291 44.6283H50.5822C49.9456 44.6283 49.4277 45.1462 49.4277 45.7825V46.8246C49.4277 47.4612 49.9456 47.9791 50.5822 47.9791H58.291C58.9276 47.9791 59.4454 47.4612 59.4454 46.8246V45.7825C59.4454 45.1462 58.9276 44.6283 58.291 44.6283Z" fill="#FFC10D"/>
<path d="M52.1624 46.8246V45.7825C52.1624 45.1462 52.6803 44.6283 53.3166 44.6283H50.5822C49.9456 44.6283 49.4277 45.1462 49.4277 45.7825V46.8246C49.4277 47.4612 49.9456 47.9791 50.5822 47.9791H53.3166C52.6803 47.9791 52.1624 47.4612 52.1624 46.8246V46.8246Z" fill="#FEB644"/>
<path d="M58.291 54.4479H50.5822C49.9456 54.4479 49.4277 54.9658 49.4277 55.6024V56.6445C49.4277 57.2808 49.9456 57.7987 50.5822 57.7987H58.291C58.9276 57.7987 59.4454 57.2808 59.4454 56.6445V55.6024C59.4454 54.9658 58.9276 54.4479 58.291 54.4479V54.4479Z" fill="#FEB644"/>
<path d="M52.1624 56.6445V55.6024C52.1624 54.9658 52.6803 54.4479 53.3166 54.4479H50.5822C49.9456 54.4479 49.4277 54.9658 49.4277 55.6024V56.6445C49.4277 57.2808 49.9456 57.7987 50.5822 57.7987H53.3166C52.6803 57.7987 52.1624 57.2808 52.1624 56.6445V56.6445Z" fill="#F9972D"/>
<path d="M58.291 51.1752H50.5822C49.9456 51.1752 49.4277 51.6931 49.4277 52.3297V53.3715C49.4277 54.0081 49.9456 54.526 50.5822 54.526H58.291C58.9276 54.526 59.4454 54.0081 59.4454 53.3715V52.3297C59.4454 51.6931 58.9276 51.1752 58.291 51.1752Z" fill="#FFC10D"/>
<path d="M52.1624 53.3715V52.3297C52.1624 51.6931 52.6803 51.1752 53.3166 51.1752H50.5822C49.9456 51.1752 49.4277 51.6931 49.4277 52.3297V53.3715C49.4277 54.0081 49.9456 54.526 50.5822 54.526H53.3166C52.6803 54.526 52.1624 54.0081 52.1624 53.3715Z" fill="#FEB644"/>
<path d="M52.1624 40.2792V39.2371C52.1624 38.6005 52.6803 38.0829 53.3166 38.0829H50.5822C49.9456 38.0829 49.4277 38.6005 49.4277 39.2371V40.2792C49.4277 40.9158 49.9456 41.4337 50.5822 41.4337H53.3166C52.6803 41.4337 52.1624 40.9158 52.1624 40.2792Z" fill="#FEB644"/>
<path d="M52.1624 33.7335V32.6913C52.1624 32.055 52.6803 31.5371 53.3166 31.5371H50.5822C49.9456 31.5371 49.4277 32.055 49.4277 32.6913V33.7335C49.4277 34.3701 49.9456 34.8879 50.5822 34.8879H53.3166C52.6803 34.8879 52.1624 34.3701 52.1624 33.7335Z" fill="#FEB644"/>
<path d="M21.701 58.3398H29.4101C30.3482 58.3398 31.1111 57.5765 31.1111 56.6384V55.5963C31.1111 55.1699 30.9531 54.7799 30.6931 54.4808C30.9531 54.1821 31.1111 53.7921 31.1111 53.3657V52.3235C31.1111 51.8969 30.9531 51.5069 30.6931 51.2081C30.9531 50.9094 31.1111 50.5193 31.1111 50.093V49.0508C31.1111 48.6242 30.9531 48.2342 30.6931 47.9354C30.9531 47.6364 31.1111 47.2466 31.1111 46.82V45.7778C31.1111 44.8397 30.3479 44.0768 29.4101 44.0768H26.9229C26.5991 44.0768 26.337 44.3389 26.337 44.6627C26.337 44.9862 26.5991 45.2487 26.9229 45.2487H29.4101C29.7018 45.2487 29.9393 45.4861 29.9393 45.7778V46.82C29.9393 47.1121 29.7018 47.3495 29.4101 47.3495H21.7014C21.4093 47.3495 21.1719 47.1121 21.1719 46.82V45.7778C21.1719 45.4861 21.4093 45.2487 21.7014 45.2487H24.1882C24.512 45.2487 24.7745 44.9862 24.7745 44.6627C24.7745 44.3389 24.512 44.0768 24.1882 44.0768H21.7014C20.7632 44.0765 20 44.8397 20 45.7778V46.82C20 47.2463 20.1581 47.6364 20.4181 47.9354C20.1581 48.2342 20 48.6242 20 49.0505V50.0927C20 50.5193 20.1581 50.9091 20.4181 51.2081C20.1581 51.5069 20 51.8969 20 52.3235V53.3657C20 53.7921 20.1581 54.1821 20.4181 54.4808C20.1581 54.7799 20 55.1699 20 55.5963V56.6384C20 57.5765 20.7632 58.3398 21.701 58.3398ZM21.1719 49.0505C21.1719 48.7588 21.4093 48.5214 21.701 48.5214H29.4101C29.7018 48.5214 29.9393 48.7588 29.9393 49.0505V50.0927C29.9393 50.3848 29.7018 50.6222 29.4101 50.6222H21.701C21.4093 50.6222 21.1719 50.3848 21.1719 50.0927V49.0505ZM21.1719 52.3235C21.1719 52.0315 21.4093 51.7941 21.701 51.7941H29.4101C29.7018 51.7941 29.9393 52.0318 29.9393 52.3235V53.3657C29.9393 53.6575 29.7018 53.8949 29.4101 53.8949H21.701C21.4093 53.8949 21.1719 53.6575 21.1719 53.3657V52.3235ZM21.1719 55.5963C21.1719 55.3045 21.4093 55.0671 21.701 55.0671H29.4101C29.7018 55.0671 29.9393 55.3045 29.9393 55.5963V56.6384C29.9393 56.9302 29.7018 57.1679 29.4101 57.1679H21.701C21.4093 57.1679 21.1719 56.9302 21.1719 56.6384V55.5963Z" fill="#6C1C13"/>
<path d="M43.8544 37.5311H36.1457C35.2076 37.5311 34.4443 38.2944 34.4443 39.2325V40.2747C34.4443 40.701 34.6024 41.091 34.8627 41.3898C34.6024 41.6888 34.4443 42.0789 34.4443 42.5052V43.5474C34.4443 43.9737 34.6024 44.3637 34.8627 44.6625C34.6024 44.9615 34.4443 45.3516 34.4443 45.7779V46.8201C34.4443 47.2464 34.6024 47.6364 34.8627 47.9355C34.6024 48.2343 34.4443 48.6243 34.4443 49.0506V50.0928C34.4443 50.5194 34.6024 50.9091 34.8627 51.2082C34.6024 51.507 34.4443 51.897 34.4443 52.3236V53.3658C34.4443 53.7921 34.6024 54.1821 34.8627 54.4809C34.6024 54.78 34.4443 55.1697 34.4443 55.5963V56.6385C34.4443 57.5766 35.2076 58.3395 36.1457 58.3395H43.8544C44.7925 58.3395 45.5558 57.5766 45.5558 56.6385V55.5963C45.5558 55.17 45.3977 54.78 45.1374 54.4809C45.3977 54.1821 45.5558 53.7921 45.5558 53.3658V52.3236C45.5558 51.897 45.3977 51.507 45.1374 51.2082C45.3977 50.9094 45.5558 50.5194 45.5558 50.0931V49.0509C45.5558 48.6243 45.3977 48.2343 45.1374 47.9355C45.3977 47.6364 45.5558 47.2467 45.5558 46.8201V45.7779C45.5558 45.3516 45.3977 44.9615 45.1374 44.6628C45.3977 44.3637 45.5558 43.9737 45.5558 43.5474V42.5052C45.5558 42.0789 45.3977 41.6888 45.1374 41.3898C45.3977 41.091 45.5558 40.701 45.5558 40.2747V39.2325C45.5558 38.2944 44.7925 37.5311 43.8544 37.5311V37.5311ZM44.3839 56.6385C44.3839 56.9302 44.1465 57.168 43.8544 57.168H36.1457C35.8539 57.168 35.6165 56.9302 35.6165 56.6385V55.5963C35.6165 55.3046 35.8539 55.0671 36.1457 55.0671H43.8544C44.1465 55.0671 44.3839 55.3046 44.3839 55.5963V56.6385ZM44.3839 53.3658C44.3839 53.6575 44.1465 53.895 43.8544 53.895H36.1457C35.8539 53.895 35.6165 53.6575 35.6165 53.3658V52.3236C35.6165 52.0316 35.8539 51.7941 36.1457 51.7941H43.8544C44.1465 51.7941 44.3839 52.0316 44.3839 52.3236V53.3658ZM44.3839 50.0928C44.3839 50.3848 44.1465 50.6223 43.8544 50.6223H36.1457C35.8539 50.6223 35.6165 50.3848 35.6165 50.0928V49.0506C35.6165 48.7588 35.8539 48.5214 36.1457 48.5214H43.8544C44.1465 48.5214 44.3839 48.7588 44.3839 49.0506V50.0928ZM44.3839 46.8201C44.3839 47.1121 44.1465 47.3495 43.8544 47.3495H36.1457C35.8539 47.3495 35.6165 47.1121 35.6165 46.8201V45.7779C35.6165 45.4861 35.8539 45.2487 36.1457 45.2487H43.8544C44.1465 45.2487 44.3839 45.4861 44.3839 45.7779V46.8201ZM44.3839 43.5474C44.3839 43.8391 44.1465 44.0765 43.8544 44.0765H36.1457C35.8539 44.0765 35.6165 43.8391 35.6165 43.5474V42.5052C35.6165 42.2131 35.8539 41.9757 36.1457 41.9757H43.8544C44.1465 41.9757 44.3839 42.2134 44.3839 42.5052V43.5474ZM44.3839 40.2747C44.3839 40.5664 44.1465 40.8038 43.8544 40.8038H36.1457C35.8539 40.8038 35.6165 40.5664 35.6165 40.2747V39.2325C35.6165 38.9404 35.8539 38.703 36.1457 38.703H43.8544C44.1465 38.703 44.3839 38.9404 44.3839 39.2325V40.2747Z" fill="#6C1C13"/>
<path d="M58.2987 30.9854H50.59C49.6519 30.9854 48.8887 31.7486 48.8887 32.6867V33.7289C48.8887 34.1552 49.0468 34.5452 49.3071 34.8443C49.0468 35.1431 48.8887 35.5331 48.8887 35.9594V37.0016C48.8887 37.4282 49.0468 37.8179 49.3071 38.117C49.0468 38.4158 48.8887 38.8058 48.8887 39.2324V40.2746C48.8887 40.7009 49.0468 41.0909 49.3071 41.3897C49.0468 41.6888 48.8887 42.0788 48.8887 42.5051V43.5473C48.8887 43.9736 49.0468 44.3636 49.3071 44.6624C49.0468 44.9615 48.8887 45.3515 48.8887 45.7778V46.82C48.8887 47.2463 49.0468 47.6364 49.3071 47.9354C49.0468 48.2342 48.8887 48.6242 48.8887 49.0505V50.0927C48.8887 50.5193 49.0468 50.9091 49.3071 51.2081C49.0468 51.5069 48.8887 51.8969 48.8887 52.3235V53.3657C48.8887 53.7921 49.0468 54.1821 49.3071 54.4808C49.0468 54.7799 48.8887 55.1696 48.8887 55.5963V56.6384C48.8887 57.5765 49.6519 58.3395 50.59 58.3395H53.0772C53.4007 58.3395 53.6631 58.0773 53.6631 57.7535C53.6631 57.4301 53.4007 57.1676 53.0772 57.1676H50.59C50.2983 57.1676 50.0608 56.9302 50.0608 56.6384V55.5963C50.0608 55.3045 50.2983 55.0671 50.59 55.0671H58.2987C58.5905 55.0671 58.8282 55.3045 58.8282 55.5963V56.6384C58.8282 56.9302 58.5905 57.1679 58.2987 57.1679H55.8116C55.4881 57.1679 55.2256 57.4301 55.2256 57.7538C55.2256 58.0773 55.4881 58.3398 55.8116 58.3398H58.2987C59.2369 58.3398 60.0001 57.5765 60.0001 56.6384V55.5963C60.0001 55.1699 59.842 54.7799 59.5817 54.4808C59.842 54.1821 60.0001 53.7921 60.0001 53.3657V52.3235C60.0001 51.8969 59.842 51.5069 59.5817 51.2081C59.842 50.9094 60.0001 50.5193 60.0001 50.093V49.0508C60.0001 48.6242 59.842 48.2342 59.5817 47.9354C59.842 47.6364 60.0001 47.2466 60.0001 46.82V45.7778C60.0001 45.3515 59.842 44.9615 59.5817 44.6627C59.842 44.3636 60.0001 43.9736 60.0001 43.5473V42.5051C60.0001 42.0788 59.842 41.6888 59.5817 41.3897C59.842 41.0909 60.0001 40.7009 60.0001 40.2746V39.2324C60.0001 38.8061 59.842 38.4161 59.5817 38.117C59.842 37.8182 60.0001 37.4282 60.0001 37.0019V35.9597C60.0001 35.5331 59.842 35.1434 59.5817 34.8443C59.842 34.5452 60.0001 34.1555 60.0001 33.7289V32.6867C60.0001 31.7486 59.2369 30.9854 58.2987 30.9854V30.9854ZM58.8282 53.3657C58.8282 53.6575 58.5908 53.8949 58.2987 53.8949H50.59C50.2983 53.8949 50.0608 53.6575 50.0608 53.3657V52.3235C50.0608 52.0315 50.2983 51.7941 50.59 51.7941H58.2987C58.5908 51.7941 58.8282 52.0315 58.8282 52.3235V53.3657ZM58.8282 50.0927C58.8282 50.3848 58.5908 50.6222 58.2987 50.6222H50.59C50.2983 50.6222 50.0608 50.3848 50.0608 50.0927V49.0505C50.0608 48.7588 50.2983 48.5214 50.59 48.5214H58.2987C58.5908 48.5214 58.8282 48.7588 58.8282 49.0505V50.0927ZM58.8282 46.82C58.8282 47.1121 58.5908 47.3495 58.2987 47.3495H50.59C50.2983 47.3495 50.0608 47.1121 50.0608 46.82V45.7778C50.0608 45.4861 50.2983 45.2487 50.59 45.2487H58.2987C58.5908 45.2487 58.8282 45.4861 58.8282 45.7778V46.82ZM58.8282 43.5473C58.8282 43.8391 58.5908 44.0765 58.2987 44.0765H50.59C50.2983 44.0765 50.0608 43.8391 50.0608 43.5473V42.5051C50.0608 42.2131 50.2983 41.9756 50.59 41.9756H58.2987C58.5908 41.9756 58.8282 42.2134 58.8282 42.5051V43.5473ZM58.8282 40.2746C58.8282 40.5663 58.5908 40.8038 58.2987 40.8038H50.59C50.2983 40.8038 50.0608 40.5663 50.0608 40.2746V39.2324C50.0608 38.9404 50.2983 38.7029 50.59 38.7029H58.2987C58.5908 38.7029 58.8282 38.9404 58.8282 39.2324V40.2746ZM58.8282 37.0016C58.8282 37.2936 58.5908 37.5311 58.2987 37.5311H50.59C50.2983 37.5311 50.0608 37.2936 50.0608 37.0016V35.9594C50.0608 35.6677 50.2983 35.4302 50.59 35.4302H58.2987C58.5908 35.4302 58.8282 35.6677 58.8282 35.9594V37.0016ZM58.8282 33.7289C58.8282 34.0209 58.5908 34.2584 58.2987 34.2584H50.59C50.2983 34.2584 50.0608 34.0209 50.0608 33.7289V32.6867C50.0608 32.395 50.2983 32.1575 50.59 32.1575H58.2987C58.5908 32.1575 58.8282 32.395 58.8282 32.6867V33.7289Z" fill="#6C1C13"/>
<path d="M25.8351 38.623L52.5184 24.1628L53.3519 25.7009C53.6748 26.2966 54.5106 26.343 54.8982 25.7891L57.8923 21.5102C58.322 20.8962 57.8654 20.0536 57.1162 20.0787L51.8968 20.2508C51.2199 20.2731 50.8043 21 51.1265 21.5942L51.96 23.1326L25.2766 37.5924C24.9922 37.7468 24.8863 38.1024 25.0407 38.3868C25.1948 38.6715 25.5504 38.7771 25.8351 38.623V38.623ZM56.6319 21.2673L54.1807 24.7704L52.3585 21.4083L56.6319 21.2673Z" fill="#6C1C13"/>
</g>
<defs>
<clipPath id="clip0_1193_1685">
<rect width="40" height="40" fill="white" transform="translate(20 20)"/>
</clipPath>
</defs>
</svg>
