<svg width="54" height="54" viewBox="0 0 54 54" fill="none" xmlns="http://www.w3.org/2000/svg">
<ellipse cx="27" cy="27.0072" rx="24" ry="23.8273" fill="#FFC10D" stroke="white" stroke-width="5"/>
<path d="M26.9643 34.3439C26.4576 34.3439 25.931 34.3106 25.3843 34.2439C24.8376 34.1906 24.3243 34.1239 23.8443 34.0439C23.3643 33.9639 22.9643 33.8839 22.6443 33.8039L22.7843 32.5039C23.091 32.5572 23.471 32.6172 23.9243 32.6839C24.3776 32.7506 24.8576 32.8106 25.3643 32.8639C25.871 32.9039 26.351 32.9239 26.8043 32.9239C27.7643 32.9239 28.471 32.7172 28.9243 32.3039C29.391 31.8772 29.6243 31.2506 29.6243 30.4239C29.6243 29.8239 29.5043 29.3506 29.2643 29.0039C29.0243 28.6572 28.6976 28.4039 28.2843 28.2439C27.8843 28.0839 27.4376 27.9972 26.9443 27.9839H24.2843V26.6039H26.9443C27.2776 26.6039 27.6243 26.5106 27.9843 26.3239C28.3576 26.1372 28.671 25.8706 28.9243 25.5239C29.1776 25.1639 29.3043 24.7372 29.3043 24.2439C29.3043 23.4972 29.0976 22.9639 28.6843 22.6439C28.2843 22.3106 27.6043 22.1439 26.6443 22.1439C26.2043 22.1439 25.751 22.1706 25.2843 22.2239C24.831 22.2639 24.3976 22.3172 23.9843 22.3839C23.5843 22.4372 23.251 22.4972 22.9843 22.5639L22.8443 21.2839C23.111 21.2039 23.451 21.1239 23.8643 21.0439C24.291 20.9506 24.751 20.8772 25.2443 20.8239C25.7376 20.7572 26.2243 20.7239 26.7043 20.7239C27.7576 20.7239 28.591 20.8506 29.2043 21.1039C29.831 21.3439 30.2776 21.7172 30.5443 22.2239C30.8243 22.7306 30.9643 23.3772 30.9643 24.1639C30.9643 24.6706 30.8843 25.1039 30.7243 25.4639C30.5643 25.8106 30.371 26.1039 30.1443 26.3439C29.9176 26.5706 29.6976 26.7506 29.4843 26.8839C29.271 27.0172 29.111 27.1172 29.0043 27.1839C29.4576 27.3439 29.851 27.5372 30.1843 27.7639C30.531 27.9772 30.7976 28.2906 30.9843 28.7039C31.1843 29.1039 31.2843 29.6572 31.2843 30.3639C31.2843 31.2572 31.131 31.9972 30.8243 32.5839C30.531 33.1706 30.0643 33.6106 29.4243 33.9039C28.7843 34.1972 27.9643 34.3439 26.9643 34.3439Z" fill="white"/>
</svg>
