<svg width="54" height="54" viewBox="0 0 54 54" fill="none" xmlns="http://www.w3.org/2000/svg">
<circle cx="27" cy="27" r="24" fill="#FFC10D" stroke="white" stroke-width="5"/>
<path d="M22.7843 34V32.64L26.5843 28.66C27.131 28.0867 27.6043 27.5733 28.0043 27.12C28.4043 26.6533 28.711 26.2 28.9243 25.76C29.1376 25.3067 29.2443 24.8267 29.2443 24.32C29.2443 23.4533 29.0043 22.86 28.5243 22.54C28.0576 22.2067 27.351 22.04 26.4043 22.04C26.0576 22.04 25.671 22.0667 25.2443 22.12C24.8176 22.16 24.4043 22.2133 24.0043 22.28C23.6176 22.3333 23.2843 22.3933 23.0043 22.46L22.8843 21.14C23.1643 21.06 23.511 20.98 23.9243 20.9C24.3376 20.82 24.7843 20.7533 25.2643 20.7C25.7576 20.6333 26.2376 20.6 26.7043 20.6C28.1043 20.6 29.151 20.88 29.8443 21.44C30.551 22 30.9043 22.9 30.9043 24.14C30.9043 24.7933 30.7976 25.38 30.5843 25.9C30.3843 26.42 30.0776 26.9333 29.6643 27.44C29.2643 27.9333 28.751 28.4867 28.1243 29.1L24.6643 32.6H31.2243V34H22.7843Z" fill="white"/>
</svg>
