<svg width="54" height="54" viewBox="0 0 54 54" fill="none" xmlns="http://www.w3.org/2000/svg">
<ellipse cx="27" cy="27.0072" rx="24" ry="23.8273" fill="#FFC10D" stroke="white" stroke-width="5"/>
<path d="M27.0443 34.3239C26.551 34.3239 26.031 34.2906 25.4843 34.2239C24.9376 34.1572 24.411 34.0839 23.9043 34.0039C23.411 33.9106 22.9976 33.8239 22.6643 33.7439L22.8443 32.4639C23.1776 32.5172 23.5776 32.5839 24.0443 32.6639C24.511 32.7306 24.991 32.7906 25.4843 32.8439C25.991 32.8839 26.4576 32.9039 26.8843 32.9039C27.791 32.9039 28.5043 32.6439 29.0243 32.1239C29.5576 31.6039 29.8243 30.8506 29.8243 29.8639C29.8243 29.1972 29.711 28.6772 29.4843 28.3039C29.2576 27.9172 28.9376 27.6439 28.5243 27.4839C28.111 27.3239 27.631 27.2439 27.0843 27.2439C26.6843 27.2439 26.2843 27.2839 25.8843 27.3639C25.4843 27.4439 25.1176 27.5439 24.7843 27.6639C24.451 27.7839 24.1776 27.9039 23.9643 28.0239L22.8843 27.8039L23.2443 20.9439H30.9443V22.3839H24.5643L24.2043 26.6039C24.431 26.4972 24.711 26.3839 25.0443 26.2639C25.3776 26.1439 25.7376 26.0439 26.1243 25.9639C26.511 25.8706 26.891 25.8239 27.2643 25.8239C28.131 25.8239 28.8776 25.9572 29.5043 26.2239C30.131 26.4772 30.6176 26.8906 30.9643 27.4639C31.311 28.0239 31.4843 28.7772 31.4843 29.7239C31.4843 30.7372 31.3043 31.5839 30.9443 32.2639C30.5976 32.9439 30.091 33.4572 29.4243 33.8039C28.771 34.1506 27.9776 34.3239 27.0443 34.3239Z" fill="white"/>
</svg>
