<svg width="48" height="48" viewBox="0 0 48 48" fill="none" xmlns="http://www.w3.org/2000/svg">
<path d="M26.3036 41.6719L18.8839 44.4844L18.7134 45.1665C18.4003 46.4185 17.2754 47.2969 15.9849 47.2969H29.2026L26.3036 41.6719Z" fill="#E5F9FF"/>
<path d="M29.2865 45.1665L28.4128 41.6719L23.9999 38.8594L19.587 41.6719L18.8839 44.4844H26.3036L26.4741 45.1665C26.7871 46.4185 27.912 47.2969 29.2026 47.2969H32.0151C30.7245 47.2969 29.5995 46.4185 29.2865 45.1665Z" fill="#BDF0FF"/>
<path d="M41.6719 41.6719H44.4844C46.0312 41.6719 47.2969 40.4062 47.2969 38.8594V36.0469L41.6719 27.53V41.6719Z" fill="#BDF0FF"/>
<path d="M0.703125 36.0469V38.8594C0.703125 40.4062 1.96875 41.6719 3.51562 41.6719H41.6719C43.2188 41.6719 44.4844 40.4062 44.4844 38.8594V21.905L0.703125 36.0469Z" fill="#E5F9FF"/>
<path d="M44.4844 8.13281H41.6719V33.155L44.4844 36.0469H47.2969V10.9453C47.2969 9.39844 46.0312 8.13281 44.4844 8.13281Z" fill="#2D4A7A"/>
<path d="M44.4844 33.2344L24 22.0898L44.4844 10.9453C44.4844 9.39844 43.2188 8.13281 41.6719 8.13281H3.51562C1.96875 8.13281 0.703125 9.39844 0.703125 10.9453V36.0469H44.4844V33.2344Z" fill="#415BA3"/>
<path d="M44.4844 10.9475L41.6724 10.9453C41.6724 10.9459 24 22.0898 24 22.0898C24 22.0898 41.6721 33.2341 41.6719 33.2344H44.4843C44.4844 33.2344 44.4841 10.9479 44.4844 10.9475Z" fill="#8DE5FF"/>
<path d="M41.6719 10.9453H3.52388C3.52163 10.9464 3.51966 33.2339 3.51562 33.2344H41.6709C41.6714 33.2344 41.6679 10.9458 41.6719 10.9453Z" fill="#BDF0FF"/>
<path d="M33.399 8.13281L24 30.4219L11.1318 22.9922V8.13281H33.399Z" fill="#FF9457"/>
<path d="M36.8681 8.13281V22.9922L34.0561 24.6159L24 8.13281H36.8681Z" fill="#FF6145"/>
<path d="M34.0561 9.75666V18.1207L31.2436 21.3683H34.0561V24.6159L24 30.4219V8.13281L34.0561 9.75666Z" fill="#FF7E4F"/>
<path d="M34.0562 18.1207L31.2437 19.7446L28.4312 22.9922H31.2437L34.0562 21.3683V18.1207Z" fill="#E5F9FF"/>
<path d="M26.8125 22.3028V25.5504L31.2436 22.9922V19.7446L26.8125 22.3028Z" fill="white"/>
<path d="M30.434 11.8482H19.3005L17.5659 4.41741L24 0.703125L36.8681 8.13281L30.434 11.8482Z" fill="#FF9457"/>
<path d="M30.434 11.8482L24 15.5625L11.1318 8.13282L17.5659 4.41742L30.434 11.8482Z" fill="#FFAE6B"/>
<path d="M44.4844 7.42969H37.0569L24.3516 0.0942187C24.1341 -0.0314063 23.8659 -0.0314063 23.6484 0.0942187L10.9431 7.42969H3.51562C1.57397 7.42969 0 9.00366 0 10.9453V38.8594C0 40.801 1.57397 42.375 3.51562 42.375H18.6865L18.0312 44.996C17.7965 45.935 16.9527 46.5938 15.9848 46.5938H10.1719C9.78356 46.5938 9.46875 46.9086 9.46875 47.2969C9.46875 47.6852 9.78356 48 10.1719 48H37.8281C38.2164 48 38.5312 47.6852 38.5312 47.2969C38.5312 46.9086 38.2164 46.5938 37.8281 46.5938H32.0152C31.0473 46.5938 30.2035 45.935 29.9688 44.996L29.3135 42.375H44.4844C46.426 42.375 48 40.801 48 38.8594V10.9453C48 9.00366 46.426 7.42969 44.4844 7.42969ZM36.1655 22.5863L24.7031 29.2041V15.9684L36.1655 9.35063V22.5863ZM11.8345 9.35063L23.2969 15.9684V29.2041L11.8345 22.5863V9.35063ZM24 14.7506L12.5377 8.13281L17.5657 5.22984L29.028 11.8476L24 14.7506ZM24 1.515L35.4623 8.13281L30.4343 11.0358L18.9719 4.41797L24 1.515ZM3.51562 8.83594H10.4283V10.2422H3.51562C3.12722 10.2422 2.8125 10.557 2.8125 10.9453V20.6836C2.8125 21.0719 3.12722 21.3867 3.51562 21.3867C3.90403 21.3867 4.21875 21.0719 4.21875 20.6836V11.6484H10.4283V22.9922C10.4283 23.2434 10.5623 23.4755 10.7798 23.6011L23.6484 31.0308C23.7572 31.0936 23.8786 31.125 24 31.125C24.1214 31.125 24.2428 31.0936 24.3516 31.0308L37.2202 23.6011C37.4377 23.4755 37.5717 23.2434 37.5717 22.9922V11.6484H43.7812V32.5312H4.21875V23.4961C4.21875 23.1078 3.90403 22.793 3.51562 22.793C3.12722 22.793 2.8125 23.1078 2.8125 23.4961V33.2344C2.8125 33.6227 3.12722 33.9375 3.51562 33.9375H44.4844C44.8728 33.9375 45.1875 33.6227 45.1875 33.2344V10.9453C45.1875 10.557 44.8728 10.2422 44.4844 10.2422H37.5717V8.83594H44.4844C45.6474 8.83594 46.5938 9.78216 46.5938 10.9453V35.3438H1.40625V10.9453C1.40625 9.78216 2.35256 8.83594 3.51562 8.83594ZM28.6044 45.337C28.7211 45.8034 28.9276 46.2275 29.2021 46.5938H18.7979C19.0723 46.2275 19.2788 45.8034 19.3955 45.337L20.1361 42.375H27.864L28.6044 45.337ZM44.4844 40.9688H3.51562C2.35256 40.9688 1.40625 40.0225 1.40625 38.8594V36.75H46.5938V38.8594C46.5938 40.0225 45.6474 40.9688 44.4844 40.9688Z" fill="black"/>
<path d="M26.4609 26.1594C26.5697 26.2222 26.6911 26.2537 26.8125 26.2537C26.9339 26.2537 27.0553 26.2222 27.1641 26.1594L34.4077 21.9773C34.6252 21.8517 34.7592 21.6197 34.7592 21.3684V18.1208C34.7592 17.8696 34.6252 17.6376 34.4077 17.5119C34.1902 17.3863 33.922 17.3863 33.7045 17.5119L26.4609 21.694C26.2434 21.8197 26.1094 22.0517 26.1094 22.3029V25.5505C26.1094 25.8017 26.2434 26.0338 26.4609 26.1594ZM27.5156 22.7089L33.353 19.3387V20.9625L27.5156 24.3326V22.7089Z" fill="black"/>
<path d="M44.4844 7.42969H37.0569L24.3516 0.0942187C24.1341 -0.0314063 23.8659 -0.0314063 23.6484 0.0942187L10.9431 7.42969H3.51562C1.57397 7.42969 0 9.00366 0 10.9453V38.8594C0 40.801 1.57397 42.375 3.51562 42.375H18.6865L18.0312 44.996C17.7965 45.935 16.9527 46.5938 15.9848 46.5938H10.1719C9.78356 46.5938 9.46875 46.9086 9.46875 47.2969C9.46875 47.6852 9.78356 48 10.1719 48H37.8281C38.2164 48 38.5312 47.6852 38.5312 47.2969C38.5312 46.9086 38.2164 46.5938 37.8281 46.5938H32.0152C31.0473 46.5938 30.2035 45.935 29.9688 44.996L29.3135 42.375H44.4844C46.426 42.375 48 40.801 48 38.8594V10.9453C48 9.00366 46.426 7.42969 44.4844 7.42969ZM36.1655 22.5863L24.7031 29.2041V15.9684L36.1655 9.35063V22.5863ZM11.8345 9.35063L23.2969 15.9684V29.2041L11.8345 22.5863V9.35063ZM24 14.7506L12.5377 8.13281L17.5657 5.22984L29.028 11.8476L24 14.7506ZM24 1.515L35.4623 8.13281L30.4343 11.0358L18.9719 4.41797L24 1.515ZM3.51562 8.83594H10.4283V10.2422H3.51562C3.12722 10.2422 2.8125 10.557 2.8125 10.9453V20.6836C2.8125 21.0719 3.12722 21.3867 3.51562 21.3867C3.90403 21.3867 4.21875 21.0719 4.21875 20.6836V11.6484H10.4283V22.9922C10.4283 23.2434 10.5623 23.4755 10.7798 23.6011L23.6484 31.0308C23.7572 31.0936 23.8786 31.125 24 31.125C24.1214 31.125 24.2428 31.0936 24.3516 31.0308L37.2202 23.6011C37.4377 23.4755 37.5717 23.2434 37.5717 22.9922V11.6484H43.7812V32.5312H4.21875V23.4961C4.21875 23.1078 3.90403 22.793 3.51562 22.793C3.12722 22.793 2.8125 23.1078 2.8125 23.4961V33.2344C2.8125 33.6227 3.12722 33.9375 3.51562 33.9375H44.4844C44.8728 33.9375 45.1875 33.6227 45.1875 33.2344V10.9453C45.1875 10.557 44.8728 10.2422 44.4844 10.2422H37.5717V8.83594H44.4844C45.6474 8.83594 46.5938 9.78216 46.5938 10.9453V35.3438H1.40625V10.9453C1.40625 9.78216 2.35256 8.83594 3.51562 8.83594ZM28.6044 45.337C28.7211 45.8034 28.9276 46.2275 29.2021 46.5938H18.7979C19.0723 46.2275 19.2788 45.8034 19.3955 45.337L20.1361 42.375H27.864L28.6044 45.337ZM44.4844 40.9688H3.51562C2.35256 40.9688 1.40625 40.0225 1.40625 38.8594V36.75H46.5938V38.8594C46.5938 40.0225 45.6474 40.9688 44.4844 40.9688Z" fill="black"/>
<path d="M26.4609 26.1594C26.5697 26.2222 26.6911 26.2537 26.8125 26.2537C26.9339 26.2537 27.0553 26.2222 27.1641 26.1594L34.4077 21.9773C34.6252 21.8517 34.7592 21.6197 34.7592 21.3684V18.1208C34.7592 17.8696 34.6252 17.6376 34.4077 17.5119C34.1902 17.3863 33.922 17.3863 33.7045 17.5119L26.4609 21.694C26.2434 21.8197 26.1094 22.0517 26.1094 22.3029V25.5505C26.1094 25.8017 26.2434 26.0338 26.4609 26.1594ZM27.5156 22.7089L33.353 19.3387V20.9625L27.5156 24.3326V22.7089Z" fill="black"/>
</svg>
