<svg width="48" height="48" viewBox="0 0 48 48" fill="none" xmlns="http://www.w3.org/2000/svg">
<path d="M34.4 12.8V32.6228C35.3815 33.4921 35.4725 34.9924 34.6032 35.9739C34.5396 36.0457 34.4718 36.1136 34.4 36.1771V37.1376C35.8569 37.7727 36.7992 39.2106 36.8 40.7999V41.5999H37.1377C38.0182 39.5773 40.3716 38.6514 42.3943 39.5319C43.3203 39.935 44.0592 40.6739 44.4623 41.5999H47.2V12.8H34.4Z" fill="#F0B5AE"/>
<path d="M12.8 34.4C12.8014 33.7207 13.0924 33.0743 13.6 32.6228V12.8H0.800049V41.6H3.53775C4.41825 39.5774 6.77165 38.6515 8.79435 39.532C9.72035 39.9351 10.4592 40.674 10.8623 41.6H11.2V40.8C11.2008 39.2107 12.1431 37.7728 13.6 37.1377V36.1772C13.0924 35.7257 12.8014 35.0793 12.8 34.4Z" fill="#F0B5AE"/>
<path d="M13.6 0.799988V32.6228C14.1702 32.1013 14.9582 31.8893 15.7131 32.0545C17.0083 32.3373 17.8289 33.6165 17.5461 34.9117C17.3052 36.0145 16.3287 36.8005 15.2 36.8C17.4091 36.8 19.2 38.5909 19.2 40.8C19.2 38.149 21.349 36 24 36C26.651 36 28.8 38.149 28.8 40.8C28.8 38.5909 30.5909 36.8 32.8 36.8C31.4743 36.8005 30.3992 35.7263 30.3987 34.4006C30.3982 33.2719 31.1842 32.2954 32.2869 32.0546C33.0418 31.8894 33.8298 32.1013 34.4 32.6229V0.799988H13.6Z" fill="#FFFCF1"/>
<path d="M24.0001 36C25.7674 36 27.2001 34.5673 27.2001 32.8C27.2001 31.0327 25.7674 29.6 24.0001 29.6C22.2327 29.6 20.8 31.0327 20.8 32.8C20.8 34.5673 22.2327 36 24.0001 36Z" fill="#D73927"/>
<path d="M7.20005 39.2C8.52553 39.2 9.60005 38.1255 9.60005 36.8C9.60005 35.4745 8.52553 34.4 7.20005 34.4C5.87457 34.4 4.80005 35.4745 4.80005 36.8C4.80005 38.1255 5.87457 39.2 7.20005 39.2Z" fill="#FFC10D"/>
<path d="M40.8 39.2C42.1255 39.2 43.2 38.1255 43.2 36.8C43.2 35.4745 42.1255 34.4 40.8 34.4C39.4745 34.4 38.4 35.4745 38.4 36.8C38.4 38.1255 39.4745 39.2 40.8 39.2Z" fill="#FFC10D"/>
<path d="M24 36C26.651 36 28.8 38.149 28.8 40.8V47.2H19.2V40.8C19.2 38.149 21.349 36 24 36Z" fill="#D73927"/>
<path d="M7.19995 39.2C9.40905 39.2 11.2 40.9909 11.2 43.2V47.2H3.19995V43.2C3.19995 40.9909 4.99085 39.2 7.19995 39.2Z" fill="#FFC10D"/>
<path d="M15.2 36.8C17.4091 36.8 19.2 38.5909 19.2 40.8V47.2H11.2V40.8C11.2 38.5909 12.9909 36.8 15.2 36.8Z" fill="#FFC10D"/>
<path d="M15.1999 36.8C16.5254 36.8 17.5999 35.7255 17.5999 34.4C17.5999 33.0745 16.5254 32 15.1999 32C13.8744 32 12.7999 33.0745 12.7999 34.4C12.7999 35.7255 13.8744 36.8 15.1999 36.8Z" fill="#FFC10D"/>
<path d="M40.7999 39.2C43.009 39.2 44.7999 40.9909 44.7999 43.2V47.2H36.7999V43.2C36.7999 40.9909 38.5908 39.2 40.7999 39.2Z" fill="#FFC10D"/>
<path d="M32.7999 36.8C35.009 36.8 36.7999 38.5909 36.7999 40.8V47.2H28.7999V40.8C28.7999 38.5909 30.5908 36.8 32.7999 36.8Z" fill="#FFC10D"/>
<path d="M32.7999 36.8C34.1254 36.8 35.1999 35.7255 35.1999 34.4C35.1999 33.0745 34.1254 32 32.7999 32C31.4744 32 30.3999 33.0745 30.3999 34.4C30.3999 35.7255 31.4744 36.8 32.7999 36.8Z" fill="#FFC10D"/>
<path d="M19.2 4H28.8V10.4H19.2V4Z" fill="#FFC10D"/>
<path d="M16.8 16H18.4001V17.6H16.8V16Z" fill="#1B0705"/>
<path d="M16.8 19.2H18.4001V20.8H16.8V19.2Z" fill="#1B0705"/>
<path d="M16.8 22.4H18.4001V24H16.8V22.4Z" fill="#1B0705"/>
<path d="M16.8 25.6H18.4001V27.2H16.8V25.6Z" fill="#1B0705"/>
<path d="M20 16H21.6V17.6H20V16Z" fill="#1B0705"/>
<path d="M20 19.2H21.6V20.8H20V19.2Z" fill="#1B0705"/>
<path d="M20 22.4H21.6V24H20V22.4Z" fill="#1B0705"/>
<path d="M20 25.6H21.6V27.2H20V25.6Z" fill="#1B0705"/>
<path d="M23.2 16H24.8V17.6H23.2V16Z" fill="#1B0705"/>
<path d="M23.2 19.2H24.8V20.8H23.2V19.2Z" fill="#1B0705"/>
<path d="M23.2 22.4H24.8V24H23.2V22.4Z" fill="#1B0705"/>
<path d="M23.2 25.6H24.8V27.2H23.2V25.6Z" fill="#1B0705"/>
<path d="M26.4 16H28V17.6H26.4V16Z" fill="#1B0705"/>
<path d="M20 12.8H21.6V14.4H20V12.8Z" fill="#1B0705"/>
<path d="M23.2 12.8H24.8V14.4H23.2V12.8Z" fill="#1B0705"/>
<path d="M26.4 12.8H28V14.4H26.4V12.8Z" fill="#1B0705"/>
<path d="M26.4 19.2H28V20.8H26.4V19.2Z" fill="#1B0705"/>
<path d="M26.4 22.4H28V24H26.4V22.4Z" fill="#1B0705"/>
<path d="M26.4 25.6H28V27.2H26.4V25.6Z" fill="#1B0705"/>
<path d="M29.6 16H31.2V17.6H29.6V16Z" fill="#1B0705"/>
<path d="M29.6 19.2H31.2V20.8H29.6V19.2Z" fill="#1B0705"/>
<path d="M29.6 22.4H31.2V24H29.6V22.4Z" fill="#1B0705"/>
<path d="M29.6 25.6H31.2V27.2H29.6V25.6Z" fill="#1B0705"/>
<path d="M47.2 12H35.2V0.8C35.2003 0.3584 34.8425 0.000300189 34.4009 1.88515e-07C34.4006 1.88515e-07 34.4003 1.88515e-07 34.4 1.88515e-07H13.6C13.1584 -0.000299811 12.8003 0.3575 12.8 0.7991C12.8 0.7994 12.8 0.7997 12.8 0.8V12H0.8C0.3584 11.9997 0.000300189 12.3575 1.88515e-07 12.7991C1.88515e-07 12.7994 1.88515e-07 12.7997 1.88515e-07 12.8V41.6C-0.000299811 42.0416 0.3575 42.3997 0.7991 42.4C0.7994 42.4 0.7997 42.4 0.8 42.4H2.4723C2.4259 42.6642 2.4017 42.9318 2.4 43.2V47.2C2.3997 47.6416 2.7575 47.9997 3.1991 48C3.1994 48 3.1997 48 3.2 48H44.8C45.2416 48.0003 45.5997 47.6425 45.6 47.2009C45.6 47.2006 45.6 47.2003 45.6 47.2V43.2C45.5983 42.9318 45.5742 42.6642 45.5277 42.4H47.2C47.6416 42.4003 47.9997 42.0425 48 41.6009C48 41.6006 48 41.6003 48 41.6V12.8C48.0003 12.3584 47.6425 12.0003 47.2009 12C47.2006 12 47.2003 12 47.2 12ZM34.4 34.4C34.4 35.2837 33.6837 36 32.8 36C31.9163 36 31.2 35.2837 31.2 34.4C31.2 33.5163 31.9163 32.8 32.8 32.8C33.6832 32.8011 34.3989 33.5168 34.4 34.4ZM15.2 32.8C16.0837 32.8 16.8 33.5163 16.8 34.4C16.8 35.2837 16.0837 36 15.2 36C14.3163 36 13.6 35.2837 13.6 34.4C13.6011 33.5168 14.3168 32.8011 15.2 32.8ZM10.4 46.4H4V43.2C4 41.4327 5.4327 40 7.2 40C8.9673 40 10.4 41.4327 10.4 43.2V46.4ZM5.6 36.8C5.6 35.9163 6.3163 35.2 7.2 35.2C8.0837 35.2 8.8 35.9163 8.8 36.8C8.8 37.6837 8.0837 38.4 7.2 38.4C6.3168 38.3989 5.6011 37.6832 5.6 36.8ZM10.5212 39.7425C10.2195 39.4515 9.8812 39.2011 9.5148 38.9976C10.735 37.7192 10.6879 35.6936 9.4095 34.4733C8.1311 33.2531 6.1055 33.3002 4.8852 34.5786C3.7049 35.8151 3.7049 37.761 4.8852 38.9975C4.1216 39.4213 3.4872 40.0442 3.0494 40.7999H1.6V13.6H12.8V32.3056C11.7014 33.5383 11.7385 35.4095 12.8852 36.5976C11.6852 37.2613 10.8253 38.4053 10.5212 39.7425ZM18.4 46.4H12V40.8C12 39.0327 13.4327 37.6 15.2 37.6C16.9673 37.6 18.4 39.0327 18.4 40.8V46.4ZM28 46.4H20V40.8C20 38.5909 21.7909 36.8 24 36.8C26.2091 36.8 28 38.5909 28 40.8V46.4ZM21.6 32.8C21.6 31.4745 22.6745 30.4 24 30.4C25.3255 30.4 26.4 31.4745 26.4 32.8C26.4 34.1255 25.3255 35.2 24 35.2C22.6751 35.1986 21.6014 34.1249 21.6 32.8ZM28.8722 38.0495C28.3365 37.1051 27.5395 36.3356 26.5769 35.8335C28.2666 34.4103 28.4826 31.8868 27.0595 30.1971C25.6363 28.5074 23.1128 28.2914 21.4231 29.7145C19.7334 31.1376 19.5174 33.6612 20.9405 35.3509C21.0873 35.5252 21.2487 35.6866 21.4231 35.8335C20.4605 36.3356 19.6634 37.1051 19.1278 38.0495C18.7072 37.4495 18.1556 36.953 17.5148 36.5976C18.7413 35.3429 18.7185 33.3314 17.4637 32.1049C16.6558 31.3152 15.4893 31.0139 14.4 31.3136V1.6H33.6V31.3136C33.3393 31.2417 33.0704 31.2035 32.8 31.2C31.0374 31.1953 29.6047 32.6204 29.6 34.3831C29.5978 35.2079 29.9151 36.0016 30.4852 36.5976C29.8444 36.953 29.2928 37.4495 28.8722 38.0495ZM36 43.2V46.4H29.6V40.8C29.6 39.0327 31.0327 37.6 32.8 37.6C34.5673 37.6 36 39.0327 36 40.8V43.2ZM44 46.4H37.6V43.2C37.6 41.4327 39.0327 40 40.8 40C42.5673 40 44 41.4327 44 43.2V46.4ZM39.2 36.8C39.2 35.9163 39.9163 35.2 40.8 35.2C41.6837 35.2 42.4 35.9163 42.4 36.8C42.4 37.6837 41.6837 38.4 40.8 38.4C39.9168 38.3989 39.2011 37.6832 39.2 36.8ZM46.4 40.8H44.9506C44.5129 40.0443 43.8784 39.4214 43.1148 38.9976C44.335 37.7192 44.2879 35.6936 43.0095 34.4733C41.7311 33.2531 39.7055 33.3002 38.4852 34.5786C37.3049 35.8151 37.3049 37.761 38.4852 38.9975C38.1188 39.201 37.7804 39.4514 37.4788 39.7424C37.1748 38.4052 36.3148 37.2612 35.1148 36.5975C36.2615 35.4094 36.2987 33.5382 35.2001 32.3055V13.6H46.4001L46.4 40.8Z" fill="#1B0705"/>
<path d="M37.6 18.4H39.2V31.2H37.6V18.4Z" fill="#1B0705"/>
<path d="M42.4 18.4H44V31.2H42.4V18.4Z" fill="#1B0705"/>
<path d="M4 18.4H5.6V31.2H4V18.4Z" fill="#1B0705"/>
<path d="M8.80005 18.4H10.4001V31.2H8.80005V18.4Z" fill="#1B0705"/>
<path d="M19.2 11.2H28.8C29.2416 11.2003 29.5997 10.8425 29.6 10.4009C29.6 10.4006 29.6 10.4003 29.6 10.4V4.00001C29.6003 3.55841 29.2425 3.20031 28.8009 3.20001C28.8006 3.20001 28.8003 3.20001 28.8 3.20001H19.2C18.7584 3.19971 18.4003 3.55751 18.4 3.99911C18.4 3.99941 18.4 3.99971 18.4 4.00001V10.4C18.3997 10.8416 18.7575 11.1997 19.1991 11.2C19.1994 11.2 19.1997 11.2 19.2 11.2ZM20 4.80001H28V9.60001H20V4.80001Z" fill="#1B0705"/>
</svg>
