<svg width="481" height="481" viewBox="0 0 481 481" fill="none" xmlns="http://www.w3.org/2000/svg">
<path d="M35.5363 174.127V328.028H138.398L146.171 320.255V174.127H35.5363Z" fill="#D43D27"/>
<path d="M142.102 316.483V324.256L149.88 316.483H142.102Z" fill="#374951"/>
<path d="M39.24 170.36V324.256H142.102V316.483H149.88V170.36H39.24Z" fill="white" stroke="#826CA8" stroke-width="0.25" stroke-miterlimit="10"/>
<path d="M126.878 276.277H62.2414C62.0782 276.278 61.9166 276.246 61.7657 276.184C61.6149 276.122 61.4778 276.03 61.3625 275.915C61.2471 275.799 61.1557 275.662 61.0936 275.512C61.0314 275.361 60.9998 275.199 61.0004 275.036C61.0004 274.707 61.1312 274.391 61.3639 274.158C61.5966 273.926 61.9123 273.795 62.2414 273.795H126.878C127.206 273.796 127.521 273.928 127.753 274.16C127.984 274.393 128.114 274.708 128.114 275.036C128.115 275.199 128.083 275.36 128.022 275.51C127.96 275.661 127.869 275.798 127.754 275.913C127.639 276.028 127.503 276.12 127.352 276.182C127.202 276.245 127.041 276.277 126.878 276.277Z" fill="#374951"/>
<path d="M95.4544 280.63H62.2654C62.1023 280.631 61.9406 280.599 61.7898 280.537C61.6389 280.475 61.5019 280.383 61.3865 280.268C61.2712 280.152 61.1798 280.015 61.1176 279.865C61.0555 279.714 61.0238 279.552 61.0245 279.389C61.0245 279.06 61.1552 278.744 61.3879 278.511C61.6207 278.279 61.9363 278.148 62.2654 278.148H95.4544C95.7832 278.149 96.0981 278.28 96.3306 278.513C96.563 278.745 96.6942 279.06 96.6954 279.389C96.6954 279.552 96.6633 279.713 96.601 279.864C96.5386 280.014 96.4472 280.151 96.332 280.266C96.2167 280.382 96.0799 280.473 95.9293 280.535C95.7788 280.598 95.6174 280.63 95.4544 280.63Z" fill="#374951"/>
<path d="M126.878 280.63H99.8508C99.6876 280.631 99.526 280.599 99.3751 280.537C99.2243 280.475 99.0872 280.383 98.9719 280.268C98.8565 280.152 98.7651 280.015 98.703 279.865C98.6408 279.714 98.6092 279.552 98.6098 279.389C98.6098 279.06 98.7406 278.744 98.9733 278.511C99.206 278.279 99.5217 278.148 99.8508 278.148H126.878C127.206 278.149 127.521 278.281 127.753 278.513C127.984 278.746 128.114 279.061 128.114 279.389C128.115 279.552 128.083 279.713 128.022 279.863C127.96 280.014 127.869 280.151 127.754 280.266C127.639 280.381 127.503 280.473 127.352 280.535C127.202 280.598 127.041 280.63 126.878 280.63Z" fill="#374951"/>
<path d="M126.878 284.983H62.2414C61.9123 284.983 61.5966 284.852 61.3639 284.619C61.1312 284.387 61.0004 284.071 61.0004 283.742C61.0004 283.413 61.1312 283.097 61.3639 282.864C61.5966 282.632 61.9123 282.501 62.2414 282.501H126.878C127.206 282.502 127.521 282.634 127.753 282.866C127.984 283.099 128.114 283.414 128.114 283.742C128.114 284.07 127.984 284.385 127.753 284.618C127.521 284.85 127.206 284.982 126.878 284.983Z" fill="#374951"/>
<path d="M73.7806 289.336H62.2366C61.9075 289.336 61.5918 289.205 61.3591 288.973C61.1264 288.74 60.9956 288.424 60.9956 288.095C60.9956 287.766 61.1264 287.45 61.3591 287.218C61.5918 286.985 61.9075 286.854 62.2366 286.854H73.7806C73.9468 286.852 74.1117 286.884 74.2656 286.947C74.4194 287.01 74.559 287.103 74.6761 287.221C74.7932 287.339 74.8854 287.479 74.9472 287.633C75.009 287.788 75.0392 287.953 75.036 288.119C75.0297 288.447 74.8942 288.758 74.659 288.986C74.4238 289.214 74.1081 289.34 73.7806 289.336Z" fill="#374951"/>
<path d="M126.878 289.336H78.1433C77.8145 289.335 77.4996 289.204 77.2672 288.971C77.0347 288.739 76.9035 288.424 76.9023 288.095C76.9035 287.766 77.0347 287.451 77.2672 287.219C77.4996 286.986 77.8145 286.855 78.1433 286.854H126.878C127.206 286.855 127.521 286.987 127.753 287.219C127.984 287.452 128.114 287.767 128.114 288.095C128.114 288.423 127.984 288.738 127.753 288.971C127.521 289.203 127.206 289.335 126.878 289.336Z" fill="#374951"/>
<path d="M84.4492 293.689H62.2414C61.9123 293.689 61.5966 293.558 61.3639 293.326C61.1312 293.093 61.0004 292.777 61.0004 292.448C60.9998 292.285 61.0314 292.123 61.0936 291.972C61.1557 291.822 61.2471 291.684 61.3625 291.569C61.4778 291.454 61.6149 291.362 61.7657 291.3C61.9166 291.238 62.0782 291.206 62.2414 291.207H84.4492C84.6121 291.207 84.7735 291.239 84.9241 291.302C85.0746 291.364 85.2114 291.455 85.3267 291.571C85.4419 291.686 85.5333 291.823 85.5957 291.973C85.6581 292.124 85.6901 292.285 85.6901 292.448C85.6889 292.777 85.5577 293.092 85.3253 293.324C85.0928 293.557 84.7779 293.688 84.4492 293.689Z" fill="#374951"/>
<path d="M126.878 293.689H88.6772C88.3484 293.688 88.0335 293.557 87.8011 293.324C87.5686 293.092 87.4375 292.777 87.4362 292.448C87.4362 292.285 87.4683 292.124 87.5307 291.973C87.593 291.823 87.6844 291.686 87.7997 291.571C87.9149 291.455 88.0517 291.364 88.2023 291.302C88.3528 291.239 88.5142 291.207 88.6772 291.207H126.878C127.041 291.207 127.202 291.239 127.352 291.302C127.503 291.364 127.639 291.456 127.754 291.571C127.869 291.686 127.96 291.823 128.022 291.973C128.083 292.124 128.115 292.285 128.114 292.448C128.114 292.776 127.984 293.091 127.753 293.324C127.521 293.556 127.206 293.688 126.878 293.689Z" fill="#374951"/>
<path d="M126.878 298.042H112.871C112.543 298.041 112.229 297.909 111.997 297.677C111.765 297.444 111.635 297.129 111.635 296.801C111.635 296.638 111.666 296.477 111.728 296.327C111.79 296.176 111.881 296.039 111.996 295.924C112.111 295.809 112.247 295.717 112.397 295.655C112.548 295.592 112.709 295.56 112.871 295.56H126.878C127.041 295.56 127.202 295.592 127.352 295.655C127.503 295.717 127.639 295.809 127.754 295.924C127.869 296.039 127.96 296.176 128.022 296.327C128.083 296.477 128.115 296.638 128.114 296.801C128.114 297.129 127.984 297.444 127.753 297.677C127.521 297.909 127.206 298.041 126.878 298.042Z" fill="#374951"/>
<path d="M107.364 298.042H62.2414C61.9123 298.042 61.5966 297.911 61.3639 297.679C61.1312 297.446 61.0004 297.13 61.0004 296.801C60.9998 296.638 61.0314 296.476 61.0936 296.325C61.1557 296.175 61.2471 296.037 61.3625 295.922C61.4778 295.807 61.6149 295.715 61.7657 295.653C61.9166 295.591 62.0782 295.559 62.2414 295.56H107.364C107.527 295.56 107.688 295.592 107.838 295.655C107.988 295.717 108.125 295.809 108.24 295.924C108.355 296.039 108.446 296.176 108.507 296.327C108.569 296.477 108.601 296.638 108.6 296.801C108.6 297.129 108.47 297.444 108.238 297.677C108.007 297.909 107.692 298.041 107.364 298.042Z" fill="#374951"/>
<path d="M126.878 302.395H62.2414C62.0784 302.395 61.917 302.363 61.7665 302.301C61.6159 302.238 61.4791 302.147 61.3639 302.032C61.2486 301.916 61.1572 301.78 61.0949 301.629C61.0325 301.478 61.0004 301.317 61.0004 301.154C60.9998 300.991 61.0314 300.829 61.0936 300.678C61.1557 300.528 61.2471 300.391 61.3625 300.275C61.4778 300.16 61.6149 300.068 61.7657 300.006C61.9166 299.944 62.0782 299.912 62.2414 299.913H126.878C127.041 299.913 127.202 299.945 127.352 300.008C127.503 300.07 127.639 300.162 127.754 300.277C127.869 300.392 127.96 300.529 128.022 300.68C128.083 300.83 128.115 300.991 128.114 301.154C128.114 301.482 127.984 301.797 127.753 302.03C127.521 302.263 127.206 302.394 126.878 302.395Z" fill="#374951"/>
<path d="M88.225 304.266H62.2414C61.556 304.266 61.0004 304.822 61.0004 305.507C61.0004 306.192 61.556 306.748 62.2414 306.748H88.225C88.9104 306.748 89.466 306.192 89.466 305.507C89.466 304.822 88.9104 304.266 88.225 304.266Z" fill="#374951"/>
<path d="M126.878 304.266H94.0259C93.3405 304.266 92.7849 304.822 92.7849 305.507C92.7849 306.192 93.3405 306.748 94.0259 306.748H126.878C127.564 306.748 128.119 306.192 128.119 305.507C128.119 304.822 127.564 304.266 126.878 304.266Z" fill="#374951"/>
<path d="M126.878 311.101H62.2414C61.9123 311.101 61.5966 310.97 61.3639 310.738C61.1312 310.505 61.0004 310.189 61.0004 309.86C60.9998 309.697 61.0314 309.535 61.0936 309.384C61.1557 309.234 61.2471 309.097 61.3625 308.981C61.4778 308.866 61.6149 308.774 61.7657 308.712C61.9166 308.65 62.0782 308.619 62.2414 308.619H126.878C127.041 308.619 127.202 308.651 127.352 308.714C127.503 308.776 127.639 308.868 127.754 308.983C127.869 309.098 127.96 309.235 128.022 309.386C128.083 309.536 128.115 309.697 128.114 309.86C128.114 310.188 127.984 310.503 127.753 310.736C127.521 310.969 127.206 311.1 126.878 311.101Z" fill="#374951"/>
<path d="M126.878 230.827H62.2414C62.0782 230.828 61.9166 230.796 61.7657 230.734C61.6149 230.672 61.4778 230.58 61.3625 230.465C61.2471 230.35 61.1557 230.213 61.0936 230.062C61.0314 229.911 60.9998 229.749 61.0004 229.586C61.0004 229.257 61.1312 228.941 61.3639 228.709C61.5966 228.476 61.9123 228.345 62.2414 228.345H126.878C127.206 228.346 127.521 228.478 127.753 228.71C127.984 228.943 128.114 229.258 128.114 229.586C128.115 229.749 128.083 229.91 128.022 230.061C127.96 230.211 127.869 230.348 127.754 230.463C127.639 230.579 127.503 230.67 127.352 230.733C127.202 230.795 127.041 230.827 126.878 230.827Z" fill="#374951"/>
<path d="M95.4544 235.18H62.2654C62.1023 235.181 61.9406 235.149 61.7898 235.087C61.6389 235.025 61.5019 234.934 61.3865 234.818C61.2712 234.703 61.1798 234.566 61.1176 234.415C61.0555 234.264 61.0238 234.102 61.0245 233.939C61.0245 233.61 61.1552 233.294 61.3879 233.062C61.6207 232.829 61.9363 232.698 62.2654 232.698H95.4544C95.7832 232.7 96.0981 232.831 96.3306 233.063C96.563 233.296 96.6942 233.61 96.6954 233.939C96.6954 234.268 96.5647 234.584 96.332 234.817C96.0992 235.049 95.7836 235.18 95.4544 235.18Z" fill="#374951"/>
<path d="M126.878 235.18H99.8508C99.6876 235.181 99.526 235.149 99.3751 235.087C99.2243 235.025 99.0872 234.934 98.9719 234.818C98.8565 234.703 98.7651 234.566 98.703 234.415C98.6408 234.264 98.6092 234.102 98.6098 233.939C98.6098 233.61 98.7406 233.294 98.9733 233.062C99.206 232.829 99.5217 232.698 99.8508 232.698H126.878C127.206 232.7 127.521 232.831 127.753 233.063C127.984 233.296 128.114 233.611 128.114 233.939C128.115 234.102 128.083 234.263 128.022 234.414C127.96 234.564 127.869 234.701 127.754 234.816C127.639 234.932 127.503 235.023 127.352 235.086C127.202 235.148 127.041 235.18 126.878 235.18Z" fill="#374951"/>
<path d="M126.878 239.538H62.2414C62.0782 239.539 61.9166 239.507 61.7657 239.445C61.6149 239.383 61.4778 239.291 61.3625 239.176C61.2471 239.061 61.1557 238.924 61.0936 238.773C61.0314 238.622 60.9998 238.46 61.0004 238.297C61.0004 237.968 61.1312 237.652 61.3639 237.42C61.5966 237.187 61.9123 237.056 62.2414 237.056H126.878C127.206 237.057 127.521 237.189 127.753 237.421C127.984 237.654 128.114 237.969 128.114 238.297C128.115 238.46 128.083 238.621 128.022 238.772C127.96 238.922 127.869 239.059 127.754 239.174C127.639 239.29 127.503 239.381 127.352 239.444C127.202 239.506 127.041 239.538 126.878 239.538Z" fill="#374951"/>
<path d="M73.7806 243.867H62.2366C62.0734 243.868 61.9118 243.836 61.7609 243.774C61.6101 243.712 61.473 243.621 61.3577 243.505C61.2423 243.39 61.1509 243.253 61.0888 243.102C61.0266 242.951 60.995 242.789 60.9956 242.626C60.9956 242.297 61.1264 241.981 61.3591 241.749C61.5918 241.516 61.9075 241.385 62.2366 241.385H73.7806C73.9436 241.385 74.1049 241.417 74.2555 241.48C74.4061 241.542 74.5429 241.633 74.6581 241.749C74.7733 241.864 74.8647 242.001 74.9271 242.151C74.9895 242.302 75.0216 242.463 75.0216 242.626C75.0222 242.789 74.9906 242.951 74.9284 243.102C74.8663 243.253 74.7749 243.39 74.6595 243.505C74.5442 243.621 74.4071 243.712 74.2563 243.774C74.1054 243.836 73.9437 243.868 73.7806 243.867Z" fill="#374951"/>
<path d="M126.878 243.867H78.1433C77.9803 243.867 77.8189 243.835 77.6684 243.773C77.5178 243.71 77.381 243.619 77.2658 243.504C77.1505 243.388 77.0591 243.252 76.9967 243.101C76.9344 242.951 76.9023 242.789 76.9023 242.626C76.9035 242.297 77.0347 241.983 77.2672 241.75C77.4996 241.518 77.8145 241.387 78.1433 241.385H126.878C127.206 241.387 127.521 241.518 127.753 241.75C127.984 241.983 128.114 242.298 128.114 242.626C128.115 242.789 128.083 242.95 128.022 243.101C127.96 243.251 127.869 243.388 127.754 243.503C127.639 243.619 127.503 243.71 127.352 243.773C127.202 243.835 127.041 243.867 126.878 243.867Z" fill="#374951"/>
<path d="M84.4492 248.239H62.2414C62.0782 248.24 61.9166 248.208 61.7657 248.146C61.6149 248.084 61.4778 247.993 61.3625 247.877C61.2471 247.762 61.1557 247.625 61.0936 247.474C61.0314 247.323 60.9998 247.161 61.0004 246.998C61.0004 246.669 61.1312 246.354 61.3639 246.121C61.5966 245.888 61.9123 245.757 62.2414 245.757H84.4492C84.7779 245.759 85.0928 245.89 85.3253 246.122C85.5577 246.355 85.6889 246.67 85.6901 246.998C85.6901 247.327 85.5594 247.643 85.3267 247.876C85.0939 248.109 84.7783 248.239 84.4492 248.239Z" fill="#374951"/>
<path d="M126.878 248.239H88.6772C88.348 248.239 88.0324 248.109 87.7997 247.876C87.5669 247.643 87.4362 247.327 87.4362 246.998C87.4375 246.67 87.5686 246.355 87.8011 246.122C88.0335 245.89 88.3484 245.759 88.6772 245.757H126.878C127.206 245.759 127.521 245.89 127.753 246.122C127.984 246.355 128.114 246.67 128.114 246.998C128.115 247.161 128.083 247.322 128.022 247.473C127.96 247.623 127.869 247.76 127.754 247.876C127.639 247.991 127.503 248.082 127.352 248.145C127.202 248.207 127.041 248.239 126.878 248.239Z" fill="#374951"/>
<path d="M126.878 252.592H112.871C112.709 252.592 112.548 252.56 112.397 252.498C112.247 252.435 112.111 252.344 111.996 252.229C111.881 252.113 111.79 251.976 111.728 251.826C111.666 251.675 111.635 251.514 111.635 251.351C111.635 251.023 111.765 250.708 111.997 250.476C112.229 250.243 112.543 250.112 112.871 250.11H126.878C127.206 250.112 127.521 250.243 127.753 250.476C127.984 250.708 128.114 251.023 128.114 251.351C128.115 251.514 128.083 251.675 128.022 251.826C127.96 251.976 127.869 252.113 127.754 252.229C127.639 252.344 127.503 252.435 127.352 252.498C127.202 252.56 127.041 252.592 126.878 252.592Z" fill="#374951"/>
<path d="M107.364 252.592H62.2414C62.0782 252.593 61.9166 252.561 61.7657 252.499C61.6149 252.437 61.4778 252.346 61.3625 252.23C61.2471 252.115 61.1557 251.978 61.0936 251.827C61.0314 251.676 60.9998 251.515 61.0004 251.351C61.0029 251.024 61.1348 250.711 61.3673 250.48C61.5997 250.25 61.9139 250.12 62.2414 250.12H107.364C107.692 250.121 108.007 250.253 108.238 250.485C108.47 250.718 108.6 251.033 108.6 251.361C108.599 251.688 108.468 252.001 108.236 252.232C108.005 252.463 107.691 252.592 107.364 252.592Z" fill="#374951"/>
<path d="M126.878 256.946H62.2414C61.9123 256.946 61.5966 256.815 61.3639 256.582C61.1312 256.349 61.0004 256.034 61.0004 255.705C60.9985 255.54 61.0292 255.378 61.0907 255.225C61.1522 255.073 61.2433 254.935 61.3588 254.818C61.4742 254.701 61.6116 254.608 61.7631 254.545C61.9147 254.482 62.0772 254.449 62.2414 254.449H126.878C127.206 254.45 127.521 254.582 127.753 254.814C127.984 255.047 128.114 255.362 128.114 255.69C128.116 255.854 128.086 256.017 128.025 256.168C127.963 256.32 127.873 256.459 127.758 256.575C127.643 256.692 127.506 256.785 127.355 256.848C127.204 256.912 127.042 256.945 126.878 256.946Z" fill="#374951"/>
<path d="M88.225 258.816H62.2414C61.556 258.816 61.0004 259.372 61.0004 260.057C61.0004 260.743 61.556 261.298 62.2414 261.298H88.225C88.9104 261.298 89.466 260.743 89.466 260.057C89.466 259.372 88.9104 258.816 88.225 258.816Z" fill="#374951"/>
<path d="M126.878 258.816H94.0259C93.3405 258.816 92.7849 259.372 92.7849 260.057C92.7849 260.743 93.3405 261.298 94.0259 261.298H126.878C127.564 261.298 128.119 260.743 128.119 260.057C128.119 259.372 127.564 258.816 126.878 258.816Z" fill="#374951"/>
<path d="M126.878 265.651H62.2414C61.9123 265.651 61.5966 265.521 61.3639 265.288C61.1312 265.055 61.0004 264.74 61.0004 264.41C60.9998 264.247 61.0314 264.086 61.0936 263.935C61.1557 263.784 61.2471 263.647 61.3625 263.531C61.4778 263.416 61.6149 263.325 61.7657 263.263C61.9166 263.2 62.0782 263.169 62.2414 263.169H126.878C127.041 263.169 127.202 263.202 127.352 263.264C127.503 263.326 127.639 263.418 127.754 263.533C127.869 263.649 127.96 263.785 128.022 263.936C128.083 264.086 128.115 264.248 128.114 264.41C128.114 264.739 127.984 265.054 127.753 265.286C127.521 265.519 127.206 265.65 126.878 265.651Z" fill="#374951"/>
<path d="M126.878 187.277H62.2414C61.9123 187.277 61.5966 187.147 61.3639 186.914C61.1312 186.681 61.0004 186.366 61.0004 186.036C60.9998 185.873 61.0314 185.712 61.0936 185.561C61.1557 185.41 61.2471 185.273 61.3625 185.157C61.4778 185.042 61.6149 184.951 61.7657 184.889C61.9166 184.826 62.0782 184.795 62.2414 184.795H126.878C127.041 184.795 127.202 184.828 127.352 184.89C127.503 184.952 127.639 185.044 127.754 185.159C127.869 185.274 127.96 185.411 128.022 185.562C128.083 185.712 128.115 185.874 128.114 186.036C128.114 186.365 127.984 186.68 127.753 186.912C127.521 187.145 127.206 187.276 126.878 187.277Z" fill="#374951"/>
<path d="M95.4544 191.63H62.2654C61.9363 191.63 61.6207 191.5 61.3879 191.267C61.1552 191.034 61.0245 190.719 61.0245 190.389C61.0238 190.226 61.0555 190.065 61.1176 189.914C61.1798 189.763 61.2712 189.626 61.3865 189.511C61.5019 189.395 61.6389 189.304 61.7898 189.242C61.9406 189.179 62.1023 189.148 62.2654 189.148H95.4544C95.7836 189.148 96.0992 189.279 96.332 189.512C96.5647 189.745 96.6954 190.06 96.6954 190.389C96.6942 190.718 96.563 191.033 96.3306 191.266C96.0981 191.498 95.7832 191.629 95.4544 191.63Z" fill="#374951"/>
<path d="M126.878 191.63H99.8508C99.5217 191.63 99.206 191.5 98.9733 191.267C98.7406 191.034 98.6098 190.719 98.6098 190.389C98.6092 190.226 98.6408 190.065 98.703 189.914C98.7651 189.763 98.8565 189.626 98.9719 189.511C99.0872 189.395 99.2243 189.304 99.3751 189.242C99.526 189.179 99.6876 189.148 99.8508 189.148H126.878C127.041 189.148 127.202 189.181 127.352 189.243C127.503 189.305 127.639 189.397 127.754 189.512C127.869 189.628 127.96 189.764 128.022 189.915C128.083 190.065 128.115 190.227 128.114 190.389C128.114 190.718 127.984 191.033 127.753 191.265C127.521 191.498 127.206 191.629 126.878 191.63Z" fill="#374951"/>
<path d="M126.878 195.983H62.2414C61.9123 195.983 61.5966 195.853 61.3639 195.62C61.1312 195.387 61.0004 195.072 61.0004 194.742C60.9998 194.579 61.0314 194.418 61.0936 194.267C61.1557 194.116 61.2471 193.979 61.3625 193.864C61.4778 193.748 61.6149 193.657 61.7657 193.595C61.9166 193.533 62.0782 193.501 62.2414 193.501H126.878C127.041 193.501 127.202 193.534 127.352 193.596C127.503 193.658 127.639 193.75 127.754 193.865C127.869 193.981 127.96 194.117 128.022 194.268C128.083 194.418 128.115 194.58 128.114 194.742C128.114 195.071 127.984 195.386 127.753 195.618C127.521 195.851 127.206 195.982 126.878 195.983Z" fill="#374951"/>
<path d="M73.7806 200.336H62.2366C61.9075 200.336 61.5918 200.206 61.3591 199.973C61.1264 199.74 60.9956 199.425 60.9956 199.095C60.995 198.932 61.0266 198.771 61.0888 198.62C61.1509 198.469 61.2423 198.332 61.3577 198.217C61.473 198.101 61.6101 198.01 61.7609 197.948C61.9118 197.886 62.0734 197.854 62.2366 197.855H73.7806C73.9437 197.854 74.1054 197.886 74.2563 197.948C74.4071 198.01 74.5442 198.101 74.6595 198.217C74.7749 198.332 74.8663 198.469 74.9284 198.62C74.9906 198.771 75.0222 198.932 75.0216 199.095C75.0216 199.258 74.9895 199.42 74.9271 199.57C74.8647 199.721 74.7733 199.858 74.6581 199.973C74.5429 200.088 74.4061 200.18 74.2555 200.242C74.1049 200.304 73.9436 200.336 73.7806 200.336Z" fill="#374951"/>
<path d="M126.878 200.336H78.1433C77.8145 200.335 77.4996 200.204 77.2672 199.972C77.0347 199.739 76.9035 199.424 76.9023 199.095C76.9023 198.933 76.9344 198.771 76.9967 198.621C77.0591 198.47 77.1505 198.333 77.2658 198.218C77.381 198.103 77.5178 198.011 77.6684 197.949C77.8189 197.887 77.9803 197.854 78.1433 197.854H126.878C127.041 197.854 127.202 197.887 127.352 197.949C127.503 198.011 127.639 198.103 127.754 198.218C127.869 198.334 127.96 198.47 128.022 198.621C128.083 198.771 128.115 198.933 128.114 199.095C128.114 199.424 127.984 199.739 127.753 199.971C127.521 200.204 127.206 200.335 126.878 200.336Z" fill="#374951"/>
<path d="M84.4492 204.685H62.2414C62.0786 204.685 61.9174 204.654 61.7668 204.592C61.6163 204.53 61.4795 204.439 61.3642 204.324C61.2489 204.209 61.1574 204.073 61.095 203.923C61.0325 203.772 61.0004 203.611 61.0004 203.448C60.9998 203.285 61.0314 203.124 61.0936 202.973C61.1557 202.822 61.2471 202.685 61.3625 202.57C61.4778 202.454 61.6149 202.363 61.7657 202.301C61.9166 202.239 62.0782 202.207 62.2414 202.208H84.4492C84.7783 202.208 85.0939 202.338 85.3267 202.571C85.5594 202.804 85.6901 203.119 85.6901 203.448C85.6889 203.777 85.5576 204.091 85.325 204.323C85.0924 204.555 84.7775 204.685 84.4492 204.685Z" fill="#374951"/>
<path d="M126.878 204.685H88.6772C88.3489 204.685 88.0339 204.555 87.8014 204.323C87.5688 204.091 87.4375 203.777 87.4362 203.448C87.4362 203.119 87.5669 202.804 87.7997 202.571C88.0324 202.338 88.348 202.208 88.6772 202.208H126.878C127.041 202.208 127.202 202.24 127.352 202.302C127.503 202.364 127.639 202.456 127.754 202.571C127.869 202.687 127.96 202.823 128.022 202.974C128.083 203.124 128.115 203.286 128.114 203.448C128.114 203.611 128.082 203.772 128.02 203.922C127.958 204.072 127.867 204.208 127.752 204.323C127.637 204.437 127.501 204.528 127.351 204.591C127.201 204.653 127.041 204.685 126.878 204.685Z" fill="#374951"/>
<path d="M126.878 209.038H112.871C112.544 209.038 112.229 208.907 111.997 208.676C111.766 208.444 111.635 208.129 111.635 207.802C111.635 207.639 111.666 207.478 111.728 207.327C111.79 207.176 111.881 207.04 111.996 206.924C112.111 206.809 112.247 206.718 112.397 206.655C112.548 206.593 112.709 206.561 112.871 206.561H126.878C127.041 206.561 127.202 206.593 127.352 206.655C127.503 206.718 127.639 206.809 127.754 206.924C127.869 207.04 127.96 207.176 128.022 207.327C128.083 207.478 128.115 207.639 128.114 207.802C128.114 208.129 127.984 208.444 127.752 208.676C127.52 208.907 127.206 209.038 126.878 209.038Z" fill="#374951"/>
<path d="M107.364 209.038H62.2414C62.0786 209.038 61.9174 209.007 61.7668 208.945C61.6163 208.883 61.4795 208.792 61.3642 208.677C61.2489 208.562 61.1574 208.426 61.095 208.276C61.0325 208.125 61.0004 207.964 61.0004 207.802C60.9998 207.638 61.0314 207.477 61.0936 207.326C61.1557 207.175 61.2471 207.038 61.3625 206.923C61.4778 206.807 61.6149 206.716 61.7657 206.654C61.9166 206.592 62.0782 206.56 62.2414 206.561H107.364C107.527 206.561 107.688 206.593 107.838 206.655C107.988 206.718 108.125 206.809 108.24 206.924C108.355 207.04 108.446 207.176 108.507 207.327C108.569 207.478 108.601 207.639 108.6 207.802C108.6 208.129 108.47 208.444 108.238 208.676C108.006 208.907 107.692 209.038 107.364 209.038Z" fill="#374951"/>
<path d="M126.878 213.391H62.2414C62.0782 213.391 61.9166 213.36 61.7657 213.298C61.6149 213.235 61.4778 213.144 61.3625 213.029C61.2471 212.913 61.1557 212.776 61.0936 212.625C61.0314 212.475 60.9998 212.313 61.0004 212.15C61.0004 211.987 61.0325 211.826 61.095 211.676C61.1574 211.525 61.2489 211.389 61.3642 211.274C61.4795 211.159 61.6163 211.068 61.7668 211.006C61.9174 210.944 62.0786 210.913 62.2414 210.914H126.878C127.206 210.914 127.52 211.044 127.752 211.276C127.984 211.507 128.114 211.822 128.114 212.15C128.115 212.313 128.083 212.474 128.022 212.624C127.96 212.775 127.869 212.912 127.754 213.027C127.639 213.142 127.503 213.234 127.352 213.296C127.202 213.359 127.041 213.391 126.878 213.391Z" fill="#374951"/>
<path d="M88.225 215.262H62.2414C61.556 215.262 61.0004 215.817 61.0004 216.503C61.0004 217.188 61.556 217.744 62.2414 217.744H88.225C88.9104 217.744 89.466 217.188 89.466 216.503C89.466 215.817 88.9104 215.262 88.225 215.262Z" fill="#374951"/>
<path d="M126.878 215.262H94.0259C93.3405 215.262 92.7849 215.817 92.7849 216.503C92.7849 217.188 93.3405 217.744 94.0259 217.744H126.878C127.564 217.744 128.119 217.188 128.119 216.503C128.119 215.817 127.564 215.262 126.878 215.262Z" fill="#374951"/>
<path d="M126.878 222.097H62.2414C62.0782 222.097 61.9166 222.066 61.7657 222.004C61.6149 221.941 61.4778 221.85 61.3625 221.735C61.2471 221.619 61.1557 221.482 61.0936 221.331C61.0314 221.181 60.9998 221.019 61.0004 220.856C61.0004 220.527 61.1312 220.211 61.3639 219.978C61.5966 219.745 61.9123 219.615 62.2414 219.615H126.878C127.206 219.616 127.521 219.747 127.753 219.98C127.984 220.213 128.114 220.527 128.114 220.856C128.115 221.018 128.083 221.18 128.022 221.33C127.96 221.481 127.869 221.618 127.754 221.733C127.639 221.848 127.503 221.94 127.352 222.002C127.202 222.065 127.041 222.097 126.878 222.097Z" fill="#374951"/>
<path d="M128.307 364.901L105.036 144.449L403.444 139.764L426.58 360.952L128.307 364.901Z" fill="#ECEDED"/>
<path d="M105.036 144.449L96.3587 153.506L120.543 365.661L128.307 364.901L105.036 144.449Z" fill="#455B65"/>
<path d="M426.58 360.952L416.758 363.256L120.543 365.661L128.307 364.901L426.58 360.952Z" fill="#32172E"/>
<path d="M140.221 351.914L116.994 156.008L393.963 153.935L414.608 349.682L140.221 351.914Z" fill="#374951"/>
<path d="M117.229 158.009L392.154 155.993L412.039 347.955L140.168 351.481L117.229 158.009Z" fill="#374951"/>
<path d="M232.443 364.656L220.947 393.886H232.66L244.05 364.564L232.443 364.656Z" fill="#374951"/>
<path d="M244.05 364.564L286.599 364.237L277.287 393.886H232.66L244.05 364.564Z" fill="#455B65"/>
<path d="M241.981 370.543L285.873 366.825L286.599 364.237L244.05 364.564L241.981 370.543Z" fill="#374951"/>
<path d="M327.104 402.64V393.886H238.225V401.587L327.104 402.64Z" fill="#ECEDED"/>
<path d="M238.225 393.886H220.221V401.587H238.225V393.886Z" fill="#374951"/>
<path d="M323.314 314.713L403.338 314.213L402.558 308.133L322.539 308.634L323.314 314.713Z" fill="#ECEDED"/>
<path d="M324.593 324.719L404.617 324.218L404.059 319.865L324.035 320.37L324.593 324.719Z" fill="#ECEDED"/>
<path d="M325.762 333.862L405.786 333.357L405.339 329.87L325.315 330.375L325.762 333.862Z" fill="#ECEDED"/>
<path d="M321.736 302.352L401.755 301.851L397.378 267.59L317.354 268.095L321.736 302.352Z" fill="#ECEDED"/>
<path d="M234.3 315.882L314.319 315.377L313.545 309.297L233.521 309.802L234.3 315.882Z" fill="#ECEDED"/>
<path d="M235.575 325.887L315.599 325.387L315.041 321.034L235.021 321.534L235.575 325.887Z" fill="#ECEDED"/>
<path d="M236.743 335.026L316.767 334.526L316.32 331.039L236.301 331.539L236.743 335.026Z" fill="#ECEDED"/>
<path d="M232.717 303.521L312.741 303.016L308.36 268.759L228.34 269.259L232.717 303.521Z" fill="#ECEDED"/>
<path d="M144.69 317.268L224.714 316.767L223.934 310.688L143.915 311.193L144.69 317.268Z" fill="#ECEDED"/>
<path d="M145.969 327.277L225.993 326.772L225.435 322.424L145.411 322.924L145.969 327.277Z" fill="#ECEDED"/>
<path d="M147.138 336.416L227.157 335.916L226.715 332.424L146.691 332.929L147.138 336.416Z" fill="#ECEDED"/>
<path d="M326.758 341.63L406.777 341.13L406.479 338.792L326.455 339.298L326.758 341.63Z" fill="#ECEDED"/>
<path d="M237.739 342.799L317.758 342.294L317.46 339.961L237.441 340.461L237.739 342.799Z" fill="#ECEDED"/>
<path d="M148.129 344.189L228.153 343.684L227.855 341.347L147.831 341.852L148.129 344.189Z" fill="#ECEDED"/>
<path d="M143.112 304.911L223.131 304.406L218.754 270.149L138.735 270.649L143.112 304.911Z" fill="#ECEDED"/>
<path d="M137.831 262.102L396.767 262.357L386.96 185.627L128.023 185.368L137.831 262.102Z" fill="#FADF84"/>
<path d="M243.054 253.891L282.592 253.684C285.777 253.684 288.008 250.745 287.551 247.167L287.234 244.68C286.753 241.101 283.795 238.182 280.611 238.187L241.072 238.389C237.888 238.389 235.656 241.327 236.113 244.906L236.436 247.398C236.892 250.976 239.87 253.896 243.054 253.891Z" fill="#D73927"/>
<path d="M301.337 214.458L263.819 214.651L264.353 218.812L301.871 218.619L301.337 214.458ZM214.334 214.656L214.863 218.816H259.509L258.975 214.656H214.334Z" fill="#D73927"/>
<path d="M274.766 222.958L236.84 222.703L237.369 226.864L275.296 227.133L274.766 222.958ZM324.588 222.89L279.625 222.948L280.158 227.104L325.118 227.051L324.588 222.89ZM193.17 222.559L193.704 226.714L232.511 226.854L231.982 222.698L193.17 222.559Z" fill="#D73927"/>
<path d="M225.7 173.843C225.859 174.825 226.359 175.718 227.114 176.366C227.868 177.014 228.827 177.374 229.822 177.383L249.894 177.34C250.352 177.359 250.808 177.278 251.231 177.101C251.653 176.924 252.032 176.656 252.339 176.316C252.646 175.976 252.875 175.573 253.008 175.134C253.142 174.696 253.177 174.234 253.112 173.78C252.952 172.799 252.451 171.906 251.697 171.258C250.942 170.611 249.984 170.25 248.99 170.24L228.918 170.284C228.46 170.264 228.003 170.346 227.581 170.523C227.158 170.699 226.78 170.967 226.472 171.307C226.165 171.647 225.937 172.051 225.803 172.489C225.669 172.927 225.634 173.389 225.7 173.843ZM192.655 173.915C192.814 174.898 193.316 175.792 194.071 176.44C194.826 177.088 195.787 177.448 196.782 177.455L216.849 177.412C217.307 177.432 217.763 177.351 218.186 177.175C218.608 176.999 218.987 176.731 219.294 176.392C219.602 176.052 219.83 175.649 219.964 175.211C220.097 174.773 220.133 174.311 220.067 173.857C219.908 172.875 219.408 171.981 218.653 171.332C217.899 170.684 216.94 170.322 215.945 170.312L195.873 170.356C195.415 170.336 194.959 170.418 194.536 170.595C194.113 170.772 193.735 171.04 193.428 171.379C193.12 171.719 192.892 172.123 192.758 172.561C192.625 172.999 192.589 173.462 192.655 173.915ZM159.61 173.987C159.77 174.97 160.272 175.864 161.027 176.513C161.782 177.161 162.742 177.522 163.737 177.532L183.809 177.484C184.267 177.504 184.723 177.422 185.145 177.245C185.567 177.069 185.945 176.801 186.252 176.462C186.559 176.123 186.788 175.72 186.922 175.282C187.056 174.844 187.092 174.383 187.027 173.93C186.868 172.947 186.367 172.052 185.612 171.403C184.856 170.754 183.896 170.393 182.9 170.385L162.828 170.428C162.371 170.409 161.915 170.491 161.492 170.669C161.07 170.846 160.692 171.114 160.385 171.453C160.078 171.793 159.849 172.196 159.715 172.634C159.582 173.072 159.546 173.534 159.61 173.987ZM126.566 174.059C126.725 175.042 127.227 175.936 127.982 176.585C128.737 177.234 129.697 177.595 130.693 177.604L150.765 177.556C151.222 177.576 151.678 177.494 152.1 177.317C152.522 177.141 152.9 176.873 153.208 176.534C153.515 176.195 153.743 175.792 153.877 175.354C154.011 174.917 154.047 174.455 153.983 174.002C153.824 173.019 153.322 172.124 152.567 171.475C151.812 170.826 150.851 170.465 149.856 170.457L129.783 170.5C129.326 170.481 128.87 170.563 128.448 170.741C128.025 170.918 127.647 171.186 127.34 171.526C127.033 171.865 126.805 172.268 126.671 172.706C126.537 173.144 126.501 173.606 126.566 174.059Z" fill="#D73927"/>
<path d="M345.175 181.746L386.503 181.655L384.814 168.451L343.487 168.543L345.175 181.746Z" fill="#D73927"/>
<path d="M350.072 262.145L386.628 298.701C387.83 299.903 389.692 299.995 390.784 298.898L470.63 219.052C471.153 218.474 471.426 217.712 471.389 216.933C471.352 216.155 471.008 215.422 470.432 214.896L433.876 178.34C433.351 177.765 432.618 177.421 431.839 177.384C431.06 177.347 430.299 177.62 429.721 178.143L349.875 257.989C349.353 258.568 349.08 259.329 349.117 260.108C349.154 260.886 349.497 261.618 350.072 262.145Z" fill="white" stroke="#374951" stroke-width="3" stroke-miterlimit="10"/>
<path d="M462.14 213.165C460.331 214.973 460.476 218.056 462.467 220.048C462.515 220.096 462.573 220.129 462.621 220.178L391.914 290.885C391.866 290.836 391.832 290.779 391.779 290.731C389.793 288.739 386.71 288.595 384.901 290.404C384.858 290.447 384.829 290.505 384.781 290.553L358.239 264.006C358.282 263.958 358.34 263.934 358.383 263.886C360.192 262.077 360.048 258.999 358.056 257.008C358.008 256.955 357.951 256.921 357.902 256.873L428.609 186.166C428.658 186.214 428.691 186.272 428.744 186.325C430.731 188.311 433.814 188.46 435.622 186.647C435.671 186.604 435.699 186.546 435.743 186.503L462.284 213.049C462.241 213.083 462.188 213.116 462.14 213.165Z" fill="#D73927"/>
<path d="M346.041 258.157L426.368 177.83L412.294 166.695C412.019 166.455 411.699 166.273 411.352 166.158C411.005 166.044 410.639 166.001 410.275 166.031C409.912 166.061 409.558 166.164 409.234 166.333C408.911 166.503 408.625 166.735 408.393 167.017L343.713 252.914C343.296 253.532 343.134 254.287 343.262 255.022C343.389 255.756 343.796 256.412 344.396 256.854L346.041 258.157Z" fill="white" stroke="#374951" stroke-width="3" stroke-miterlimit="10"/>
<path d="M402.881 242.318L392.631 232.068L386.224 238.475L396.474 248.725L392.65 252.549L411.847 257.696L406.705 238.494L402.881 242.318Z" fill="white"/>
<path d="M420.014 229.023L430.264 239.274L423.862 245.68L413.607 235.43L409.783 239.254L404.641 220.058L423.838 225.2L420.014 229.023Z" fill="white"/>
<path d="M352.385 251.813L423.573 180.625L415.247 174.04C415.214 174.088 415.19 174.141 415.156 174.194C413.689 176.142 410.798 176.378 408.706 174.718C408.653 174.675 408.614 174.627 408.561 174.584L351.245 250.692L351.409 250.798C351.777 251.092 352.106 251.433 352.385 251.813Z" fill="#D73927"/>
</svg>
