<svg width="481" height="481" viewBox="0 0 481 481" fill="none" xmlns="http://www.w3.org/2000/svg">
<path d="M398.961 288.874V333.944L356.185 308.913V263.482L398.961 288.874Z" fill="#FED56F"/>
<path d="M398.908 288.874V333.944L440.178 310.105V264.67L398.908 288.874Z" fill="#FBBF19"/>
<path d="M440.178 264.67L398.908 288.874L356.185 263.482L397.542 239.403L440.178 264.67Z" fill="#FCE085"/>
<path opacity="0.5" d="M440.178 264.67L398.908 288.874L356.185 263.482L398.913 288.177L440.178 264.67Z" fill="url(#paint0_linear_382_27264)"/>
<path d="M381.236 279.038V291.125L371.414 285.512V273.064L381.236 279.038Z" fill="#D73927"/>
<path d="M422.453 254.834L381.183 279.038L371.414 273.064L412.775 248.99L422.453 254.834Z" fill="#D73927"/>
<path d="M391.414 306.041L394.862 316.71L392.626 315.416V328.133L390.206 326.738V314.021L387.97 312.727L391.414 306.041Z" fill="#D73927"/>
<path d="M379.6 307.898L383.044 301.207L386.488 311.876L384.256 310.587V323.299L381.832 321.904V309.187L379.6 307.898Z" fill="#D73927"/>
<path d="M88.1673 239.653L87.542 249.639C87.5194 249.981 87.409 250.311 87.2215 250.598C87.0339 250.885 86.7755 251.118 86.4713 251.276C86.1671 251.434 85.8273 251.51 85.4849 251.498C85.1424 251.486 84.8089 251.386 84.5165 251.207L78.1914 247.325C77.8637 247.125 77.6011 246.834 77.4355 246.487C77.2699 246.141 77.2083 245.753 77.2582 245.372L78.5425 235.425C78.5853 235.089 78.7137 234.769 78.9153 234.496C79.1169 234.223 79.3851 234.006 79.6943 233.866C80.0034 233.726 80.3433 233.668 80.6814 233.697C81.0195 233.726 81.3446 233.84 81.6257 234.03L87.3159 237.878C87.6002 238.075 87.8282 238.341 87.9776 238.653C88.1269 238.964 88.1923 239.309 88.1673 239.653Z" fill="#D73927"/>
<path d="M86.4357 251.039L87.061 241.048C87.0843 240.701 87.0162 240.355 86.8634 240.042C86.7106 239.73 86.4786 239.463 86.1904 239.269L80.505 235.421C80.2189 235.227 79.8873 235.112 79.543 235.087C79.1986 235.062 78.8537 235.127 78.5425 235.276C78.6075 234.958 78.7499 234.66 78.9572 234.409C79.1646 234.158 79.4304 233.963 79.7313 233.839C80.0322 233.715 80.3589 233.668 80.6826 233.7C81.0063 233.733 81.317 233.845 81.5872 234.026L87.2774 237.874C87.566 238.068 87.7983 238.335 87.9511 238.647C88.1039 238.959 88.1719 239.306 88.1481 239.653L87.542 249.639C87.5204 249.994 87.403 250.336 87.2022 250.629C87.0015 250.922 86.7249 251.155 86.402 251.303C86.4203 251.216 86.4315 251.128 86.4357 251.039Z" fill="#D73927"/>
<path opacity="0.2" d="M361.14 236.705L176.965 343.078C165.065 349.869 151.593 353.424 137.892 353.392C124.191 353.359 110.737 349.738 98.8696 342.89L65.7527 323.78C64.9866 323.338 64.3505 322.701 63.9082 321.935C63.4659 321.169 63.233 320.3 63.233 319.415C63.233 318.53 63.4659 317.661 63.9082 316.895C64.3505 316.129 64.9866 315.493 65.7527 315.05L285.493 186.825C286.262 186.379 287.136 186.144 288.025 186.144C288.915 186.144 289.788 186.379 290.558 186.825L361.183 227.994C361.942 228.441 362.571 229.08 363.007 229.847C363.442 230.613 363.669 231.48 363.664 232.362C363.66 233.243 363.425 234.108 362.982 234.87C362.539 235.632 361.903 236.265 361.14 236.705Z" fill="#010101"/>
<path d="M185.257 317.566L159.274 302.467L186.464 297.522L185.257 317.566Z" fill="#374951"/>
<path d="M332.169 234.68L306.181 219.576L333.371 214.636L332.169 234.68Z" fill="#374951"/>
<path d="M290.697 246.532C290.697 251.38 292.371 254.815 295.093 256.479L303.751 261.5C306.585 263.088 304.776 259.495 309.071 257.013C317.729 252.015 324.742 239.918 324.742 229.985C324.742 225.079 329.278 225.036 326.498 223.4C326.421 223.352 317.359 218.34 317.282 218.297C314.459 216.767 310.601 217.051 306.349 219.504C297.739 224.502 290.697 236.599 290.697 246.532Z" fill="#374951"/>
<path d="M326.446 249.067C332.602 238.536 332.664 227.118 326.584 223.564C320.505 220.01 310.585 225.666 304.429 236.197C298.273 246.728 298.211 258.146 304.29 261.7C310.37 265.255 320.289 259.599 326.446 249.067Z" fill="#374951"/>
<path style="mix-blend-mode:screen" d="M314.689 224.281C318.836 221.876 322.607 221.563 325.406 222.963C322.794 222.232 319.552 222.78 316.041 224.805C307.383 229.803 300.375 241.9 300.375 251.832C300.375 256.998 302.299 260.558 305.324 262.078C301.476 261.01 299.018 257.205 299.018 251.303C299.018 241.375 306.036 229.278 314.689 224.281Z" fill="url(#paint1_radial_382_27264)"/>
<path style="mix-blend-mode:multiply" d="M302.852 249.86C302.852 257.503 308.258 260.587 314.92 256.739C321.582 252.891 326.984 243.574 326.984 235.926C326.984 228.278 321.582 225.199 314.92 229.047C308.258 232.895 302.852 242.212 302.852 249.86ZM310.817 245.05C310.817 245.127 310.817 245.199 310.817 245.276C310.817 245.353 310.817 245.426 310.817 245.498C310.807 245.987 310.629 246.457 310.312 246.83L306.57 251.472C306.007 252.164 305.281 252.256 305.127 251.635C304.879 250.694 304.76 249.723 304.771 248.749C304.778 247.65 304.898 246.554 305.127 245.478C305.296 244.661 306.022 243.915 306.57 243.963L310.312 244.281C310.635 244.319 310.837 244.598 310.817 245.036V245.05ZM307.705 238.86C308.925 236.719 310.481 234.788 312.313 233.141C312.948 232.583 313.569 232.77 313.569 233.521V238.465C313.547 238.962 313.359 239.436 313.035 239.812C312.919 239.947 312.809 240.086 312.698 240.226C312.587 240.403 312.436 240.551 312.256 240.658C312.076 240.764 311.873 240.825 311.664 240.837L307.922 240.519C307.359 240.457 307.248 239.639 307.705 238.845V238.86ZM317.527 230.13C318.283 229.884 319.08 229.793 319.872 229.861C320.663 229.93 321.433 230.157 322.135 230.529C322.587 230.793 322.477 231.746 321.914 232.453L318.172 237.09C318.061 237.265 317.909 237.41 317.728 237.511C317.548 237.613 317.345 237.668 317.138 237.672C317.032 237.672 316.921 237.662 316.806 237.643C316.474 237.643 316.272 237.35 316.272 236.917V231.943C316.288 231.551 316.414 231.172 316.636 230.848C316.858 230.525 317.167 230.271 317.527 230.115V230.13ZM324.742 234.18C324.988 235.112 325.107 236.073 325.098 237.037C325.091 238.138 324.972 239.236 324.742 240.312C324.569 241.125 323.848 241.876 323.299 241.828L319.557 241.51C319.235 241.481 319.033 241.202 319.047 240.765C319.047 240.688 319.047 240.611 319.047 240.539C319.047 240.466 319.047 240.389 319.047 240.312C319.063 239.825 319.243 239.357 319.557 238.985L323.299 234.343C323.833 233.636 324.555 233.545 324.728 234.165L324.742 234.18ZM322.15 246.955C320.928 249.094 319.372 251.025 317.542 252.674C316.907 253.232 316.286 253.045 316.286 252.294V247.33C316.309 246.836 316.497 246.363 316.82 245.988C316.936 245.854 317.046 245.714 317.152 245.575C317.264 245.398 317.415 245.249 317.595 245.142C317.775 245.035 317.978 244.972 318.186 244.959L321.928 245.281C322.477 245.31 322.587 246.147 322.135 246.941L322.15 246.955ZM312.313 255.671C311.557 255.916 310.76 256.006 309.968 255.937C309.177 255.868 308.407 255.64 307.705 255.267C307.224 255.002 307.364 254.055 307.922 253.343L311.664 248.706C311.775 248.531 311.928 248.387 312.108 248.286C312.289 248.184 312.491 248.129 312.698 248.124C312.809 248.124 312.919 248.124 313.035 248.153C313.367 248.153 313.569 248.446 313.569 248.879V253.824C313.555 254.219 313.429 254.602 313.207 254.928C312.985 255.255 312.675 255.512 312.313 255.671Z" fill="url(#paint2_linear_382_27264)"/>
<path d="M303.607 250.158C303.607 257.806 309.009 260.885 315.671 257.037C322.333 253.189 327.739 243.872 327.739 236.229C327.739 228.586 322.337 225.502 315.671 229.345C309.004 233.189 303.607 242.51 303.607 250.158ZM311.573 245.348C311.573 245.425 311.573 245.502 311.573 245.579C311.573 245.656 311.573 245.728 311.573 245.8C311.557 246.288 311.377 246.756 311.063 247.128L307.32 251.77C306.758 252.467 306.036 252.554 305.877 251.938C305.63 250.996 305.511 250.026 305.522 249.052C305.528 247.951 305.648 246.853 305.877 245.776C306.051 244.964 306.772 244.213 307.32 244.261L311.063 244.584C311.385 244.617 311.587 244.901 311.573 245.334V245.348ZM308.46 239.163C309.678 237.019 311.234 235.086 313.068 233.439C313.699 232.881 314.319 233.068 314.319 233.819V238.768C314.297 239.264 314.109 239.738 313.785 240.115C313.67 240.245 313.559 240.384 313.453 240.529C313.342 240.705 313.19 240.853 313.01 240.959C312.83 241.065 312.628 241.127 312.419 241.14L308.677 240.822C308.114 240.76 308.004 239.937 308.46 239.148V239.163ZM318.278 230.399C319.033 230.152 319.831 230.06 320.622 230.129C321.414 230.197 322.184 230.425 322.886 230.798C323.367 231.063 323.227 232.015 322.669 232.722L318.927 237.364C318.815 237.537 318.662 237.681 318.482 237.782C318.302 237.884 318.1 237.94 317.893 237.946C317.782 237.926 317.669 237.917 317.556 237.917C317.224 237.917 317.022 237.619 317.022 237.186V232.246C317.035 231.851 317.159 231.467 317.382 231.14C317.604 230.813 317.915 230.556 318.278 230.399ZM325.493 234.444C325.738 235.378 325.858 236.34 325.849 237.306C325.842 238.406 325.723 239.502 325.493 240.577C325.324 241.395 324.598 242.14 324.05 242.092L320.308 241.775C319.985 241.746 319.783 241.467 319.802 241.029C319.802 240.957 319.802 240.88 319.802 240.803C319.802 240.726 319.802 240.654 319.802 240.582C319.813 240.094 319.991 239.625 320.308 239.254L324.05 234.612C324.584 233.934 325.31 233.848 325.478 234.463L325.493 234.444ZM322.886 247.234C321.665 249.376 320.109 251.308 318.278 252.958C317.643 253.511 317.022 253.323 317.022 252.573V247.633C317.045 247.137 317.233 246.663 317.556 246.286C317.672 246.152 317.782 246.017 317.893 245.873C318.004 245.695 318.155 245.547 318.335 245.441C318.515 245.335 318.718 245.273 318.927 245.262L322.669 245.579C323.232 245.627 323.343 246.45 322.886 247.234ZM313.068 255.964C312.313 256.211 311.516 256.303 310.724 256.235C309.932 256.166 309.162 255.938 308.46 255.565C308.004 255.3 308.114 254.348 308.677 253.641L312.419 248.999C312.531 248.825 312.683 248.681 312.864 248.579C313.044 248.478 313.246 248.422 313.453 248.417C313.563 248.437 313.674 248.446 313.785 248.446C314.117 248.446 314.319 248.744 314.319 249.172V254.122C314.307 254.516 314.183 254.899 313.961 255.226C313.74 255.553 313.43 255.811 313.068 255.969V255.964Z" fill="url(#paint3_linear_382_27264)"/>
<path d="M142.059 331.75C142.059 336.599 143.732 340.033 146.455 341.697L155.113 346.724C157.941 348.306 156.133 344.713 160.428 342.231C169.086 337.234 176.099 325.137 176.099 315.209C176.099 310.298 180.635 310.259 177.855 308.619C177.778 308.571 168.716 303.559 168.639 303.516C165.815 301.986 161.957 302.27 157.705 304.723C149.076 309.721 142.059 321.818 142.059 331.75Z" fill="#374951"/>
<path d="M177.81 334.288C183.967 323.756 184.029 312.338 177.949 308.784C171.869 305.23 161.95 310.886 155.794 321.417C149.637 331.948 149.575 343.367 155.655 346.921C161.734 350.475 171.654 344.819 177.81 334.288Z" fill="#374951"/>
<path style="mix-blend-mode:screen" d="M166.051 309.499C170.197 307.094 173.968 306.782 176.768 308.181C174.156 307.45 170.914 307.999 167.402 310.024C158.744 315.021 151.736 327.118 151.736 337.051C151.736 342.217 153.66 345.776 156.686 347.296C152.838 346.229 150.38 342.424 150.38 336.522C150.38 326.599 157.398 314.497 166.051 309.499Z" fill="url(#paint4_radial_382_27264)"/>
<path style="mix-blend-mode:multiply" d="M154.213 335.079C154.213 342.722 159.62 345.805 166.282 341.957C172.944 338.109 178.345 328.792 178.345 321.145C178.345 313.497 172.944 310.418 166.282 314.266C159.62 318.114 154.213 327.431 154.213 335.079ZM162.179 330.269C162.179 330.346 162.179 330.423 162.179 330.495C162.179 330.567 162.179 330.644 162.179 330.716C162.168 331.205 161.99 331.676 161.674 332.049L157.932 336.7C157.369 337.393 156.647 337.484 156.489 336.864C156.243 335.93 156.123 334.967 156.133 334.002C156.14 332.902 156.259 331.806 156.489 330.731C156.662 329.918 157.383 329.168 157.932 329.216L161.674 329.533C161.996 329.538 162.198 329.817 162.179 330.255V330.269ZM159.067 324.079C160.286 321.938 161.842 320.007 163.675 318.36C164.31 317.802 164.93 317.989 164.93 318.74V323.684C164.908 324.18 164.72 324.655 164.396 325.031C164.281 325.166 164.17 325.305 164.059 325.445C163.949 325.622 163.798 325.771 163.618 325.877C163.437 325.984 163.234 326.045 163.025 326.056L159.283 325.738C158.73 325.676 158.61 324.858 159.067 324.064V324.079ZM168.889 315.348C169.644 315.102 170.442 315.011 171.234 315.081C172.026 315.15 172.795 315.379 173.497 315.753C173.954 316.017 173.838 316.965 173.275 317.677L169.533 322.27C169.423 322.445 169.27 322.59 169.09 322.692C168.909 322.793 168.706 322.848 168.499 322.852C168.393 322.852 168.283 322.842 168.167 322.823C167.835 322.823 167.633 322.53 167.633 322.097V317.167C167.649 316.774 167.775 316.394 167.997 316.069C168.219 315.745 168.528 315.49 168.889 315.334V315.348ZM176.104 319.399C176.352 320.34 176.471 321.311 176.46 322.285C176.453 323.384 176.333 324.48 176.104 325.555C175.931 326.368 175.209 327.119 174.661 327.07L170.919 326.753C170.596 326.724 170.394 326.445 170.409 326.007C170.409 325.93 170.409 325.854 170.409 325.781C170.409 325.709 170.409 325.632 170.409 325.56C170.423 325.071 170.603 324.601 170.919 324.228L174.661 319.586C175.195 318.855 175.916 318.764 176.089 319.384L176.104 319.399ZM173.511 332.174C172.29 334.314 170.734 336.245 168.903 337.893C168.268 338.451 167.648 338.263 167.648 337.513V332.554C167.67 332.058 167.858 331.583 168.182 331.207C168.297 331.072 168.408 330.933 168.514 330.793C168.625 330.616 168.777 330.468 168.957 330.361C169.136 330.254 169.339 330.191 169.548 330.178L173.29 330.5C173.838 330.548 173.954 331.366 173.497 332.159L173.511 332.174ZM163.689 340.904C162.933 341.15 162.136 341.241 161.344 341.172C160.552 341.102 159.783 340.874 159.081 340.5C158.624 340.235 158.74 339.288 159.298 338.576L163.04 333.939C163.151 333.765 163.304 333.62 163.484 333.519C163.664 333.417 163.867 333.362 164.074 333.357C164.185 333.357 164.295 333.381 164.411 333.386C164.742 333.386 164.945 333.679 164.945 334.112V339.057C164.928 339.451 164.799 339.833 164.575 340.157C164.35 340.481 164.038 340.735 163.675 340.89L163.689 340.904Z" fill="url(#paint5_linear_382_27264)"/>
<path d="M154.969 335.377C154.969 343.025 160.37 346.103 167.032 342.255C173.694 338.407 179.1 329.091 179.1 321.447C179.1 313.804 173.699 310.726 167.032 314.574C160.365 318.422 154.969 327.734 154.969 335.377ZM162.934 330.567C162.934 330.639 162.934 330.716 162.934 330.793C162.934 330.87 162.934 330.942 162.934 331.015C162.918 331.502 162.739 331.97 162.424 332.342L158.682 336.984C158.119 337.681 157.398 337.768 157.239 337.152C156.994 336.218 156.874 335.256 156.883 334.29C156.89 333.191 157.009 332.095 157.239 331.019C157.412 330.202 158.134 329.456 158.682 329.504L162.424 329.822C162.746 329.836 162.948 330.12 162.934 330.558V330.567ZM159.822 324.377C161.04 322.233 162.596 320.3 164.43 318.653C165.06 318.095 165.68 318.282 165.68 319.038V323.982C165.658 324.478 165.47 324.952 165.147 325.329C165.031 325.464 164.92 325.598 164.815 325.743C164.703 325.919 164.551 326.067 164.371 326.173C164.191 326.279 163.989 326.341 163.78 326.354L160.038 326.036C159.476 325.978 159.365 325.156 159.822 324.367V324.377ZM169.639 315.647C170.394 315.4 171.192 315.308 171.984 315.376C172.776 315.445 173.545 315.673 174.247 316.046C174.704 316.31 174.589 317.263 174.031 317.97L170.274 322.587C170.162 322.761 170.009 322.905 169.829 323.006C169.649 323.107 169.446 323.164 169.24 323.169C169.129 323.15 169.016 323.14 168.903 323.141C168.571 323.141 168.369 322.842 168.369 322.409V317.46C168.387 317.067 168.516 316.688 168.741 316.365C168.966 316.042 169.277 315.79 169.639 315.637V315.647ZM176.854 319.692C177.102 320.633 177.221 321.604 177.21 322.578C177.203 323.677 177.084 324.773 176.854 325.849C176.686 326.666 175.959 327.412 175.411 327.364L171.669 327.046C171.347 327.022 171.145 326.738 171.188 326.301C171.188 326.229 171.188 326.152 171.188 326.075C171.188 325.998 171.188 325.926 171.188 325.853C171.192 325.369 171.362 324.901 171.669 324.526L175.411 319.884C175.945 319.153 176.671 319.066 176.84 319.682L176.854 319.692ZM174.261 332.467C173.041 334.609 171.485 336.541 169.653 338.191C169.019 338.749 168.398 338.561 168.398 337.806V332.852C168.421 332.356 168.609 331.882 168.932 331.505C169.047 331.37 169.158 331.236 169.269 331.091C169.379 330.914 169.531 330.766 169.711 330.66C169.891 330.554 170.094 330.492 170.303 330.481L174.045 330.798C174.603 330.846 174.704 331.669 174.247 332.458L174.261 332.467ZM164.444 341.197C163.689 341.444 162.891 341.536 162.1 341.468C161.308 341.399 160.538 341.171 159.836 340.798C159.379 340.534 159.49 339.581 160.053 338.874L163.795 334.232C163.907 334.058 164.059 333.914 164.24 333.813C164.42 333.711 164.622 333.655 164.829 333.65C164.939 333.67 165.05 333.68 165.161 333.679C165.493 333.679 165.695 333.977 165.695 334.41V339.355C165.678 339.749 165.551 340.13 165.327 340.454C165.103 340.778 164.792 341.033 164.43 341.188L164.444 341.197Z" fill="url(#paint6_linear_382_27264)"/>
<path d="M65.1034 281.52L125.498 188.124C126.371 186.779 127.551 185.661 128.942 184.863L289.985 92.1403C291.492 91.2725 293.197 90.8069 294.935 90.7884C296.674 90.7699 298.388 91.199 299.913 92.0345L345.324 116.883C347.411 118.021 349.029 119.859 349.894 122.073L363.766 151.611C364.207 152.73 364.445 153.92 364.468 155.122L365.512 209.586C365.548 211.413 365.09 213.215 364.185 214.803C363.281 216.391 361.964 217.704 360.375 218.605L331.962 234.728C332.224 233.225 332.361 231.703 332.371 230.178C332.371 218.942 324.43 214.415 314.641 220.077C304.853 225.738 296.912 239.418 296.912 250.654C296.906 251.91 297.017 253.165 297.244 254.401L185.257 317.566C185.324 316.801 185.368 316.041 185.368 315.291C185.368 304.054 177.426 299.533 167.638 305.19C157.85 310.846 149.908 324.535 149.908 335.772C149.908 336.387 149.933 336.984 149.981 337.561L143.338 341.313C141.899 342.132 140.281 342.585 138.627 342.632C136.972 342.679 135.331 342.318 133.848 341.582L69.1053 309.6C67.4162 308.758 65.9958 307.46 65.0041 305.854C64.0124 304.248 63.4887 302.397 63.492 300.51V287.042C63.4854 285.084 64.045 283.166 65.1034 281.52Z" fill="#FBBF19"/>
<path d="M138.36 313.727L147.186 286.676L183.742 217.412C185.123 214.573 187.327 212.216 190.067 210.649L348.422 119.533C349.036 120.307 349.532 121.168 349.894 122.087L363.766 151.626C364.207 152.745 364.445 153.934 364.468 155.137L365.512 209.6C365.548 211.427 365.09 213.23 364.185 214.817C363.281 216.405 361.965 217.719 360.375 218.619L331.962 234.728C332.224 233.225 332.361 231.703 332.371 230.178C332.371 218.941 324.43 214.415 314.641 220.077C304.853 225.738 296.912 239.418 296.912 250.654C296.906 251.91 297.017 253.165 297.244 254.401L185.257 317.566C185.324 316.801 185.368 316.041 185.368 315.291C185.368 304.054 177.426 299.533 167.638 305.19C157.85 310.846 149.908 324.535 149.908 335.772C149.908 336.387 149.933 336.984 149.981 337.561L143.338 341.313C141.286 342.472 138.896 342.881 136.575 342.472V321.308C136.572 318.677 137.183 316.081 138.36 313.727Z" fill="#FBBF19"/>
<g style="mix-blend-mode:color-dodge" opacity="0.7">
<path d="M136.335 313.506L145.18 286.431L181.712 217.167C183.093 214.329 185.297 211.974 188.037 210.408L346.402 119.288C346.94 119.976 346.06 120.423 346.402 121.236L189.596 211.438C186.855 213.004 184.65 215.359 183.266 218.196L146.739 287.46L137.893 314.535C136.723 316.886 136.117 319.476 136.123 322.102V342.015C135.161 342.126 135.498 342.409 134.536 342.236V321.072C134.54 318.445 135.156 315.854 136.335 313.506Z" fill="white"/>
</g>
<path style="mix-blend-mode:color-dodge" opacity="0.7" d="M159.447 243.55L144.011 237.956C133.936 234.306 124.451 229.198 115.858 222.794L111.77 219.755C111.344 219.436 110.857 219.207 110.34 219.082C109.823 218.958 109.286 218.94 108.761 219.03C108.237 219.12 107.736 219.316 107.29 219.606C106.844 219.896 106.462 220.274 106.166 220.717L84.9061 252.722C84.3323 253.586 84.124 254.642 84.3268 255.659C84.5296 256.675 85.1271 257.571 85.9884 258.148L96.8253 265.411C105.218 271.038 114.273 275.607 123.785 279.014L140.769 285.098C141.688 285.428 142.696 285.403 143.597 285.028C144.499 284.654 145.228 283.957 145.642 283.073L161.659 248.884C161.888 248.391 162.012 247.857 162.023 247.314C162.034 246.771 161.933 246.232 161.725 245.731C161.517 245.229 161.207 244.776 160.815 244.401C160.423 244.025 159.957 243.736 159.447 243.55Z" fill="url(#paint7_linear_382_27264)"/>
<path d="M157.249 244.348L142.544 239.057C132.946 235.582 123.909 230.72 115.719 224.627L111.828 221.741C111.42 221.439 110.956 221.222 110.462 221.105C109.969 220.988 109.456 220.972 108.957 221.059C108.457 221.145 107.98 221.333 107.555 221.61C107.13 221.887 106.765 222.247 106.484 222.669L86.2289 253.169C85.6949 253.989 85.5042 254.986 85.6976 255.945C85.891 256.904 86.4531 257.748 87.263 258.297L97.5901 265.219C105.584 270.59 114.211 274.952 123.275 278.206L139.456 283.978C140.331 284.292 141.291 284.269 142.149 283.913C143.008 283.558 143.703 282.894 144.098 282.054L159.36 249.475C159.585 249.004 159.709 248.49 159.723 247.968C159.737 247.446 159.642 246.926 159.443 246.443C159.244 245.96 158.946 245.524 158.568 245.163C158.19 244.802 157.74 244.524 157.249 244.348Z" fill="#EFE7F2"/>
<path style="mix-blend-mode:color-dodge" opacity="0.7" d="M193.362 234.728L192.463 264.771C192.452 265.143 192.346 265.506 192.154 265.825C191.963 266.144 191.693 266.409 191.371 266.594L155.296 287.277V282.159L173.718 241.707L190.163 232.742C190.5 232.561 190.878 232.473 191.259 232.486C191.64 232.498 192.012 232.61 192.336 232.812C192.66 233.013 192.926 233.296 193.106 233.632C193.286 233.969 193.374 234.347 193.362 234.728Z" fill="url(#paint8_linear_382_27264)"/>
<path d="M191.462 233.92L190.553 264.362L164.319 279.543L165.031 264.483L174.29 243.285L191.462 233.92Z" fill="#EFE7F2"/>
<path style="mix-blend-mode:color-dodge" opacity="0.7" d="M151.621 325.012L138.413 332.087C136.028 333.234 133.43 333.872 130.785 333.961C128.14 334.049 125.506 333.587 123.049 332.602L113.006 328.581C97.3544 322.328 82.8667 312.578 69.2351 303.742L62.8811 298.643L60.8513 298.783L61.1447 312.251L63.1745 314.252C81.0292 328.44 101.339 339.227 123.093 346.075C125.547 346.853 128.133 347.126 130.696 346.878C133.258 346.63 135.744 345.866 138.004 344.632L150.741 337.162L151.621 325.012Z" fill="url(#paint9_linear_382_27264)"/>
<path d="M139.384 318.759C137.693 319.795 135.77 320.394 133.79 320.503C131.809 320.612 129.832 320.228 128.037 319.384C127.305 319.038 126.507 318.855 125.697 318.847C124.887 318.838 124.085 319.005 123.345 319.335C122.606 319.665 121.946 320.151 121.412 320.76C120.878 321.369 120.482 322.085 120.25 322.861L118.47 328.86L127.696 332.506C129.22 333.108 130.851 333.39 132.488 333.335C134.126 333.281 135.735 332.89 137.215 332.188L139.793 330.966L139.384 318.759Z" fill="url(#paint10_linear_382_27264)"/>
<path style="mix-blend-mode:multiply" d="M139.384 318.759C137.693 319.795 135.77 320.394 133.79 320.503C131.809 320.612 129.832 320.228 128.037 319.384C127.305 319.038 126.507 318.855 125.697 318.847C124.887 318.838 124.085 319.005 123.345 319.335C122.606 319.665 121.946 320.151 121.412 320.76C120.878 321.369 120.482 322.085 120.25 322.861L118.47 328.86L129.144 328.379C139.596 326.185 139.384 318.759 139.384 318.759Z" fill="url(#paint11_linear_382_27264)"/>
<path d="M69.6536 294.651L70.4713 303.4C70.4713 303.4 62.9821 298.759 62.53 296.96C62.0779 295.161 62.8282 284.136 62.8282 284.136L64.9879 286.758C66.3002 287.647 67.3991 288.816 68.2058 290.181C69.0125 291.546 69.5069 293.072 69.6536 294.651Z" fill="url(#paint12_linear_382_27264)"/>
<path style="mix-blend-mode:multiply" d="M69.6536 294.651L70.4713 303.4C70.4713 303.4 65.6613 295.276 65.2284 293.477C64.7955 291.678 62.8234 284.136 62.8234 284.136L64.9831 286.758C66.2962 287.647 67.3961 288.816 68.2036 290.18C69.0112 291.545 69.5064 293.072 69.6536 294.651Z" fill="url(#paint13_linear_382_27264)"/>
<path style="mix-blend-mode:color-dodge" d="M90.2885 247.008L106.484 222.621C106.765 222.199 107.13 221.839 107.555 221.562C107.98 221.285 108.457 221.097 108.957 221.011C109.456 220.924 109.969 220.939 110.462 221.057C110.956 221.174 111.42 221.39 111.828 221.693L115.719 224.579C123.909 230.672 132.946 235.534 142.544 239.009L157.249 244.348C158.15 244.675 158.89 245.339 159.314 246.199C159.738 247.06 159.813 248.051 159.524 248.965C150.481 251.37 139.692 252.813 128.095 252.813C113.622 252.813 100.409 250.601 90.2885 247.008Z" fill="url(#paint14_linear_382_27264)"/>
<path d="M180.163 211.472L133.199 184.728L294.093 92.8186L341.063 119.11L180.163 211.472Z" fill="#FADF84"/>
<path style="mix-blend-mode:multiply" d="M159.601 284.218C157.09 285.752 172.458 292.568 178.485 293.838C184.512 295.108 179.418 296.594 179.601 295.589C180.462 290.846 168.047 279.052 159.601 284.218Z" fill="url(#paint15_linear_382_27264)"/>
<path d="M177.653 275.887L176.647 287.801C176.612 288.224 176.477 288.632 176.253 288.992C176.028 289.352 175.721 289.653 175.357 289.87C174.993 290.087 174.583 290.215 174.159 290.241C173.736 290.268 173.313 290.194 172.924 290.024L159.966 286.118C159.434 285.885 158.993 285.484 158.709 284.977C158.425 284.47 158.314 283.885 158.393 283.309L162.665 272.155C162.721 271.77 162.86 271.403 163.072 271.078C163.285 270.753 163.566 270.478 163.896 270.273C164.226 270.068 164.596 269.937 164.982 269.89C165.367 269.843 165.758 269.88 166.128 270L175.82 273.141C176.389 273.327 176.879 273.698 177.212 274.197C177.544 274.695 177.699 275.29 177.653 275.887Z" fill="#D73927"/>
<path d="M174.122 289.245L175.127 277.33C175.177 276.73 175.022 276.13 174.689 275.628C174.355 275.126 173.862 274.752 173.29 274.564L163.603 271.423C163.382 271.356 163.154 271.315 162.924 271.303C163.212 270.741 163.69 270.3 164.274 270.057C164.857 269.815 165.507 269.788 166.109 269.98L175.801 273.121C176.373 273.308 176.866 273.683 177.199 274.185C177.532 274.687 177.685 275.287 177.633 275.887L176.628 287.802C176.564 288.488 176.236 289.123 175.713 289.572C175.189 290.021 174.512 290.248 173.824 290.207C173.984 289.908 174.085 289.581 174.122 289.245Z" fill="#FBBF19"/>
<path style="mix-blend-mode:multiply" d="M179.302 303.482L302.284 232.968C298.975 238.576 296.912 244.925 296.912 250.644C296.906 251.901 297.017 253.155 297.244 254.391L185.257 317.566C185.324 316.801 185.368 316.041 185.368 315.291C185.368 309.187 183.016 305.065 179.302 303.482Z" fill="url(#paint16_linear_382_27264)"/>
<path style="mix-blend-mode:multiply" d="M332.371 230.173C332.371 224.483 330.332 220.519 327.051 218.72L365.267 196.729L365.512 209.591C365.548 211.418 365.09 213.22 364.185 214.808C363.281 216.395 361.964 217.709 360.375 218.61L331.962 234.728C332.225 233.224 332.361 231.7 332.371 230.173Z" fill="url(#paint17_linear_382_27264)"/>
<path d="M151.284 326.363L138.076 333.434C135.691 334.581 133.093 335.219 130.448 335.308C127.804 335.396 125.169 334.933 122.713 333.949L112.669 329.927C97.0254 323.66 82.3014 315.305 68.8984 305.089L60.7936 298.557V310.668C60.7938 311.587 61.0005 312.493 61.3985 313.321C61.7965 314.148 62.3755 314.876 63.0928 315.449L64.1654 316.306C83.0879 328.778 100.62 339.167 122.742 347.436C125.198 348.209 127.785 348.478 130.347 348.226C132.909 347.974 135.394 347.206 137.653 345.969L150.389 338.494L151.284 326.363Z" fill="#FBBF19"/>
<path d="M121.924 323.136L125.118 329.894C125.118 329.894 134.848 323.876 133.882 321.798C132.915 319.721 121.924 323.136 121.924 323.136Z" fill="url(#paint18_linear_382_27264)"/>
<path d="M126.157 327.931C126.157 329.634 124.954 330.336 123.473 329.466C122.692 328.958 122.041 328.274 121.574 327.469C121.107 326.663 120.836 325.759 120.784 324.829C120.784 323.121 121.986 322.424 123.473 323.294C124.253 323.802 124.902 324.487 125.369 325.292C125.835 326.098 126.105 327.002 126.157 327.931Z" fill="url(#paint19_linear_382_27264)"/>
<path d="M128.547 324.482L131.087 329.855C131.087 329.855 138.821 325.074 138.057 323.419C137.292 321.765 128.547 324.482 128.547 324.482Z" fill="url(#paint20_linear_382_27264)"/>
<path d="M131.909 328.297C131.909 329.653 130.947 330.221 129.774 329.519C129.153 329.115 128.637 328.57 128.266 327.929C127.895 327.288 127.68 326.569 127.638 325.829C127.638 324.473 128.6 323.929 129.774 324.608C130.394 325.012 130.911 325.557 131.282 326.197C131.653 326.838 131.868 327.558 131.909 328.297Z" fill="url(#paint21_linear_382_27264)"/>
<path d="M64.2905 293.53L66.4694 298.148C66.4694 298.148 70.1923 295.315 69.5286 293.896C68.8648 292.477 64.2905 293.53 64.2905 293.53Z" fill="url(#paint22_linear_382_27264)"/>
<path d="M67.1813 296.806C67.1813 297.97 66.3588 298.436 65.3438 297.854C64.81 297.507 64.3654 297.04 64.0462 296.489C63.727 295.938 63.542 295.32 63.5064 294.684C63.5064 293.52 64.3289 293.054 65.3438 293.641C65.8778 293.986 66.3226 294.453 66.6419 295.003C66.9613 295.553 67.1461 296.171 67.1813 296.806Z" fill="url(#paint23_linear_382_27264)"/>
<path d="M63.4006 289.721L64.9927 293.088C64.9927 293.088 67.7104 291.024 67.2294 289.985C66.7484 288.946 63.4006 289.721 63.4006 289.721Z" fill="url(#paint24_linear_382_27264)"/>
<path d="M65.5122 292.111C65.5122 292.963 64.9158 293.304 64.175 292.876C63.7851 292.623 63.4603 292.282 63.2271 291.88C62.9939 291.478 62.8589 291.026 62.833 290.562C62.833 289.716 63.4343 289.374 64.175 289.798C64.5644 290.051 64.8884 290.392 65.1208 290.794C65.3531 291.196 65.4873 291.648 65.5122 292.111Z" fill="url(#paint25_linear_382_27264)"/>
<path d="M133.141 320.495C135.346 320.505 137.51 319.904 139.394 318.759L139.807 330.966L137.229 332.188C135.576 332.969 133.766 333.357 131.938 333.323L133.141 320.495Z" fill="url(#paint26_radial_382_27264)"/>
<path d="M117.225 317.21L115.926 320.673C115.68 321.33 115.298 321.929 114.807 322.43C114.315 322.931 113.724 323.323 113.071 323.581C112.419 323.84 111.719 323.958 111.018 323.93C110.316 323.901 109.629 323.726 108.999 323.415C104.189 321.039 96.8061 317.258 90.6204 313.588C83.7277 309.499 78.0615 305.796 75.1707 303.867C74.5242 303.437 73.9868 302.862 73.6011 302.188C73.2154 301.515 72.9919 300.76 72.9485 299.985L72.5829 293.622C72.5674 293.36 72.6251 293.099 72.7494 292.868C72.8737 292.637 73.0598 292.445 73.2869 292.314C73.514 292.183 73.7731 292.117 74.0352 292.125C74.2974 292.132 74.5523 292.212 74.7715 292.357C78.807 295.041 87.3111 300.596 94.555 304.713C102.631 309.302 112.963 313.896 116.469 315.42C116.801 315.564 117.065 315.83 117.206 316.164C117.347 316.497 117.353 316.872 117.225 317.21Z" fill="#EFE7F2"/>
<path d="M81.1591 260.317C81.1591 260.317 68.8696 278.316 69.7691 282.212C70.6685 286.108 89.8316 298.119 100.019 302.765C110.207 307.412 128.783 315.853 133.126 312.866C137.47 309.879 141.212 288.162 141.212 288.162C129.107 284.831 117.275 280.578 105.82 275.44C88.1481 267.349 81.1591 260.317 81.1591 260.317Z" fill="#FADF84"/>
<path d="M366.522 197.874L359.307 201.669V219.971C361.601 218.946 363.541 217.264 364.88 215.137C366.219 213.011 366.897 210.535 366.83 208.023L366.522 197.874Z" fill="#FBBF19"/>
<g style="mix-blend-mode:multiply">
<path d="M186.638 304.752L295.954 242.034L295.281 240.865L185.969 303.583L186.638 304.752Z" fill="#D2D3D3"/>
</g>
<g style="mix-blend-mode:color-dodge" opacity="0.7">
<path d="M176.743 232.188L352.924 130.842L353.598 132.01L238.432 198.259V272.996H237.08V199.038L197.532 221.789V296.82H196.181V222.563L177.417 233.357L176.743 232.188Z" fill="white"/>
</g>
<g style="mix-blend-mode:multiply">
<path d="M200.765 258.946C200.456 258.648 200.212 258.289 200.046 257.893C199.881 257.497 199.798 257.071 199.803 256.642V232.217C199.805 230.985 200.13 229.775 200.744 228.707C201.358 227.639 202.241 226.75 203.304 226.128L228.691 211.318C229.178 211.034 229.731 210.884 230.294 210.882C230.857 210.881 231.411 211.028 231.899 211.309C232.387 211.59 232.793 211.995 233.074 212.483C233.355 212.971 233.503 213.525 233.501 214.088V239.682C233.503 240.958 233.157 242.209 232.502 243.304C231.848 244.399 230.908 245.295 229.783 245.897L204.516 259.466C204.051 259.718 203.53 259.85 203.001 259.85C202.167 259.847 201.367 259.523 200.765 258.946ZM229.355 212.482L203.968 227.292C203.108 227.795 202.395 228.514 201.899 229.378C201.403 230.242 201.141 231.221 201.14 232.217V256.642C201.137 256.891 201.186 257.138 201.283 257.367C201.38 257.596 201.523 257.803 201.703 257.975C201.987 258.248 202.35 258.424 202.74 258.478C203.131 258.533 203.529 258.463 203.877 258.278L229.144 244.709C230.053 244.221 230.812 243.496 231.342 242.611C231.871 241.726 232.15 240.714 232.15 239.682V214.088C232.151 213.761 232.065 213.439 231.901 213.156C231.738 212.873 231.502 212.637 231.218 212.474C230.935 212.311 230.613 212.226 230.286 212.227C229.959 212.229 229.638 212.316 229.355 212.482Z" fill="#D2D3D3"/>
</g>
<path d="M320.144 314.983V375.396L262.809 341.842V280.947L320.144 314.983Z" fill="#FED56F"/>
<path d="M320.072 314.983V375.396L375.392 343.439V282.539L320.072 314.983Z" fill="#FBBF19"/>
<path d="M375.392 282.539L320.072 314.983L262.809 280.947L318.244 248.677L375.392 282.539Z" fill="#FCE085"/>
<path opacity="0.5" d="M375.392 282.539L320.072 314.983L262.809 280.947L320.081 314.045L375.392 282.539Z" fill="url(#paint27_linear_382_27264)"/>
<path d="M296.387 301.799V318.004L283.227 310.476V293.79L296.387 301.799Z" fill="#D73927"/>
<path d="M351.635 269.355L296.32 301.798L283.227 293.79L338.663 261.52L351.635 269.355Z" fill="#D73927"/>
<path d="M310.033 337.994L314.651 352.289L311.654 350.562V367.604L308.408 365.733V348.687L305.416 346.96L310.033 337.994Z" fill="#D73927"/>
<path d="M294.194 340.481L298.812 331.515L303.429 345.81L300.433 344.083V361.125L297.191 359.254V342.207L294.194 340.481Z" fill="#D73927"/>
<defs>
<linearGradient id="paint0_linear_382_27264" x1="355.935" y1="183.569" x2="401.943" y2="271.25" gradientUnits="userSpaceOnUse">
<stop stop-color="#B1B6DC"/>
<stop offset="0.15" stop-color="#B8BCDF"/>
<stop offset="0.35" stop-color="#CACDE8"/>
<stop offset="0.58" stop-color="#E6E8F5"/>
<stop offset="0.86" stop-color="#F6F6FB"/>
<stop offset="1" stop-color="white"/>
</linearGradient>
<radialGradient id="paint1_radial_382_27264" cx="0" cy="0" r="1" gradientUnits="userSpaceOnUse" gradientTransform="translate(312.217 242.107) rotate(180) scale(16.9264)">
<stop stop-color="white"/>
<stop offset="1"/>
</radialGradient>
<linearGradient id="paint2_linear_382_27264" x1="326.989" y1="242.891" x2="302.857" y2="242.891" gradientUnits="userSpaceOnUse">
<stop stop-color="#BCBDBF"/>
<stop offset="1" stop-color="#E5E6E6"/>
</linearGradient>
<linearGradient id="paint3_linear_382_27264" x1="327.739" y1="243.193" x2="303.607" y2="243.193" gradientUnits="userSpaceOnUse">
<stop offset="0.04" stop-color="#9B9DB2"/>
<stop offset="0.58" stop-color="#D3D2D8"/>
<stop offset="1" stop-color="#EDE9EE"/>
</linearGradient>
<radialGradient id="paint4_radial_382_27264" cx="0" cy="0" r="1" gradientUnits="userSpaceOnUse" gradientTransform="translate(163.578 327.325) rotate(180) scale(16.9264)">
<stop stop-color="white"/>
<stop offset="1"/>
</radialGradient>
<linearGradient id="paint5_linear_382_27264" x1="178.35" y1="328.109" x2="154.218" y2="328.109" gradientUnits="userSpaceOnUse">
<stop stop-color="#BCBDBF"/>
<stop offset="1" stop-color="#E5E6E6"/>
</linearGradient>
<linearGradient id="paint6_linear_382_27264" x1="179.1" y1="328.412" x2="154.969" y2="328.412" gradientUnits="userSpaceOnUse">
<stop offset="0.04" stop-color="#9B9DB2"/>
<stop offset="0.58" stop-color="#D3D2D8"/>
<stop offset="1" stop-color="#EDE9EE"/>
</linearGradient>
<linearGradient id="paint7_linear_382_27264" x1="162.03" y1="252.159" x2="84.2519" y2="252.159" gradientUnits="userSpaceOnUse">
<stop stop-color="#D2D3D3"/>
<stop offset="0.19" stop-color="#999A9A"/>
<stop offset="0.39" stop-color="#636464"/>
<stop offset="0.58" stop-color="#393939"/>
<stop offset="0.75" stop-color="#1A1A1A"/>
<stop offset="0.9" stop-color="#080808"/>
<stop offset="1" stop-color="#010101"/>
</linearGradient>
<linearGradient id="paint8_linear_382_27264" x1="193.381" y1="259.86" x2="155.291" y2="259.86" gradientUnits="userSpaceOnUse">
<stop stop-color="#D2D3D3"/>
<stop offset="0.19" stop-color="#999A9A"/>
<stop offset="0.39" stop-color="#636464"/>
<stop offset="0.58" stop-color="#393939"/>
<stop offset="0.75" stop-color="#1A1A1A"/>
<stop offset="0.9" stop-color="#080808"/>
<stop offset="1" stop-color="#010101"/>
</linearGradient>
<linearGradient id="paint9_linear_382_27264" x1="81.9528" y1="340.659" x2="93.6699" y2="329.499" gradientUnits="userSpaceOnUse">
<stop stop-color="#D2D3D3"/>
<stop offset="0.19" stop-color="#999A9A"/>
<stop offset="0.39" stop-color="#636464"/>
<stop offset="0.58" stop-color="#393939"/>
<stop offset="0.75" stop-color="#1A1A1A"/>
<stop offset="0.9" stop-color="#080808"/>
<stop offset="1" stop-color="#010101"/>
</linearGradient>
<linearGradient id="paint10_linear_382_27264" x1="139.798" y1="326.051" x2="118.48" y2="326.051" gradientUnits="userSpaceOnUse">
<stop stop-color="#BCBDBF"/>
<stop offset="1" stop-color="#E5E6E6"/>
</linearGradient>
<linearGradient id="paint11_linear_382_27264" x1="128.716" y1="330.851" x2="129.201" y2="315.055" gradientUnits="userSpaceOnUse">
<stop stop-color="#9A9A9A"/>
<stop offset="0.02" stop-color="#9D9D9D"/>
<stop offset="0.32" stop-color="#C7C7C7"/>
<stop offset="0.6" stop-color="#E6E6E6"/>
<stop offset="0.84" stop-color="#F8F8F8"/>
<stop offset="1" stop-color="white"/>
</linearGradient>
<linearGradient id="paint12_linear_382_27264" x1="70.4713" y1="293.771" x2="62.3905" y2="293.771" gradientUnits="userSpaceOnUse">
<stop stop-color="#BCBDBF"/>
<stop offset="1" stop-color="#E5E6E6"/>
</linearGradient>
<linearGradient id="paint13_linear_382_27264" x1="70.4713" y1="293.771" x2="62.8282" y2="293.771" gradientUnits="userSpaceOnUse">
<stop stop-color="#9A9A9A"/>
<stop offset="0.02" stop-color="#9D9D9D"/>
<stop offset="0.32" stop-color="#C7C7C7"/>
<stop offset="0.6" stop-color="#E6E6E6"/>
<stop offset="0.84" stop-color="#F8F8F8"/>
<stop offset="1" stop-color="white"/>
</linearGradient>
<linearGradient id="paint14_linear_382_27264" x1="159.697" y1="236.883" x2="90.2885" y2="236.883" gradientUnits="userSpaceOnUse">
<stop stop-color="#9A9A9A"/>
<stop offset="0.25" stop-color="#646464"/>
<stop offset="0.49" stop-color="#393939"/>
<stop offset="0.7" stop-color="#1A1A1A"/>
<stop offset="0.87" stop-color="#080808"/>
<stop offset="1" stop-color="#010101"/>
</linearGradient>
<linearGradient id="paint15_linear_382_27264" x1="160.822" y1="282.429" x2="179.601" y2="294.107" gradientUnits="userSpaceOnUse">
<stop stop-color="#6A6A6A"/>
<stop offset="0.24" stop-color="#9C9C9C"/>
<stop offset="0.48" stop-color="#C7C7C7"/>
<stop offset="0.69" stop-color="#E6E6E6"/>
<stop offset="0.87" stop-color="#F8F8F8"/>
<stop offset="1" stop-color="white"/>
</linearGradient>
<linearGradient id="paint16_linear_382_27264" x1="249.774" y1="285.142" x2="240.596" y2="270.038" gradientUnits="userSpaceOnUse">
<stop stop-color="#9A9A9A"/>
<stop offset="0.02" stop-color="#9D9D9D"/>
<stop offset="0.32" stop-color="#C7C7C7"/>
<stop offset="0.6" stop-color="#E6E6E6"/>
<stop offset="0.84" stop-color="#F8F8F8"/>
<stop offset="1" stop-color="white"/>
</linearGradient>
<linearGradient id="paint17_linear_382_27264" x1="353.828" y1="224.305" x2="345.632" y2="210.817" gradientUnits="userSpaceOnUse">
<stop stop-color="#9A9A9A"/>
<stop offset="0.02" stop-color="#9D9D9D"/>
<stop offset="0.32" stop-color="#C7C7C7"/>
<stop offset="0.6" stop-color="#E6E6E6"/>
<stop offset="0.84" stop-color="#F8F8F8"/>
<stop offset="1" stop-color="white"/>
</linearGradient>
<linearGradient id="paint18_linear_382_27264" x1="133.954" y1="325.512" x2="121.929" y2="325.512" gradientUnits="userSpaceOnUse">
<stop stop-color="#BCBDBF"/>
<stop offset="1" stop-color="#E5E6E6"/>
</linearGradient>
<linearGradient id="paint19_linear_382_27264" x1="120.779" y1="326.378" x2="126.157" y2="326.378" gradientUnits="userSpaceOnUse">
<stop stop-color="#BCBDBF"/>
<stop offset="0.69" stop-color="#E9E9EA"/>
<stop offset="1" stop-color="white"/>
</linearGradient>
<linearGradient id="paint20_linear_382_27264" x1="138.11" y1="326.373" x2="128.547" y2="326.373" gradientUnits="userSpaceOnUse">
<stop stop-color="#BCBDBF"/>
<stop offset="1" stop-color="#E5E6E6"/>
</linearGradient>
<linearGradient id="paint21_linear_382_27264" x1="127.633" y1="327.061" x2="131.909" y2="327.061" gradientUnits="userSpaceOnUse">
<stop stop-color="#BCBDBF"/>
<stop offset="0.69" stop-color="#E9E9EA"/>
<stop offset="1" stop-color="white"/>
</linearGradient>
<linearGradient id="paint22_linear_382_27264" x1="69.6103" y1="295.651" x2="64.2905" y2="295.651" gradientUnits="userSpaceOnUse">
<stop stop-color="#BCBDBF"/>
<stop offset="1" stop-color="#E5E6E6"/>
</linearGradient>
<linearGradient id="paint23_linear_382_27264" x1="63.5064" y1="295.747" x2="67.1765" y2="295.747" gradientUnits="userSpaceOnUse">
<stop stop-color="#BCBDBF"/>
<stop offset="0.69" stop-color="#E9E9EA"/>
<stop offset="1" stop-color="white"/>
</linearGradient>
<linearGradient id="paint24_linear_382_27264" x1="67.2871" y1="291.27" x2="63.4054" y2="291.27" gradientUnits="userSpaceOnUse">
<stop stop-color="#BCBDBF"/>
<stop offset="1" stop-color="#E5E6E6"/>
</linearGradient>
<linearGradient id="paint25_linear_382_27264" x1="62.833" y1="291.337" x2="65.5122" y2="291.337" gradientUnits="userSpaceOnUse">
<stop stop-color="#BCBDBF"/>
<stop offset="0.69" stop-color="#E9E9EA"/>
<stop offset="1" stop-color="white"/>
</linearGradient>
<radialGradient id="paint26_radial_382_27264" cx="0" cy="0" r="1" gradientUnits="userSpaceOnUse" gradientTransform="translate(134.627 320.571) rotate(180) scale(4.08851 6.82779)">
<stop stop-color="#FAE9A6"/>
<stop offset="1" stop-color="#F8A78B"/>
</radialGradient>
<linearGradient id="paint27_linear_382_27264" x1="262.477" y1="173.833" x2="324.141" y2="291.356" gradientUnits="userSpaceOnUse">
<stop stop-color="#B1B6DC"/>
<stop offset="0.15" stop-color="#B8BCDF"/>
<stop offset="0.35" stop-color="#CACDE8"/>
<stop offset="0.58" stop-color="#E6E8F5"/>
<stop offset="0.86" stop-color="#F6F6FB"/>
<stop offset="1" stop-color="white"/>
</linearGradient>
</defs>
</svg>
