<svg width="481" height="481" viewBox="0 0 481 481" fill="none" xmlns="http://www.w3.org/2000/svg">
<path d="M385.627 191.919C383.276 179.507 380.27 167.227 376.623 155.132C365.656 120.125 343.828 84.7041 306.339 72.7945C278.663 64.0115 248.792 70.0721 225.406 87.9749C188.725 116.046 162.03 154.353 121.895 178.663C88.3886 198.97 70.8513 231.775 82.1163 278.143C93.3813 324.511 131.015 351.524 172.198 348.244C206.426 345.483 242.212 348.436 271.803 365.05C298.249 379.894 344.973 366.974 383.626 326.426C406.147 302.789 403.963 272.737 396.623 244.656C392.082 227.263 389.139 209.524 385.627 191.919Z" fill="#FFC10D"/>
<path opacity="0.7" d="M385.627 191.919C383.276 179.507 380.27 167.227 376.623 155.132C365.656 120.125 343.828 84.7041 306.339 72.7945C278.663 64.0115 248.792 70.0721 225.406 87.9749C188.725 116.046 162.03 154.353 121.895 178.663C88.3886 198.97 70.8513 231.775 82.1163 278.143C93.3813 324.511 131.015 351.524 172.198 348.244C206.426 345.483 242.212 348.436 271.803 365.05C298.249 379.894 344.973 366.974 383.626 326.426C406.147 302.789 403.963 272.737 396.623 244.656C392.082 227.263 389.139 209.524 385.627 191.919Z" fill="white"/>
<path d="M424.636 407.388C424.636 410.389 342.866 412.833 242.03 412.833C141.193 412.833 59.4131 410.389 59.4131 407.388C59.4131 404.386 141.183 401.943 242.03 401.943C342.876 401.943 424.636 404.386 424.636 407.388Z" fill="#FFC10D"/>
<path opacity="0.3" d="M424.636 407.388C424.636 410.389 342.866 412.833 242.03 412.833C141.193 412.833 59.4131 410.389 59.4131 407.388C59.4131 404.386 141.183 401.943 242.03 401.943C342.876 401.943 424.636 404.386 424.636 407.388Z" fill="white"/>
<path d="M389.677 302.559C389.677 302.607 392.15 300.009 392.284 299.827C393.852 297.729 395.651 292.746 393.949 290.351C393.655 289.962 393.283 289.639 392.857 289.403C392.43 289.168 391.959 289.024 391.474 288.982C390.989 288.941 390.5 289.002 390.039 289.161C389.579 289.321 389.157 289.575 388.802 289.908C387.243 291.274 386.878 293.804 387.013 295.757C387.176 298.047 389.677 302.549 389.677 302.559Z" fill="#FFC10D"/>
<path d="M412.15 293.612C409.745 291.928 404.781 293.766 402.693 295.344C402.51 295.488 399.932 297.951 399.98 297.97H400.038C399.249 298.258 398.412 298.566 397.498 298.932C395.825 299.605 393.939 300.394 391.938 301.375C389.778 302.426 387.678 303.595 385.647 304.877C383.371 306.306 381.226 307.935 379.24 309.745C379.215 309.765 379.192 309.787 379.172 309.812C379.596 309.071 380.721 306.926 380.788 306.772C381.75 304.329 382.164 299.076 379.894 297.2C379.505 296.904 379.059 296.693 378.584 296.58C378.109 296.468 377.615 296.457 377.135 296.547C376.655 296.638 376.2 296.829 375.798 297.107C375.397 297.385 375.058 297.745 374.805 298.162C373.67 299.894 373.977 302.424 374.632 304.271C375.363 306.358 378.682 309.802 378.951 310.043C376.97 311.933 375.119 313.954 373.41 316.094C372.448 317.335 371.438 318.614 370.524 319.942C370.87 319.288 371.178 318.691 371.207 318.605C372.169 316.171 372.583 310.909 370.312 309.033C369.925 308.737 369.479 308.526 369.005 308.413C368.53 308.301 368.037 308.29 367.558 308.38C367.079 308.471 366.624 308.662 366.223 308.94C365.823 309.218 365.485 309.578 365.233 309.995C364.088 311.717 364.406 314.256 365.05 316.094C365.695 317.931 368.484 320.971 369.225 321.75L368.1 323.232C366.368 325.647 364.656 328.042 362.895 330.37C362.28 331.188 361.645 331.976 360.971 332.756C361.279 332.169 361.539 331.678 361.568 331.601C362.53 329.158 362.943 323.905 360.673 321.981C360.285 321.684 359.839 321.471 359.363 321.358C358.888 321.244 358.394 321.233 357.913 321.324C357.433 321.414 356.977 321.606 356.576 321.885C356.174 322.164 355.836 322.525 355.584 322.943C354.439 324.675 354.757 327.205 355.411 329.052C356.065 330.899 358.566 333.631 359.442 334.564C358.768 335.353 358.095 336.132 357.402 336.863C356.921 337.354 356.498 337.825 355.978 338.316L354.507 339.701C353.545 340.548 352.583 341.433 351.573 342.241C350.899 342.809 350.255 343.328 349.649 343.857C350.264 343.059 351.457 341.452 351.573 341.308C352.656 339.273 353.199 336.994 353.15 334.689C353.278 334.468 353.388 334.236 353.477 333.997C353.657 333.543 353.74 333.057 353.719 332.569C353.699 332.082 353.577 331.604 353.36 331.167C353.143 330.729 352.837 330.343 352.461 330.031C352.085 329.72 351.648 329.491 351.178 329.36C348.292 328.658 344.348 332.15 342.972 334.381C342.895 334.516 342.164 336.036 341.731 337.008C341.895 336.402 342.078 335.805 342.241 335.18C342.587 333.939 342.895 332.688 343.203 331.332C343.338 330.678 343.482 330.014 343.626 329.35C343.771 328.686 343.857 327.975 343.982 327.282C344.223 325.666 344.396 324.021 344.54 322.356C345.627 322.655 349.504 323.665 351.447 323.318C353.391 322.972 355.767 322.106 356.748 320.288C356.997 319.868 357.154 319.4 357.209 318.915C357.264 318.43 357.216 317.939 357.067 317.474C356.919 317.009 356.675 316.581 356.349 316.217C356.024 315.853 355.626 315.562 355.18 315.363C352.467 314.228 348.013 317.085 346.31 319.076C346.205 319.201 345.146 320.769 344.579 321.645C344.656 320.683 344.733 319.644 344.781 318.624C344.896 315.738 344.935 312.727 344.983 309.764C344.983 308.86 344.983 307.955 345.041 307.051C345.425 307.157 350.014 308.456 352.188 308.119C354.112 307.83 356.508 306.916 357.498 305.089C357.744 304.667 357.898 304.199 357.95 303.714C358.003 303.23 357.954 302.739 357.805 302.275C357.656 301.811 357.412 301.383 357.087 301.019C356.762 300.655 356.365 300.364 355.921 300.163C353.218 299.038 348.754 301.895 347.051 303.886C346.926 304.03 345.406 306.291 345.041 306.888C345.089 304.896 345.156 302.905 345.3 300.952C345.486 298.312 345.839 295.687 346.358 293.092C346.541 293.092 351.322 294.516 353.554 294.17C355.478 293.881 357.864 292.967 358.855 291.14C359.1 290.719 359.255 290.251 359.308 289.767C359.362 289.283 359.313 288.793 359.165 288.328C359.017 287.864 358.774 287.436 358.45 287.072C358.127 286.708 357.73 286.416 357.287 286.214C354.574 285.089 350.11 287.936 348.417 289.937C348.302 290.062 347.138 291.784 346.609 292.611L346.455 292.554C347.049 289.955 347.877 287.414 348.927 284.964C349.485 283.607 350.091 282.347 350.716 281.116C351.582 281.462 355.526 283.04 357.585 282.924C359.644 282.809 362.01 282.193 363.193 280.49C363.484 280.099 363.689 279.651 363.795 279.175C363.902 278.699 363.907 278.207 363.811 277.729C363.715 277.251 363.519 276.798 363.237 276.401C362.955 276.003 362.593 275.669 362.174 275.42C359.605 274.006 354.853 276.383 352.948 278.143C352.842 278.239 351.9 279.345 351.217 280.163C351.505 279.624 351.794 279.057 352.082 278.537C353.16 276.613 354.257 274.882 355.247 273.371C355.815 272.525 356.344 271.765 356.854 271.053C357.874 270.957 362.01 270.485 363.751 269.495C365.493 268.504 367.34 266.811 367.599 264.752C367.679 264.271 367.655 263.778 367.531 263.307C367.407 262.835 367.184 262.395 366.878 262.016C366.572 261.636 366.19 261.326 365.755 261.104C365.321 260.883 364.844 260.755 364.358 260.731C361.423 260.654 358.297 264.915 357.431 267.388C357.354 267.609 356.565 271.082 356.613 271.072H356.681C356.18 271.714 355.651 272.445 355.093 273.266C354.064 274.757 352.919 276.45 351.803 278.374C350.575 280.438 349.467 282.57 348.485 284.762C347.377 287.212 346.485 289.755 345.82 292.361C345.825 292.393 345.825 292.426 345.82 292.458C345.82 291.601 345.531 289.206 345.493 289.023C344.954 286.464 342.385 281.827 339.471 281.539C338.984 281.502 338.495 281.568 338.036 281.733C337.577 281.898 337.158 282.157 336.805 282.495C336.453 282.833 336.176 283.241 335.992 283.692C335.808 284.144 335.722 284.63 335.738 285.117C335.738 287.186 337.402 289.129 338.961 290.303C340.721 291.64 345.387 292.688 345.762 292.765C345.158 295.438 344.731 298.147 344.483 300.875C344.338 302.462 344.232 304.059 344.146 305.685C344.079 304.944 344.011 304.28 343.992 304.194C343.444 301.625 340.875 296.998 337.96 296.7C337.474 296.663 336.985 296.729 336.526 296.894C336.067 297.059 335.647 297.318 335.295 297.656C334.943 297.994 334.666 298.402 334.482 298.854C334.298 299.305 334.211 299.791 334.228 300.279C334.228 302.347 335.892 304.29 337.45 305.473C339.009 306.657 343.001 307.638 344.05 307.888C344.05 308.504 343.992 309.119 343.973 309.735C343.857 312.698 343.761 315.661 343.578 318.557C343.511 319.576 343.405 320.586 343.309 321.587C343.251 320.933 343.184 320.375 343.174 320.298C342.626 317.729 340.057 313.102 337.143 312.804C336.656 312.767 336.167 312.833 335.708 312.998C335.249 313.163 334.83 313.422 334.477 313.76C334.125 314.098 333.848 314.506 333.664 314.958C333.48 315.409 333.394 315.895 333.41 316.382C333.41 318.46 335.074 320.394 336.633 321.577C338.191 322.761 341.799 323.655 343.04 323.944C342.915 324.973 342.78 326.002 342.607 326.984C342.472 327.657 342.395 328.321 342.222 328.985L341.76 330.909C341.414 332.15 341.077 333.439 340.712 334.641C340.461 335.478 340.211 336.277 339.961 337.085C340.038 336.065 340.144 334.074 340.134 333.9C339.99 331.293 338.153 326.32 335.324 325.589C334.85 325.48 334.357 325.473 333.879 325.566C333.402 325.66 332.949 325.854 332.55 326.134C332.152 326.415 331.817 326.775 331.568 327.194C331.318 327.612 331.159 328.078 331.101 328.561C330.784 330.61 332.131 332.775 333.497 334.179C334.863 335.584 339.269 337.421 339.807 337.633C339.384 338.961 338.97 340.24 338.557 341.481C337.123 345.666 335.776 349.1 334.805 351.486C334.805 351.572 334.738 351.649 334.699 351.726L336.45 352.688C336.508 352.534 336.575 352.381 336.633 352.217C337.595 349.783 338.855 346.281 340.202 342.02C340.635 340.673 341.067 339.23 341.5 337.739C342.968 337.923 344.446 338.019 345.926 338.027C346.455 340.173 348.908 343.694 349.225 344.146C348.148 345.021 347.09 345.868 346.08 346.647C342.578 349.35 339.557 351.457 337.422 352.919L337.171 353.092L339.095 354.151C341.173 352.66 343.905 350.591 347.147 348.013C348.244 347.128 349.408 346.156 350.582 345.127C351.015 345.493 354.526 348.475 356.604 349.071C358.48 349.61 361.029 349.783 362.684 348.542C363.083 348.263 363.42 347.904 363.672 347.486C363.923 347.069 364.084 346.604 364.144 346.12C364.204 345.636 364.162 345.146 364.019 344.679C363.877 344.213 363.638 343.782 363.319 343.415C361.337 341.25 356.094 341.972 353.699 343.068C353.564 343.136 352.121 344.03 351.217 344.569C351.698 344.155 352.179 343.761 352.65 343.328C353.612 342.491 354.574 341.616 355.594 340.673L357.037 339.259C357.527 338.787 357.999 338.239 358.48 337.729C359.576 336.517 360.625 335.238 361.654 333.929C362.405 334.776 365.089 337.777 366.868 338.585C368.648 339.394 371.14 339.951 372.967 338.98C373.404 338.764 373.79 338.459 374.102 338.084C374.413 337.709 374.642 337.274 374.774 336.805C374.907 336.336 374.939 335.845 374.87 335.363C374.801 334.881 374.631 334.419 374.372 334.006C372.737 331.572 367.446 331.486 364.925 332.207C364.762 332.255 363.001 332.977 362.039 333.391C362.645 332.602 363.27 331.813 363.857 330.986C365.579 328.609 367.243 326.176 368.917 323.713L370.466 321.481C370.726 321.779 373.843 325.396 375.844 326.291C377.614 327.109 380.105 327.667 381.933 326.685C382.372 326.472 382.76 326.168 383.073 325.793C383.386 325.419 383.617 324.983 383.749 324.513C383.882 324.044 383.914 323.551 383.843 323.069C383.772 322.586 383.6 322.124 383.338 321.712C381.702 319.278 376.411 319.192 373.891 319.923C373.708 319.971 371.188 321.019 370.562 321.318C371.698 319.682 372.852 318.056 374.054 316.508C375.658 314.402 377.4 312.407 379.269 310.533C379.394 310.678 382.626 314.458 384.665 315.401C386.445 316.229 388.937 316.777 390.764 315.805C391.202 315.59 391.589 315.286 391.902 314.911C392.214 314.537 392.443 314.101 392.576 313.632C392.708 313.163 392.741 312.671 392.671 312.188C392.6 311.706 392.429 311.244 392.169 310.832C390.534 308.388 385.243 308.311 382.722 309.033C382.559 309.081 380.644 309.879 379.74 310.274L379.644 310.129C381.574 308.297 383.664 306.639 385.887 305.175C387.109 304.348 388.311 303.626 389.504 302.963C390.033 303.723 392.486 307.195 394.237 308.254C395.988 309.312 398.326 310.091 400.25 309.321C400.709 309.154 401.129 308.892 401.48 308.552C401.831 308.212 402.107 307.801 402.288 307.347C402.47 306.893 402.554 306.406 402.534 305.917C402.514 305.428 402.391 304.949 402.174 304.511C400.817 301.904 395.565 301.25 392.987 301.693C392.842 301.693 391.438 302.116 390.428 302.424L392.044 301.539C394.016 300.519 395.892 299.692 397.537 298.98C398.499 298.585 399.345 298.239 400.154 297.931C401.067 298.412 404.761 300.307 406.762 300.432C408.763 300.558 411.245 300.173 412.592 298.605C412.9 298.252 413.134 297.841 413.279 297.395C413.423 296.95 413.477 296.48 413.436 296.014C413.394 295.548 413.259 295.094 413.038 294.682C412.817 294.269 412.515 293.905 412.15 293.612Z" fill="#FFC10D"/>
<path d="M344.579 276.44C345.974 278.268 350.543 280.644 350.553 280.644C350.562 280.644 351.207 277.162 351.217 276.931C351.37 274.314 350.12 269.177 347.369 268.119C346.909 267.956 346.42 267.892 345.934 267.93C345.448 267.968 344.975 268.109 344.546 268.342C344.118 268.575 343.744 268.896 343.448 269.284C343.151 269.671 342.94 270.117 342.828 270.591C342.289 272.583 343.434 274.892 344.579 276.44Z" fill="#FFC10D"/>
<g opacity="0.5">
<path opacity="0.5" d="M389.677 302.558C389.677 302.607 392.15 300.009 392.284 299.826C393.852 297.729 395.651 292.746 393.949 290.351C393.655 289.962 393.283 289.639 392.857 289.403C392.43 289.168 391.959 289.024 391.474 288.982C390.988 288.941 390.5 289.001 390.039 289.161C389.579 289.32 389.157 289.575 388.802 289.908C387.243 291.274 386.878 293.804 387.013 295.757C387.176 298.047 389.677 302.549 389.677 302.558Z" fill="white"/>
<path opacity="0.5" d="M412.15 293.612C409.745 291.928 404.781 293.766 402.693 295.344C402.51 295.488 399.932 297.951 399.98 297.97H400.038C399.249 298.258 398.412 298.566 397.498 298.932C395.825 299.605 393.939 300.394 391.938 301.375C389.778 302.426 387.678 303.595 385.647 304.877C383.371 306.306 381.226 307.935 379.24 309.745C379.215 309.765 379.192 309.787 379.172 309.812C379.596 309.071 380.721 306.926 380.788 306.772C381.75 304.329 382.164 299.076 379.894 297.2C379.505 296.904 379.059 296.693 378.584 296.58C378.109 296.468 377.615 296.457 377.135 296.547C376.655 296.638 376.2 296.829 375.798 297.107C375.397 297.385 375.058 297.745 374.805 298.162C373.67 299.894 373.977 302.424 374.632 304.271C375.363 306.358 378.682 309.802 378.951 310.043C376.97 311.933 375.119 313.954 373.41 316.094C372.448 317.335 371.438 318.614 370.524 319.942C370.87 319.288 371.178 318.691 371.207 318.605C372.169 316.171 372.583 310.909 370.312 309.033C369.925 308.737 369.479 308.526 369.005 308.413C368.53 308.301 368.037 308.29 367.558 308.38C367.079 308.471 366.624 308.662 366.223 308.94C365.823 309.218 365.485 309.578 365.233 309.995C364.088 311.717 364.406 314.256 365.05 316.094C365.695 317.931 368.484 320.971 369.225 321.75L368.1 323.232C366.368 325.647 364.656 328.042 362.895 330.37C362.28 331.188 361.645 331.976 360.971 332.756C361.279 332.169 361.539 331.678 361.568 331.601C362.53 329.158 362.943 323.905 360.673 321.981C360.285 321.684 359.839 321.471 359.363 321.358C358.888 321.244 358.394 321.233 357.913 321.324C357.433 321.414 356.977 321.606 356.576 321.885C356.174 322.164 355.836 322.525 355.584 322.943C354.439 324.675 354.757 327.205 355.411 329.052C356.065 330.899 358.566 333.631 359.442 334.564C358.768 335.353 358.095 336.132 357.402 336.863C356.921 337.354 356.498 337.825 355.978 338.316L354.507 339.701C353.545 340.548 352.583 341.433 351.573 342.241C350.899 342.809 350.255 343.328 349.649 343.857C350.264 343.059 351.457 341.452 351.573 341.308C352.656 339.273 353.199 336.994 353.15 334.689C353.278 334.468 353.388 334.236 353.477 333.997C353.657 333.543 353.74 333.057 353.719 332.569C353.699 332.082 353.577 331.604 353.36 331.167C353.143 330.729 352.837 330.343 352.461 330.031C352.085 329.72 351.648 329.491 351.178 329.36C348.292 328.658 344.348 332.15 342.972 334.381C342.895 334.516 342.164 336.036 341.731 337.008C341.895 336.402 342.078 335.805 342.241 335.18C342.587 333.939 342.895 332.688 343.203 331.332C343.338 330.678 343.482 330.014 343.626 329.35C343.771 328.686 343.857 327.975 343.982 327.282C344.223 325.666 344.396 324.021 344.54 322.356C345.627 322.655 349.504 323.665 351.447 323.318C353.391 322.972 355.767 322.106 356.748 320.288C356.997 319.868 357.154 319.4 357.209 318.915C357.264 318.43 357.216 317.939 357.067 317.474C356.919 317.009 356.675 316.581 356.349 316.217C356.024 315.853 355.626 315.562 355.18 315.363C352.467 314.228 348.013 317.085 346.31 319.076C346.205 319.201 345.146 320.769 344.579 321.645C344.656 320.683 344.733 319.644 344.781 318.624C344.896 315.738 344.935 312.727 344.983 309.764C344.983 308.86 344.983 307.955 345.041 307.051C345.425 307.157 350.014 308.456 352.188 308.119C354.112 307.83 356.508 306.916 357.498 305.089C357.744 304.667 357.898 304.199 357.95 303.714C358.003 303.23 357.954 302.739 357.805 302.275C357.656 301.811 357.412 301.383 357.087 301.019C356.762 300.655 356.365 300.364 355.921 300.163C353.218 299.038 348.754 301.895 347.051 303.886C346.926 304.03 345.406 306.291 345.041 306.888C345.089 304.896 345.156 302.905 345.3 300.952C345.486 298.312 345.839 295.687 346.358 293.092C346.541 293.092 351.322 294.516 353.554 294.17C355.478 293.881 357.864 292.967 358.855 291.14C359.1 290.719 359.255 290.251 359.308 289.767C359.362 289.283 359.313 288.793 359.165 288.328C359.017 287.864 358.774 287.436 358.45 287.072C358.127 286.708 357.73 286.416 357.287 286.214C354.574 285.089 350.11 287.936 348.417 289.937C348.302 290.062 347.138 291.784 346.609 292.611L346.455 292.554C347.049 289.955 347.877 287.414 348.927 284.964C349.485 283.607 350.091 282.347 350.716 281.116C351.582 281.462 355.526 283.04 357.585 282.924C359.644 282.809 362.01 282.193 363.193 280.49C363.484 280.099 363.689 279.651 363.795 279.175C363.902 278.699 363.907 278.207 363.811 277.729C363.715 277.251 363.519 276.798 363.237 276.401C362.955 276.003 362.593 275.669 362.174 275.42C359.605 274.006 354.853 276.383 352.948 278.143C352.842 278.239 351.9 279.345 351.217 280.163C351.505 279.624 351.794 279.057 352.082 278.537C353.16 276.613 354.257 274.882 355.247 273.371C355.815 272.525 356.344 271.765 356.854 271.053C357.874 270.957 362.01 270.485 363.751 269.495C365.493 268.504 367.34 266.811 367.599 264.752C367.679 264.271 367.655 263.778 367.531 263.307C367.407 262.835 367.184 262.395 366.878 262.016C366.572 261.636 366.19 261.326 365.755 261.104C365.321 260.883 364.844 260.755 364.358 260.731C361.423 260.654 358.297 264.915 357.431 267.388C357.354 267.609 356.565 271.082 356.613 271.072H356.681C356.18 271.714 355.651 272.445 355.093 273.266C354.064 274.757 352.919 276.45 351.803 278.374C350.575 280.438 349.467 282.57 348.485 284.762C347.377 287.212 346.485 289.755 345.82 292.361C345.825 292.393 345.825 292.426 345.82 292.458C345.82 291.601 345.531 289.206 345.493 289.023C344.954 286.464 342.385 281.827 339.471 281.539C338.984 281.502 338.495 281.568 338.036 281.733C337.577 281.898 337.158 282.157 336.805 282.495C336.453 282.833 336.176 283.241 335.992 283.692C335.808 284.144 335.722 284.63 335.738 285.117C335.738 287.186 337.402 289.129 338.961 290.303C340.721 291.64 345.387 292.688 345.762 292.765C345.158 295.438 344.731 298.147 344.483 300.875C344.338 302.462 344.232 304.059 344.146 305.685C344.079 304.944 344.011 304.28 343.992 304.194C343.444 301.625 340.875 296.998 337.96 296.7C337.474 296.663 336.985 296.729 336.526 296.894C336.067 297.059 335.647 297.318 335.295 297.656C334.943 297.994 334.666 298.402 334.482 298.854C334.298 299.305 334.211 299.791 334.228 300.279C334.228 302.347 335.892 304.29 337.45 305.473C339.009 306.657 343.001 307.638 344.05 307.888C344.05 308.504 343.992 309.119 343.973 309.735C343.857 312.698 343.761 315.661 343.578 318.557C343.511 319.576 343.405 320.586 343.309 321.587C343.251 320.933 343.184 320.375 343.174 320.298C342.626 317.729 340.057 313.102 337.143 312.804C336.656 312.767 336.167 312.833 335.708 312.998C335.249 313.163 334.83 313.422 334.477 313.76C334.125 314.098 333.848 314.506 333.664 314.958C333.48 315.409 333.394 315.895 333.41 316.382C333.41 318.46 335.074 320.394 336.633 321.577C338.191 322.761 341.799 323.655 343.04 323.944C342.915 324.973 342.78 326.002 342.607 326.984C342.472 327.657 342.395 328.321 342.222 328.985L341.76 330.909C341.414 332.15 341.077 333.439 340.712 334.641C340.461 335.478 340.211 336.277 339.961 337.085C340.038 336.065 340.144 334.074 340.134 333.9C339.99 331.293 338.153 326.32 335.324 325.589C334.85 325.48 334.357 325.473 333.879 325.566C333.402 325.66 332.949 325.854 332.55 326.134C332.152 326.415 331.817 326.775 331.568 327.194C331.318 327.612 331.159 328.078 331.101 328.561C330.784 330.61 332.131 332.775 333.497 334.179C334.863 335.584 339.269 337.421 339.807 337.633C339.384 338.961 338.97 340.24 338.557 341.481C337.123 345.666 335.776 349.1 334.805 351.486C334.805 351.572 334.738 351.649 334.699 351.726L336.45 352.688C336.508 352.534 336.575 352.381 336.633 352.217C337.595 349.783 338.855 346.281 340.202 342.02C340.635 340.673 341.067 339.23 341.5 337.739C342.968 337.923 344.446 338.019 345.926 338.027C346.455 340.173 348.908 343.694 349.225 344.146C348.148 345.021 347.09 345.868 346.08 346.647C342.578 349.35 339.557 351.457 337.422 352.919L337.171 353.092L339.095 354.151C341.173 352.66 343.905 350.591 347.147 348.013C348.244 347.128 349.408 346.156 350.582 345.127C351.015 345.493 354.526 348.475 356.604 349.071C358.48 349.61 361.029 349.783 362.684 348.542C363.083 348.263 363.42 347.904 363.672 347.486C363.923 347.069 364.084 346.604 364.144 346.12C364.204 345.636 364.162 345.146 364.019 344.679C363.877 344.213 363.638 343.782 363.319 343.415C361.337 341.25 356.094 341.972 353.699 343.068C353.564 343.136 352.121 344.03 351.217 344.569C351.698 344.155 352.179 343.761 352.65 343.328C353.612 342.491 354.574 341.616 355.594 340.673L357.037 339.259C357.527 338.787 357.999 338.239 358.48 337.729C359.576 336.517 360.625 335.238 361.654 333.929C362.405 334.776 365.089 337.777 366.868 338.585C368.648 339.394 371.14 339.951 372.967 338.98C373.404 338.764 373.79 338.459 374.102 338.084C374.413 337.709 374.642 337.274 374.774 336.805C374.907 336.336 374.939 335.845 374.87 335.363C374.801 334.881 374.631 334.419 374.372 334.006C372.737 331.572 367.446 331.486 364.925 332.207C364.762 332.255 363.001 332.977 362.039 333.391C362.645 332.602 363.27 331.813 363.857 330.986C365.579 328.609 367.243 326.176 368.917 323.713L370.466 321.481C370.726 321.779 373.843 325.396 375.844 326.291C377.614 327.109 380.105 327.667 381.933 326.685C382.372 326.472 382.76 326.168 383.073 325.793C383.386 325.419 383.617 324.983 383.749 324.513C383.882 324.044 383.914 323.551 383.843 323.069C383.772 322.586 383.6 322.124 383.338 321.712C381.702 319.278 376.411 319.192 373.891 319.923C373.708 319.971 371.188 321.019 370.562 321.318C371.698 319.682 372.852 318.056 374.054 316.508C375.658 314.402 377.4 312.407 379.269 310.533C379.394 310.678 382.626 314.458 384.665 315.401C386.445 316.229 388.937 316.777 390.764 315.805C391.202 315.59 391.589 315.286 391.902 314.911C392.214 314.537 392.443 314.101 392.576 313.632C392.708 313.163 392.741 312.671 392.671 312.188C392.6 311.706 392.429 311.244 392.169 310.832C390.534 308.388 385.243 308.311 382.722 309.033C382.559 309.081 380.644 309.879 379.74 310.274L379.644 310.129C381.574 308.297 383.664 306.639 385.887 305.175C387.109 304.348 388.311 303.626 389.504 302.963C390.033 303.723 392.486 307.195 394.237 308.254C395.988 309.312 398.326 310.091 400.25 309.321C400.709 309.154 401.129 308.892 401.48 308.552C401.831 308.212 402.107 307.801 402.288 307.347C402.47 306.893 402.554 306.406 402.534 305.917C402.514 305.428 402.391 304.949 402.174 304.511C400.817 301.904 395.565 301.25 392.987 301.693C392.842 301.693 391.438 302.116 390.428 302.424L392.044 301.539C394.016 300.519 395.892 299.692 397.537 298.98C398.499 298.585 399.345 298.239 400.154 297.931C401.067 298.412 404.761 300.307 406.762 300.432C408.763 300.558 411.245 300.173 412.592 298.605C412.9 298.252 413.134 297.841 413.279 297.395C413.423 296.95 413.477 296.48 413.436 296.014C413.394 295.548 413.259 295.094 413.038 294.682C412.817 294.269 412.515 293.905 412.15 293.612Z" fill="white"/>
<path opacity="0.5" d="M344.579 276.44C345.974 278.268 350.543 280.644 350.553 280.644C350.562 280.644 351.207 277.162 351.217 276.931C351.37 274.314 350.12 269.177 347.369 268.119C346.909 267.956 346.42 267.891 345.934 267.93C345.448 267.968 344.975 268.109 344.546 268.342C344.118 268.575 343.744 268.896 343.448 269.284C343.151 269.671 342.94 270.117 342.828 270.591C342.289 272.583 343.434 274.891 344.579 276.44Z" fill="white"/>
</g>
<path d="M156.806 227.802C156.864 227.802 156.056 223.771 155.969 223.53C155.007 220.644 151.544 215.632 148.158 215.642C147.595 215.66 147.043 215.795 146.536 216.04C146.03 216.285 145.58 216.634 145.217 217.064C144.855 217.494 144.586 217.996 144.43 218.536C144.273 219.077 144.232 219.644 144.31 220.202C144.56 222.578 146.695 224.608 148.629 225.772C150.88 227.147 156.806 227.802 156.806 227.802Z" fill="#FFC10D"/>
<path d="M163.357 200.664C160.163 201.808 158.547 207.715 158.682 210.736C158.682 210.995 159.288 215.065 159.346 215.036H159.413C159.153 215.998 158.894 216.96 158.624 218.066C158.143 220.096 157.662 222.395 157.22 224.935C156.763 227.67 156.461 230.429 156.315 233.198C156.146 236.296 156.253 239.403 156.633 242.482C156.637 242.52 156.637 242.559 156.633 242.597C156.219 241.693 154.969 239.221 154.844 239.038C153.189 236.508 148.494 232.592 145.224 233.497C144.686 233.663 144.189 233.94 143.766 234.311C143.342 234.681 143.001 235.136 142.764 235.647C142.528 236.157 142.401 236.712 142.392 237.274C142.383 237.837 142.492 238.395 142.713 238.913C143.578 241.135 146.176 242.53 148.35 243.146C150.803 243.848 156.267 243.02 156.7 242.953C157.162 246.08 157.834 249.171 158.711 252.208C159.211 253.978 159.769 255.748 160.356 257.518C159.971 256.748 159.615 256.065 159.557 255.979C157.893 253.449 153.208 249.533 149.937 250.437C149.399 250.601 148.902 250.877 148.477 251.246C148.053 251.615 147.711 252.07 147.474 252.58C147.237 253.09 147.111 253.644 147.103 254.207C147.094 254.769 147.205 255.327 147.426 255.844C148.292 258.076 150.89 259.471 153.064 260.086C155.238 260.702 159.932 260.086 161.173 259.923C161.404 260.596 161.626 261.279 161.856 261.953C162.972 265.185 164.108 268.417 165.118 271.573C165.474 272.698 165.781 273.824 166.08 274.94C165.733 274.257 165.445 273.689 165.387 273.612C163.732 271.082 159.038 267.167 155.767 268.071C155.229 268.235 154.732 268.51 154.307 268.88C153.883 269.249 153.541 269.703 153.304 270.213C153.067 270.724 152.941 271.278 152.932 271.84C152.924 272.403 153.034 272.961 153.256 273.477C154.122 275.709 156.719 277.104 158.894 277.72C161.068 278.335 165.31 277.797 166.782 277.585C167.071 278.749 167.359 279.904 167.58 281.039C167.725 281.818 167.907 282.559 168.004 283.357C168.1 284.156 168.215 284.906 168.331 285.666C168.485 287.147 168.648 288.677 168.764 290.13C168.85 291.092 168.908 292.054 168.975 293.016C168.639 291.89 167.917 289.697 167.84 289.524C166.642 287.146 164.858 285.113 162.655 283.617C162.532 283.347 162.384 283.089 162.212 282.847C161.908 282.373 161.507 281.969 161.036 281.66C160.565 281.351 160.034 281.145 159.478 281.054C158.922 280.963 158.353 280.99 157.808 281.134C157.264 281.277 156.755 281.533 156.315 281.885C153.756 284.107 154.391 290.178 155.575 292.968C155.642 293.131 156.604 294.824 157.22 295.854C156.758 295.286 156.325 294.728 155.844 294.141C154.882 292.996 153.92 291.871 152.881 290.659L151.294 288.937C150.774 288.35 150.159 287.802 149.581 287.224C148.235 285.916 146.792 284.656 145.32 283.376C146.282 282.549 149.86 279.528 150.88 277.537C151.9 275.546 152.612 272.66 151.553 270.514C151.322 270.001 150.985 269.543 150.565 269.169C150.144 268.795 149.649 268.514 149.113 268.344C148.576 268.175 148.01 268.12 147.451 268.184C146.892 268.248 146.352 268.429 145.868 268.715C142.982 270.514 142.713 276.614 143.453 279.548C143.502 279.73 144.271 281.77 144.714 282.886C143.819 282.155 142.934 281.414 142.01 280.692C139.326 278.624 136.556 276.614 133.795 274.593C132.948 273.978 132.111 273.343 131.275 272.727C131.64 272.429 135.921 268.975 137.047 266.705C138.057 264.685 138.788 261.828 137.73 259.682C137.498 259.169 137.161 258.711 136.741 258.337C136.32 257.963 135.825 257.682 135.289 257.512C134.752 257.343 134.186 257.288 133.627 257.352C133.068 257.416 132.528 257.597 132.044 257.883C129.158 259.682 128.879 265.781 129.629 268.715C129.629 268.937 130.794 271.88 131.111 272.612C129.264 271.236 127.446 269.851 125.695 268.408C123.32 266.476 121.07 264.393 118.961 262.174C119.134 262.039 123.617 258.451 124.733 256.123C125.743 254.103 126.474 251.246 125.416 249.1C125.185 248.587 124.848 248.129 124.427 247.755C124.006 247.381 123.512 247.1 122.975 246.93C122.439 246.761 121.872 246.706 121.313 246.77C120.754 246.834 120.215 247.015 119.731 247.301C116.845 249.1 116.566 255.199 117.316 258.133C117.316 258.326 118.211 260.567 118.634 261.626L118.47 261.722C116.418 259.429 114.576 256.957 112.968 254.334C112.063 252.91 111.284 251.448 110.553 250.091C111.448 249.504 115.555 246.801 116.835 244.819C118.114 242.838 119.096 240.163 118.278 237.922C118.104 237.386 117.82 236.893 117.443 236.475C117.066 236.057 116.606 235.722 116.091 235.493C115.577 235.265 115.02 235.147 114.457 235.148C113.894 235.148 113.337 235.268 112.823 235.498C109.774 236.979 108.821 243.011 109.235 246.003C109.235 246.166 109.668 247.802 109.985 248.985C109.668 248.35 109.331 247.696 109.023 247.061C107.908 244.752 107.032 242.578 106.263 240.635C105.839 239.528 105.483 238.528 105.156 237.576C105.743 236.546 108.042 232.342 108.273 230.043C108.504 227.744 108.148 224.868 106.349 223.251C105.948 222.857 105.468 222.551 104.941 222.354C104.414 222.157 103.852 222.073 103.29 222.107C102.729 222.142 102.181 222.294 101.682 222.554C101.183 222.814 100.744 223.176 100.394 223.617C98.3741 226.33 100.308 232.131 102.059 234.593C102.203 234.805 104.945 237.874 104.945 237.816V237.749C105.243 238.711 105.57 239.673 105.907 240.712C106.628 242.636 107.465 244.877 108.533 247.215C109.653 249.75 110.922 252.217 112.333 254.603C113.904 257.282 115.707 259.819 117.72 262.184L117.797 262.26C116.95 261.741 114.545 260.336 114.343 260.279C111.563 259.086 105.493 258.412 103.261 260.962C102.904 261.397 102.642 261.903 102.493 262.446C102.344 262.989 102.31 263.557 102.394 264.114C102.479 264.671 102.679 265.204 102.982 265.678C103.286 266.153 103.686 266.558 104.156 266.868C106.08 268.244 109.043 267.975 111.188 267.292C113.622 266.522 117.72 262.818 118.047 262.482C120.143 264.831 122.393 267.039 124.781 269.091C126.176 270.293 127.619 271.467 129.081 272.612L127.571 271.765C124.791 270.572 118.72 269.899 116.489 272.458C116.131 272.892 115.869 273.396 115.719 273.938C115.569 274.48 115.535 275.047 115.618 275.603C115.702 276.159 115.901 276.692 116.203 277.166C116.506 277.64 116.905 278.045 117.374 278.355C119.298 279.74 122.261 279.461 124.415 278.778C126.57 278.095 130.187 275.007 131.092 274.17L132.785 275.488C135.507 277.566 138.23 279.634 140.837 281.741C141.751 282.482 142.626 283.251 143.511 284.011C142.847 283.636 142.289 283.319 142.193 283.28C139.423 282.087 133.343 281.414 131.121 283.963C130.763 284.398 130.501 284.903 130.351 285.446C130.201 285.988 130.166 286.557 130.25 287.113C130.333 287.67 130.532 288.203 130.835 288.678C131.137 289.153 131.536 289.559 132.006 289.87C133.93 291.246 136.893 290.976 139.047 290.293C141.202 289.61 144.444 286.811 145.551 285.829C146.436 286.638 147.311 287.446 148.129 288.273C148.677 288.841 149.235 289.36 149.755 289.966L151.303 291.717C152.265 292.871 153.227 294.055 154.122 295.199C154.747 295.988 155.334 296.758 155.921 297.527C155.017 296.777 153.208 295.344 153.035 295.247C150.466 293.641 144.569 292.054 141.982 294.285C141.562 294.661 141.227 295.12 140.997 295.634C140.767 296.148 140.648 296.705 140.648 297.268C140.648 297.831 140.767 298.387 140.997 298.901C141.227 299.415 141.562 299.874 141.982 300.25C143.704 301.914 146.647 302.087 148.879 301.741C151.332 301.356 155.786 298.451 156.335 298.085C157.297 299.365 158.259 300.615 159.096 301.818C162.097 305.954 164.435 309.514 166.032 312.025L166.195 312.284L168.263 311.274L167.936 310.784C166.262 308.283 163.829 304.733 160.712 300.625C159.75 299.317 158.663 297.951 157.547 296.556C158.692 295.29 159.765 293.96 160.76 292.573C163.136 293.535 168.1 293.535 168.735 293.535C168.841 295.142 168.927 296.7 168.985 298.172C169.197 303.271 169.187 307.532 169.129 310.514V310.861L171.4 309.754C171.4 306.791 171.294 302.799 170.986 298.066C170.89 296.44 170.755 294.699 170.591 292.919C171.226 292.765 176.363 291.438 178.287 289.889C180.048 288.475 181.905 286.185 181.847 283.8C181.851 283.236 181.737 282.678 181.511 282.162C181.285 281.646 180.953 281.183 180.536 280.804C180.12 280.424 179.628 280.137 179.093 279.96C178.558 279.784 177.992 279.722 177.431 279.778C174.074 280.211 171.255 285.627 170.697 288.61C170.697 288.783 170.524 290.726 170.447 291.948C170.38 291.226 170.322 290.514 170.245 289.764C170.091 288.292 169.899 286.811 169.697 285.233L169.322 282.915C169.216 282.145 169.004 281.347 168.841 280.548C168.437 278.701 167.936 276.864 167.388 275.007C168.677 274.882 173.275 274.334 175.248 273.208C177.22 272.082 179.384 270.101 179.682 267.725C179.772 267.169 179.744 266.601 179.599 266.057C179.455 265.513 179.197 265.005 178.843 264.568C178.489 264.13 178.046 263.772 177.545 263.517C177.043 263.262 176.493 263.116 175.931 263.088C172.544 263.001 168.937 267.898 167.946 270.784C167.879 270.957 167.398 273.093 167.147 274.266C166.811 273.16 166.484 272.054 166.109 270.938C165.012 267.734 163.809 264.531 162.616 261.318L161.549 258.374C162.01 258.326 167.494 257.806 169.697 256.537C171.621 255.411 173.833 253.429 174.132 251.063C174.222 250.507 174.193 249.938 174.049 249.393C173.904 248.849 173.647 248.341 173.293 247.902C172.939 247.464 172.496 247.105 171.994 246.849C171.493 246.593 170.942 246.446 170.38 246.416C166.994 246.339 163.386 251.226 162.395 254.112C162.318 254.334 161.626 257.393 161.481 258.182C160.702 256.017 159.942 253.853 159.288 251.688C158.375 248.773 157.655 245.8 157.133 242.79C157.345 242.79 163.069 242.251 165.329 240.952C167.253 239.827 169.466 237.845 169.764 235.469C169.853 234.913 169.823 234.345 169.678 233.802C169.533 233.259 169.275 232.752 168.921 232.315C168.567 231.877 168.125 231.519 167.624 231.264C167.123 231.009 166.574 230.861 166.012 230.832C162.626 230.745 159.019 235.642 158.028 238.528C157.96 238.72 157.431 241.048 157.2 242.164H157.008C156.567 239.12 156.396 236.042 156.498 232.968C156.498 231.274 156.662 229.658 156.816 228.09C157.893 228.09 162.809 228.09 164.964 227.128C167.119 226.166 169.427 224.502 169.985 222.174C170.136 221.631 170.17 221.063 170.086 220.506C170.002 219.949 169.801 219.416 169.497 218.942C169.193 218.468 168.792 218.064 168.321 217.755C167.85 217.447 167.319 217.241 166.763 217.152C163.405 216.691 159.278 221.202 157.98 223.886C157.903 224.04 157.354 225.627 156.96 226.772C157.046 226.06 157.123 225.329 157.21 224.656C157.556 222.116 158.028 219.846 158.461 217.778C158.72 216.623 158.97 215.584 159.221 214.613C160.279 214.074 164.531 211.852 165.955 210.043C167.378 208.235 168.696 205.656 168.119 203.309C167.804 202.35 167.139 201.545 166.256 201.054C165.373 200.564 164.338 200.424 163.357 200.664Z" fill="#FFC10D"/>
<path d="M102.116 252.881C104.762 252.775 110.053 250.062 110.062 250.062C110.072 250.062 107.176 247.119 107.003 246.955C104.637 245.031 98.9609 242.818 96.1423 244.685C95.681 245.008 95.2933 245.425 95.0043 245.909C94.7154 246.392 94.5318 246.931 94.4655 247.491C94.3992 248.05 94.4517 248.617 94.6197 249.155C94.7876 249.692 95.0671 250.188 95.44 250.611C96.96 252.467 99.8556 253.006 102.116 252.881Z" fill="#FFC10D"/>
<g opacity="0.5">
<path opacity="0.5" d="M156.806 227.802C156.864 227.802 156.056 223.771 155.969 223.53C155.007 220.644 151.544 215.632 148.158 215.642C147.595 215.66 147.043 215.795 146.536 216.04C146.03 216.285 145.58 216.634 145.217 217.064C144.855 217.494 144.586 217.996 144.43 218.536C144.273 219.077 144.232 219.644 144.31 220.202C144.56 222.578 146.695 224.608 148.629 225.772C150.88 227.147 156.806 227.802 156.806 227.802Z" fill="white"/>
<path opacity="0.5" d="M163.357 200.664C160.163 201.808 158.547 207.715 158.682 210.736C158.682 210.995 159.288 215.065 159.346 215.036H159.413C159.153 215.998 158.894 216.96 158.624 218.066C158.143 220.096 157.662 222.395 157.22 224.935C156.763 227.67 156.461 230.429 156.315 233.198C156.146 236.296 156.253 239.403 156.633 242.482C156.637 242.52 156.637 242.559 156.633 242.597C156.219 241.693 154.969 239.221 154.844 239.038C153.189 236.508 148.494 232.592 145.224 233.497C144.686 233.663 144.189 233.94 143.766 234.311C143.342 234.681 143.001 235.136 142.764 235.647C142.528 236.157 142.401 236.712 142.392 237.274C142.383 237.837 142.492 238.395 142.713 238.913C143.578 241.135 146.176 242.53 148.35 243.146C150.803 243.848 156.267 243.02 156.7 242.953C157.162 246.08 157.834 249.171 158.711 252.208C159.211 253.978 159.769 255.748 160.356 257.518C159.971 256.748 159.615 256.065 159.557 255.979C157.893 253.449 153.208 249.533 149.937 250.437C149.399 250.601 148.902 250.877 148.477 251.246C148.053 251.615 147.711 252.07 147.474 252.58C147.237 253.09 147.111 253.644 147.103 254.207C147.094 254.769 147.205 255.327 147.426 255.844C148.292 258.076 150.89 259.471 153.064 260.086C155.238 260.702 159.932 260.086 161.173 259.923C161.404 260.596 161.626 261.279 161.856 261.953C162.972 265.185 164.108 268.417 165.118 271.573C165.474 272.698 165.781 273.824 166.08 274.94C165.733 274.257 165.445 273.689 165.387 273.612C163.732 271.082 159.038 267.167 155.767 268.071C155.229 268.235 154.732 268.51 154.307 268.88C153.883 269.249 153.541 269.703 153.304 270.213C153.067 270.724 152.941 271.278 152.932 271.84C152.924 272.403 153.034 272.961 153.256 273.477C154.122 275.709 156.719 277.104 158.894 277.72C161.068 278.335 165.31 277.797 166.782 277.585C167.071 278.749 167.359 279.904 167.58 281.039C167.725 281.818 167.907 282.559 168.004 283.357C168.1 284.156 168.215 284.906 168.331 285.666C168.485 287.147 168.648 288.677 168.764 290.13C168.85 291.092 168.908 292.054 168.975 293.016C168.639 291.89 167.917 289.697 167.84 289.524C166.642 287.146 164.858 285.113 162.655 283.617C162.532 283.347 162.384 283.089 162.212 282.847C161.908 282.373 161.507 281.969 161.036 281.66C160.565 281.351 160.034 281.145 159.478 281.054C158.922 280.963 158.353 280.99 157.808 281.134C157.264 281.277 156.755 281.533 156.315 281.885C153.756 284.107 154.391 290.178 155.575 292.968C155.642 293.131 156.604 294.824 157.22 295.854C156.758 295.286 156.325 294.728 155.844 294.141C154.882 292.996 153.92 291.871 152.881 290.659L151.294 288.937C150.774 288.35 150.159 287.802 149.581 287.224C148.235 285.916 146.792 284.656 145.32 283.376C146.282 282.549 149.86 279.528 150.88 277.537C151.9 275.546 152.612 272.66 151.553 270.514C151.322 270.001 150.985 269.543 150.565 269.169C150.144 268.795 149.649 268.514 149.113 268.344C148.576 268.175 148.01 268.12 147.451 268.184C146.892 268.248 146.352 268.429 145.868 268.715C142.982 270.514 142.713 276.614 143.453 279.548C143.502 279.73 144.271 281.77 144.714 282.886C143.819 282.155 142.934 281.414 142.01 280.692C139.326 278.624 136.556 276.614 133.795 274.593C132.948 273.978 132.111 273.343 131.275 272.727C131.64 272.429 135.921 268.975 137.047 266.705C138.057 264.685 138.788 261.828 137.73 259.682C137.498 259.169 137.161 258.711 136.741 258.337C136.32 257.963 135.825 257.682 135.289 257.512C134.752 257.343 134.186 257.288 133.627 257.352C133.068 257.416 132.528 257.597 132.044 257.883C129.158 259.682 128.879 265.781 129.629 268.715C129.629 268.937 130.794 271.88 131.111 272.612C129.264 271.236 127.446 269.851 125.695 268.408C123.32 266.476 121.07 264.393 118.961 262.174C119.134 262.039 123.617 258.451 124.733 256.123C125.743 254.103 126.474 251.246 125.416 249.1C125.185 248.587 124.848 248.129 124.427 247.755C124.006 247.381 123.512 247.1 122.975 246.93C122.439 246.761 121.872 246.706 121.313 246.77C120.754 246.834 120.215 247.015 119.731 247.301C116.845 249.1 116.566 255.199 117.316 258.133C117.316 258.326 118.211 260.567 118.634 261.626L118.47 261.722C116.418 259.429 114.576 256.957 112.968 254.334C112.063 252.91 111.284 251.448 110.553 250.091C111.448 249.504 115.555 246.801 116.835 244.819C118.114 242.838 119.096 240.163 118.278 237.922C118.104 237.386 117.82 236.893 117.443 236.475C117.066 236.057 116.606 235.722 116.091 235.493C115.577 235.265 115.02 235.147 114.457 235.148C113.894 235.148 113.337 235.268 112.823 235.498C109.774 236.979 108.821 243.011 109.235 246.003C109.235 246.166 109.668 247.802 109.985 248.985C109.668 248.35 109.331 247.696 109.023 247.061C107.908 244.752 107.032 242.578 106.263 240.635C105.839 239.528 105.483 238.528 105.156 237.576C105.743 236.546 108.042 232.342 108.273 230.043C108.504 227.744 108.148 224.868 106.349 223.251C105.948 222.857 105.468 222.551 104.941 222.354C104.414 222.157 103.852 222.073 103.29 222.107C102.729 222.142 102.181 222.294 101.682 222.554C101.183 222.814 100.744 223.176 100.394 223.617C98.3741 226.33 100.308 232.131 102.059 234.593C102.203 234.805 104.945 237.874 104.945 237.816V237.749C105.243 238.711 105.57 239.673 105.907 240.712C106.628 242.636 107.465 244.877 108.533 247.215C109.653 249.75 110.922 252.217 112.333 254.603C113.904 257.282 115.707 259.819 117.72 262.184L117.797 262.26C116.95 261.741 114.545 260.336 114.343 260.279C111.563 259.086 105.493 258.412 103.261 260.962C102.904 261.397 102.642 261.903 102.493 262.446C102.344 262.989 102.31 263.557 102.394 264.114C102.479 264.671 102.679 265.204 102.982 265.678C103.286 266.153 103.686 266.558 104.156 266.868C106.08 268.244 109.043 267.975 111.188 267.292C113.622 266.522 117.72 262.818 118.047 262.482C120.143 264.831 122.393 267.039 124.781 269.091C126.176 270.293 127.619 271.467 129.081 272.612L127.571 271.765C124.791 270.572 118.72 269.899 116.489 272.458C116.131 272.892 115.869 273.396 115.719 273.938C115.569 274.48 115.535 275.047 115.618 275.603C115.702 276.159 115.901 276.692 116.203 277.166C116.506 277.64 116.905 278.045 117.374 278.355C119.298 279.74 122.261 279.461 124.415 278.778C126.57 278.095 130.187 275.007 131.092 274.17L132.785 275.488C135.507 277.566 138.23 279.634 140.837 281.741C141.751 282.482 142.626 283.251 143.511 284.011C142.847 283.636 142.289 283.319 142.193 283.28C139.423 282.087 133.343 281.414 131.121 283.963C130.763 284.398 130.501 284.903 130.351 285.446C130.201 285.988 130.166 286.557 130.25 287.113C130.333 287.67 130.532 288.203 130.835 288.678C131.137 289.153 131.536 289.559 132.006 289.87C133.93 291.246 136.893 290.976 139.047 290.293C141.202 289.61 144.444 286.811 145.551 285.829C146.436 286.638 147.311 287.446 148.129 288.273C148.677 288.841 149.235 289.36 149.755 289.966L151.303 291.717C152.265 292.871 153.227 294.055 154.122 295.199C154.747 295.988 155.334 296.758 155.921 297.527C155.017 296.777 153.208 295.344 153.035 295.247C150.466 293.641 144.569 292.054 141.982 294.285C141.562 294.661 141.227 295.12 140.997 295.634C140.767 296.148 140.648 296.705 140.648 297.268C140.648 297.831 140.767 298.387 140.997 298.901C141.227 299.415 141.562 299.874 141.982 300.25C143.704 301.914 146.647 302.087 148.879 301.741C151.332 301.356 155.786 298.451 156.335 298.085C157.297 299.365 158.259 300.615 159.096 301.818C162.097 305.954 164.435 309.514 166.032 312.025L166.195 312.284L168.263 311.274L167.936 310.784C166.262 308.283 163.829 304.733 160.712 300.625C159.75 299.317 158.663 297.951 157.547 296.556C158.692 295.29 159.765 293.96 160.76 292.573C163.136 293.535 168.1 293.535 168.735 293.535C168.841 295.142 168.927 296.7 168.985 298.172C169.197 303.271 169.187 307.532 169.129 310.514V310.861L171.4 309.754C171.4 306.791 171.294 302.799 170.986 298.066C170.89 296.44 170.755 294.699 170.591 292.919C171.226 292.765 176.363 291.438 178.287 289.889C180.048 288.475 181.905 286.185 181.847 283.8C181.851 283.236 181.737 282.678 181.511 282.162C181.285 281.646 180.953 281.183 180.536 280.804C180.12 280.424 179.628 280.137 179.093 279.96C178.558 279.784 177.992 279.722 177.431 279.778C174.074 280.211 171.255 285.627 170.697 288.61C170.697 288.783 170.524 290.726 170.447 291.948C170.38 291.226 170.322 290.514 170.245 289.764C170.091 288.292 169.899 286.811 169.697 285.233L169.322 282.915C169.216 282.145 169.004 281.347 168.841 280.548C168.437 278.701 167.936 276.864 167.388 275.007C168.677 274.882 173.275 274.334 175.248 273.208C177.22 272.082 179.384 270.101 179.682 267.725C179.772 267.169 179.744 266.601 179.599 266.057C179.455 265.513 179.197 265.005 178.843 264.568C178.489 264.13 178.046 263.772 177.545 263.517C177.043 263.262 176.493 263.116 175.931 263.088C172.544 263.001 168.937 267.898 167.946 270.784C167.879 270.957 167.398 273.093 167.147 274.266C166.811 273.16 166.484 272.054 166.109 270.938C165.012 267.734 163.809 264.531 162.616 261.318L161.549 258.374C162.01 258.326 167.494 257.806 169.697 256.537C171.621 255.411 173.833 253.429 174.132 251.063C174.222 250.507 174.193 249.938 174.049 249.393C173.904 248.849 173.647 248.341 173.293 247.902C172.939 247.464 172.496 247.105 171.994 246.849C171.493 246.593 170.942 246.446 170.38 246.416C166.994 246.339 163.386 251.226 162.395 254.112C162.318 254.334 161.626 257.393 161.481 258.182C160.702 256.017 159.942 253.853 159.288 251.688C158.375 248.773 157.655 245.8 157.133 242.79C157.345 242.79 163.069 242.251 165.329 240.952C167.253 239.827 169.466 237.845 169.764 235.469C169.853 234.913 169.823 234.345 169.678 233.802C169.533 233.259 169.275 232.752 168.921 232.315C168.567 231.877 168.125 231.519 167.624 231.264C167.123 231.009 166.574 230.861 166.012 230.832C162.626 230.745 159.019 235.642 158.028 238.528C157.96 238.72 157.431 241.048 157.2 242.164H157.008C156.567 239.12 156.396 236.042 156.498 232.968C156.498 231.274 156.662 229.658 156.816 228.09C157.893 228.09 162.809 228.09 164.964 227.128C167.119 226.166 169.427 224.502 169.985 222.174C170.136 221.631 170.17 221.063 170.086 220.506C170.002 219.949 169.801 219.416 169.497 218.942C169.193 218.468 168.792 218.064 168.321 217.755C167.85 217.447 167.319 217.241 166.763 217.152C163.405 216.691 159.278 221.202 157.98 223.886C157.903 224.04 157.354 225.627 156.96 226.772C157.046 226.06 157.123 225.329 157.21 224.656C157.556 222.116 158.028 219.846 158.461 217.778C158.72 216.623 158.97 215.584 159.221 214.613C160.279 214.074 164.531 211.852 165.955 210.043C167.378 208.235 168.696 205.656 168.119 203.309C167.804 202.35 167.139 201.545 166.256 201.054C165.373 200.564 164.338 200.424 163.357 200.664Z" fill="white"/>
<path opacity="0.5" d="M102.116 252.881C104.762 252.775 110.053 250.062 110.062 250.062C110.072 250.062 107.176 247.119 107.003 246.955C104.637 245.031 98.9609 242.818 96.1423 244.685C95.681 245.008 95.2933 245.425 95.0043 245.909C94.7154 246.392 94.5318 246.931 94.4655 247.491C94.3992 248.05 94.4517 248.617 94.6197 249.155C94.7876 249.692 95.0671 250.188 95.44 250.611C96.96 252.467 99.8556 253.006 102.116 252.881Z" fill="white"/>
</g>
<path d="M134.449 325.531C134.449 325.531 150.515 286.811 159.509 288.494C168.504 290.178 144.117 350.226 144.117 350.226C144.117 350.226 172.381 296.912 191.659 296.912C210.938 296.912 184.589 355.834 160.183 375.478C160.183 375.478 198.72 333.949 221.202 342.934C243.684 351.919 176.238 393.997 176.238 393.997C176.238 393.997 215.421 381.654 210.928 391.197C206.436 400.74 194.228 402.414 194.228 402.414L238.547 404.665H84.3481L119.038 401.298C119.038 401.298 83.0591 383.338 92.6983 376.046C102.338 368.754 123.53 384.463 123.53 384.463C123.53 384.463 86.9167 344.059 93.9778 328.898C101.039 313.737 132.525 356.402 132.525 356.402C132.525 356.402 106.83 301.962 111.967 292.448C117.104 282.934 134.449 325.531 134.449 325.531Z" fill="#FFC10D"/>
<path opacity="0.5" d="M134.449 325.531C134.449 325.531 150.515 286.811 159.509 288.494C168.504 290.178 144.117 350.226 144.117 350.226C144.117 350.226 172.381 296.912 191.659 296.912C210.938 296.912 184.589 355.834 160.183 375.478C160.183 375.478 198.72 333.949 221.202 342.934C243.684 351.919 176.238 393.997 176.238 393.997C176.238 393.997 215.421 381.654 210.928 391.197C206.436 400.74 194.228 402.414 194.228 402.414L238.547 404.665H84.3481L119.038 401.298C119.038 401.298 83.0591 383.338 92.6983 376.046C102.338 368.754 123.53 384.463 123.53 384.463C123.53 384.463 86.9167 344.059 93.9778 328.898C101.039 313.737 132.525 356.402 132.525 356.402C132.525 356.402 106.83 301.962 111.967 292.448C117.104 282.934 134.449 325.531 134.449 325.531Z" fill="white"/>
<path d="M129.312 327.571C143.444 369.331 143.444 398.884 143.444 398.884C143.444 398.884 126.743 399.519 109.399 386.676" stroke="#263238" stroke-linecap="round" stroke-linejoin="round"/>
<path d="M136.383 350.062C139.288 337.577 143.147 325.333 147.927 313.439" stroke="#263238" stroke-linecap="round" stroke-linejoin="round"/>
<path d="M178.134 325.647L142.164 378.97C142.164 378.97 117.749 358.412 109.399 346.849" stroke="#263238" stroke-linecap="round" stroke-linejoin="round"/>
<path d="M142.809 391.813C142.809 391.813 180.702 373.824 196.123 363.55" stroke="#263238" stroke-linecap="round" stroke-linejoin="round"/>
<path d="M341.693 325.531C341.693 325.531 325.637 286.811 316.681 288.494C307.725 290.178 332.073 350.226 332.073 350.226C332.073 350.226 303.809 296.912 284.54 296.912C265.272 296.912 291.601 355.834 316.017 375.478C316.017 375.478 277.47 333.949 254.988 342.934C232.506 351.919 299.961 393.997 299.961 393.997C299.961 393.997 260.769 381.654 265.272 391.197C269.774 400.74 281.972 402.414 281.972 402.414L237.614 404.665H391.803L357.114 401.298C357.114 401.298 393.083 383.338 383.453 376.046C373.824 368.754 352.611 384.463 352.611 384.463C352.611 384.463 389.235 344.059 382.164 328.898C375.093 313.737 343.617 356.402 343.617 356.402C343.617 356.402 369.321 301.962 364.175 292.419C359.028 282.876 341.693 325.531 341.693 325.531Z" fill="#FFC10D"/>
<path opacity="0.5" d="M341.693 325.531C341.693 325.531 325.637 286.811 316.681 288.494C307.725 290.178 332.073 350.226 332.073 350.226C332.073 350.226 303.809 296.912 284.54 296.912C265.272 296.912 291.601 355.834 316.017 375.478C316.017 375.478 277.47 333.949 254.988 342.934C232.506 351.919 299.961 393.997 299.961 393.997C299.961 393.997 260.769 381.654 265.272 391.197C269.774 400.74 281.972 402.414 281.972 402.414L237.614 404.665H391.803L357.114 401.298C357.114 401.298 393.083 383.338 383.453 376.046C373.824 368.754 352.611 384.463 352.611 384.463C352.611 384.463 389.235 344.059 382.164 328.898C375.093 313.737 343.617 356.402 343.617 356.402C343.617 356.402 369.321 301.962 364.175 292.419C359.028 282.876 341.693 325.531 341.693 325.531Z" fill="white"/>
<path d="M346.83 327.571C332.698 369.331 332.698 398.884 332.698 398.884C332.698 398.884 349.398 399.519 366.743 386.676" stroke="#263238" stroke-linecap="round" stroke-linejoin="round"/>
<path d="M339.769 350.062C336.864 337.577 333.004 325.333 328.225 313.439" stroke="#263238" stroke-linecap="round" stroke-linejoin="round"/>
<path d="M298.008 325.647L333.987 378.97C333.987 378.97 358.393 358.412 366.743 346.849" stroke="#263238" stroke-linecap="round" stroke-linejoin="round"/>
<path d="M333.343 391.813C333.343 391.813 295.44 373.824 280.019 363.55" stroke="#263238" stroke-linecap="round" stroke-linejoin="round"/>
<path d="M315.757 116.883H167.224C163.638 116.883 160.731 119.79 160.731 123.376V401.481C160.731 405.067 163.638 407.975 167.224 407.975H315.757C319.344 407.975 322.251 405.067 322.251 401.481V123.376C322.251 119.79 319.344 116.883 315.757 116.883Z" fill="#263238" stroke="#263238" stroke-miterlimit="10"/>
<path d="M252.66 134.276H232.554C232.282 134.276 232.013 134.222 231.762 134.118C231.511 134.015 231.283 133.862 231.091 133.67C230.899 133.478 230.747 133.25 230.643 132.999C230.539 132.748 230.486 132.479 230.486 132.208C230.486 131.936 230.539 131.668 230.643 131.418C230.747 131.167 230.9 130.94 231.092 130.749C231.284 130.557 231.512 130.406 231.763 130.303C232.014 130.2 232.283 130.148 232.554 130.149H252.66C253.206 130.149 253.729 130.366 254.115 130.752C254.501 131.138 254.718 131.662 254.718 132.208C254.72 132.479 254.667 132.748 254.564 132.998C254.462 133.249 254.31 133.477 254.119 133.67C253.927 133.862 253.7 134.014 253.45 134.118C253.199 134.222 252.931 134.276 252.66 134.276Z" fill="#FFC10D"/>
<path d="M312.044 381.962H170.938V134.516H204.387L208.148 137.633C209.459 138.73 211.114 139.329 212.823 139.326H271.832C273.604 139.317 275.312 138.668 276.642 137.499L280.038 134.516H312.015L312.044 381.962Z" fill="white" stroke="#263238" stroke-width="0.938618" stroke-linecap="round" stroke-linejoin="round"/>
<path d="M227.292 152.756L225.368 146.291H177.345V152.756V368.821V375.296H306.07V152.756H227.292Z" fill="#FFC10D"/>
<path d="M301.539 164.406H181.866V368.177H301.539V164.406Z" fill="white"/>
<path d="M246.003 389.61C246.005 388.974 245.818 388.352 245.466 387.822C245.114 387.293 244.613 386.879 244.026 386.635C243.439 386.39 242.793 386.325 242.169 386.448C241.545 386.571 240.971 386.876 240.521 387.325C240.071 387.774 239.764 388.346 239.639 388.97C239.514 389.593 239.577 390.24 239.82 390.828C240.063 391.415 240.475 391.918 241.003 392.271C241.532 392.625 242.154 392.813 242.79 392.813C243.639 392.811 244.454 392.473 245.055 391.873C245.657 391.273 245.998 390.46 246.003 389.61Z" fill="#FFC10D"/>
<path d="M232.717 359.278C254.479 359.278 272.121 334.177 272.121 303.213C272.121 272.249 254.479 247.147 232.717 247.147C210.955 247.147 193.314 272.249 193.314 303.213C193.314 334.177 210.955 359.278 232.717 359.278Z" fill="#FFC10D"/>
<path opacity="0.5" d="M232.717 359.278C254.479 359.278 272.121 334.177 272.121 303.213C272.121 272.249 254.479 247.147 232.717 247.147C210.955 247.147 193.314 272.249 193.314 303.213C193.314 334.177 210.955 359.278 232.717 359.278Z" fill="white"/>
<path d="M238.307 240.635C238.307 240.635 235.844 236.517 233.583 236.315C231.323 236.113 204.406 253.006 200.288 261.799C196.171 270.591 192.275 288.234 203.174 305.214C213.804 321.731 230.466 321.183 239.105 320.356C247.744 319.528 253.535 316.719 262.289 309.697C271.044 302.674 279.076 292.332 280.24 285.31C281.404 278.287 277.123 274.382 274.391 273.41C271.659 272.438 255.854 272.631 244.338 260.904C232.823 249.177 238.307 240.635 238.307 240.635Z" fill="#263238" stroke="#263238" stroke-linecap="round" stroke-linejoin="round"/>
<path d="M241.799 235.286C241.799 235.286 234.815 237.96 230.495 242.684C226.176 247.407 223.511 254.815 223.309 265.704C223.107 276.594 226.599 288.917 240.154 294.266C253.708 299.615 265.839 295.497 269.745 291.794C273.65 288.09 278.403 277.624 278.403 277.624C278.403 277.624 256.835 283.396 246.561 271.245C236.286 259.095 241.799 235.286 241.799 235.286Z" fill="white" stroke="#263238" stroke-linecap="round" stroke-linejoin="round"/>
<path d="M362.51 242.876C357.239 234.968 344.656 232.631 334.709 229.408C324.762 226.185 318.903 219.788 321.539 203.954C324.175 188.119 337.893 162.395 337.633 157.71C337.373 153.025 290.226 153.323 285.829 154.824C281.433 156.325 280.567 155.988 276.469 161.26C274.198 164.107 272.143 167.12 270.322 170.274L275.401 159.596H275.777C276.328 158.192 277.112 156.892 278.095 155.748C282.565 150.562 285.098 143.987 285.262 137.143C285.454 127.07 278.287 128.042 276.931 131.14C275.574 134.237 267.638 144.896 265.31 147.802C262.982 150.707 258.143 158.653 258.143 158.653L252.765 177.297C252.765 177.297 251.592 182.857 244.858 203.934C238.124 225.012 241.058 234.728 241.058 234.728C241.058 234.728 239.297 233.853 235.199 246.435C231.101 259.018 232.862 275.113 240.173 282.722C247.484 290.332 257.152 290.043 267.984 285.656C274.648 282.801 280.197 277.85 283.79 271.553C283.79 271.553 295.209 268.667 303.694 262.193C312.179 255.719 318.614 249.023 330.928 249.61C343.242 250.197 357.268 257.219 361.952 256.921C366.637 256.623 367.782 250.774 362.51 242.876Z" fill="white"/>
<path d="M287.022 215.488C254.459 220.346 244.223 228.119 247.475 238.816C248.149 240.938 249.245 242.901 250.697 244.588C250.697 244.79 250.697 245.012 250.755 245.243C250.755 245.243 251.332 245.589 252.198 246.205C253.338 247.306 254.571 248.307 255.882 249.196C258.018 251.226 259.932 253.766 259.538 256.123C258.701 261.144 247.032 269.918 241.135 270.341C235.238 270.764 233.189 264.906 232.352 271.178C231.515 277.45 244.483 292.919 257.027 291.245C269.572 289.572 280.029 272.005 280.029 272.005C280.029 272.005 278.355 269.119 286.763 260.298C292.284 254.526 300.182 251.977 306.233 249.61C311.946 247.93 317.515 245.794 322.886 243.222C337.768 235.93 355.449 240.798 355.449 240.798C355.449 240.798 319.586 210.572 287.022 215.488Z" fill="#FFC10D"/>
<path opacity="0.5" d="M287.022 215.488C254.459 220.346 244.223 228.119 247.475 238.816C248.149 240.938 249.245 242.901 250.697 244.588C250.697 244.79 250.697 245.012 250.755 245.243C250.755 245.243 251.332 245.589 252.198 246.205C253.338 247.306 254.571 248.307 255.882 249.196C258.018 251.226 259.932 253.766 259.538 256.123C258.701 261.144 247.032 269.918 241.135 270.341C235.238 270.764 233.189 264.906 232.352 271.178C231.515 277.45 244.483 292.919 257.027 291.245C269.572 289.572 280.029 272.005 280.029 272.005C280.029 272.005 278.355 269.119 286.763 260.298C292.284 254.526 300.182 251.977 306.233 249.61C311.946 247.93 317.515 245.794 322.886 243.222C337.768 235.93 355.449 240.798 355.449 240.798C355.449 240.798 319.586 210.572 287.022 215.488Z" fill="white"/>
<path d="M362.51 242.876C357.239 234.968 344.656 232.631 334.709 229.408C324.762 226.185 318.903 219.788 321.539 203.954C324.175 188.119 337.893 162.395 337.633 157.71C337.373 153.025 290.226 153.323 285.829 154.824C281.433 156.325 280.567 155.988 276.469 161.26C274.198 164.107 272.143 167.12 270.322 170.274L275.401 159.596H275.777C276.328 158.192 277.112 156.892 278.095 155.748C282.565 150.562 285.098 143.987 285.262 137.143C285.454 127.07 278.287 128.042 276.931 131.14C275.574 134.237 267.638 144.896 265.31 147.802C262.982 150.707 258.143 158.653 258.143 158.653L252.765 177.297C252.765 177.297 251.592 182.857 244.858 203.934C238.124 225.012 241.058 234.728 241.058 234.728C241.058 234.728 239.297 233.853 235.199 246.435C231.101 259.018 232.862 275.113 240.173 282.722C247.484 290.332 257.152 290.043 267.984 285.656C274.648 282.801 280.197 277.85 283.79 271.553C283.79 271.553 295.209 268.667 303.694 262.193C312.179 255.719 318.614 249.023 330.928 249.61C343.242 250.197 357.268 257.219 361.952 256.921C366.637 256.623 367.782 250.774 362.51 242.876Z" stroke="#263238" stroke-linecap="round" stroke-linejoin="round"/>
<path d="M362.674 256.854C362.674 256.854 363.29 254.391 356.306 251.082C349.321 247.773 346.445 250.053 346.445 251.698C346.445 253.343 361.597 256.854 362.674 256.854Z" fill="white" stroke="#263238" stroke-linecap="round" stroke-linejoin="round"/>
<path d="M296.498 144.136L278.874 157.701H302.51C302.51 157.701 302.51 141.039 296.498 144.136Z" fill="white" stroke="#263238" stroke-linecap="round" stroke-linejoin="round"/>
<path d="M274.391 241.972C276.894 239.143 280.015 236.928 283.511 235.497" stroke="#263238" stroke-linecap="round" stroke-linejoin="round"/>
<path d="M271.188 247.234C271.458 246.452 271.809 245.701 272.236 244.992" stroke="#263238" stroke-linecap="round" stroke-linejoin="round"/>
<path d="M264.165 265.512C263.223 264.682 262.342 263.785 261.529 262.828" stroke="#263238" stroke-linecap="round" stroke-linejoin="round"/>
<path d="M283.79 271.553C278.355 272.172 272.863 271.046 268.109 268.34" stroke="#263238" stroke-linecap="round" stroke-linejoin="round"/>
<path d="M349.687 156.536H260.875C248.61 156.536 238.672 166.031 238.672 177.701V219.548C238.672 229.725 246.185 238.23 256.209 240.279L251.525 254.141L273.208 240.788H349.687C361.943 240.788 371.89 231.294 371.89 219.624V177.777C371.89 166.031 361.943 156.536 349.687 156.536Z" fill="#FFC10D" stroke="#263238" stroke-width="2" stroke-miterlimit="10"/>
<path d="M253.131 184.714H352.967" stroke="#263238" stroke-width="2.06409" stroke-miterlimit="10" stroke-linecap="round"/>
<path d="M253.131 194.997H352.967" stroke="#263238" stroke-width="2.06409" stroke-miterlimit="10" stroke-linecap="round"/>
<path d="M253.131 205.271H352.967" stroke="#263238" stroke-width="2.06409" stroke-miterlimit="10" stroke-linecap="round"/>
<path d="M253.131 215.546H352.967" stroke="#263238" stroke-width="2.06409" stroke-miterlimit="10" stroke-linecap="round"/>
<path d="M323.578 150.341C323.578 150.341 323.973 158.085 330.947 161.77C337.922 165.454 346.83 164.656 347.022 160.029C347.215 155.401 341.789 150.534 338.114 144.329C334.439 138.124 326.291 141.626 322.809 145.887" fill="white"/>
<path d="M323.578 150.341C323.578 150.341 323.973 158.085 330.947 161.77C337.922 165.454 346.83 164.656 347.022 160.029C347.215 155.401 341.789 150.534 338.114 144.329C334.439 138.124 326.291 141.626 322.809 145.887" stroke="#263238" stroke-linecap="round" stroke-linejoin="round"/>
<path d="M335.594 156.537C335.007 159.634 337.143 161.347 339.076 162.309C341.01 163.271 344.848 162.703 347.022 159.99C347.119 157.72 345.878 155.411 344.136 152.919C341.712 153.227 336.046 154.112 335.594 156.537Z" fill="white" stroke="#263238" stroke-linecap="round" stroke-linejoin="round"/>
<path d="M309.052 150.341C309.052 150.341 309.437 158.085 316.411 161.77C323.386 165.454 332.304 164.656 332.496 160.029C332.688 155.401 327.263 150.534 323.578 144.329C319.894 138.124 311.765 141.626 308.273 145.887" fill="white"/>
<path d="M309.052 150.341C309.052 150.341 309.437 158.085 316.411 161.77C323.386 165.454 332.304 164.656 332.496 160.029C332.688 155.401 327.263 150.534 323.578 144.329C319.894 138.124 311.765 141.626 308.273 145.887" stroke="#263238" stroke-linecap="round" stroke-linejoin="round"/>
<path d="M321.068 156.537C320.481 159.634 322.616 161.347 324.55 162.309C326.484 163.271 330.322 162.703 332.496 159.99C332.583 157.72 331.342 155.411 329.61 152.919C327.186 153.227 321.52 154.112 321.068 156.537Z" fill="white" stroke="#263238" stroke-linecap="round" stroke-linejoin="round"/>
<path d="M295.536 150.341C295.536 150.341 295.921 158.085 302.895 161.77C309.87 165.454 318.778 164.656 318.97 160.029C319.163 155.401 313.747 150.534 310.062 144.329C306.378 138.124 298.239 141.626 294.757 145.887" fill="white"/>
<path d="M295.536 150.341C295.536 150.341 295.921 158.085 302.895 161.77C309.87 165.454 318.778 164.656 318.97 160.029C319.163 155.401 313.747 150.534 310.062 144.329C306.378 138.124 298.239 141.626 294.757 145.887" stroke="#263238" stroke-linecap="round" stroke-linejoin="round"/>
<path d="M307.542 156.537C306.965 159.634 309.091 161.347 311.034 162.309C312.977 163.271 316.806 162.703 318.97 159.99C319.067 157.72 317.826 155.411 316.084 152.919C313.66 153.227 307.994 154.112 307.542 156.537Z" fill="white" stroke="#263238" stroke-linecap="round" stroke-linejoin="round"/>
<path d="M241.058 234.728C241.058 234.728 241.597 246.637 248.167 254.651" stroke="#263238" stroke-linecap="round" stroke-linejoin="round"/>
<path d="M221.933 284.434C221.933 286.859 220.317 288.821 218.326 288.821C216.335 288.821 214.718 286.897 214.718 284.434C214.718 281.972 216.335 280.048 218.326 280.048C220.317 280.048 221.933 282.01 221.933 284.434Z" fill="white"/>
<path d="M212.958 289.899C212.958 292.323 211.342 294.285 209.35 294.285C207.359 294.285 205.743 292.361 205.743 289.899C205.743 287.436 207.359 285.502 209.35 285.502C211.342 285.502 212.958 287.474 212.958 289.899Z" stroke="#263238" stroke-linecap="round" stroke-linejoin="round"/>
</svg>
