<svg width="481" height="481" viewBox="0 0 481 481" fill="none" xmlns="http://www.w3.org/2000/svg">
<path d="M176.95 201.804C189.456 231.587 213.348 247.797 229.269 247.797C244.911 247.797 266.83 232.131 279.533 202.732C282.616 195.589 285.305 186.469 287.143 177.557C289.216 170.423 290.365 161.38 290.365 149.827C290.365 119.279 263.011 93.521 229.278 93.521C195.546 93.521 168.191 119.279 168.191 149.827C168.124 156.757 168.599 163.682 169.61 170.539C170.846 181.14 173.237 193.064 176.95 201.804Z" fill="#374951"/>
<path d="M337.287 288.836C325.074 275.781 290.74 279.052 273.771 270.077C266.224 284.189 266.123 307.388 253.598 307.388C253.035 307.386 252.474 307.341 251.919 307.253C233.045 304.425 242.482 256.267 229.269 256.267C216.056 256.267 225.493 304.41 206.618 307.253C206.063 307.342 205.502 307.387 204.94 307.388C192.434 307.388 192.313 284.189 184.767 270.077C167.806 279.047 133.473 275.776 121.308 288.836C114.69 295.906 111.255 339.711 111.255 359.172H347.282C347.282 339.711 343.867 295.906 337.287 288.836Z" fill="#374951"/>
<path d="M366.238 328.105V415.565L285.887 366.994V278.836L366.238 328.105Z" fill="#FED56F"/>
<path d="M366.142 328.105V415.565L443.665 369.297V281.145L366.142 328.105Z" fill="#FEC015"/>
<path d="M443.665 281.145L366.142 328.105L285.887 278.836L363.578 232.116L443.665 281.145Z" fill="#FCE085"/>
<path opacity="0.5" d="M443.665 281.145L366.142 328.105L285.887 278.836L366.152 326.748L443.665 281.145Z" fill="url(#paint0_linear_382_27268)"/>
<path d="M332.948 309.018V332.477L314.497 321.587V297.426L332.948 309.018Z" fill="#D73927"/>
<path d="M410.37 262.053L332.852 309.018L314.497 297.426L392.188 250.711L410.37 262.053Z" fill="#D73927"/>
<path d="M352.068 361.418L358.537 382.116L354.343 379.615V404.29L349.793 401.577V376.902L345.599 374.396L352.068 361.418Z" fill="#D73927"/>
<path d="M329.87 365.016L336.344 352.039L342.814 372.736L338.614 370.235V394.911L334.069 392.198V367.522L329.87 365.016Z" fill="#D73927"/>
<path d="M368.816 245.002V299.052L317.523 269.038V214.555L368.816 245.002Z" fill="#FED56F"/>
<path d="M368.754 245.002V299.052L418.244 270.461V215.979L368.754 245.002Z" fill="#FBBF19"/>
<path d="M418.244 215.978L368.754 245.002L317.523 214.555L367.118 185.685L418.244 215.978Z" fill="#FCE085"/>
<path opacity="0.5" d="M418.244 215.978L368.754 245.002L317.523 214.555L368.759 244.165L418.244 215.978Z" fill="url(#paint1_linear_382_27268)"/>
<path d="M347.566 233.208V247.705L335.786 240.976V226.046L347.566 233.208Z" fill="#D73927"/>
<path d="M396.989 204.184L347.503 233.208L335.786 226.046L385.382 197.176L396.989 204.184Z" fill="#D73927"/>
<path d="M359.769 265.589L363.901 278.383L361.221 276.835V292.082L358.321 290.408V275.156L355.637 273.612L359.769 265.589Z" fill="#D73927"/>
<path d="M345.599 267.816L349.73 259.793L353.862 272.588L351.183 271.039V286.286L348.278 284.613V269.36L345.599 267.816Z" fill="#D73927"/>
<defs>
<linearGradient id="paint0_linear_382_27268" x1="284.324" y1="126.667" x2="372.26" y2="294.252" gradientUnits="userSpaceOnUse">
<stop stop-color="#B1B6DC"/>
<stop offset="0.15" stop-color="#B8BCDF"/>
<stop offset="0.35" stop-color="#CACDE8"/>
<stop offset="0.58" stop-color="#E6E8F5"/>
<stop offset="0.86" stop-color="#F6F6FB"/>
<stop offset="1" stop-color="white"/>
</linearGradient>
<linearGradient id="paint1_linear_382_27268" x1="317.224" y1="118.73" x2="372.395" y2="223.867" gradientUnits="userSpaceOnUse">
<stop stop-color="#B1B6DC"/>
<stop offset="0.15" stop-color="#B8BCDF"/>
<stop offset="0.35" stop-color="#CACDE8"/>
<stop offset="0.58" stop-color="#E6E8F5"/>
<stop offset="0.86" stop-color="#F6F6FB"/>
<stop offset="1" stop-color="white"/>
</linearGradient>
</defs>
</svg>
