<svg width="48" height="48" viewBox="0 0 48 48" fill="none" xmlns="http://www.w3.org/2000/svg">
<path d="M2.67334 3.89978V44.1002C2.67334 45.8657 4.10449 47.2969 5.87 47.2969H28.2415C30.007 47.2969 31.4385 45.8657 31.4385 44.1002V3.89978C31.4385 2.13428 30.007 0.703125 28.2415 0.703125H5.87C4.10449 0.703125 2.67334 2.13428 2.67334 3.89978Z" fill="#6A7193"/>
<path d="M28.2415 0.703125H26.0852C27.8507 0.703125 29.2822 2.13428 29.2822 3.89978V44.1002C29.2822 45.8657 27.8507 47.2969 26.0852 47.2969H28.2415C30.007 47.2969 31.4385 45.8657 31.4385 44.1002V3.89978C31.4385 2.13428 30.0073 0.703125 28.2415 0.703125Z" fill="#575B7A"/>
<path d="M2.67334 7.27075H31.4385V40.7292H2.67334V7.27075Z" fill="#C8E7F7"/>
<path d="M29.2822 7.27075H31.4385V40.7292H29.2822V7.27075Z" fill="#8CBCD6"/>
<path d="M1.46851 16.8907H2.67334V11.098H1.46851C1.0459 11.098 0.703125 11.4408 0.703125 11.8638V16.1254C0.703125 16.548 1.0459 16.8907 1.46851 16.8907Z" fill="#8CBAFA"/>
<path d="M1.46851 25.4663H2.67334V19.674H1.46851C1.0459 19.674 0.703125 20.0167 0.703125 20.4393V24.7009C0.703125 25.1235 1.0459 25.4663 1.46851 25.4663Z" fill="#8CBAFA"/>
<path d="M18.5515 44.0129C18.5515 44.8387 17.8817 45.5085 17.0559 45.5085C16.2301 45.5085 15.5603 44.8387 15.5603 44.0129C15.5603 43.1871 16.2301 42.5173 17.0559 42.5173C17.8817 42.5173 18.5515 43.1871 18.5515 44.0129Z" fill="#252D4C"/>
<path d="M36.6951 11.098H22.114C20.8411 11.098 19.8091 12.13 19.8091 13.403V27.984C19.8091 29.257 20.8411 30.2889 22.114 30.2889H23.038C23.5188 30.2889 23.9084 30.6786 23.9084 31.1594V33.8954C23.9084 34.322 24.4534 34.5011 24.7064 34.1576L27.2974 30.6427C27.4614 30.42 27.7218 30.2886 27.9983 30.2886H36.6951C37.968 30.2886 39 29.257 39 27.9836V13.403C39 12.13 37.968 11.098 36.6951 11.098Z" fill="#FFC10D"/>
<path d="M17.0559 46.2117C18.2684 46.2117 19.2546 45.2251 19.2546 44.0129C19.2546 42.8008 18.2684 41.8142 17.0559 41.8142C15.8434 41.8142 14.8572 42.8008 14.8572 44.0129C14.8572 45.2251 15.8434 46.2117 17.0559 46.2117ZM17.0559 43.2205C17.4928 43.2205 17.8484 43.576 17.8484 44.0129C17.8484 44.4498 17.4928 44.8054 17.0559 44.8054C16.619 44.8054 16.2634 44.4498 16.2634 44.0129C16.2634 43.576 16.619 43.2205 17.0559 43.2205Z" fill="#1B0705"/>
<path d="M14.2097 3.98694C14.2097 4.37512 14.5247 4.69006 14.9128 4.69006H19.1986C19.5872 4.69006 19.9017 4.37512 19.9017 3.98694C19.9017 3.59875 19.5872 3.28381 19.1986 3.28381H14.9128C14.5247 3.28381 14.2097 3.59875 14.2097 3.98694Z" fill="#1B0705"/>
<path d="M27.0894 14.7953H23.9084C23.5203 14.7953 23.2053 15.1102 23.2053 15.4984V18.6793C23.2053 19.0679 23.5203 19.3824 23.9084 19.3824H27.0894C27.4779 19.3824 27.7925 19.0679 27.7925 18.6793V15.4984C27.7925 15.1102 27.4779 14.7953 27.0894 14.7953ZM26.3862 17.9762H24.6116V16.2015H26.3862V17.9762Z" fill="#1B0705"/>
<path d="M34.9005 14.7953H31.7196C31.3311 14.7953 31.0165 15.1102 31.0165 15.4984V18.6793C31.0165 19.0679 31.3311 19.3824 31.7196 19.3824H34.9005C35.2887 19.3824 35.6036 19.0679 35.6036 18.6793V15.4984C35.6036 15.1102 35.2887 14.7953 34.9005 14.7953ZM34.1974 17.9762H32.4227V16.2015H34.1974V17.9762Z" fill="#1B0705"/>
<path d="M27.0894 22.0042H23.9084C23.5203 22.0042 23.2053 22.3191 23.2053 22.7073V25.8882C23.2053 26.2767 23.5203 26.5913 23.9084 26.5913H27.0894C27.4779 26.5913 27.7925 26.2767 27.7925 25.8882V22.7073C27.7925 22.3191 27.4779 22.0042 27.0894 22.0042ZM26.3862 25.1851H24.6116V23.4104H26.3862V25.1851Z" fill="#1B0705"/>
<path d="M34.9006 22.0042C34.5121 22.0042 34.1975 22.3191 34.1975 22.7073V25.1851H33.3102C32.9216 25.1851 32.6071 25.5 32.6071 25.8882C32.6071 26.2767 32.9216 26.5913 33.3102 26.5913H34.9006C35.2888 26.5913 35.6038 26.2767 35.6038 25.8882V22.7073C35.6038 22.3191 35.2888 22.0042 34.9006 22.0042Z" fill="#1B0705"/>
<path d="M32.893 23.2375C32.9051 22.8494 32.6004 22.5249 32.2123 22.5128L30.2582 22.4517V21.3885C30.2582 21.0004 29.9436 20.6854 29.5551 20.6854C29.1669 20.6854 28.8519 21.0004 28.8519 21.3885V23.1332C28.8519 23.5129 29.1537 23.8239 29.5331 23.8356L32.1683 23.9183C32.1756 23.9187 32.1833 23.9187 32.1907 23.9187C32.5686 23.9187 32.881 23.6184 32.893 23.2375Z" fill="#1B0705"/>
<path d="M29.5551 19.1913C29.9436 19.1913 30.2582 18.8767 30.2582 18.4882V18.1948C30.2582 17.8066 29.9436 17.4917 29.5551 17.4917C29.1669 17.4917 28.8519 17.8066 28.8519 18.1948V18.4882C28.8519 18.8767 29.1669 19.1913 29.5551 19.1913Z" fill="#1B0705"/>
<path d="M30.6768 25.1851H30.4801C30.0916 25.1851 29.777 25.5 29.777 25.8882C29.777 26.2767 30.0916 26.5913 30.4801 26.5913H30.6768C31.0653 26.5913 31.3799 26.2767 31.3799 25.8882C31.3799 25.5 31.0653 25.1851 30.6768 25.1851Z" fill="#1B0705"/>
<path d="M32.4476 21.7343C32.8358 21.7343 33.1508 21.4197 33.1508 21.0311C33.1508 20.6429 32.8358 20.328 32.4476 20.328H31.9071C31.5186 20.328 31.204 20.6429 31.204 21.0311C31.204 21.4197 31.5186 21.7343 31.9071 21.7343H32.4476Z" fill="#1B0705"/>
<path d="M36.695 10.3949H32.1412V7.29125C32.1412 7.28429 32.1416 7.2777 32.1416 7.27074C32.1416 7.26378 32.1412 7.25719 32.1412 7.25023V3.90014C32.1412 1.74939 30.3914 0 28.241 0H18.4621C18.0739 0 17.759 0.314941 17.759 0.703124C17.759 1.09131 18.0739 1.40625 18.4621 1.40625H28.241C29.6162 1.40625 30.7349 2.52502 30.7349 3.90014V6.56761H3.37646V3.89977C3.37646 2.52502 4.49523 1.40625 5.86999 1.40625H15.6496C16.0378 1.40625 16.3528 1.09131 16.3528 0.703124C16.3528 0.314941 16.0378 0 15.6496 0H5.86999C3.7196 0 1.97021 1.74939 1.97021 3.89977V10.3949H1.4685C0.658812 10.3949 0 11.0537 0 11.8637V16.1253C0 16.935 0.658812 17.5938 1.4685 17.5938H1.97021V18.9708H1.4685C0.658812 18.9708 0 19.6296 0 20.4393V24.7009C0 25.5106 0.658812 26.1694 1.4685 26.1694H1.97021V44.1001C1.97021 46.2505 3.7196 47.9999 5.87035 47.9999H28.2418C30.3922 47.9999 32.1416 46.2505 32.1416 44.1001V33.119C32.1416 32.7304 31.8266 32.4158 31.4384 32.4158C31.0502 32.4158 30.7353 32.7304 30.7353 33.119V40.026H3.37646V7.97386H30.7349V10.3949H22.114C20.4554 10.3949 19.1063 11.7444 19.1063 13.4029V27.9836C19.1063 29.6425 20.4558 30.9916 22.114 30.9916H23.0379C23.1302 30.9916 23.2057 31.0671 23.2057 31.1594V33.8953C23.2057 34.3912 23.5221 34.8284 23.993 34.983C24.1113 35.0221 24.2321 35.0408 24.3519 35.0408C24.7082 35.0408 25.0521 34.8735 25.2725 34.5746L27.8635 31.0598C27.895 31.0173 27.9451 30.9916 27.9982 30.9916H36.695C38.3536 30.9916 39.7031 29.6425 39.7031 27.984V13.4029C39.7031 11.7444 38.3536 10.3949 36.695 10.3949ZM1.4685 16.1876C1.43408 16.1876 1.40625 16.1594 1.40625 16.1253V11.8634C1.40625 11.829 1.43408 11.8011 1.4685 11.8011H1.97021V16.1876H1.4685ZM1.4685 24.7631C1.43408 24.7631 1.40625 24.7353 1.40625 24.7009V20.4393C1.40625 20.4049 1.43408 20.3767 1.4685 20.3767H1.97021V24.7631H1.4685ZM30.7353 41.4323V44.1001C30.7353 45.4749 29.6165 46.5937 28.2414 46.5937H5.86999C4.49523 46.5937 3.37646 45.4749 3.37646 44.1001V41.4323H30.7353ZM38.2968 27.984C38.2968 28.8669 37.5779 29.5854 36.695 29.5854H27.9982C27.5002 29.5854 27.0267 29.8249 26.7315 30.2255L24.6115 33.101V31.1594C24.6115 30.2914 23.9058 29.5858 23.0379 29.5858H22.114C21.2307 29.5858 20.5122 28.8669 20.5122 27.984V13.4029C20.5122 12.5196 21.231 11.8011 22.114 11.8011H36.695C37.5779 11.8011 38.2965 12.52 38.2965 13.4029V27.984H38.2968Z" fill="#1B0705"/>
</svg>
