<svg width="48" height="48" viewBox="0 0 48 48" fill="none" xmlns="http://www.w3.org/2000/svg">
<path d="M24.75 31.2V38.25H6.75C5.95435 38.25 5.19129 37.9339 4.62868 37.3713C4.06607 36.8087 3.75 36.0456 3.75 35.25V31.2C3.74891 29.9685 4.12794 28.7666 4.83534 27.7586C5.54274 26.7505 6.54403 25.9853 7.7025 25.5675L12 24C12 24.5967 12.2371 25.169 12.659 25.591C13.081 26.0129 13.6533 26.25 14.25 26.25C14.8467 26.25 15.419 26.0129 15.841 25.591C16.2629 25.169 16.5 24.5967 16.5 24L20.7975 25.5675C21.956 25.9853 22.9573 26.7505 23.6647 27.7586C24.3721 28.7666 24.7511 29.9685 24.75 31.2Z" fill="#EB9C93"/>
<path d="M45.75 38.25V41.25H43.5H4.5H2.25V38.25H6.75H9.75H13.5H20.25H24.75H26.25H27H27.75H29.25H40.7325H45.75Z" fill="#D73927"/>
<path d="M41.76 13.8525C41.5843 14.5437 41.3089 15.2056 40.9425 15.8175L42.4575 17.835L40.335 19.9575L38.3175 18.4425C37.7056 18.8089 37.0437 19.0843 36.3525 19.26L36 21.75H33L32.6475 19.26C31.9563 19.0843 31.2944 18.8089 30.6825 18.4425L28.665 19.9575L26.5425 17.835L28.0575 15.8175C27.6911 15.2056 27.4157 14.5437 27.24 13.8525L24.75 13.5V10.5L27.24 10.1475C27.4157 9.45631 27.6911 8.79437 28.0575 8.1825L26.5425 6.165L28.665 4.0425L30.6825 5.5575C31.2944 5.19111 31.9563 4.91572 32.6475 4.74L33 2.25H36L36.3525 4.74C37.0437 4.91572 37.7056 5.19111 38.3175 5.5575L40.335 4.0425L42.4575 6.165L40.9425 8.1825C41.3089 8.79437 41.5843 9.45631 41.76 10.1475L44.25 10.5V13.5L41.76 13.8525Z" fill="#FF9811"/>
<path d="M43.9575 26.4975L42.21 36.9975C42.1506 37.3468 41.9699 37.664 41.6996 37.8931C41.4293 38.1223 41.0868 38.2486 40.7325 38.25H29.25L31.5 24.75H42.48C42.6978 24.7503 42.9128 24.798 43.1103 24.8898C43.3078 24.9816 43.4829 25.1152 43.6235 25.2815C43.7641 25.4478 43.8668 25.6427 43.9245 25.8527C43.9822 26.0627 43.9934 26.2827 43.9575 26.4975Z" fill="#D8D7DA"/>
<path d="M4.5 41.25H43.5V45.75H4.5V41.25Z" fill="#D73927"/>
<path d="M36.75 33C37.5784 33 38.25 32.3284 38.25 31.5C38.25 30.6716 37.5784 30 36.75 30C35.9216 30 35.25 30.6716 35.25 31.5C35.25 32.3284 35.9216 33 36.75 33Z" fill="#E6E7E8"/>
<path d="M34.5 15.75C36.5711 15.75 38.25 14.0711 38.25 12C38.25 9.92893 36.5711 8.25 34.5 8.25C32.4289 8.25 30.75 9.92893 30.75 12C30.75 14.0711 32.4289 15.75 34.5 15.75Z" fill="#FFC10D"/>
<path d="M31.5 24.75L29.25 38.25H26.25L26.7525 35.25L28.185 26.6325C28.2721 26.1066 28.543 25.6287 28.9496 25.2839C29.3562 24.9392 29.8719 24.7499 30.405 24.75H31.5Z" fill="#ACABB1"/>
<path d="M24.75 35.25H18.75V36.75C18.7512 37.1475 18.9096 37.5283 19.1907 37.8093C19.4717 38.0904 19.8525 38.2488 20.25 38.25H26.25L26.7525 35.25H24.75Z" fill="#898890"/>
<path d="M21 6.75V10.5525C19.02 10.8075 17.9775 11.25 15.75 11.25C13.2525 11.25 13.7475 10.5 11.25 10.5V12C11.2488 12.3975 11.0904 12.7783 10.8093 13.0593C10.5283 13.3404 10.1475 13.4988 9.75 13.5H9V9.75C9 8.95435 9.31607 8.19129 9.87868 7.62868C10.4413 7.06607 11.2044 6.75 12 6.75H21Z" fill="#57565C"/>
<path d="M16.5 22.3124V23.9999C16.5 24.5967 16.2629 25.169 15.841 25.5909C15.419 26.0129 14.8467 26.2499 14.25 26.2499C13.6533 26.2499 13.081 26.0129 12.659 25.5909C12.2371 25.169 12 24.5967 12 23.9999V21.6899C12.9094 22.2237 13.9455 22.5034 15 22.4999C15.5058 22.4991 16.0096 22.4361 16.5 22.3124Z" fill="#FFC477"/>
<path d="M13.5 37.5V38.25H9.75V34.5H10.5C11.2956 34.5 12.0587 34.8161 12.6213 35.3787C13.1839 35.9413 13.5 36.7044 13.5 37.5Z" fill="#FFC477"/>
<path d="M16.5 22.3124V23.8124C16.0096 23.9361 15.5058 23.9991 15 23.9999C13.9455 24.0034 12.9094 23.7237 12 23.1899V21.6899C12.9094 22.2237 13.9455 22.5034 15 22.4999C15.5058 22.4991 16.0096 22.4361 16.5 22.3124Z" fill="#FFB655"/>
<path d="M15.75 11.25C13.2525 11.25 13.7475 10.5 11.25 10.5V12C11.2488 12.3975 11.0904 12.7783 10.8093 13.0593C10.5283 13.3404 10.1475 13.4988 9.75 13.5H9C8.60218 13.5 8.22064 13.658 7.93934 13.9393C7.65804 14.2206 7.5 14.6022 7.5 15C7.5 15.3978 7.65804 15.7794 7.93934 16.0607C8.22064 16.342 8.60218 16.5 9 16.5C8.9999 18.0915 9.63105 19.6182 10.755 20.745C11.1245 21.1159 11.5434 21.4339 12 21.69C12.9094 22.2238 13.9455 22.5035 15 22.5C15.5058 22.4991 16.0096 22.4362 16.5 22.3125C17.7881 21.9791 18.9289 21.2274 19.7434 20.1753C20.5579 19.1233 20.9999 17.8305 21 16.5V10.5525C19.02 10.8075 17.9775 11.25 15.75 11.25Z" fill="#FFC477"/>
<path d="M4.5 41.25H43.5V42.75H4.5V41.25Z" fill="#8B5E3C"/>
<path d="M45.75 37.5H42.8475C42.8958 37.377 42.9285 37.2486 42.945 37.1175L44.7 26.6175C44.7533 26.2953 44.7359 25.9653 44.6489 25.6506C44.5619 25.3358 44.4074 25.0437 44.1962 24.7946C43.9849 24.5456 43.722 24.3455 43.4256 24.2083C43.1293 24.071 42.8066 24 42.48 24H30.405C29.6953 23.9988 29.0082 24.2502 28.4669 24.7091C27.9255 25.1681 27.565 25.8046 27.45 26.505L26.115 34.5H25.5V31.2C25.4984 29.815 25.0708 28.4639 24.2752 27.3302C23.4796 26.1965 22.3545 25.335 21.0525 24.8625L17.25 23.475V22.8525C18.5647 22.3887 19.7034 21.5288 20.5093 20.3912C21.3152 19.2536 21.7486 17.8941 21.75 16.5V6.75C21.75 6.55109 21.671 6.36032 21.5303 6.21967C21.3897 6.07902 21.1989 6 21 6H12C11.0054 6 10.0516 6.39509 9.34835 7.09835C8.64509 7.80161 8.25 8.75544 8.25 9.75V12.8775C7.80895 13.0336 7.42753 13.3233 7.15882 13.7063C6.89012 14.0893 6.74749 14.5466 6.75079 15.0144C6.75409 15.4823 6.90316 15.9375 7.17724 16.3166C7.45132 16.6958 7.83679 16.9801 8.28 17.13C8.42204 18.6988 9.11249 20.1673 10.23 21.2775C10.5436 21.5881 10.8851 21.8692 11.25 22.1175V23.475L7.4475 24.8625C6.14553 25.335 5.02041 26.1965 4.22479 27.3302C3.42917 28.4639 3.00157 29.815 3 31.2V35.25C3.00227 36.0647 3.27387 36.8557 3.7725 37.5H2.25C2.05109 37.5 1.86032 37.579 1.71967 37.7197C1.57902 37.8603 1.5 38.0511 1.5 38.25V41.25C1.5 41.4489 1.57902 41.6397 1.71967 41.7803C1.86032 41.921 2.05109 42 2.25 42H3.75V45.75C3.75 45.9489 3.82902 46.1397 3.96967 46.2803C4.11032 46.421 4.30109 46.5 4.5 46.5H43.5C43.6989 46.5 43.8897 46.421 44.0303 46.2803C44.171 46.1397 44.25 45.9489 44.25 45.75V42H45.75C45.9489 42 46.1397 41.921 46.2803 41.7803C46.421 41.6397 46.5 41.4489 46.5 41.25V38.25C46.5 38.0511 46.421 37.8603 46.2803 37.7197C46.1397 37.579 45.9489 37.5 45.75 37.5ZM42.48 25.5C42.5883 25.5 42.6954 25.5235 42.7938 25.5688C42.8922 25.6141 42.9796 25.6802 43.05 25.7625C43.1216 25.8464 43.1742 25.9448 43.2039 26.051C43.2337 26.1572 43.2401 26.2686 43.2225 26.3775L41.4675 36.8775C41.4391 37.0518 41.3495 37.2102 41.2148 37.3243C41.0801 37.4384 40.9091 37.5007 40.7325 37.5H30.135L32.1375 25.5H42.48ZM28.9275 26.7525C28.9844 26.4021 29.1645 26.0834 29.4353 25.8538C29.7061 25.6243 30.05 25.4988 30.405 25.5H30.615L28.6125 37.5H27.135L28.9275 26.7525ZM25.8675 36L25.6125 37.5H20.25C20.0511 37.5 19.8603 37.421 19.7197 37.2803C19.579 37.1397 19.5 36.9489 19.5 36.75V36H25.8675ZM9.75 9.75C9.75178 9.15381 9.9894 8.58255 10.411 8.16098C10.8325 7.7394 11.4038 7.50178 12 7.5H20.25V9.9075C19.8075 9.975 19.4025 10.0575 19.005 10.1325C17.9363 10.3712 16.845 10.4944 15.75 10.5C15.0713 10.5376 14.3926 10.4249 13.7625 10.17C12.9634 9.85649 12.1076 9.71343 11.25 9.75C11.0511 9.75 10.8603 9.82902 10.7197 9.96967C10.579 10.1103 10.5 10.3011 10.5 10.5V12C10.5 12.1989 10.421 12.3897 10.2803 12.5303C10.1397 12.671 9.94891 12.75 9.75 12.75V9.75ZM9.75 16.5C9.75 16.3011 9.67098 16.1103 9.53033 15.9697C9.38968 15.829 9.19891 15.75 9 15.75C8.80109 15.75 8.61032 15.671 8.46967 15.5303C8.32902 15.3897 8.25 15.1989 8.25 15C8.25 14.8011 8.32902 14.6103 8.46967 14.4697C8.61032 14.329 8.80109 14.25 9 14.25H9.75C10.3462 14.2482 10.9175 14.0106 11.339 13.589C11.7606 13.1675 11.9982 12.5962 12 12V11.28C12.4261 11.3118 12.8441 11.4132 13.2375 11.58C14.0366 11.8935 14.8924 12.0366 15.75 12C16.9433 11.9942 18.1325 11.861 19.2975 11.6025C19.5975 11.5425 19.92 11.4825 20.25 11.43V16.5C20.25 17.8924 19.6969 19.2277 18.7123 20.2123C17.7277 21.1969 16.3924 21.75 15 21.75C13.6076 21.75 12.2723 21.1969 11.2877 20.2123C10.3031 19.2277 9.75 17.8924 9.75 16.5ZM15.75 23.205V24C15.75 24.3978 15.592 24.7794 15.3107 25.0607C15.0294 25.342 14.6478 25.5 14.25 25.5C13.8522 25.5 13.4706 25.342 13.1893 25.0607C12.908 24.7794 12.75 24.3978 12.75 24V22.86C13.4729 23.1149 14.2335 23.2467 15 23.25C15.2507 23.2502 15.5011 23.2352 15.75 23.205ZM4.5 31.2C4.50014 30.1229 4.83213 29.0721 5.45078 28.1904C6.06943 27.3087 6.94471 26.639 7.9575 26.2725L11.4375 25.005C11.6416 25.5881 12.0219 26.0934 12.5257 26.4509C13.0296 26.8085 13.6322 27.0005 14.25 27.0005C14.8678 27.0005 15.4704 26.8085 15.9743 26.4509C16.4781 26.0934 16.8584 25.5881 17.0625 25.005L20.5425 26.2725C21.5553 26.639 22.4306 27.3087 23.0492 28.1904C23.6679 29.0721 23.9999 30.1229 24 31.2V34.5H21.75V30H20.25V34.5H18.75C18.5511 34.5 18.3603 34.579 18.2197 34.7197C18.079 34.8603 18 35.0511 18 35.25V36.75C18.002 37.0059 18.0477 37.2595 18.135 37.5H14.25C14.25 36.5054 13.8549 35.5516 13.1517 34.8484C12.4484 34.1451 11.4946 33.75 10.5 33.75H8.25V30H6.75V34.5C6.75 34.6989 6.82902 34.8897 6.96967 35.0303C7.11032 35.171 7.30109 35.25 7.5 35.25H9V37.5H6.75C6.15381 37.4982 5.58255 37.2606 5.16098 36.839C4.73941 36.4175 4.50178 35.8462 4.5 35.25V31.2ZM12.75 37.5H10.5V35.25C11.0962 35.2518 11.6675 35.4894 12.089 35.911C12.5106 36.3325 12.7482 36.9038 12.75 37.5ZM42.75 45H5.25V42H42.75V45ZM45 40.5H3V39H45V40.5Z" fill="#1B0705"/>
<path d="M36.75 33.75C37.195 33.75 37.63 33.618 38 33.3708C38.37 33.1236 38.6584 32.7722 38.8287 32.361C38.999 31.9499 39.0436 31.4975 38.9568 31.0611C38.87 30.6246 38.6557 30.2237 38.341 29.909C38.0263 29.5943 37.6254 29.3801 37.189 29.2932C36.7525 29.2064 36.3001 29.251 35.889 29.4213C35.4778 29.5916 35.1264 29.88 34.8792 30.25C34.632 30.62 34.5 31.055 34.5 31.5C34.5 32.0967 34.7371 32.669 35.159 33.091C35.581 33.513 36.1533 33.75 36.75 33.75ZM36.75 30.75C36.8983 30.75 37.0433 30.794 37.1667 30.8764C37.29 30.9588 37.3861 31.0759 37.4429 31.213C37.4997 31.35 37.5145 31.5008 37.4856 31.6463C37.4567 31.7918 37.3852 31.9254 37.2803 32.0303C37.1754 32.1352 37.0418 32.2067 36.8963 32.2356C36.7508 32.2645 36.6 32.2497 36.463 32.1929C36.3259 32.1361 36.2088 32.04 36.1264 31.9167C36.044 31.7933 36 31.6483 36 31.5C36 31.3011 36.079 31.1103 36.2197 30.9697C36.3603 30.829 36.5511 30.75 36.75 30.75Z" fill="#1B0705"/>
<path d="M12.75 13.5H14.25V15H12.75V13.5Z" fill="#1B0705"/>
<path d="M17.25 13.5H18.75V15H17.25V13.5Z" fill="#1B0705"/>
<path d="M24.6435 14.2425L26.655 14.5297C26.7909 14.9527 26.9613 15.3638 27.1643 15.759L25.9455 17.3843C25.8374 17.5286 25.785 17.7071 25.7978 17.887C25.8106 18.0669 25.8878 18.2362 26.0153 18.3638L28.1362 20.4847C28.2639 20.6122 28.4331 20.6894 28.613 20.7022C28.7929 20.715 28.9714 20.6626 29.1157 20.5545L30.741 19.3358C31.1362 19.5387 31.5473 19.7091 31.9702 19.845L32.2575 21.8565C32.2831 22.0351 32.3723 22.1986 32.5087 22.3168C32.6451 22.435 32.8195 22.5 33 22.5H36C36.1805 22.5 36.3549 22.435 36.4913 22.3168C36.6277 22.1986 36.7169 22.0351 36.7425 21.8565L37.0298 19.845C37.4527 19.7089 37.8638 19.5386 38.259 19.3358L39.8843 20.5545C40.0286 20.6626 40.2071 20.715 40.387 20.7022C40.5669 20.6894 40.7362 20.6122 40.8638 20.4847L42.9847 18.3638C43.1122 18.2362 43.1894 18.0669 43.2022 17.887C43.215 17.7071 43.1626 17.5286 43.0545 17.3843L41.8357 15.759C42.0387 15.3638 42.2091 14.9527 42.345 14.5297L44.3565 14.2425C44.5351 14.2169 44.6986 14.1277 44.8168 13.9913C44.935 13.8549 45 13.6805 45 13.5V10.5C45 10.3195 44.935 10.1451 44.8168 10.0087C44.6986 9.87232 44.5351 9.78313 44.3565 9.7575L42.345 9.47025C42.2091 9.0473 42.0387 8.63618 41.8357 8.241L43.0545 6.61575C43.1626 6.47138 43.215 6.29289 43.2022 6.113C43.1894 5.9331 43.1122 5.76385 42.9847 5.63625L40.8638 3.51525C40.7362 3.3878 40.5669 3.31059 40.387 3.29778C40.2071 3.28497 40.0286 3.33742 39.8843 3.4455L38.259 4.66425C37.8638 4.46138 37.4527 4.29107 37.0298 4.155L36.7425 2.1435C36.7169 1.96485 36.6277 1.80143 36.4913 1.68323C36.3549 1.56503 36.1805 1.49998 36 1.5H33C32.8195 1.49998 32.6451 1.56503 32.5087 1.68323C32.3723 1.80143 32.2831 1.96485 32.2575 2.1435L31.9702 4.155C31.5473 4.29094 31.1362 4.46126 30.741 4.66425L29.1157 3.4455C28.9714 3.33742 28.7929 3.28497 28.613 3.29778C28.4331 3.31059 28.2639 3.3878 28.1362 3.51525L26.0153 5.63625C25.8878 5.76385 25.8106 5.9331 25.7978 6.113C25.785 6.29289 25.8374 6.47138 25.9455 6.61575L27.1643 8.241C26.9613 8.63618 26.7909 9.0473 26.655 9.47025L24.6435 9.7575C24.4649 9.78313 24.3014 9.87232 24.1832 10.0087C24.065 10.1451 24 10.3195 24 10.5V13.5C24 13.6805 24.065 13.8549 24.1832 13.9913C24.3014 14.1277 24.4649 14.2169 24.6435 14.2425ZM25.5 11.1502L27.3473 10.887C27.4943 10.8659 27.6317 10.8015 27.7421 10.7022C27.8525 10.6029 27.931 10.473 27.9675 10.329C28.1256 9.70788 28.3724 9.11277 28.7002 8.562C28.7759 8.43428 28.8119 8.287 28.8037 8.13881C28.7956 7.99061 28.7436 7.84817 28.6545 7.7295L27.5355 6.23625L28.7355 5.03625L30.2288 6.15525C30.3474 6.24439 30.4899 6.29632 30.6381 6.30447C30.7863 6.31261 30.9335 6.2766 31.0613 6.201C31.612 5.87318 32.2071 5.6264 32.8282 5.46825C32.9722 5.43174 33.1021 5.3533 33.2015 5.24288C33.3008 5.13245 33.3651 4.99502 33.3862 4.848L33.6503 3H35.3497L35.613 4.84725C35.6341 4.99427 35.6985 5.1317 35.7978 5.24213C35.8971 5.35255 36.027 5.43099 36.171 5.4675C36.7921 5.62565 37.3872 5.87243 37.938 6.20025C38.0657 6.27585 38.213 6.31186 38.3612 6.30372C38.5094 6.29557 38.6518 6.24364 38.7705 6.1545L40.2638 5.0355L41.4637 6.2355L40.3447 7.72875C40.2556 7.84742 40.2037 7.98986 40.1955 8.13806C40.1874 8.28625 40.2234 8.43353 40.299 8.56125C40.6268 9.11202 40.8736 9.70712 41.0317 10.3282C41.0683 10.4722 41.1467 10.6021 41.2571 10.7015C41.3675 10.8008 41.505 10.8651 41.652 10.8863L43.5 11.1502V12.8497L41.6527 13.113C41.5057 13.1341 41.3683 13.1985 41.2579 13.2978C41.1475 13.3971 41.069 13.527 41.0325 13.671C40.8744 14.2921 40.6276 14.8872 40.2998 15.438C40.2241 15.5657 40.1881 15.713 40.1963 15.8612C40.2044 16.0094 40.2564 16.1518 40.3455 16.2705L41.4645 17.7638L40.2645 18.9637L38.7712 17.8447C38.6526 17.7556 38.5101 17.7037 38.3619 17.6955C38.2137 17.6874 38.0665 17.7234 37.9387 17.799C37.388 18.1268 36.7929 18.3736 36.1718 18.5317C36.0278 18.5683 35.8979 18.6467 35.7985 18.7571C35.6992 18.8675 35.6349 19.005 35.6138 19.152L35.3497 21H33.6503L33.387 19.1528C33.3659 19.0057 33.3015 18.8683 33.2022 18.7579C33.1029 18.6475 32.973 18.569 32.829 18.5325C32.2079 18.3744 31.6128 18.1276 31.062 17.7997C30.9343 17.7241 30.787 17.6881 30.6388 17.6963C30.4906 17.7044 30.3482 17.7564 30.2295 17.8455L28.7362 18.9645L27.5363 17.7645L28.6553 16.2712C28.7444 16.1526 28.7963 16.0101 28.8045 15.8619C28.8126 15.7137 28.7766 15.5665 28.701 15.4387C28.3732 14.888 28.1264 14.2929 27.9683 13.6718C27.9317 13.5278 27.8533 13.3979 27.7429 13.2985C27.6325 13.1992 27.495 13.1349 27.348 13.1138L25.5 12.8497V11.1502Z" fill="#1B0705"/>
<path d="M34.5 16.5C35.39 16.5 36.26 16.2361 37.0001 15.7416C37.7401 15.2471 38.3169 14.5443 38.6575 13.7221C38.998 12.8998 39.0872 11.995 38.9135 11.1221C38.7399 10.2492 38.3113 9.44736 37.682 8.81802C37.0526 8.18869 36.2508 7.7601 35.3779 7.58647C34.505 7.41283 33.6002 7.50195 32.7779 7.84254C31.9557 8.18314 31.2529 8.75991 30.7584 9.49994C30.2639 10.24 30 11.11 30 12C30.0012 13.1931 30.4757 14.337 31.3193 15.1807C32.163 16.0243 33.3069 16.4988 34.5 16.5ZM34.5 9C35.0933 9 35.6734 9.17595 36.1667 9.50559C36.6601 9.83524 37.0446 10.3038 37.2716 10.852C37.4987 11.4001 37.5581 12.0033 37.4424 12.5853C37.3266 13.1672 37.0409 13.7018 36.6213 14.1213C36.2018 14.5409 35.6672 14.8266 35.0853 14.9424C34.5033 15.0581 33.9001 14.9987 33.3519 14.7716C32.8038 14.5446 32.3352 14.1601 32.0056 13.6667C31.6759 13.1734 31.5 12.5933 31.5 12C31.5 11.2044 31.8161 10.4413 32.3787 9.87868C32.9413 9.31607 33.7043 9 34.5 9Z" fill="#1B0705"/>
<path d="M15.75 20.25C16.5456 20.25 17.3087 19.9339 17.8713 19.3713C18.4339 18.8087 18.75 18.0456 18.75 17.25H17.25C17.25 17.6478 17.092 18.0294 16.8107 18.3107C16.5294 18.592 16.1478 18.75 15.75 18.75C15.3522 18.75 14.9706 18.592 14.6893 18.3107C14.408 18.0294 14.25 17.6478 14.25 17.25H12.75C12.75 18.0456 13.0661 18.8087 13.6287 19.3713C14.1913 19.9339 14.9544 20.25 15.75 20.25Z" fill="#1B0705"/>
</svg>
