<svg width="481" height="481" viewBox="0 0 481 481" fill="none" xmlns="http://www.w3.org/2000/svg">
<path d="M481 367.869H0V368.109H481V367.869Z" fill="#EBEBEB"/>
<path d="M166.638 374.006H144.339V374.247H166.638V374.006Z" fill="#EBEBEB"/>
<path d="M441.337 379.163H386.82V379.403H441.337V379.163Z" fill="#EBEBEB"/>
<path d="M95.6132 379.163H41.0966V379.403H95.6132V379.163Z" fill="#EBEBEB"/>
<path d="M227.994 324.964H42.2414C40.7863 324.961 39.3916 324.381 38.3635 323.351C37.3354 322.322 36.758 320.926 36.758 319.471V58.355C36.7707 56.9081 37.3537 55.5247 38.3804 54.5052C39.4071 53.4858 40.7945 52.9125 42.2414 52.91H227.994C229.451 52.91 230.848 53.4888 231.878 54.5189C232.908 55.549 233.487 56.9462 233.487 58.4031V319.471C233.487 320.927 232.908 322.325 231.878 323.355C230.848 324.385 229.451 324.964 227.994 324.964ZM42.2414 53.1024C40.85 53.105 39.5165 53.6595 38.5336 54.6443C37.5506 55.629 36.9985 56.9636 36.9985 58.355V319.471C36.9985 320.862 37.5506 322.197 38.5336 323.181C39.5165 324.166 40.85 324.721 42.2414 324.723H227.994C229.385 324.718 230.719 324.163 231.702 323.179C232.686 322.195 233.241 320.862 233.247 319.471V58.355C233.241 56.9635 232.686 55.6304 231.702 54.6465C230.719 53.6625 229.385 53.1075 227.994 53.1024H42.2414Z" fill="#EBEBEB"/>
<path d="M436.084 324.964H250.322C248.867 324.959 247.473 324.378 246.443 323.349C245.414 322.32 244.834 320.926 244.829 319.471V58.355C244.844 56.9073 245.429 55.5239 246.458 54.5046C247.486 53.4854 248.874 52.9125 250.322 52.91H436.084C437.529 52.915 438.914 53.4894 439.939 54.5086C440.964 55.5278 441.545 56.9098 441.558 58.355V319.471C441.559 320.191 441.419 320.904 441.144 321.57C440.87 322.236 440.467 322.841 439.959 323.351C439.45 323.861 438.847 324.266 438.182 324.543C437.517 324.819 436.804 324.962 436.084 324.964ZM250.322 53.1024C248.93 53.1075 247.597 53.6625 246.613 54.6465C245.63 55.6304 245.075 56.9635 245.069 58.355V319.471C245.075 320.862 245.63 322.195 246.613 323.179C247.597 324.163 248.93 324.718 250.322 324.723H436.084C437.476 324.718 438.809 324.163 439.793 323.179C440.777 322.195 441.332 320.862 441.337 319.471V58.355C441.332 56.9635 440.777 55.6304 439.793 54.6465C438.809 53.6625 437.476 53.1075 436.084 53.1024H250.322Z" fill="#EBEBEB"/>
<path d="M94.9494 125.454H175.084C175.89 125.453 176.689 125.611 177.434 125.919C178.179 126.227 178.857 126.679 179.427 127.249C179.997 127.819 180.449 128.497 180.757 129.242C181.065 129.987 181.223 130.786 181.222 131.592V367.648H88.8696V131.582C88.872 129.966 89.5119 128.416 90.6501 127.269C91.7884 126.122 93.3333 125.47 94.9494 125.454Z" fill="#F5F5F5"/>
<path d="M108.398 139.759H96.4886V166.272H108.398V139.759Z" fill="#EBEBEB"/>
<path d="M173.526 139.759H161.616V166.272H173.526V139.759Z" fill="#EBEBEB"/>
<path d="M130.101 139.759H118.191V166.272H130.101V139.759Z" fill="#EBEBEB"/>
<path d="M151.813 139.759H139.904V166.272H151.813V139.759Z" fill="#EBEBEB"/>
<path d="M108.398 181.616H96.4886V208.129H108.398V181.616Z" fill="#EBEBEB"/>
<path d="M173.526 181.616H161.616V208.129H173.526V181.616Z" fill="#EBEBEB"/>
<path d="M130.101 181.616H118.191V208.129H130.101V181.616Z" fill="#EBEBEB"/>
<path d="M151.813 181.616H139.904V208.129H151.813V181.616Z" fill="#EBEBEB"/>
<path d="M108.398 223.463H96.4886V249.976H108.398V223.463Z" fill="#EBEBEB"/>
<path d="M173.526 223.463H161.616V249.976H173.526V223.463Z" fill="#EBEBEB"/>
<path d="M130.101 223.463H118.191V249.976H130.101V223.463Z" fill="#EBEBEB"/>
<path d="M151.813 223.463H139.904V249.976H151.813V223.463Z" fill="#EBEBEB"/>
<path d="M108.398 265.32H96.4886V291.832H108.398V265.32Z" fill="#EBEBEB"/>
<path d="M173.526 265.32H161.616V291.832H173.526V265.32Z" fill="#EBEBEB"/>
<path d="M130.101 265.32H118.191V291.832H130.101V265.32Z" fill="#EBEBEB"/>
<path d="M151.813 265.32H139.904V291.832H151.813V265.32Z" fill="#EBEBEB"/>
<path d="M108.398 307.167H96.4886V333.679H108.398V307.167Z" fill="#EBEBEB"/>
<path d="M173.526 307.167H161.616V333.679H173.526V307.167Z" fill="#EBEBEB"/>
<path d="M130.101 307.167H118.191V333.679H130.101V307.167Z" fill="#EBEBEB"/>
<path d="M151.813 307.167H139.904V333.679H151.813V307.167Z" fill="#EBEBEB"/>
<path d="M378.97 147.455H436.344C437.667 147.458 438.936 147.985 439.872 148.921C440.807 149.856 441.334 151.125 441.337 152.448V367.648H373.997V152.458C373.997 151.136 374.52 149.868 375.452 148.931C376.384 147.993 377.649 147.463 378.97 147.455Z" fill="#F5F5F5"/>
<path d="M393.381 160.471H382.559V184.569H393.381V160.471Z" fill="#EBEBEB"/>
<path d="M413.121 160.471H402.299V184.569H413.121V160.471Z" fill="#EBEBEB"/>
<path d="M432.852 160.471H422.029V184.569H432.852V160.471Z" fill="#EBEBEB"/>
<path d="M393.381 198.518H382.559V222.616H393.381V198.518Z" fill="#EBEBEB"/>
<path d="M413.121 198.518H402.299V222.616H413.121V198.518Z" fill="#EBEBEB"/>
<path d="M432.852 198.518H422.029V222.616H432.852V198.518Z" fill="#EBEBEB"/>
<path d="M393.381 236.575H382.559V260.673H393.381V236.575Z" fill="#EBEBEB"/>
<path d="M413.121 236.575H402.299V260.673H413.121V236.575Z" fill="#EBEBEB"/>
<path d="M432.852 236.575H422.029V260.673H432.852V236.575Z" fill="#EBEBEB"/>
<path d="M393.381 274.612H382.559V298.711H393.381V274.612Z" fill="#EBEBEB"/>
<path d="M413.121 274.612H402.299V298.711H413.121V274.612Z" fill="#EBEBEB"/>
<path d="M432.852 274.612H422.029V298.711H432.852V274.612Z" fill="#EBEBEB"/>
<path d="M393.381 312.669H382.559V336.767H393.381V312.669Z" fill="#EBEBEB"/>
<path d="M413.121 312.669H402.299V336.767H413.121V312.669Z" fill="#EBEBEB"/>
<path d="M432.852 312.669H422.029V336.767H432.852V312.669Z" fill="#EBEBEB"/>
<path d="M247.532 85.868H340.731C342.624 85.868 344.44 86.6201 345.778 87.9587C347.117 89.2974 347.869 91.113 347.869 93.0061V367.647H240.404V93.0061C240.404 91.1146 241.155 89.3005 242.491 87.9621C243.828 86.6238 245.641 85.8706 247.532 85.868Z" fill="#F5F5F5"/>
<path d="M263.174 102.52H249.322V133.362H263.174V102.52Z" fill="#EBEBEB"/>
<path d="M338.941 102.52H325.089V133.362H338.941V102.52Z" fill="#EBEBEB"/>
<path d="M288.427 102.52H274.574V133.362H288.427V102.52Z" fill="#EBEBEB"/>
<path d="M313.689 102.52H299.836V133.362H313.689V102.52Z" fill="#EBEBEB"/>
<path d="M263.174 151.217H249.322V182.059H263.174V151.217Z" fill="#EBEBEB"/>
<path d="M338.941 151.217H325.089V182.059H338.941V151.217Z" fill="#EBEBEB"/>
<path d="M288.427 151.217H274.574V182.059H288.427V151.217Z" fill="#EBEBEB"/>
<path d="M313.689 151.217H299.836V182.059H313.689V151.217Z" fill="#EBEBEB"/>
<path d="M263.174 199.913H249.322V230.755H263.174V199.913Z" fill="#EBEBEB"/>
<path d="M338.941 199.913H325.089V230.755H338.941V199.913Z" fill="#EBEBEB"/>
<path d="M288.427 199.913H274.574V230.755H288.427V199.913Z" fill="#EBEBEB"/>
<path d="M313.689 199.913H299.836V230.755H313.689V199.913Z" fill="#EBEBEB"/>
<path d="M263.174 248.6H249.322V279.442H263.174V248.6Z" fill="#EBEBEB"/>
<path d="M338.941 248.6H325.089V279.442H338.941V248.6Z" fill="#EBEBEB"/>
<path d="M288.427 248.6H274.574V279.442H288.427V248.6Z" fill="#EBEBEB"/>
<path d="M313.689 248.6H299.836V279.442H313.689V248.6Z" fill="#EBEBEB"/>
<path d="M263.174 297.287H249.322V328.129H263.174V297.287Z" fill="#EBEBEB"/>
<path d="M338.941 297.287H325.089V328.129H338.941V297.287Z" fill="#EBEBEB"/>
<path d="M288.427 297.287H274.574V328.129H288.427V297.287Z" fill="#EBEBEB"/>
<path d="M313.689 297.287H299.836V328.129H313.689V297.287Z" fill="#EBEBEB"/>
<path d="M240.394 186.792H181.193V367.657H240.394V186.792Z" fill="#E6E6E6"/>
<path d="M374.035 206.157H347.878V367.648H374.035V206.157Z" fill="#E6E6E6"/>
<path d="M88.8118 367.647H36.9985V292.14L88.8118 274.612V367.647Z" fill="#E6E6E6"/>
<path d="M240.5 411.313C343.513 411.313 427.022 404.469 427.022 396.026C427.022 387.584 343.513 380.74 240.5 380.74C137.487 380.74 53.9778 387.584 53.9778 396.026C53.9778 404.469 137.487 411.313 240.5 411.313Z" fill="#F5F5F5"/>
<path d="M286.368 335.661H270.014C261.5 335.661 254.622 348.004 254.622 363.232C254.622 378.46 261.52 390.793 270.014 390.793H286.368C294.882 390.793 301.76 378.451 301.76 363.232C301.76 348.013 294.882 335.661 286.368 335.661Z" fill="#263238"/>
<path opacity="0.05" d="M305.608 335.661H289.254C280.74 335.661 273.862 348.004 273.862 363.232C273.862 378.46 280.76 390.793 289.254 390.793H305.608C314.122 390.793 321 378.451 321 363.232C321 348.013 314.122 335.661 305.608 335.661Z" fill="white"/>
<path d="M418.845 341.568L132.467 341.366V158.441H418.845V341.568Z" fill="#FFC10D"/>
<path opacity="0.3" d="M418.845 158.441H224.752V341.558H418.845V158.441Z" fill="#263238"/>
<path opacity="0.2" d="M224.752 158.441H132.467V345.175H224.752V158.441Z" fill="white"/>
<path opacity="0.1" d="M133.16 166.945H418.845" stroke="white" stroke-width="2" stroke-linecap="round" stroke-linejoin="round"/>
<path opacity="0.1" d="M133.16 174.863H418.845" stroke="white" stroke-width="2" stroke-linecap="round" stroke-linejoin="round"/>
<path opacity="0.1" d="M133.16 182.771H418.845" stroke="white" stroke-width="2" stroke-linecap="round" stroke-linejoin="round"/>
<path opacity="0.1" d="M133.16 190.678H418.845" stroke="white" stroke-width="2" stroke-linecap="round" stroke-linejoin="round"/>
<path opacity="0.1" d="M133.16 198.595H418.845" stroke="white" stroke-width="2" stroke-linecap="round" stroke-linejoin="round"/>
<path opacity="0.1" d="M133.16 206.503H418.845" stroke="white" stroke-width="2" stroke-linecap="round" stroke-linejoin="round"/>
<path opacity="0.1" d="M133.16 214.411H418.845" stroke="white" stroke-width="2" stroke-linecap="round" stroke-linejoin="round"/>
<path opacity="0.1" d="M133.16 222.318H418.845" stroke="white" stroke-width="2" stroke-linecap="round" stroke-linejoin="round"/>
<path opacity="0.1" d="M133.16 230.235H418.845" stroke="white" stroke-width="2" stroke-linecap="round" stroke-linejoin="round"/>
<path opacity="0.1" d="M133.16 238.143H418.845" stroke="white" stroke-width="2" stroke-linecap="round" stroke-linejoin="round"/>
<path opacity="0.1" d="M133.16 246.051H418.845" stroke="white" stroke-width="2" stroke-linecap="round" stroke-linejoin="round"/>
<path opacity="0.1" d="M133.16 253.968H418.845" stroke="white" stroke-width="2" stroke-linecap="round" stroke-linejoin="round"/>
<path opacity="0.1" d="M133.16 261.876H418.845" stroke="white" stroke-width="2" stroke-linecap="round" stroke-linejoin="round"/>
<path opacity="0.1" d="M133.16 269.783H418.845" stroke="white" stroke-width="2" stroke-linecap="round" stroke-linejoin="round"/>
<path opacity="0.1" d="M133.16 277.691H418.845" stroke="white" stroke-width="2" stroke-linecap="round" stroke-linejoin="round"/>
<path opacity="0.1" d="M133.16 285.608H418.845" stroke="white" stroke-width="2" stroke-linecap="round" stroke-linejoin="round"/>
<path opacity="0.1" d="M133.16 293.516H418.845" stroke="white" stroke-width="2" stroke-linecap="round" stroke-linejoin="round"/>
<path opacity="0.1" d="M133.16 301.423H418.845" stroke="white" stroke-width="2" stroke-linecap="round" stroke-linejoin="round"/>
<path opacity="0.1" d="M133.16 309.341H418.845" stroke="white" stroke-width="2" stroke-linecap="round" stroke-linejoin="round"/>
<path opacity="0.1" d="M133.16 317.248H418.845" stroke="white" stroke-width="2" stroke-linecap="round" stroke-linejoin="round"/>
<path opacity="0.1" d="M133.16 325.156H418.845" stroke="white" stroke-width="2" stroke-linecap="round" stroke-linejoin="round"/>
<path opacity="0.1" d="M133.16 333.073H418.845" stroke="white" stroke-width="2" stroke-linecap="round" stroke-linejoin="round"/>
<path d="M79.9133 339.259H64.7811C56.8927 339.259 50.505 350.687 50.505 364.79C50.505 378.893 56.8927 390.312 64.7811 390.312H79.9133C87.8017 390.312 94.1894 378.884 94.1894 364.79C94.1894 350.697 87.8017 339.259 79.9133 339.259Z" fill="#263238"/>
<path opacity="0.05" d="M99.163 339.259H84.0211C76.1327 339.259 69.745 350.687 69.745 364.79C69.745 378.893 76.1327 390.312 84.0211 390.312H99.163C107.042 390.312 113.439 378.884 113.439 364.79C113.439 350.697 107.042 339.259 99.163 339.259Z" fill="white"/>
<path d="M71.4958 289.399H64.3386C62.934 289.447 61.7796 287.946 61.7508 286.041C61.7316 285.843 61.7316 285.643 61.7508 285.445L63.6748 263.829C63.9153 261.606 65.2909 259.981 66.9456 259.875H74.1702C75.5651 259.875 76.7195 261.347 76.7484 263.251C76.7484 263.444 76.7484 263.636 76.7484 263.829L74.8244 285.445C74.5358 287.638 73.112 289.341 71.4958 289.399Z" fill="#263238"/>
<path d="M78.6531 217.999L64.8484 292.448L215.142 351.322L214.093 204.598L181.039 203.636H90.4953C85.0504 203.588 80.25 209.437 78.6531 217.999Z" fill="#FFC10D"/>
<path d="M190.476 229.976C184.868 229.726 179.836 234.324 178.191 241.183L166.82 288.821H144.935L143.742 351.669H215.729" fill="#FFC10D"/>
<path d="M80.808 284.819C78.605 284.819 76.8253 281.991 76.8253 278.509C76.8243 277.902 76.8823 277.296 76.9985 276.7L85.2621 232.987C85.9547 229.36 88.0711 226.878 90.4665 226.888H169.524C170.38 226.888 171.082 227.984 171.082 229.35C171.084 229.593 171.061 229.834 171.015 230.072C169.283 239.076 163.655 268.908 161.501 280.317C161 282.992 159.442 284.819 157.653 284.819H80.808Z" fill="#263238"/>
<path d="M153.554 304.194C153.553 304.96 153.498 305.725 153.391 306.484L152.977 309.302L152.737 310.967L150.967 323.126L148.081 342.895L147.282 348.388H35.4112V342.895L35.4882 323.126L35.594 311.303V306.493C34.632 300.144 37.7008 293.987 42.3761 292.708C42.9246 292.558 43.491 292.484 44.0596 292.487H144.935C149.697 292.448 153.554 297.72 153.554 304.194Z" fill="#FFC10D"/>
<path d="M210.418 232.804V279.663C210.418 282.501 208.966 284.81 207.167 284.819H179.827C178.028 284.819 176.575 282.51 176.575 279.663C176.575 279.199 176.613 278.735 176.691 278.278L185.118 230.37C185.522 228.071 186.869 226.522 188.369 226.609L207.282 227.648C209.033 227.753 210.418 230.033 210.418 232.804Z" fill="#263238"/>
<path opacity="0.1" d="M126.926 226.888H111.823L94.478 284.819H109.591L126.926 226.888Z" fill="white"/>
<path opacity="0.1" d="M138.682 226.888H131.467L114.132 284.819H121.337L138.682 226.888Z" fill="white"/>
<path d="M182.54 323.126V342.895H35.4305L35.5074 323.126H182.54Z" fill="black"/>
<path d="M162.049 323.126H148.446L123.983 337.498V342.895H182.54V323.126H162.049Z" fill="white"/>
<path d="M60.7888 337.498V342.895H35.4305L35.5074 323.126H36.3347L60.7888 337.498Z" fill="white"/>
<path opacity="0.3" d="M215.209 351.669L214.093 204.598L193.891 203.636C188.85 203.386 183.03 209.245 181.558 216.036L166.917 292.448H161.212C154.805 292.448 150.418 297.114 150.428 302.068L150.515 351.688H215.209" fill="#263238"/>
<path d="M153.179 309.995C153.177 310.177 153.137 310.357 153.06 310.523C152.984 310.689 152.874 310.837 152.737 310.957C152.502 311.175 152.192 311.296 151.871 311.294H35.594V308.677H151.9C152.121 308.677 152.339 308.734 152.532 308.842C152.726 308.95 152.889 309.105 153.006 309.293C153.128 309.506 153.188 309.749 153.179 309.995Z" fill="white"/>
<path d="M56.1038 308.687V311.303H35.5555L35.5651 308.687H56.1038Z" fill="#263238"/>
<path d="M153.179 309.995C153.177 310.177 153.137 310.357 153.061 310.523C152.984 310.689 152.874 310.837 152.737 310.957C152.502 311.175 152.192 311.296 151.871 311.294H123.665V308.677H151.871C152.092 308.677 152.31 308.734 152.504 308.842C152.697 308.95 152.86 309.105 152.977 309.293C153.109 309.503 153.179 309.746 153.179 309.995Z" fill="#263238"/>
<path d="M423.982 346.32V346.84C423.982 348.115 423.475 349.339 422.573 350.241C421.671 351.143 420.448 351.65 419.172 351.65H37.0659C35.7902 351.65 34.5667 351.143 33.6647 350.241C32.7626 349.339 32.2559 348.115 32.2559 346.84V346.32C32.2559 345.044 32.7626 343.821 33.6647 342.919C34.5667 342.017 35.7902 341.51 37.0659 341.51H419.172C420.448 341.51 421.671 342.017 422.573 342.919C423.475 343.821 423.982 345.044 423.982 346.32Z" fill="#263238"/>
<path d="M121.799 345.464H64.8484V348.244H121.799V345.464Z" fill="black"/>
<path d="M49.6969 346.849C49.6969 347.163 49.6041 347.469 49.4301 347.73C49.2561 347.991 49.0087 348.194 48.7193 348.315C48.4298 348.435 48.1111 348.467 47.8035 348.407C47.4958 348.346 47.213 348.196 46.9906 347.975C46.7683 347.754 46.6163 347.472 46.554 347.165C46.4917 346.857 46.5217 346.538 46.6404 346.248C46.7591 345.958 46.961 345.709 47.2208 345.534C47.4805 345.358 47.7865 345.264 48.1 345.262C48.3093 345.26 48.5167 345.301 48.7104 345.38C48.9041 345.459 49.0802 345.576 49.2286 345.723C49.377 345.871 49.4948 346.046 49.5752 346.239C49.6556 346.433 49.6969 346.64 49.6969 346.849Z" fill="white"/>
<path d="M135.402 346.849C135.402 347.163 135.308 347.47 135.134 347.731C134.96 347.992 134.712 348.195 134.422 348.316C134.132 348.436 133.812 348.467 133.505 348.406C133.197 348.345 132.914 348.193 132.692 347.971C132.47 347.749 132.319 347.467 132.257 347.159C132.196 346.851 132.228 346.532 132.348 346.242C132.468 345.952 132.671 345.704 132.932 345.529C133.193 345.355 133.5 345.262 133.814 345.262C134.023 345.262 134.229 345.303 134.422 345.383C134.614 345.462 134.789 345.579 134.937 345.727C135.084 345.874 135.201 346.049 135.281 346.242C135.36 346.434 135.402 346.641 135.402 346.849Z" fill="white"/>
<path d="M181.424 362.607C181.424 347.301 188.36 334.891 196.921 334.891H180.481C171.929 334.891 164.993 347.301 164.993 362.607C164.993 377.912 171.929 390.312 180.481 390.312H196.921C188.36 390.341 181.424 377.941 181.424 362.607Z" fill="black"/>
<path opacity="0.7" d="M181.424 362.607C181.424 347.301 188.36 334.891 196.921 334.891H180.481C171.929 334.891 164.993 347.301 164.993 362.607C164.993 377.912 171.929 390.312 180.481 390.312H196.921C188.36 390.341 181.424 377.941 181.424 362.607Z" fill="#263238"/>
<path d="M196.921 390.351C205.481 390.351 212.419 377.942 212.419 362.636C212.419 347.329 205.481 334.92 196.921 334.92C188.362 334.92 181.424 347.329 181.424 362.636C181.424 377.942 188.362 390.351 196.921 390.351Z" fill="#263238"/>
<path d="M198.162 384.242C204.23 384.242 209.148 374.569 209.148 362.636C209.148 350.703 204.23 341.029 198.162 341.029C192.095 341.029 187.176 350.703 187.176 362.636C187.176 374.569 192.095 384.242 198.162 384.242Z" fill="white"/>
<path d="M197.162 381.337C202.969 381.337 207.677 372.964 207.677 362.635C207.677 352.307 202.969 343.934 197.162 343.934C191.355 343.934 186.647 352.307 186.647 362.635C186.647 372.964 191.355 381.337 197.162 381.337Z" fill="#263238"/>
<path d="M194.853 376.286C199.093 376.286 202.53 370.175 202.53 362.636C202.53 355.097 199.093 348.985 194.853 348.985C190.613 348.985 187.176 355.097 187.176 362.636C187.176 370.175 190.613 376.286 194.853 376.286Z" fill="black"/>
<path opacity="0.5" d="M423.982 346.32V346.84C423.982 348.115 423.476 349.339 422.573 350.241C421.671 351.143 420.448 351.65 419.172 351.65H224.752V341.51H419.172C420.448 341.51 421.671 342.017 422.573 342.919C423.476 343.821 423.982 345.044 423.982 346.32Z" fill="black"/>
<path d="M363.559 362.607C363.559 347.301 370.495 334.891 379.047 334.891H362.616C354.054 334.891 347.118 347.301 347.118 362.607C347.118 377.912 354.054 390.312 362.616 390.312H379.028C370.495 390.341 363.559 377.941 363.559 362.607Z" fill="black"/>
<path opacity="0.7" d="M363.559 362.607C363.559 347.301 370.495 334.891 379.047 334.891H362.616C354.054 334.891 347.118 347.301 347.118 362.607C347.118 377.912 354.054 390.312 362.616 390.312H379.028C370.495 390.341 363.559 377.941 363.559 362.607Z" fill="#263238"/>
<path d="M379.047 390.351C387.606 390.351 394.545 377.942 394.545 362.636C394.545 347.329 387.606 334.92 379.047 334.92C370.488 334.92 363.549 347.329 363.549 362.636C363.549 377.942 370.488 390.351 379.047 390.351Z" fill="#263238"/>
<path d="M380.298 384.242C386.365 384.242 391.284 374.569 391.284 362.636C391.284 350.703 386.365 341.029 380.298 341.029C374.23 341.029 369.312 350.703 369.312 362.636C369.312 374.569 374.23 384.242 380.298 384.242Z" fill="white"/>
<path d="M379.288 381.337C385.095 381.337 389.802 372.964 389.802 362.635C389.802 352.307 385.095 343.934 379.288 343.934C373.481 343.934 368.773 352.307 368.773 362.635C368.773 372.964 373.481 381.337 379.288 381.337Z" fill="#263238"/>
<path d="M376.979 376.286C381.219 376.286 384.656 370.175 384.656 362.636C384.656 355.097 381.219 348.985 376.979 348.985C372.739 348.985 369.302 355.097 369.302 362.636C369.302 370.175 372.739 376.286 376.979 376.286Z" fill="black"/>
<path d="M316.363 227.032C316.171 230.736 315.834 234.314 315.286 237.96C314.812 241.726 313.988 245.44 312.823 249.052C312.456 250.104 311.995 251.122 311.448 252.092C311.066 252.747 310.6 253.348 310.062 253.881L309.793 254.132L309.639 254.247L309.562 254.314L309.235 254.536L308.59 254.988C306.956 256.036 305.238 256.947 303.453 257.71C300.066 259.199 296.545 260.365 292.939 261.193L291.688 257.768C294.747 256.075 297.883 254.343 300.74 252.544C302.137 251.688 303.48 250.746 304.762 249.726L305.185 249.37L305.397 249.187C305.397 249.187 305.483 249.043 305.589 248.812C305.87 248.19 306.102 247.546 306.282 246.888C306.716 245.305 307.06 243.699 307.311 242.078C307.609 240.404 307.85 238.701 308.052 236.969C308.446 233.535 308.783 230.014 309.014 226.589L316.363 227.032Z" fill="#CE7A63"/>
<path d="M293.968 257.816L288.061 255.988L289.168 263.136C289.168 263.136 293.016 262.655 294.94 260.5L293.968 257.816Z" fill="#CE7A63"/>
<path d="M280.904 260.586L281.231 261.548C281.416 262.08 281.768 262.537 282.234 262.851C282.701 263.165 283.257 263.319 283.819 263.29L286.83 263.155L285.714 255.988L282.405 257.287C281.777 257.537 281.27 258.02 280.99 258.635C280.711 259.25 280.68 259.949 280.904 260.586Z" fill="#CE7A63"/>
<path d="M323.347 220.096C323.347 222.328 322.27 226.734 321.346 230.043C320.663 232.419 320.096 234.228 320.096 234.228L318.739 233.891L307.561 231.063C307.388 225.291 307.609 219.009 313.333 215.238C316.912 212.871 323.319 216.123 323.347 220.096Z" fill="#263238"/>
<path opacity="0.3" d="M323.338 220.481C322.607 219.711 320.952 219.576 317.345 220.721C312.179 222.357 310.736 228.013 310.668 231.851L318.739 233.891L319.432 234.074L320.096 234.228C320.096 234.228 320.375 233.323 320.779 231.948C320.942 231.39 321.144 230.736 321.337 230.024C322.3 226.912 322.97 223.717 323.338 220.481Z" fill="black"/>
<path d="M300.404 399.682L293.583 397.296L297.874 382.52L304.685 384.915L300.404 399.682Z" fill="#CE7A63"/>
<path d="M391.534 382.174L385.983 386.31L374.622 374.795L380.173 370.659L391.534 382.174Z" fill="#CE7A63"/>
<path d="M383.713 384.627L389.706 379.673C389.808 379.585 389.937 379.536 390.072 379.536C390.206 379.536 390.336 379.585 390.437 379.673L395.036 383.848C395.139 383.95 395.221 384.073 395.277 384.207C395.333 384.342 395.361 384.486 395.361 384.632C395.361 384.777 395.333 384.922 395.277 385.056C395.221 385.191 395.139 385.313 395.036 385.416L394.939 385.502C392.823 387.195 391.707 387.907 389.071 390.081C387.455 391.419 384.059 394.622 381.818 396.469C379.576 398.316 377.633 396.209 378.403 395.238C381.837 390.89 382.636 388.023 383.04 385.675C383.137 385.259 383.374 384.888 383.713 384.627Z" fill="#263238"/>
<path d="M293.121 395.161L300.702 398.326C300.837 398.385 300.95 398.486 301.022 398.614C301.095 398.743 301.125 398.891 301.106 399.038L300.25 405.724C300.216 405.991 300.078 406.235 299.865 406.401C299.652 406.566 299.382 406.641 299.115 406.609C299.015 406.598 298.918 406.572 298.826 406.532C296.142 405.445 294.882 404.906 291.553 403.511L281.337 399.23C278.566 398.066 279.163 395.026 280.375 395.247C285.983 396.267 289.6 395.93 291.813 395.093C292.025 395.018 292.249 394.985 292.474 394.996C292.699 395.008 292.919 395.064 293.121 395.161Z" fill="#263238"/>
<path opacity="0.2" d="M297.874 382.53L295.671 390.139L302.309 393.141L304.694 384.915L297.874 382.53Z" fill="black"/>
<path opacity="0.2" d="M380.182 370.659L374.622 374.795L380.481 380.731L386.031 376.594L380.182 370.659Z" fill="black"/>
<path d="M344.319 256.209L316.229 256.613C312.381 234.863 311.419 224.483 311.419 219.49C311.414 218.245 311.843 217.037 312.634 216.074C313.424 215.112 314.525 214.456 315.748 214.218C317.46 213.881 319.596 213.497 321.741 213.198C322.472 213.102 323.213 213.006 323.944 212.929C328.186 212.565 332.449 212.504 336.7 212.746C337.335 212.746 337.96 212.804 338.624 212.842C341.51 213.025 344.146 213.391 346.022 213.679C346.696 213.788 347.3 214.16 347.701 214.714C348.101 215.268 348.266 215.958 348.157 216.633C348.162 216.681 348.162 216.729 348.157 216.777C347.33 220.625 346.657 224.04 346.118 227.08C345.262 231.89 344.723 235.815 344.406 239.24C343.925 244.885 343.896 250.56 344.319 256.209Z" fill="#263238"/>
<path opacity="0.1" d="M344.396 239.269C342.982 235.026 343.059 226.224 344.579 223.376L346.128 227.099C345.252 231.938 344.713 235.844 344.396 239.269Z" fill="black"/>
<path d="M316.229 256.614C316.229 256.614 311.419 297.508 307.08 322.992C303.646 342.943 294.968 384.473 294.968 384.473L306.233 388.465C306.233 388.465 319.134 345.175 321.395 326.686C330.485 300.029 337.027 256.411 337.027 256.411L316.229 256.614Z" fill="#FFC10D"/>
<path d="M293.141 387.263L306.176 391.851L307.917 387.667L293.776 382.26L293.141 387.263Z" fill="#263238"/>
<path opacity="0.1" d="M330.466 268.764L326.253 276.835C324.713 282.915 325.079 297.71 327.032 307.061C330.534 292.967 333.333 278.133 335.074 268.177L330.466 268.764Z" fill="black"/>
<path d="M322.328 256.613C322.328 256.613 327.359 302.385 336.758 327.801C341.472 340.548 376.44 378.335 376.44 378.335L384.329 372.025C384.329 372.025 362.155 333.901 352.458 323.925C348.504 301.799 353.477 268.629 344.29 256.219L322.328 256.613Z" fill="#FFC10D"/>
<path d="M377.104 381.039L386.358 373.458L383.857 369.35L373.727 378.172L377.104 381.039Z" fill="#263238"/>
<path d="M344.762 254.564L346.06 257.056C346.156 257.248 345.935 257.46 345.608 257.46L316.132 257.883C315.873 257.883 315.671 257.758 315.642 257.604L315.363 255.094C315.363 254.92 315.565 254.766 315.834 254.766L344.29 254.353C344.38 254.347 344.47 254.364 344.552 254.401C344.634 254.438 344.706 254.494 344.762 254.564Z" fill="#263238"/>
<path d="M340.942 257.816H341.722C341.866 257.816 341.981 257.729 341.972 257.643L341.558 254.372C341.558 254.276 341.423 254.208 341.269 254.208H340.548C340.394 254.208 340.279 254.295 340.298 254.382L340.702 257.643C340.654 257.72 340.798 257.816 340.942 257.816Z" fill="#FFC10D"/>
<path d="M318.249 258.124H319.018C319.172 258.124 319.278 258.037 319.269 257.941L318.874 254.68C318.874 254.584 318.72 254.507 318.566 254.507H317.797C317.643 254.507 317.527 254.593 317.537 254.689L317.941 257.951C317.96 258.047 318.095 258.124 318.249 258.124Z" fill="#FFC10D"/>
<path d="M329.6 257.941H330.37C330.524 257.941 330.639 257.855 330.63 257.758L330.226 254.497C330.226 254.391 330.081 254.314 329.928 254.324H329.158C329.004 254.324 328.898 254.411 328.898 254.507L329.302 257.768C329.293 257.883 329.447 257.941 329.6 257.941Z" fill="#FFC10D"/>
<path d="M278.634 227.821L320.327 222.097L326.099 263.03L285.156 268.648L278.634 227.821Z" fill="#FFC10D"/>
<path opacity="0.8" d="M278.634 227.821L320.327 222.097L326.099 263.03L285.156 268.648L278.634 227.821Z" fill="white"/>
<path opacity="0.2" d="M320.899 220.12L309.766 221.695L315.737 263.923L326.871 262.349L320.899 220.12Z" fill="#FFC10D"/>
<path d="M332.15 257.874L326.378 255.613L326.945 262.828C326.945 262.828 330.793 262.636 332.862 260.625L332.15 257.874Z" fill="#CE7A63"/>
<path d="M350.303 221.953C351.851 226.282 353.189 230.611 354.324 235.036C354.901 237.258 355.44 239.49 355.873 241.77C356.084 242.924 356.267 244.098 356.402 245.32C356.556 246.596 356.611 247.883 356.565 249.168C356.538 250.004 356.409 250.835 356.18 251.64C355.864 252.63 355.336 253.54 354.632 254.305C353.603 255.407 352.38 256.31 351.024 256.969C348.804 258.046 346.467 258.863 344.059 259.403C339.558 260.447 334.968 261.062 330.351 261.241L329.899 257.614C332.005 257.114 334.16 256.556 336.257 255.969C338.355 255.382 340.442 254.728 342.443 253.997C344.354 253.34 346.197 252.499 347.946 251.486C348.581 251.115 349.147 250.636 349.62 250.072C349.745 249.879 349.745 249.831 349.725 249.831C349.745 249.546 349.745 249.26 349.725 248.975C349.689 248.043 349.589 247.114 349.427 246.195C349.273 245.233 349.062 244.156 348.831 243.097C348.35 241.039 347.811 238.932 347.205 236.825C346.003 232.65 344.646 228.408 343.29 224.319L350.303 221.953Z" fill="#CE7A63"/>
<path d="M321.058 259.172L321.51 260.846C321.646 261.384 321.953 261.863 322.385 262.21C322.818 262.557 323.351 262.754 323.905 262.77L327.003 262.857L326.435 255.651L323.28 256.007C322.945 256.041 322.62 256.14 322.324 256.3C322.027 256.459 321.765 256.676 321.552 256.937C321.34 257.198 321.181 257.498 321.084 257.821C320.988 258.143 320.956 258.482 320.991 258.816C321.005 258.937 321.027 259.055 321.058 259.172Z" fill="#CE7A63"/>
<path d="M347.022 213.891C350.255 215.209 352.9 225.829 352.9 225.829L343.973 232.804C343.973 232.804 337.643 222.895 338.932 218.595C340.029 214.959 342.905 212.227 347.022 213.891Z" fill="#263238"/>
<path d="M381.529 387.628H381.414C381.252 387.617 381.096 387.566 380.96 387.478C380.824 387.391 380.712 387.27 380.635 387.128C380.577 387.046 380.543 386.95 380.534 386.851C380.526 386.751 380.544 386.651 380.586 386.561C380.981 385.791 383.472 385.483 383.742 385.454C383.774 385.448 383.807 385.452 383.836 385.466C383.865 385.48 383.89 385.503 383.905 385.531C383.924 385.558 383.933 385.59 383.933 385.623C383.933 385.655 383.924 385.687 383.905 385.714C383.386 386.416 382.376 387.571 381.529 387.628ZM383.405 385.829C382.443 385.974 381.087 386.291 380.894 386.714C380.871 386.75 380.859 386.792 380.859 386.835C380.859 386.877 380.871 386.919 380.894 386.955C380.94 387.054 381.011 387.138 381.101 387.199C381.191 387.26 381.296 387.295 381.404 387.301C381.885 387.301 382.655 386.782 383.424 385.829H383.405Z" fill="#263238"/>
<path d="M383.626 385.762C382.789 385.762 381.116 385.464 380.74 384.8C380.681 384.685 380.661 384.553 380.686 384.426C380.71 384.298 380.777 384.183 380.875 384.098C380.96 384.005 381.064 383.931 381.181 383.883C381.297 383.835 381.423 383.813 381.548 383.819C382.559 383.819 383.838 385.368 383.876 385.454C383.891 385.477 383.899 385.504 383.899 385.531C383.899 385.558 383.891 385.585 383.876 385.608C383.869 385.636 383.853 385.662 383.83 385.68C383.808 385.699 383.781 385.711 383.751 385.714L383.626 385.762ZM381.491 384.165C381.355 384.178 381.229 384.24 381.135 384.338C380.99 384.492 381.019 384.588 381.058 384.665C381.279 385.089 382.597 385.435 383.444 385.435C382.961 384.829 382.307 384.384 381.568 384.155L381.491 384.165Z" fill="#263238"/>
<path d="M289.245 395.007C288.71 394.832 288.243 394.496 287.907 394.045C287.831 393.912 287.785 393.764 287.771 393.611C287.758 393.458 287.778 393.304 287.83 393.16C287.857 393.077 287.904 393.002 287.968 392.943C288.032 392.884 288.111 392.842 288.196 392.823C289.081 392.66 291.169 394.901 291.573 395.353C291.592 395.382 291.602 395.415 291.602 395.449C291.602 395.484 291.592 395.517 291.573 395.546C291.556 395.576 291.531 395.6 291.499 395.614C291.468 395.628 291.433 395.631 291.399 395.623C290.662 395.491 289.94 395.284 289.245 395.007ZM288.581 393.198C288.482 393.151 288.372 393.131 288.263 393.141C288.263 393.141 288.177 393.141 288.138 393.256C288.099 393.356 288.085 393.464 288.095 393.571C288.105 393.677 288.139 393.781 288.196 393.872C288.494 394.391 289.524 394.882 290.986 395.199C290.3 394.412 289.495 393.737 288.6 393.198H288.581Z" fill="#263238"/>
<path d="M291.39 395.603H291.332C290.63 394.901 289.485 392.794 289.879 392.121C289.966 391.976 290.149 391.823 290.562 391.938C292.111 392.39 291.64 395.392 291.611 395.517C291.611 395.548 291.599 395.579 291.578 395.602C291.556 395.625 291.527 395.639 291.496 395.642C291.476 395.646 291.456 395.645 291.437 395.638C291.418 395.631 291.402 395.619 291.39 395.603ZM290.62 392.246H290.524C290.37 392.198 290.255 392.246 290.216 392.246C289.985 392.64 290.726 394.228 291.399 395.074C291.39 394.333 291.486 392.631 290.62 392.246Z" fill="#263238"/>
<path d="M320.423 183.963C320.423 183.963 316.575 190.399 319.461 193.218C322.347 196.036 323.194 186.041 323.194 186.041L320.423 183.963Z" fill="#263238"/>
<path d="M338.297 199.067C338.297 199.067 343.107 191.544 341.106 184.069C339.105 176.594 329.754 181.424 325.81 179.374C324.365 178.496 322.826 177.783 321.221 177.248C320.964 177.172 320.692 177.156 320.426 177.201C320.161 177.246 319.91 177.351 319.692 177.508C318.73 178.355 320.404 179.942 320.923 180.539C320.604 180.169 320.235 179.845 319.827 179.577C319.317 179.24 318.634 179.211 318.865 180.067C319.26 180.987 319.969 181.737 320.865 182.184C320.49 181.972 318.268 180.846 318.114 181.549C318.095 181.719 318.139 181.89 318.239 182.03C319.682 184.723 322.587 188.109 325.935 188.177C329.966 188.235 333.814 199.576 338.297 199.067Z" fill="#263238"/>
<path d="M340 199.403C339.75 201.943 335.979 201.972 335.979 201.972C335.361 203.425 334.335 204.669 333.025 205.55C332.909 207.084 332.961 208.626 333.179 210.149C333.814 212.544 334.622 213.372 335.632 213.91L334.824 214.709C333.277 215.601 331.53 216.088 329.745 216.123L328.687 215.507L327.301 215.728C323.453 214.468 324.415 211.88 324.415 211.88C325.117 210.123 325.155 208.17 324.521 206.387C320.827 205.233 319.317 202.02 318.797 196.613C318.278 191.207 321.318 186.031 321.318 186.031C325.493 190.062 333.766 187.474 333.766 187.474C333.41 195.055 336.95 197.854 336.95 197.854C338.114 196.816 340.24 196.873 340 199.403Z" fill="#CE7A63"/>
<path d="M326.57 200.096C327.563 199.818 328.421 199.189 328.985 198.326C329.03 198.258 329.048 198.175 329.033 198.094C329.019 198.013 328.974 197.941 328.908 197.893C328.875 197.869 328.838 197.851 328.798 197.841C328.759 197.832 328.718 197.83 328.677 197.836C328.637 197.842 328.598 197.857 328.564 197.878C328.529 197.899 328.499 197.927 328.475 197.96C328.15 198.544 327.647 199.008 327.04 199.285C326.432 199.562 325.752 199.637 325.098 199.5C325.02 199.475 324.936 199.483 324.864 199.521C324.792 199.559 324.738 199.624 324.713 199.702C324.689 199.781 324.697 199.866 324.734 199.94C324.772 200.013 324.837 200.07 324.915 200.096C325.458 200.238 326.028 200.238 326.57 200.096Z" fill="#263238"/>
<path d="M327.667 193.477C327.667 193.968 327.474 194.391 327.147 194.439C326.82 194.487 326.522 194.083 326.484 193.593C326.445 193.102 326.686 192.631 327.013 192.631C327.34 192.631 327.628 192.977 327.667 193.477Z" fill="#263238"/>
<path d="M321.779 193.227C321.779 193.718 321.587 194.141 321.26 194.189C320.933 194.237 320.644 193.833 320.606 193.343C320.567 192.852 320.798 192.429 321.125 192.381C321.452 192.333 321.751 192.727 321.779 193.227Z" fill="#263238"/>
<path d="M323.338 197.989L323.271 194.43L321.5 197.431C321.745 197.656 322.037 197.823 322.355 197.92C322.674 198.017 323.009 198.04 323.338 197.989Z" fill="#BA4D3C"/>
<path d="M330.351 190.476C330.393 190.465 330.432 190.445 330.466 190.418C330.513 190.391 330.554 190.354 330.586 190.31C330.619 190.266 330.642 190.216 330.655 190.163C330.667 190.11 330.669 190.055 330.66 190.001C330.65 189.948 330.63 189.896 330.601 189.851C330.281 189.314 329.816 188.877 329.26 188.592C328.704 188.306 328.078 188.182 327.455 188.234C327.401 188.24 327.349 188.257 327.301 188.284C327.254 188.31 327.212 188.346 327.179 188.389C327.146 188.433 327.121 188.482 327.108 188.535C327.094 188.587 327.091 188.642 327.099 188.696C327.114 188.804 327.17 188.903 327.257 188.969C327.343 189.036 327.453 189.066 327.561 189.052C328.026 189.023 328.49 189.123 328.903 189.34C329.315 189.557 329.659 189.884 329.899 190.284C329.944 190.36 330.012 190.419 330.093 190.454C330.174 190.489 330.265 190.496 330.351 190.476Z" fill="#263238"/>
<path d="M319.913 190.082C320.021 190.053 320.114 189.984 320.173 189.889C320.345 189.628 320.59 189.423 320.877 189.298C321.164 189.174 321.481 189.135 321.789 189.187C321.842 189.198 321.897 189.198 321.95 189.188C322.003 189.177 322.054 189.156 322.099 189.126C322.144 189.095 322.182 189.056 322.212 189.01C322.241 188.964 322.261 188.913 322.27 188.86C322.29 188.753 322.266 188.642 322.205 188.552C322.144 188.462 322.05 188.4 321.943 188.379C321.467 188.291 320.975 188.348 320.532 188.544C320.09 188.739 319.716 189.064 319.461 189.475C319.407 189.57 319.392 189.683 319.419 189.788C319.446 189.894 319.513 189.985 319.605 190.043C319.7 190.093 319.809 190.107 319.913 190.082Z" fill="#263238"/>
<path d="M337.2 214.247L335.132 216.267L331.447 219.884L330.062 217.681L328.687 215.507L333.497 209.774L336.998 214.007L337.2 214.247Z" fill="white"/>
<path d="M328.687 215.507L327.619 217.287L326.051 219.884L322.453 213.391L324.752 210.688L328.687 215.507Z" fill="white"/>
</svg>
