<svg width="481" height="481" viewBox="0 0 481 481" fill="none" xmlns="http://www.w3.org/2000/svg">
<path style="mix-blend-mode:color-dodge" d="M83.3236 242.386L97.4314 247.653L183.15 195.171L169.043 189.88C164.901 188.355 159.312 187.903 153.651 188.639C148.643 189.288 143.963 190.818 140.524 192.92L124.44 202.79L120.563 201.347C112.867 198.509 100.707 199.846 93.5834 204.344C86.58 208.778 87.542 214.598 95.1081 217.412L98.528 218.673L82.4434 228.504C79.0042 230.611 77.0514 233.146 76.9696 235.609C76.8782 238.398 79.187 240.861 83.3236 242.386ZM101.121 212.727C97.6382 211.443 97.465 208.774 100.741 206.768C104.016 204.762 109.495 204.18 112.977 205.464C116.46 206.749 116.633 209.418 113.357 211.419C110.082 213.42 104.622 214.012 101.14 212.727H101.121Z" fill="url(#paint0_radial_382_27266)"/>
<path opacity="0.02" d="M186.113 177.97L45.6613 259.875C42.0971 261.948 39.442 265.142 39.2833 268.013C39.0425 269.877 39.4103 271.768 40.3318 273.405C41.6017 275.7 43.9538 277.999 47.417 280L260.529 403.001C265.82 406.06 272.554 407.739 279.086 407.936C284.088 408.085 288.932 407.368 292.881 405.767C293.895 405.355 294.878 404.873 295.825 404.324L436.065 322.554C439.533 320.553 442.135 317.474 442.395 314.689C442.695 312.801 442.357 310.866 441.433 309.192C440.173 306.849 437.797 304.502 434.266 302.458L221.577 179.692C220.055 178.821 218.473 178.058 216.844 177.407C211.113 175.195 204.973 174.238 198.841 174.603C194.035 174.858 189.557 175.993 186.113 177.97Z" fill="white"/>
<path opacity="0.04" d="M186.368 178.451L46.7291 259.865C43.5161 261.722 40.2597 265.108 40.101 267.696C39.6986 269.465 39.9142 271.319 40.7118 272.948C41.8422 275.171 44.1269 277.503 47.6767 279.552L260.789 402.554C266.031 405.579 272.713 407.243 279.216 407.421C284.218 407.556 289.028 406.811 292.895 405.19C293.895 404.77 294.866 404.288 295.805 403.747L435.036 322.554C438.157 320.75 441.346 317.489 441.577 314.983C442.046 313.195 441.869 311.299 441.077 309.629C439.956 307.364 437.652 304.988 434.04 302.895L221.741 180.375C220.224 179.503 218.653 178.731 217.037 178.061C211.34 175.777 205.215 174.761 199.086 175.084C194.261 175.339 189.783 176.46 186.368 178.451Z" fill="white"/>
<path opacity="0.05" d="M186.628 178.879L47.7922 259.846C44.935 261.496 41.0582 265.074 40.9235 267.373C40.5002 268.898 40.2597 270.683 41.0918 272.491C42.0827 274.641 44.2953 277.003 47.9365 279.105L261.044 402.116C266.229 405.113 272.867 406.762 279.322 406.926C284.329 407.046 289.095 406.272 292.881 404.632C293.87 404.207 294.834 403.725 295.767 403.189L434.006 322.554C436.782 320.952 440.553 317.503 440.764 315.276C441.245 313.727 441.495 311.909 440.668 310.072C439.706 307.883 437.455 305.483 433.761 303.338L221.871 181.058C220.357 180.187 218.795 179.405 217.191 178.716C211.541 176.369 205.442 175.303 199.331 175.594C194.488 175.82 189.995 176.926 186.628 178.879Z" fill="white"/>
<path opacity="0.07" d="M186.888 179.327L48.8407 259.827C46.3444 261.27 41.8518 265.046 41.7316 267.042C41.2025 268.485 40.7215 270.211 41.4622 272.02C42.3136 274.098 44.4588 276.493 48.1962 278.643L261.303 401.635C266.426 404.593 273.02 406.233 279.475 406.373C284.483 406.479 289.216 405.675 292.943 404.016C293.612 403.751 295.195 402.9 295.786 402.573L432.977 322.554C435.406 321.154 439.764 317.523 439.947 315.57C440.514 314.127 441.015 312.352 440.283 310.519C439.437 308.408 437.277 305.974 433.506 303.785L222.02 181.736C221.058 181.193 218.432 179.774 217.369 179.365C211.756 176.958 205.673 175.844 199.572 176.104C194.709 176.301 190.236 177.393 186.888 179.327Z" fill="white"/>
<path opacity="0.09" d="M187.143 179.774L49.9134 259.803C47.7729 261.039 42.6647 265.031 42.5589 266.734C41.924 268.061 41.2073 269.769 41.8518 271.573C42.5685 273.578 44.6416 276.008 48.4511 278.21L261.563 401.207C266.623 404.131 273.179 405.762 279.61 405.878C284.617 405.969 289.312 405.142 292.934 403.473C293.506 403.246 295.233 402.299 295.738 402.029L431.938 322.559C434.016 321.356 438.961 317.537 439.114 315.868C439.783 314.521 440.519 312.79 439.879 310.962C439.167 308.932 437.085 306.469 433.232 304.228L222.169 182.419C221.356 181.938 218.451 180.37 217.542 180.014C211.974 177.542 205.914 176.378 199.827 176.609C194.935 176.782 190.476 177.859 187.143 179.774Z" fill="white"/>
<path opacity="0.11" d="M187.402 180.221L50.986 259.784C49.2015 260.813 43.4728 264.978 43.3862 266.417C42.6503 267.643 41.6931 269.303 42.2414 271.116C42.8282 273.04 44.8196 275.512 48.7205 277.763L261.818 400.76C266.82 403.646 273.333 405.267 279.74 405.363C284.747 405.44 289.408 404.584 292.943 402.881C293.424 402.694 295.296 401.65 295.719 401.409L430.923 322.559C432.66 321.558 438.181 317.556 438.311 316.162C439.076 314.921 440.052 313.232 439.504 311.409C438.922 309.485 436.921 306.965 432.987 304.675L222.309 183.083C221.635 182.694 218.461 180.943 217.71 180.654C212.588 178.192 206.214 176.927 200.067 177.1C195.161 177.263 190.688 178.326 187.402 180.221Z" fill="white"/>
<path opacity="0.13" d="M187.662 180.669L52.0201 259.764C50.5771 260.587 44.252 264.949 44.1798 266.099C43.3381 267.225 42.1452 268.855 42.5974 270.659C43.0495 272.463 44.9687 275.017 48.9562 277.316L262.078 400.312C267.018 403.165 273.487 404.771 279.875 404.848C284.887 404.911 289.495 404.026 292.963 402.304C293.343 402.155 295.368 401.015 295.7 400.822L429.899 322.559C431.289 321.76 437.397 317.571 437.503 316.46C438.364 315.32 439.571 313.675 439.124 311.852C438.677 310.029 436.743 307.455 432.736 305.118L222.462 183.785C221.919 183.473 218.499 181.558 217.888 181.323C212.852 178.812 206.493 177.475 200.317 177.629C195.387 177.744 190.914 178.793 187.662 180.669Z" fill="white"/>
<path opacity="0.15" d="M187.922 181.116L53.0976 259.74C52.025 260.361 45.0649 264.916 45.012 265.777C44.05 266.801 42.6455 268.393 42.9918 270.202C43.3381 272.01 45.1563 274.531 49.2448 276.868L262.337 399.865C267.215 402.684 273.646 404.276 280 404.333C285.012 404.382 289.62 403.472 292.987 401.731C293.275 401.616 295.44 400.38 295.695 400.235L428.864 322.559C429.908 321.962 436.604 317.59 436.681 316.753C437.643 315.719 439.086 314.117 438.73 312.294C438.374 310.471 436.56 307.965 432.477 305.589L222.612 184.464C222.203 184.233 218.518 182.15 218.066 181.977C213.112 179.413 206.767 178.033 200.563 178.129C195.613 178.225 191.14 179.259 187.922 181.116Z" fill="white"/>
<path opacity="0.16" d="M188.177 181.563L54.1606 259.74C53.4439 260.154 45.8682 264.902 45.8345 265.479C44.7811 266.402 43.1361 267.951 43.3718 269.764C43.593 271.448 45.3294 274.04 49.4853 276.441L262.597 399.418C267.407 402.203 273.8 403.781 280.134 403.819C285.142 403.853 289.692 402.915 292.982 401.154C293.169 401.077 295.483 399.75 295.651 399.649L427.84 322.564C428.532 322.165 435.81 317.605 435.863 317.047C436.926 316.114 438.576 314.56 438.34 312.742C438.119 311.049 436.382 308.446 432.212 306.037L222.761 185.147C222.487 184.993 218.542 182.742 218.239 182.626C213.372 180.015 207.042 178.576 200.813 178.649C195.839 178.706 191.361 179.726 188.177 181.563Z" fill="white"/>
<path opacity="0.18" d="M188.437 182.011L55.1996 259.702C54.8436 259.904 46.6474 264.849 46.6329 265.137C45.4785 265.965 43.6123 267.47 43.7469 269.288C43.8576 270.89 45.493 273.521 49.7402 275.974L262.852 398.971C267.614 401.717 273.954 403.3 280.264 403.3C285.276 403.3 289.788 402.338 292.992 400.572C293.088 400.534 295.55 399.129 295.632 399.062L426.811 322.583C427.157 322.386 435.021 317.643 435.045 317.364C436.204 316.532 438.076 315.022 437.931 313.204C437.825 311.592 436.185 308.956 431.938 306.503L222.905 185.83C222.77 185.753 218.576 183.338 218.412 183.281C213.631 180.616 207.316 179.12 201.058 179.158C196.065 179.182 191.587 180.193 188.437 182.011Z" fill="white"/>
<path opacity="0.2" d="M280.394 402.789C285.406 402.789 289.884 401.798 293.006 400L434.228 317.638C435.488 316.912 437.566 315.44 437.566 313.626C437.566 312.102 436.026 309.432 431.698 306.931L218.586 183.934C213.886 181.222 207.59 179.663 201.303 179.663C196.291 179.663 191.813 180.659 188.696 182.458L47.4699 264.819C46.2097 265.546 44.1317 267.013 44.1317 268.831C44.1317 270.356 45.6709 273.025 50.0048 275.526L263.107 398.523C267.811 401.236 274.107 402.789 280.394 402.789Z" fill="white"/>
<path d="M294.545 397.624L432.111 317.369C440.942 312.27 439.831 303.367 429.639 297.479L222.674 178.013C212.482 172.126 197.056 171.491 188.23 176.57L50.6349 256.854C41.8085 261.953 42.9389 270.856 53.1072 276.744L260.096 396.2C270.293 402.083 285.714 402.722 294.545 397.624Z" fill="#374951"/>
<path d="M294.545 394.796L432.111 314.536C440.942 309.437 439.831 300.534 429.639 294.647L222.674 175.185C212.482 169.298 197.056 168.658 188.23 173.742L50.6349 254.016C41.8085 259.115 42.9389 268.018 53.1072 273.906L260.096 393.367C270.293 399.254 285.714 399.894 294.545 394.796Z" fill="#D73927"/>
<path opacity="0.2" d="M266.537 388.244L415.647 302.15L201.092 175.45L51.9769 261.539L266.537 388.244Z" fill="white"/>
<path d="M266.537 384.848L415.647 298.759L201.092 174.882L51.9769 260.977L266.537 384.848Z" fill="url(#paint1_linear_382_27266)"/>
<path opacity="0.2" d="M83.3814 242.424L96.5415 248.624L182.188 199.177L169.028 192.977C165.18 190.745 159.841 189.567 154.363 189.726C149.524 189.865 144.94 191.044 141.501 193.025L125.43 202.304L121.813 200.216C114.627 196.07 102.891 196.137 95.7623 200.404C88.7637 204.593 89.264 211.323 96.3491 215.411L99.5381 217.253L83.4679 226.551C80.0288 228.533 77.9893 231.178 77.7488 233.973C77.4699 237.133 79.5141 240.197 83.3814 242.424ZM102.453 210.822C99.2014 208.946 99.2207 205.892 102.491 204.002C105.762 202.111 111.048 202.107 114.3 204.002C117.552 205.897 117.537 208.932 114.266 210.817C110.996 212.703 105.69 212.698 102.453 210.822Z" fill="white"/>
<path d="M84.3241 239.596L97.4843 247.292L183.131 197.845L169.971 190.149C166.123 187.917 160.784 186.739 155.305 186.897C150.466 187.037 145.883 188.215 142.443 190.197L126.373 199.48L122.756 197.388C115.57 193.242 103.833 193.309 96.7051 197.576C89.7065 201.765 90.2068 208.494 97.2919 212.588L100.481 214.43L84.4107 223.708C80.9716 225.69 78.9321 228.336 78.6916 231.13C78.403 234.295 80.4569 237.369 84.3241 239.596ZM103.381 207.994C100.13 206.118 100.149 203.064 103.42 201.174C106.691 199.283 111.977 199.278 115.228 201.174C118.48 203.069 118.466 206.104 115.195 207.994C111.924 209.884 106.633 209.87 103.381 207.994Z" fill="#374951"/>
<g style="mix-blend-mode:color-dodge">
<path style="mix-blend-mode:color-dodge" d="M103.415 199.856C106.686 197.966 111.972 197.956 115.224 199.856C117.148 200.957 117.908 202.463 117.566 203.906C117.326 202.905 116.556 201.939 115.224 201.174C111.972 199.298 106.686 199.308 103.415 201.174C102.063 201.953 101.279 202.934 101.039 203.944C100.697 202.501 101.491 200.972 103.415 199.856Z" fill="url(#paint2_radial_382_27266)"/>
<path style="mix-blend-mode:color-dodge" d="M97.2871 211.265L100.481 213.107L99.3361 213.766L97.2871 212.602C93.2948 210.293 91.3948 207.148 91.7508 204.093C92.0009 206.7 93.8672 209.293 97.2871 211.265Z" fill="url(#paint3_radial_382_27266)"/>
<path style="mix-blend-mode:color-dodge" d="M84.3241 238.278L97.4843 245.974L181.991 197.162L183.131 197.826L97.4843 247.273L84.3241 239.577C80.4761 237.35 78.4126 234.286 78.6916 231.111C78.6893 231.084 78.6893 231.057 78.6916 231.029C78.985 233.766 80.9619 236.34 84.3241 238.278Z" fill="url(#paint4_radial_382_27266)"/>
</g>
<path d="M140.962 233.319L145.041 235.676L153.247 230.933L149.168 228.581L140.962 233.319ZM108.542 256.748L141.52 237.706L137.446 235.349L104.464 254.392L108.542 256.748ZM100.943 256.421L86.3347 264.858L90.4136 267.215L105.022 258.778L100.943 256.421ZM129.764 249.875L95.0745 269.904L99.1533 272.261L133.843 252.232L129.764 249.875Z" fill="#9B9DB2"/>
<path d="M274.334 301.154L276.941 302.66L296.623 291.173L294.016 289.668L274.334 301.154ZM305.781 289.322L274.391 307.566L276.998 309.071L308.388 290.827L305.781 289.322ZM233.848 327.436L274.689 303.954L272.087 302.453L231.241 325.931L233.848 327.436ZM332.525 280.327L303.126 297.306L305.728 298.807L335.132 281.832L332.525 280.327ZM300.875 298.605L269.49 316.849L272.092 318.355L303.482 300.11L300.875 298.605ZM315.878 286.508L313.27 285.002L308.028 288.032L310.635 289.533L315.878 286.508ZM349.115 273.766L346.508 272.246L334.776 279.033L337.378 280.534L349.115 273.766ZM338.836 270.245L315.522 283.713L318.124 285.214L341.443 271.746L338.836 270.245ZM267.239 318.143L221.664 344.502L224.266 346.007L269.841 319.649L267.239 318.143ZM228.994 327.229L210.495 338.057L213.102 339.557L231.601 328.73L228.994 327.229ZM272.145 308.865L216.08 341.279L218.687 342.785L274.752 310.37L272.145 308.865Z" fill="#9B9DB2"/>
<path d="M341.616 305.358L339.009 303.857L329.644 309.283L332.251 310.784L341.616 305.358ZM320.485 311.13L341.553 298.965L338.951 297.46L317.883 309.624L320.485 311.13ZM362.332 290.413L341.255 302.549L343.862 304.054L364.93 291.89L362.332 290.413ZM310.384 313.949L312.992 315.454L318.234 312.429L315.627 310.923L310.384 313.949ZM364.555 310.683L386.724 297.869L384.117 296.363L361.957 309.158L364.555 310.683ZM367.171 290.62L372.943 287.287L370.37 285.762L364.598 289.095L367.171 290.62ZM343.8 297.667L367.369 284.064L364.762 282.559L341.193 296.166L343.8 297.667Z" fill="#9B9DB2"/>
<g style="mix-blend-mode:multiply" opacity="0.8">
<path d="M262.491 335.493L308.321 343.569H308.412C308.537 343.57 308.659 343.526 308.755 343.446C308.851 343.366 308.915 343.254 308.937 343.131C308.959 342.992 308.926 342.85 308.846 342.735C308.765 342.62 308.642 342.541 308.504 342.516L267.138 335.233C273.001 331.866 281.524 330.606 289.451 332.006C297.066 333.333 302.814 336.936 304.473 341.366L305.469 340.996C303.694 336.214 297.633 332.371 289.658 330.967C281.399 329.524 272.486 330.842 266.407 334.44L266.844 335.18L262.689 334.449C262.55 334.425 262.407 334.458 262.291 334.539C262.176 334.62 262.097 334.743 262.073 334.882C262.048 335.018 262.077 335.159 262.156 335.274C262.234 335.388 262.355 335.467 262.491 335.493ZM256.142 344.839C256.13 344.907 256.132 344.977 256.148 345.045C256.163 345.113 256.192 345.177 256.232 345.234C256.272 345.291 256.323 345.339 256.382 345.376C256.441 345.413 256.506 345.438 256.575 345.45L260.861 346.21L260.024 346.46C261.553 351.496 267.681 355.531 276.007 356.998C278.215 357.385 280.452 357.578 282.693 357.576C288.701 357.576 294.584 356.21 299.009 353.67L298.528 352.862L302.4 353.526H302.486C302.611 353.526 302.733 353.483 302.829 353.403C302.925 353.323 302.989 353.211 303.011 353.088C303.033 352.949 303.001 352.807 302.92 352.692C302.839 352.577 302.716 352.498 302.578 352.472L278.047 348.268C277.978 348.257 277.908 348.258 277.84 348.274C277.773 348.289 277.708 348.318 277.652 348.358C277.595 348.398 277.547 348.449 277.51 348.508C277.473 348.567 277.448 348.633 277.436 348.701C277.413 348.84 277.446 348.982 277.527 349.097C277.608 349.212 277.731 349.291 277.869 349.317L298.316 352.823C292.458 356.128 283.992 357.33 276.19 355.95C268.388 354.569 262.53 350.846 261.068 346.238L273.016 348.35H273.112C273.237 348.349 273.357 348.305 273.452 348.224C273.547 348.143 273.611 348.031 273.631 347.908C273.644 347.839 273.642 347.769 273.628 347.701C273.613 347.634 273.585 347.569 273.545 347.513C273.505 347.456 273.454 347.407 273.396 347.37C273.337 347.333 273.272 347.308 273.203 347.297L256.753 344.411C256.615 344.388 256.475 344.42 256.36 344.5C256.246 344.58 256.168 344.702 256.142 344.839ZM252.636 349.096C255.522 355.089 263.367 359.74 273.569 361.539C276.566 362.063 279.603 362.325 282.645 362.323C296.488 362.323 308.586 357.138 312.737 349.418C313.648 347.819 314.15 346.019 314.199 344.179C314.248 342.339 313.841 340.515 313.016 338.87C310.13 332.876 302.284 328.225 292.082 326.426C289.085 325.901 286.049 325.637 283.006 325.637C269.163 325.637 257.066 330.822 252.915 338.542C252.002 340.142 251.5 341.943 251.451 343.784C251.402 345.625 251.809 347.45 252.636 349.096ZM253.848 339.047C257.758 331.78 269.75 326.705 283.006 326.705C285.987 326.703 288.963 326.961 291.9 327.475C301.765 329.211 309.302 333.646 312.058 339.331C312.809 340.827 313.178 342.484 313.133 344.156C313.089 345.829 312.632 347.464 311.803 348.918C307.888 356.186 295.902 361.26 282.645 361.26C279.664 361.262 276.688 361.004 273.752 360.491C263.886 358.754 256.349 354.324 253.593 348.634C252.843 347.138 252.473 345.481 252.518 343.809C252.562 342.136 253.019 340.501 253.848 339.047ZM255.589 339.1C254.772 340.538 254.321 342.154 254.278 343.807C254.234 345.46 254.598 347.098 255.339 348.576C257.975 354.007 265.089 358.23 274.372 359.865C277.109 360.342 279.882 360.582 282.66 360.582C295.276 360.582 306.291 355.873 310.077 348.865C310.894 347.427 311.344 345.811 311.388 344.158C311.432 342.505 311.067 340.867 310.327 339.389C307.691 333.959 300.577 329.735 291.289 328.1C288.553 327.625 285.782 327.387 283.006 327.388C270.375 327.388 259.36 332.092 255.589 339.105V339.1ZM256.07 339.355C259.697 332.621 270.769 327.917 283.006 327.917C285.747 327.915 288.483 328.151 291.183 328.624C300.322 330.231 307.272 334.343 309.831 339.62C310.535 341.022 310.882 342.577 310.84 344.145C310.798 345.713 310.369 347.247 309.591 348.61C305.969 355.344 294.891 360.048 282.655 360.048C279.914 360.05 277.178 359.814 274.478 359.341C265.339 357.734 258.388 353.622 255.825 348.345C255.121 346.943 254.773 345.39 254.813 343.821C254.854 342.253 255.28 340.719 256.056 339.355H256.07ZM275.57 342.102L277.912 344.589L275.68 347.123C275.627 347.184 275.593 347.259 275.584 347.339C275.574 347.419 275.59 347.5 275.627 347.571C275.665 347.641 275.723 347.698 275.793 347.735C275.863 347.773 275.943 347.789 276.022 347.782L281.241 347.205L284.968 349.351C285.029 349.384 285.097 349.402 285.166 349.403C285.222 349.402 285.277 349.39 285.329 349.37C285.386 349.344 285.436 349.305 285.475 349.257C285.514 349.208 285.542 349.152 285.555 349.091L286.219 346.205L290.841 344.829C290.924 344.804 290.996 344.754 291.047 344.685C291.098 344.616 291.126 344.533 291.126 344.447C291.126 344.361 291.098 344.277 291.047 344.208C290.996 344.14 290.924 344.089 290.841 344.064L286.157 342.79L285.368 339.904C285.337 339.804 285.269 339.72 285.178 339.67C285.087 339.62 284.98 339.607 284.88 339.635C284.78 339.663 284.694 339.728 284.641 339.818C284.589 339.908 284.573 340.014 284.598 340.115L285.449 343.213C285.469 343.279 285.504 343.34 285.553 343.388C285.602 343.437 285.662 343.473 285.728 343.492L289.283 344.454L285.777 345.498C285.71 345.519 285.649 345.558 285.601 345.609C285.553 345.66 285.519 345.723 285.502 345.791L284.911 348.379L281.544 346.455C281.47 346.415 281.386 346.398 281.303 346.407L276.974 346.888L278.768 344.853C278.834 344.78 278.871 344.685 278.871 344.586C278.871 344.488 278.834 344.393 278.768 344.319L276.897 342.328L281.226 342.708C281.278 342.713 281.331 342.708 281.381 342.693C281.432 342.677 281.478 342.652 281.519 342.619C281.559 342.585 281.592 342.544 281.616 342.497C281.64 342.45 281.655 342.399 281.659 342.347C281.669 342.242 281.636 342.137 281.568 342.056C281.501 341.975 281.404 341.924 281.298 341.914L275.93 341.433C275.85 341.425 275.769 341.442 275.698 341.482C275.628 341.521 275.571 341.582 275.536 341.655C275.495 341.723 275.475 341.802 275.478 341.881C275.481 341.961 275.508 342.037 275.555 342.102H275.57ZM264.252 339.644L260.779 340.678C260.695 340.701 260.622 340.751 260.57 340.821C260.519 340.891 260.492 340.976 260.495 341.063C260.495 341.15 260.524 341.234 260.577 341.303C260.63 341.371 260.705 341.421 260.789 341.443L264.309 342.405L264.896 344.55C264.912 344.61 264.942 344.664 264.983 344.71C265.024 344.756 265.075 344.792 265.132 344.815C265.179 344.834 265.23 344.843 265.281 344.844C265.354 344.844 265.426 344.824 265.488 344.786L268.345 343.04C268.395 343.016 268.44 342.981 268.476 342.939C268.513 342.896 268.539 342.847 268.555 342.793C268.571 342.74 268.576 342.683 268.568 342.628C268.561 342.573 268.542 342.52 268.513 342.472C268.484 342.424 268.446 342.383 268.4 342.351C268.354 342.32 268.302 342.298 268.247 342.288C268.192 342.277 268.136 342.278 268.081 342.291C268.027 342.304 267.976 342.328 267.931 342.362L265.526 343.805L265.002 341.991C264.983 341.925 264.947 341.865 264.899 341.816C264.85 341.767 264.789 341.731 264.723 341.712L262.318 341.058L264.68 340.356C264.747 340.336 264.808 340.299 264.856 340.249C264.904 340.198 264.938 340.135 264.954 340.067L265.377 338.215L267.845 339.63C267.918 339.671 268.002 339.69 268.085 339.682L271.145 339.341L269.937 340.712C269.871 340.786 269.834 340.882 269.834 340.981C269.834 341.081 269.871 341.176 269.937 341.25L271.914 343.348C271.949 343.39 271.992 343.425 272.041 343.45C272.09 343.476 272.143 343.49 272.198 343.494C272.253 343.497 272.308 343.49 272.36 343.471C272.411 343.452 272.459 343.423 272.499 343.385C272.538 343.347 272.57 343.301 272.591 343.251C272.613 343.2 272.624 343.146 272.623 343.091C272.622 343.036 272.61 342.981 272.587 342.931C272.565 342.881 272.532 342.836 272.491 342.799L270.803 340.947L272.448 339.081C272.501 339.021 272.535 338.946 272.545 338.866C272.555 338.787 272.542 338.706 272.506 338.634C272.469 338.562 272.411 338.503 272.339 338.465C272.268 338.427 272.187 338.412 272.107 338.422L268.157 338.855L265.339 337.234C265.283 337.207 265.221 337.193 265.158 337.193C265.096 337.193 265.034 337.207 264.978 337.234C264.921 337.26 264.872 337.299 264.832 337.347C264.793 337.396 264.766 337.452 264.752 337.513L264.252 339.644ZM299.73 348.663L303.828 349.023C303.909 349.03 303.991 349.012 304.061 348.972C304.131 348.932 304.188 348.871 304.223 348.797C304.258 348.725 304.27 348.643 304.258 348.563C304.246 348.484 304.21 348.409 304.156 348.35L302.429 346.517L304.074 344.651C304.126 344.59 304.159 344.515 304.168 344.436C304.178 344.356 304.163 344.275 304.127 344.204C304.09 344.132 304.032 344.073 303.96 344.035C303.889 343.997 303.808 343.982 303.727 343.992L299.778 344.425L296.96 342.804C296.904 342.777 296.844 342.763 296.782 342.763C296.72 342.763 296.659 342.777 296.604 342.804C296.547 342.83 296.496 342.868 296.456 342.917C296.416 342.965 296.387 343.022 296.373 343.083L295.892 345.233L292.419 346.267C292.337 346.292 292.265 346.342 292.214 346.411C292.162 346.48 292.135 346.564 292.135 346.65C292.135 346.736 292.162 346.819 292.214 346.888C292.265 346.957 292.337 347.007 292.419 347.032L295.94 347.994L296.527 350.139C296.557 350.239 296.625 350.323 296.716 350.373C296.807 350.423 296.914 350.436 297.015 350.408C297.115 350.381 297.201 350.315 297.253 350.225C297.306 350.135 297.321 350.029 297.296 349.928L296.652 347.566C296.633 347.499 296.597 347.438 296.547 347.389C296.497 347.34 296.436 347.305 296.368 347.287L293.963 346.633L296.32 345.931C296.387 345.911 296.448 345.874 296.496 345.823C296.544 345.773 296.578 345.71 296.594 345.642L297.017 343.785L299.485 345.228C299.558 345.27 299.642 345.287 299.726 345.276L302.785 344.94L301.587 346.263C301.521 346.337 301.484 346.432 301.484 346.532C301.484 346.631 301.521 346.727 301.587 346.801L302.847 348.138L299.793 347.869C299.691 347.866 299.592 347.902 299.516 347.969C299.44 348.037 299.393 348.131 299.384 348.232C299.375 348.333 299.404 348.434 299.467 348.514C299.53 348.594 299.62 348.647 299.721 348.663H299.73Z" fill="#375188"/>
</g>
<path style="mix-blend-mode:color-dodge" d="M94.2712 237.701L169.355 194.353L166.137 192.521L91.0533 235.868L94.2712 237.701Z" fill="url(#paint5_radial_382_27266)"/>
<path d="M154.324 283.016L137.619 273.396C137.457 273.303 137.322 273.169 137.229 273.008C137.135 272.847 137.086 272.663 137.086 272.477C137.086 272.29 137.135 272.107 137.229 271.946C137.322 271.784 137.457 271.651 137.619 271.558L154.43 261.852C154.59 261.757 154.773 261.708 154.959 261.708C155.145 261.708 155.328 261.757 155.488 261.852L172.198 271.472C172.359 271.565 172.492 271.699 172.585 271.86C172.677 272.022 172.726 272.204 172.726 272.39C172.726 272.576 172.677 272.759 172.585 272.92C172.492 273.081 172.359 273.215 172.198 273.309L155.387 283.016C155.225 283.11 155.041 283.16 154.853 283.16C154.667 283.16 154.484 283.11 154.324 283.016ZM154.959 263.968L140.269 272.453L154.853 280.875L169.548 272.39L154.959 263.968Z" fill="#9B9DB2"/>
<path d="M212.121 239.562L214.843 241.135L220.327 237.97L217.604 236.397L212.121 239.562ZM223.867 239.538L206.994 249.264L209.716 250.837L226.594 241.111L223.867 239.538ZM190.476 255.214L212.506 242.492L209.779 240.919L187.749 253.641L190.476 255.214ZM230.207 235.767L226.229 238.172L228.951 239.745L232.934 237.34L230.207 235.767ZM215.618 225.325L165.594 254.185L170.692 256.854L220.716 227.994L215.618 225.325ZM230.476 228.985L219.961 235.041L222.689 236.614L233.198 230.558L230.476 228.985ZM185.401 254.998L175.642 260.63L178.364 262.203L188.124 256.57L185.401 254.998ZM204.641 250.62L181.472 264.002L184.194 265.575L207.369 252.193L204.641 250.62Z" fill="#9B9DB2"/>
<path d="M186.012 300.404L169.312 290.755C169.151 290.662 169.018 290.529 168.925 290.368C168.832 290.207 168.783 290.024 168.783 289.839C168.783 289.653 168.832 289.471 168.925 289.31C169.018 289.149 169.151 289.015 169.312 288.922L186.147 279.216C186.307 279.121 186.49 279.072 186.676 279.072C186.862 279.072 187.045 279.121 187.205 279.216L203.915 288.836C204.076 288.929 204.209 289.063 204.302 289.225C204.395 289.386 204.443 289.569 204.443 289.755C204.443 289.94 204.395 290.123 204.302 290.284C204.209 290.446 204.076 290.58 203.915 290.673L187.08 300.38C186.92 300.474 186.737 300.524 186.551 300.524C186.365 300.524 186.182 300.474 186.022 300.38L186.012 300.404ZM186.647 281.356L171.957 289.841L186.541 298.263L201.236 289.779L186.647 281.356Z" fill="#9B9DB2"/>
<path d="M243.824 256.95L246.546 258.523L252.03 255.358L249.307 253.785L243.824 256.95ZM255.57 256.922L238.696 266.652L241.419 268.225L258.297 258.494L255.57 256.922ZM222.169 272.602L244.199 259.88L241.462 258.297L219.432 271.02L222.169 272.602ZM261.9 253.155L257.922 255.56L260.644 257.133L264.627 254.728L261.9 253.155ZM247.311 242.713L197.287 271.573L202.376 274.233L252.4 245.373L247.311 242.713ZM262.169 246.373L251.654 252.429L254.382 254.002L264.892 247.946L262.169 246.373ZM217.095 272.386L207.335 278.018L210.057 279.591L219.817 273.959L217.095 272.386ZM236.335 268.009L213.17 281.385L215.897 282.958L239.057 269.582L236.335 268.009Z" fill="#9B9DB2"/>
<path d="M217.21 317.874L200.505 308.225C200.344 308.132 200.21 307.999 200.118 307.838C200.025 307.677 199.976 307.494 199.976 307.309C199.976 307.123 200.025 306.941 200.118 306.78C200.21 306.619 200.344 306.485 200.505 306.392L217.316 296.681C217.478 296.589 217.661 296.54 217.847 296.54C218.034 296.54 218.217 296.589 218.379 296.681L235.084 306.33C235.246 306.422 235.381 306.555 235.475 306.716C235.568 306.877 235.618 307.06 235.618 307.246C235.618 307.432 235.568 307.615 235.475 307.776C235.381 307.937 235.246 308.071 235.084 308.162L218.273 317.874C218.111 317.965 217.929 318.013 217.744 318.013C217.557 318.013 217.373 317.965 217.21 317.874ZM217.85 298.826L203.155 307.306L217.744 315.729L232.434 307.249L217.85 298.826Z" fill="#9B9DB2"/>
<path d="M275.021 274.42L277.749 275.993L283.232 272.828L280.505 271.255L275.021 274.42ZM286.772 274.391L269.894 284.122L272.616 285.695L289.495 275.964L286.772 274.391ZM253.367 290.067L275.397 277.349L272.674 275.777L250.644 288.494L253.367 290.067ZM293.102 270.625L289.119 273.03L291.847 274.603L295.825 272.198L293.102 270.625ZM278.499 260.178L228.475 289.081L233.569 291.736L283.593 262.876L278.499 260.178ZM293.352 263.843L282.842 269.899L285.565 271.472L296.08 265.416L293.352 263.843ZM248.292 289.851L238.533 295.488L241.26 297.061L251.019 291.424L248.292 289.851ZM267.532 285.478L244.358 298.855L247.08 300.428L270.255 287.051L267.532 285.478Z" fill="#9B9DB2"/>
<path d="M206.402 191.731L204.959 192.568L231.895 208.124L233.338 207.292L206.402 191.731ZM203.833 193.213L200.947 194.882L227.907 210.442L230.793 208.768L203.833 193.213ZM199.822 195.527L198.379 196.363L225.339 211.924L226.782 211.087L199.822 195.527ZM197.253 197.008L193.636 199.096L220.596 214.656L224.213 212.568L197.253 197.008ZM192.52 199.745L191.077 200.577L218.037 216.137L219.48 215.3L192.52 199.745ZM189.952 201.222L188.509 202.059L215.488 217.619L216.931 216.782L189.952 201.222ZM187.383 202.703L183.766 204.795L210.726 220.351L214.343 218.263L187.383 202.703ZM182.65 205.44L180.476 206.691L207.436 222.251L209.61 220.995L182.65 205.44ZM179.355 207.34L178.634 207.754L205.594 223.314L206.315 222.895L179.355 207.34ZM177.513 208.403L175.344 209.654L202.28 225.214L204.449 223.958L177.513 208.403ZM174.223 210.298L170.606 212.386L197.566 227.946L201.183 225.858L174.223 210.298ZM169.49 213.035L168.764 213.449L195.724 229.009L196.45 228.59L169.49 213.035ZM165.464 215.349L192.424 230.909L194.593 229.653L167.633 214.098L165.464 215.349Z" fill="#9B9DB2"/>
<path d="M227.71 240.842V328.302L147.359 279.73V191.573L227.71 240.842Z" fill="#FED56F"/>
<path d="M227.614 240.842V328.302L305.137 282.04V193.882L227.614 240.842Z" fill="#FEC015"/>
<path d="M305.137 193.881L227.614 240.841L147.359 191.573L225.05 144.858L305.137 193.881Z" fill="#FCE085"/>
<path opacity="0.5" d="M305.137 193.882L227.614 240.842L147.359 191.573L227.624 239.485L305.137 193.882Z" fill="url(#paint6_linear_382_27266)"/>
<path d="M194.42 221.756V245.214L175.969 234.324V210.168L194.42 221.756Z" fill="#D73927"/>
<path d="M271.842 174.796L194.324 221.756L175.969 210.168L253.66 163.449L271.842 174.796Z" fill="#D73927"/>
<path d="M213.54 274.156L220.009 294.853L215.815 292.352V317.027L211.265 314.314V289.639L207.07 287.133L213.54 274.156Z" fill="#D73927"/>
<path d="M191.342 277.759L197.816 264.776L204.286 285.474L200.086 282.973V307.648L195.541 304.935V280.26L191.342 277.759Z" fill="#D73927"/>
<path d="M230.288 157.739V211.789L178.995 181.775V127.292L230.288 157.739Z" fill="#FED56F"/>
<path d="M230.226 157.739V211.789L279.716 183.199V128.721L230.226 157.739Z" fill="#FBBF19"/>
<path d="M279.716 128.721L230.226 157.739L178.995 127.292L228.59 98.4224L279.716 128.721Z" fill="#FCE085"/>
<path opacity="0.5" d="M279.716 128.721L230.226 157.739L178.995 127.292L230.231 156.902L279.716 128.721Z" fill="url(#paint7_linear_382_27266)"/>
<path d="M209.033 145.945V160.443L197.258 153.713V138.783L209.033 145.945Z" fill="#D73927"/>
<path d="M258.461 116.927L208.975 145.945L197.258 138.783L246.854 109.914L258.461 116.927Z" fill="#D73927"/>
<path d="M221.241 178.331L225.373 191.121L222.693 189.572V204.825L219.788 203.146V187.898L217.109 186.349L221.241 178.331Z" fill="#D73927"/>
<path d="M207.07 180.553L211.202 172.535L215.334 185.324L212.655 183.776V199.028L209.75 197.349V182.102L207.07 180.553Z" fill="#D73927"/>
<path d="M303.78 281.712V342.126L246.445 308.576V247.677L303.78 281.712Z" fill="#FED56F"/>
<path d="M303.713 281.712V342.126L359.028 310.168V249.273L303.713 281.712Z" fill="#FBBF19"/>
<path d="M359.028 249.273L303.713 281.712L246.445 247.677L301.885 215.406L359.028 249.273Z" fill="#FCE085"/>
<path opacity="0.5" d="M359.028 249.274L303.713 281.712L246.445 247.677L303.723 280.774L359.028 249.274Z" fill="url(#paint8_linear_382_27266)"/>
<path d="M280.029 268.528V284.733L266.864 277.21V260.524L280.029 268.528Z" fill="#D73927"/>
<path d="M335.271 236.089L279.956 268.528L266.864 260.524L322.299 228.254L335.271 236.089Z" fill="#D73927"/>
<path d="M293.67 304.723L298.287 319.023L295.296 317.292V334.338L292.049 332.462V315.421L289.052 313.689L293.67 304.723Z" fill="#D73927"/>
<path d="M277.83 307.21L282.448 298.244L287.066 312.544L284.074 310.813V327.859L280.827 325.983V308.942L277.83 307.21Z" fill="#D73927"/>
<defs>
<radialGradient id="paint0_radial_382_27266" cx="0" cy="0" r="1" gradientUnits="userSpaceOnUse" gradientTransform="translate(130.058 217.985) scale(43.0062)">
<stop stop-color="white"/>
<stop offset="1"/>
</radialGradient>
<linearGradient id="paint1_linear_382_27266" x1="268.869" y1="390.298" x2="200.914" y2="176.234" gradientUnits="userSpaceOnUse">
<stop offset="0.06" stop-color="#E5E6E6"/>
<stop offset="1" stop-color="#F8FAFB"/>
</linearGradient>
<radialGradient id="paint2_radial_382_27266" cx="0" cy="0" r="1" gradientUnits="userSpaceOnUse" gradientTransform="translate(109.307 201.188) rotate(180) scale(6.21452)">
<stop stop-color="white"/>
<stop offset="1"/>
</radialGradient>
<radialGradient id="paint3_radial_382_27266" cx="0" cy="0" r="1" gradientUnits="userSpaceOnUse" gradientTransform="translate(96.0942 208.923) rotate(180) scale(4.62241)">
<stop stop-color="white"/>
<stop offset="1"/>
</radialGradient>
<radialGradient id="paint4_radial_382_27266" cx="0" cy="0" r="1" gradientUnits="userSpaceOnUse" gradientTransform="translate(130.899 222.217) rotate(180) scale(40.962)">
<stop stop-color="white"/>
<stop offset="1"/>
</radialGradient>
<radialGradient id="paint5_radial_382_27266" cx="0" cy="0" r="1" gradientUnits="userSpaceOnUse" gradientTransform="translate(146.378 249.514) rotate(180) scale(45.0168)">
<stop stop-color="white"/>
<stop offset="1"/>
</radialGradient>
<linearGradient id="paint6_linear_382_27266" x1="145.796" y1="39.4036" x2="233.727" y2="206.989" gradientUnits="userSpaceOnUse">
<stop stop-color="#B1B6DC"/>
<stop offset="0.15" stop-color="#B8BCDF"/>
<stop offset="0.35" stop-color="#CACDE8"/>
<stop offset="0.58" stop-color="#E6E8F5"/>
<stop offset="0.86" stop-color="#F6F6FB"/>
<stop offset="1" stop-color="white"/>
</linearGradient>
<linearGradient id="paint7_linear_382_27266" x1="178.696" y1="31.4671" x2="233.867" y2="136.609" gradientUnits="userSpaceOnUse">
<stop stop-color="#B1B6DC"/>
<stop offset="0.15" stop-color="#B8BCDF"/>
<stop offset="0.35" stop-color="#CACDE8"/>
<stop offset="0.58" stop-color="#E6E8F5"/>
<stop offset="0.86" stop-color="#F6F6FB"/>
<stop offset="1" stop-color="white"/>
</linearGradient>
<linearGradient id="paint8_linear_382_27266" x1="246.113" y1="140.568" x2="307.782" y2="258.09" gradientUnits="userSpaceOnUse">
<stop stop-color="#B1B6DC"/>
<stop offset="0.15" stop-color="#B8BCDF"/>
<stop offset="0.35" stop-color="#CACDE8"/>
<stop offset="0.58" stop-color="#E6E8F5"/>
<stop offset="0.86" stop-color="#F6F6FB"/>
<stop offset="1" stop-color="white"/>
</linearGradient>
</defs>
</svg>
