<svg width="481" height="481" viewBox="0 0 481 481" fill="none" xmlns="http://www.w3.org/2000/svg">
<g opacity="0.2">
<path opacity="0.05" d="M296.027 292.27C299.325 290.45 302.96 289.323 306.71 288.956C307.532 288.879 308.364 288.821 309.201 288.807C313.314 288.754 317.085 289.6 320.081 291.255C320.197 291.255 326.998 295.05 327.08 295.103L381.192 325.502L389.369 330.11L442.251 359.817C445.618 361.741 448.023 364.882 448.504 368.172C448.581 368.649 448.63 369.131 448.648 369.615C448.792 373.982 446.137 378.119 441.327 380.899L423.419 390.187C423.174 390.331 388.888 407.984 388.672 407.835L363.881 420.134C360.279 422.212 355.512 423.208 350.938 423.208C347.218 423.252 343.549 422.345 340.279 420.572L275.344 382.289L231.573 356.479C227.763 354.28 225.349 350.668 225.349 346.801C225.349 342.559 227.71 338.46 232.299 335.81L273.054 307.84C272.842 307.696 295.781 292.414 296.027 292.27Z" fill="#ACB0D9"/>
<path opacity="0.1" d="M292.929 294.761C296.209 292.973 299.801 291.83 303.511 291.394C304.324 291.308 305.146 291.236 305.969 291.207C310.019 291.096 313.766 291.875 316.767 293.458C316.993 293.458 323.574 297.094 323.737 297.191L377.378 327.344L385.512 331.914L437.941 361.38C441.115 363.217 443.737 366.426 444.285 369.557C444.362 370.038 444.439 370.481 444.473 370.952C444.761 375.233 442.207 379.365 437.402 382.14L419.971 391.173C419.49 391.452 386.517 408.22 386.089 407.974L361.948 419.336C358.528 421.308 353.732 422.101 349.384 422.101C345.768 422.101 342.209 421.195 339.033 419.466L275.829 382.236L233.213 357.133C229.596 355.045 227.056 351.476 227.061 347.801C227.061 343.775 229.023 339.716 233.376 337.219L271.034 310.052C270.611 309.788 292.448 295.045 292.929 294.761Z" fill="#A7ABD5"/>
<path opacity="0.14" d="M289.822 297.258C293.074 295.509 296.615 294.358 300.274 293.862C301.077 293.771 301.885 293.674 302.703 293.636C306.389 293.404 310.074 294.108 313.415 295.685C313.756 295.685 320.106 299.172 320.351 299.316L373.53 329.22L381.587 333.756L433.535 362.982C436.541 364.718 439.384 368.003 439.956 370.947C440.043 371.394 440.144 371.846 440.192 372.303C440.625 376.503 438.177 380.625 433.371 383.395L416.416 392.169C415.68 392.592 384.04 408.494 383.405 408.123L359.98 418.552C356.739 420.423 351.909 421.01 347.787 421.01C344.276 420.964 340.83 420.061 337.749 418.378L276.272 382.198L234.824 357.801C231.395 355.824 228.735 352.294 228.735 348.816C228.735 345.002 230.298 340.99 234.425 338.605L269.019 312.255C268.398 311.885 289.081 297.681 289.822 297.258Z" fill="#A3A6D2"/>
<path opacity="0.19" d="M286.714 299.75C289.945 298.035 293.441 296.874 297.056 296.315C297.85 296.219 298.648 296.099 299.461 296.051C303.102 295.769 306.755 296.406 310.086 297.903C310.567 297.931 316.662 301.236 316.993 301.423L369.697 331.087L377.686 335.579L429.196 364.564C432.034 366.205 435.103 369.567 435.695 372.337C435.791 372.775 435.906 373.208 435.969 373.655C436.551 377.773 434.203 381.885 429.403 384.656L412.924 393.165C411.962 393.732 381.625 408.768 380.779 408.278L358.013 417.768C354.978 419.533 350.086 419.913 346.195 419.913C342.789 419.824 339.453 418.924 336.464 417.287L276.714 382.174L236.431 358.489C233.194 356.618 230.413 353.131 230.413 349.831C230.413 346.229 231.577 342.26 235.474 340.009L267.003 314.473C266.152 313.982 285.714 300.317 286.714 299.75Z" fill="#9EA0CF"/>
<path opacity="0.24" d="M283.612 302.241C286.821 300.56 290.273 299.388 293.843 298.768C294.622 298.663 295.406 298.523 296.205 298.465C299.806 298.14 303.431 298.717 306.753 300.144C307.321 300.178 313.208 303.319 313.622 303.559L365.863 332.948L373.785 337.407L424.834 366.152C427.508 367.696 430.803 371.13 431.414 373.727C431.515 374.155 431.649 374.574 431.731 375.012C432.462 379.038 430.211 383.145 425.42 385.911L409.413 394.165C408.186 394.872 379.196 409.042 378.148 408.427L356.06 416.984C353.174 418.648 348.278 418.826 344.617 418.826C341.433 418.826 337.479 417.522 335.194 416.204L277.157 382.121L238.042 359.143C234.993 357.383 232.087 353.939 232.087 350.846C232.087 347.479 232.852 343.535 236.522 341.414L264.983 316.69C263.92 316.075 282.385 302.948 283.612 302.241Z" fill="#9A9BCC"/>
<path opacity="0.29" d="M280.51 304.733C282.737 303.448 287.84 301.611 290.611 301.216C291.38 301.111 292.155 300.952 292.943 300.88C296.496 300.493 300.09 300.988 303.405 302.323C304.088 302.361 309.75 305.343 310.245 305.627L362.015 334.795L369.865 339.22L420.461 367.72C422.967 369.163 426.493 372.679 427.114 375.098C427.224 375.521 427.383 375.925 427.474 376.349C428.355 380.298 426.209 384.386 421.419 387.152L405.887 395.146C404.415 395.998 376.748 409.302 375.473 408.566L354.064 416.185C351.361 417.744 346.426 417.72 343.001 417.72C340.014 417.72 336.027 416.339 333.862 415.103L277.585 382.068L239.629 359.797C236.772 358.148 233.747 354.747 233.747 351.847C233.747 348.667 234.112 344.79 237.551 342.804L262.968 318.903C261.693 318.172 279.038 305.584 280.51 304.733Z" fill="#9696C9"/>
<path opacity="0.33" d="M277.407 307.224C279.485 306.026 284.815 304.064 287.407 303.67C288.167 303.554 288.927 303.376 289.711 303.29C293.221 302.861 296.781 303.294 300.086 304.55C300.88 304.598 306.339 307.436 306.892 307.753L358.201 336.7L365.978 341.082L416.113 369.321C418.456 370.673 422.217 374.261 422.847 376.503C422.963 376.916 423.141 377.306 423.251 377.715C424.285 381.563 422.231 385.661 417.445 388.427L402.39 396.161C400.673 397.152 374.329 409.591 372.842 408.73L352.092 415.416C349.572 416.858 344.603 416.637 341.395 416.637C338.61 416.637 334.593 415.194 332.592 414.03L278.028 382.044L241.241 360.48C238.571 358.941 235.421 355.584 235.421 352.876C235.421 349.908 235.387 346.079 238.6 344.218L260.928 321.13C259.461 320.264 275.685 308.215 277.407 307.224Z" fill="#9192C6"/>
<path opacity="0.38" d="M274.305 309.716C276.229 308.605 281.784 306.512 284.189 306.123C284.94 306.003 285.69 305.805 286.46 305.704C289.926 305.225 293.457 305.59 296.753 306.767C297.662 306.82 302.866 309.48 303.53 309.86L354.367 338.537L362.063 342.866L411.736 370.904C413.905 372.159 417.917 375.825 418.542 377.893C418.667 378.297 418.869 378.667 418.994 379.067C420.178 382.852 418.22 386.921 413.439 389.682L398.86 397.157C396.897 398.292 371.88 409.865 370.178 408.884L350.168 414.622C347.826 415.974 342.823 415.536 339.846 415.536C337.258 415.536 333.208 414.002 331.351 412.929L278.499 382.005L242.876 361.149C240.399 359.706 237.128 356.407 237.128 353.891C237.128 351.135 236.695 347.349 239.677 345.627L258.942 323.343C257.229 322.361 272.337 310.851 274.305 309.716Z" fill="#8D8DC3"/>
<path opacity="0.43" d="M271.197 312.207C272.982 311.183 278.754 308.956 280.971 308.576C281.717 308.451 282.448 308.23 283.213 308.119C286.635 307.588 290.135 307.885 293.42 308.985C294.444 309.043 299.423 311.544 300.154 311.972L350.524 340.399L358.162 344.728L407.407 372.491C409.413 373.65 414.016 377.301 414.295 379.283C414.484 379.649 414.645 380.028 414.776 380.418C416.118 384.122 414.256 388.181 409.485 390.938L395.377 398.153C393.165 399.432 369.475 410.139 367.561 409.033L348.186 413.843C346.022 415.093 340.971 414.449 338.239 414.449C335.834 414.449 331.765 412.837 330.062 411.847L278.932 381.967L244.473 361.823C242.188 360.5 238.792 357.224 238.792 354.906C238.792 352.361 237.965 348.619 240.716 347.032L256.917 325.56C255.002 324.454 268.99 313.487 271.197 312.207Z" fill="#8988C0"/>
<path opacity="0.48" d="M268.095 314.699C269.73 313.737 275.728 311.395 277.753 311.029C278.489 310.894 279.196 310.659 279.966 310.548C283.339 309.968 286.8 310.197 290.067 311.217C291.207 311.279 295.955 313.622 296.777 314.103L346.686 342.289L354.247 346.56L403.015 374.103C404.853 375.161 409.749 378.884 409.98 380.697C410.184 381.049 410.363 381.416 410.514 381.794C412.01 385.416 410.24 389.461 405.469 392.217L391.837 399.177C389.379 400.596 367.013 410.437 364.901 409.211L346.2 413.088C344.223 414.232 339.148 413.386 336.633 413.386C334.444 413.386 330.327 411.698 328.759 410.788L279.379 381.914L246.084 362.477C243.987 361.265 240.471 358.032 240.471 355.906C240.471 353.573 239.24 349.879 241.765 348.422L254.896 327.763C252.77 326.551 265.642 316.118 268.095 314.699Z" fill="#8584BD"/>
<path opacity="0.52" d="M264.993 317.195C266.479 316.334 272.689 313.828 274.536 313.482C275.262 313.343 275.979 313.083 276.714 312.948C280.052 312.319 283.491 312.484 286.753 313.429C288.004 313.506 292.525 315.68 293.434 316.205L342.871 344.141L350.365 348.379L398.672 375.661C400.346 376.623 405.483 380.413 405.714 382.063C405.935 382.4 406.129 382.754 406.296 383.121C407.951 386.666 406.267 390.697 401.486 393.453L388.331 400.149C385.627 401.707 364.584 410.687 362.246 409.336L344.223 412.284C342.424 413.323 337.316 412.284 335.026 412.284C333.04 412.284 328.889 410.514 327.465 409.692L279.822 381.914L247.715 363.155C245.791 362.054 242.169 358.864 242.169 356.931C242.169 354.81 240.543 351.159 242.833 349.836L252.905 329.99C250.543 328.643 262.289 318.754 264.993 317.195Z" fill="#8280BB"/>
<path opacity="0.57" d="M261.89 319.687C263.222 318.913 269.668 316.272 271.318 315.935C272.034 315.786 272.732 315.512 273.468 315.363C276.762 314.675 280.172 314.767 283.424 315.632C284.786 315.714 289.076 317.729 290.067 318.297L339.038 345.988L346.464 350.168L394.314 377.229C395.815 378.095 401.226 381.948 401.433 383.434C401.666 383.757 401.873 384.098 402.054 384.454C403.872 387.912 402.28 391.938 397.513 394.689L384.834 401.154C381.885 402.852 362.169 410.966 359.615 409.495L342.27 411.505C340.649 412.438 335.507 411.183 333.448 411.183C331.659 411.183 327.479 409.336 326.195 408.595L280.264 381.861L249.302 363.828C247.585 362.866 243.824 359.692 243.824 357.951C243.824 356.027 241.794 352.438 243.857 351.245L250.861 332.212C248.311 330.74 258.942 321.385 261.89 319.687Z" fill="#7E7CB8"/>
<path opacity="0.62" d="M258.778 322.178C259.961 321.491 266.628 318.701 268.09 318.383C268.802 318.234 269.485 317.936 270.211 317.777C273.463 317.04 276.841 317.064 280.082 317.849C281.558 317.936 285.623 319.773 286.695 320.408L335.195 347.854L342.549 352.015L389.942 378.831C391.279 379.605 396.955 383.52 397.157 384.843C397.4 385.148 397.622 385.469 397.821 385.805C399.798 389.172 398.302 393.198 393.535 395.945L381.327 402.125C378.133 403.968 359.74 411.216 356.974 409.619L340.308 410.697C338.865 411.529 333.694 410.067 331.861 410.067C330.269 410.067 326.056 408.143 324.916 407.484L280.712 381.798L250.89 364.482C249.365 363.607 245.478 360.5 245.483 358.951C245.483 357.258 243.078 353.694 244.887 352.635L248.826 334.415C246.08 332.852 255.594 324.021 258.778 322.178Z" fill="#7A78B6"/>
<path opacity="0.67" d="M255.68 324.675C256.719 324.074 263.607 321.135 264.887 320.827C265.584 320.668 266.253 320.346 266.969 320.177C270.18 319.389 273.529 319.348 276.758 320.057C278.35 320.149 282.183 321.842 283.338 322.51L331.375 349.706L338.658 353.828L385.594 380.408C386.762 381.082 392.708 385.069 392.866 386.224C393.126 386.527 393.364 386.849 393.578 387.186C395.719 390.476 394.3 394.482 389.543 397.229L377.811 403.155C374.372 405.137 357.301 411.519 354.324 409.797L338.335 409.942C337.075 410.668 331.866 408.98 330.264 408.98C328.869 408.98 324.622 406.974 323.626 406.402L281.154 381.765L252.525 365.17C251.193 364.401 247.181 361.322 247.181 359.98C247.181 358.499 244.353 354.983 245.959 354.054L246.835 336.647C243.867 334.93 252.246 326.657 255.68 324.675Z" fill="#7674B3"/>
<path opacity="0.71" d="M252.578 327.162C253.468 326.647 260.572 323.549 261.669 323.314C262.361 323.15 263.016 322.833 263.723 322.626C266.891 321.785 270.208 321.675 273.424 322.304C275.132 322.405 278.715 323.934 279.976 324.651L327.542 351.587L334.757 355.675L381.236 382.01C382.241 382.587 388.451 386.642 388.59 387.633C388.863 387.915 389.114 388.217 389.341 388.537C391.654 391.741 390.303 395.752 385.56 398.489L374.305 404.151C370.62 406.277 354.877 411.794 351.698 409.951L336.383 409.158C335.3 409.783 330.057 407.907 328.687 407.907C327.494 407.907 323.218 405.829 322.361 405.334L281.616 381.765L254.146 365.863C253.006 365.204 248.855 362.178 248.855 361.019C248.855 359.749 245.627 356.277 247.003 355.483L244.829 338.864C241.621 337.027 248.893 329.288 252.578 327.162Z" fill="#7270B1"/>
<path opacity="0.76" d="M249.475 329.653C250.216 329.225 257.542 325.969 258.451 325.743C259.134 325.57 259.774 325.218 260.476 325.016C263.602 324.118 266.891 323.941 270.096 324.497C271.914 324.603 275.296 325.974 276.613 326.738L323.713 353.444L330.856 357.494L376.878 383.588C377.715 384.069 384.189 388.186 384.305 389.009C384.593 389.279 384.861 389.572 385.103 389.884C387.58 392.996 386.32 396.993 381.572 399.735L370.793 405.137C366.864 407.407 352.443 412.058 349.042 410.091L334.401 408.369C333.501 408.888 328.22 406.811 327.075 406.811C326.08 406.811 321.784 404.656 321.058 404.242L282.039 381.707L255.738 366.522C254.776 365.974 250.529 362.991 250.529 362.025C250.529 360.966 246.907 357.542 248.052 356.878L242.794 341.101C239.389 339.105 245.546 331.924 249.475 329.653Z" fill="#6F6CAE"/>
<path opacity="0.81" d="M246.373 332.145C246.965 331.803 254.507 328.388 255.233 328.196C255.959 328.003 256.537 327.648 257.224 327.431C260.308 326.479 263.566 326.234 266.758 326.714C268.682 326.83 271.842 328.037 273.242 328.845L319.899 355.3L326.969 359.312L372.53 385.166C373.198 385.55 379.947 389.735 380.038 390.394C380.339 390.652 380.62 390.932 380.88 391.231C383.525 394.252 382.347 398.249 377.604 400.986L367.296 406.132C363.121 408.537 350.024 412.328 346.411 410.24L332.462 407.575C331.741 407.994 326.426 405.709 325.512 405.709C324.718 405.709 320.375 403.477 319.802 403.145L282.511 381.659L257.335 367.176C256.575 366.738 252.198 363.809 252.198 363.025C252.198 362.241 248.172 358.797 249.091 358.268L240.765 343.304C237.162 341.217 242.198 334.555 246.373 332.145Z" fill="#6B68AC"/>
<path opacity="0.86" d="M243.266 334.636C243.713 334.381 251.443 330.697 252.015 330.649C252.652 330.34 253.307 330.072 253.978 329.846C257.019 328.838 260.247 328.526 263.424 328.932C265.687 329.182 267.879 329.87 269.88 330.957L316.056 357.166L323.054 361.144L368.162 386.758C368.643 387.046 375.675 391.293 375.748 391.789C376.061 392.033 376.355 392.299 376.628 392.587C379.447 395.517 378.345 399.509 373.607 402.246L363.776 407.133C359.355 409.687 347.585 412.606 343.756 410.394L330.447 406.796C329.904 407.109 324.56 404.622 323.872 404.622C323.275 404.622 318.898 402.308 318.47 402.063L282.929 381.625L258.951 367.849C258.384 367.518 253.881 364.622 253.881 364.04C253.881 363.458 249.461 360.072 250.149 359.672L238.759 345.521C234.93 343.309 238.85 337.181 243.266 334.636Z" fill="#6764AA"/>
<path opacity="0.9" d="M240.163 337.133C240.462 336.96 248.427 333.131 248.797 333.102C249.42 332.78 250.062 332.499 250.721 332.26C253.721 331.197 256.92 330.816 260.086 331.144C262.336 331.341 264.521 331.996 266.508 333.068L312.203 359.042L319.134 362.977L363.78 388.35C364.117 388.542 371.399 392.861 371.443 393.188C371.771 393.418 372.081 393.672 372.371 393.948C375.358 396.782 374.333 400.779 369.6 403.516L360.269 408.133C355.603 410.827 345.156 412.881 341.116 410.538L328.509 406.002C328.153 406.214 322.77 403.52 322.313 403.52C321.856 403.52 317.503 401.115 317.22 400.966L283.386 381.577L260.577 368.508C260.197 368.287 255.575 365.435 255.575 365.045C255.575 364.656 250.765 361.332 251.212 361.067L236.743 347.763C232.703 345.406 235.498 339.826 240.163 337.133Z" fill="#6461A8"/>
<path opacity="0.95" d="M237.061 339.624C237.21 339.538 245.397 335.569 245.579 335.555C246.193 335.22 246.827 334.926 247.479 334.675C250.439 333.556 253.609 333.108 256.763 333.362C258.998 333.498 261.177 334.117 263.15 335.175L308.364 360.894L315.223 364.795L359.418 389.927C359.586 390.023 367.114 394.405 367.157 394.569C367.495 394.785 367.816 395.027 368.119 395.29C371.279 398.027 370.336 402.024 365.603 404.761L356.724 409.129C351.813 411.967 342.688 413.155 338.446 410.697L326.517 405.228C326.339 405.334 320.923 402.438 320.692 402.438C320.461 402.438 316.055 399.971 315.911 399.889L283.804 381.548L262.159 369.187C261.972 369.076 257.224 366.267 257.224 366.07C257.224 365.872 252.006 362.616 252.232 362.481L234.714 349.975C230.471 347.498 232.15 342.472 237.061 339.624Z" fill="#605DA6"/>
<path opacity="0.2" d="M335.81 410.851L284.271 381.51L232.722 352.169C228.254 349.591 228.817 345.089 233.973 342.111L242.376 337.999C247.532 335.021 255.334 334.699 259.798 337.277L311.351 366.618L362.905 395.959C367.369 398.537 366.806 403.039 361.654 406.017L353.246 410.129C348.076 413.102 340.274 413.429 335.81 410.851Z" fill="#5C59A3"/>
</g>
<path d="M340.279 404.131L249.158 351.529C238.879 345.598 230.548 329.677 230.548 315.974V73.3332C230.548 66.3635 224.819 64.8243 228.287 62.3183C228.422 62.2269 242.193 56.0653 242.342 55.9932C246.08 54.5502 250.077 53.9249 254.925 56.7243L346.046 109.326C356.325 115.262 364.656 131.183 364.656 144.887V387.527C364.656 394.805 362.304 400 358.557 402.376C358.335 402.515 342.924 409.639 342.684 409.721C339.355 410.827 344.771 406.729 340.279 404.131Z" fill="#36474F"/>
<path d="M340.279 404.131L249.158 351.529C238.879 345.599 230.548 329.677 230.548 315.974V73.3333C230.548 66.3636 224.819 64.8244 228.287 62.3183C228.422 62.227 241.967 56.1327 242.121 56.0653C245.854 54.6223 249.851 53.997 254.704 56.8013L345.839 109.413C356.113 115.344 364.444 131.265 364.444 144.969V387.609C364.444 394.891 362.092 400.081 358.35 402.458C358.124 402.597 342.958 409.639 342.693 409.721C339.355 410.827 344.771 406.729 340.279 404.131Z" fill="#36474F"/>
<path d="M340.279 404.131L249.158 351.529C238.879 345.599 230.548 329.677 230.548 315.974V73.3333C230.548 66.3636 224.819 64.8244 228.287 62.3184C228.422 62.227 241.755 56.2194 241.895 56.1616C245.627 54.7186 249.625 54.0933 254.478 56.8927L345.598 109.495C355.877 115.43 364.208 131.347 364.208 145.05V387.686C364.208 394.968 361.856 400.158 358.109 402.535C357.888 402.674 342.924 409.634 342.679 409.716C339.355 410.827 344.771 406.729 340.279 404.131Z" fill="#36474F"/>
<path d="M340.279 404.131L249.158 351.529C238.879 345.598 230.548 329.677 230.548 315.974V73.3331C230.548 66.3634 224.819 64.8242 228.287 62.3182C228.422 62.2268 241.52 56.3009 241.669 56.2432C245.406 54.8002 249.403 54.1749 254.252 56.9743L345.358 109.576C355.637 115.512 363.968 131.433 363.968 145.132V387.777C363.968 395.055 361.616 400.25 357.869 402.621C357.648 402.765 342.91 409.639 342.664 409.72C339.355 410.827 344.771 406.729 340.279 404.131Z" fill="#36474F"/>
<path d="M340.279 404.131L249.158 351.529C238.879 345.599 230.548 329.677 230.548 315.974V73.3333C230.548 66.3636 224.819 64.8244 228.287 62.3184C228.422 62.227 241.274 56.3828 241.448 56.3251C245.18 54.8821 249.177 54.2568 254.031 57.061L345.151 109.668C355.425 115.599 363.756 131.52 363.756 145.224V387.859C363.756 395.142 361.404 400.332 357.662 402.708C357.436 402.847 342.924 409.639 342.679 409.721C339.355 410.827 344.771 406.729 340.279 404.131Z" fill="#36474F"/>
<path d="M340.279 404.131L249.158 351.529C238.879 345.599 230.548 329.677 230.548 315.974V73.3333C230.548 66.3636 224.819 64.8244 228.287 62.3184C228.422 62.227 241.072 56.4646 241.221 56.4069C244.954 54.9639 248.951 54.3386 253.804 57.1428L344.925 109.745C355.204 115.681 363.535 131.597 363.535 145.301V387.941C363.535 395.223 361.183 400.413 357.436 402.789C357.215 402.929 342.924 409.639 342.679 409.721C339.355 410.827 344.771 406.729 340.279 404.131Z" fill="#36474F"/>
<path d="M340.279 404.131L249.158 351.529C238.879 345.598 230.548 329.677 230.548 315.974V73.3332C230.548 66.3635 224.819 64.8243 228.287 62.3183C228.422 62.2269 240.846 56.5463 240.995 56.4934C244.733 55.0504 248.725 54.4251 253.578 57.2245L344.699 109.827C354.978 115.762 363.309 131.679 363.309 145.382V388.027C363.309 395.305 360.957 400.495 357.21 402.871C356.989 403.015 342.924 409.639 342.679 409.721C339.355 410.827 344.771 406.729 340.279 404.131Z" fill="#36474F"/>
<path d="M340.279 404.131L249.158 351.529C238.879 345.599 230.548 329.677 230.548 315.974V73.3332C230.548 66.3636 224.819 64.8244 228.287 62.3183C228.422 62.227 240.62 56.6329 240.793 56.5752C244.526 55.1322 248.523 54.5069 253.372 57.3063L344.478 109.913C354.752 115.844 363.083 131.765 363.083 145.469V388.109C363.083 395.392 360.731 400.582 356.984 402.958C356.762 403.097 342.924 409.639 342.679 409.721C339.355 410.827 344.771 406.729 340.279 404.131Z" fill="#36474F"/>
<path d="M340.279 404.131L249.158 351.529C238.879 345.598 230.548 329.677 230.548 315.974V73.3332C230.548 66.3635 224.819 64.8243 228.287 62.3183C228.422 62.2269 240.394 56.7146 240.548 56.6569C244.281 55.2139 248.278 54.5886 253.131 57.3928L344.252 109.995C354.531 115.931 362.862 131.847 362.862 145.551V388.191C362.862 395.473 360.51 400.663 356.763 403.039C356.541 403.179 342.924 409.639 342.679 409.721C339.355 410.827 344.771 406.729 340.279 404.131Z" fill="#36474F"/>
<path d="M340.279 404.131L249.158 351.529C238.879 345.598 230.548 329.677 230.548 315.974V73.3331C230.548 66.3634 224.819 64.8242 228.287 62.3182C228.422 62.2268 240.173 56.8011 240.312 56.7434C244.05 55.3004 248.042 54.6751 252.895 57.4745L344.026 110.077C354.305 116.012 362.635 131.929 362.635 145.632V388.273C362.635 395.555 360.283 400.745 356.536 403.121C356.315 403.265 342.924 409.639 342.679 409.72C339.355 410.827 344.771 406.729 340.279 404.131Z" fill="#36474F"/>
<path d="M340.279 404.131L249.158 351.529C238.879 345.598 230.548 329.677 230.548 315.974V73.3331C230.548 66.3634 224.819 64.8242 228.287 62.3182C228.422 62.2268 239.947 56.8829 240.096 56.8252C243.833 55.3822 247.83 54.7569 252.679 57.5563L343.8 110.149C354.079 116.08 362.409 132.001 362.409 145.704V388.359C362.409 395.642 360.057 400.832 356.31 403.208C356.089 403.347 342.924 409.639 342.679 409.72C339.355 410.827 344.771 406.729 340.279 404.131Z" fill="#36474F"/>
<path d="M340.279 404.131L249.158 351.529C238.879 345.599 230.548 329.677 230.548 315.974V73.3333C230.548 66.3636 224.819 64.8244 228.287 62.3184C228.422 62.227 239.721 56.9649 239.875 56.9071C243.607 55.4641 247.604 54.8388 252.458 57.6431L343.578 110.245C353.853 116.181 362.193 132.097 362.193 145.801V388.441C362.193 395.724 359.841 400.914 356.094 403.29C355.873 403.429 342.929 409.639 342.684 409.721C339.355 410.827 344.771 406.729 340.279 404.131Z" fill="#36474F"/>
<path d="M340.279 404.131L249.158 351.529C238.879 345.599 230.548 329.677 230.548 315.974V73.3332C230.548 66.3635 224.819 64.8243 228.287 62.3183C228.422 62.2269 239.5 57.0273 239.649 56.9937C243.386 55.5507 247.378 54.9254 252.232 57.7248L343.352 110.327C353.631 116.262 361.962 132.179 361.962 145.882V388.523C361.962 395.805 359.61 400.995 355.863 403.371C355.642 403.511 342.924 409.624 342.679 409.721C339.355 410.827 344.771 406.729 340.279 404.131Z" fill="#36474F"/>
<path d="M340.279 404.131L249.158 351.529C238.879 345.598 230.548 329.677 230.548 315.974V73.3332C230.548 66.3636 224.819 64.8244 228.287 62.3183C228.422 62.227 239.273 57.1332 239.423 57.0754C243.16 55.6324 247.157 55.0071 252.006 57.8066L343.126 110.414C353.405 116.344 361.736 132.265 361.736 145.969V388.609C361.736 395.887 359.384 401.082 355.637 403.458C355.416 403.597 342.924 409.639 342.679 409.711C339.355 410.827 344.771 406.729 340.279 404.131Z" fill="#36474F"/>
<path d="M340.279 404.131L249.158 351.529C238.879 345.598 230.548 329.677 230.548 315.974V73.3332C230.548 66.3635 224.819 64.8243 228.287 62.3183C228.422 62.2269 239.047 57.2149 239.201 57.1571C242.934 55.7141 246.931 55.0888 251.784 57.8931L342.905 110.495C353.179 116.426 361.515 132.347 361.515 146.051V388.691C361.515 395.974 359.158 401.164 355.416 403.54C355.19 403.679 342.91 409.639 342.679 409.721C339.355 410.827 344.771 406.729 340.279 404.131Z" fill="#36474F"/>
<path d="M340.279 404.131L249.158 351.529C238.879 345.598 230.548 329.677 230.548 315.974V73.3331C230.548 66.3634 224.819 64.8242 228.287 62.3182C228.422 62.2268 238.826 57.3014 238.975 57.2437C242.708 55.8007 246.705 55.1754 251.558 57.9748L342.679 110.577C352.958 116.512 361.289 132.429 361.289 146.132V388.773C361.289 396.055 358.937 401.245 355.19 403.621C354.968 403.761 342.924 409.639 342.684 409.72C339.355 410.827 344.771 406.729 340.279 404.131Z" fill="#36474F"/>
<path d="M340.279 404.131L249.158 351.529C238.879 345.598 230.548 329.677 230.548 315.974V73.3331C230.548 66.3634 224.819 64.8242 228.287 62.3182C228.422 62.2268 238.6 57.3832 238.749 57.3255C242.487 55.8824 246.484 55.2571 251.332 58.0566L342.472 110.659C352.751 116.594 361.082 132.515 361.082 146.219V388.86C361.082 396.137 358.73 401.332 354.983 403.703C354.762 403.848 342.958 409.639 342.698 409.721C339.355 410.827 344.771 406.729 340.279 404.131Z" fill="#36474F"/>
<path d="M340.279 404.131L249.158 351.529C238.879 345.599 230.548 329.677 230.548 315.974V73.3333C230.548 66.3636 224.819 64.8244 228.287 62.3184C228.422 62.227 238.388 57.4651 238.528 57.4074C242.26 55.9644 246.258 55.3391 251.111 58.1433L342.232 110.745C352.506 116.676 360.837 132.597 360.837 146.301V388.941C360.837 396.224 358.485 401.414 354.742 403.79C354.516 403.929 342.924 409.639 342.679 409.721C339.355 410.827 344.771 406.729 340.279 404.131Z" fill="#36474F"/>
<path d="M340.279 404.131L249.158 351.529C238.879 345.598 230.548 329.677 230.548 315.974V73.3331C230.548 66.3634 224.819 64.8242 228.287 62.3182C228.422 62.2268 238.153 57.5467 238.302 57.5082C242.034 56.0652 246.032 55.4399 250.885 58.2441L341.991 110.827C352.27 116.763 360.601 132.679 360.601 146.383V389.023C360.601 396.305 358.249 401.495 354.502 403.872C354.281 404.011 342.91 409.643 342.664 409.72C339.355 410.827 344.771 406.729 340.279 404.131Z" fill="#36474F"/>
<path d="M340.279 404.131L249.158 351.529C238.879 345.599 230.548 329.677 230.548 315.974V73.3333C230.548 66.3636 224.819 64.8244 228.287 62.3184C228.422 62.227 237.907 57.6334 238.076 57.5757C241.813 56.1327 245.805 55.5074 250.659 58.3068L341.779 110.909C352.058 116.845 360.389 132.766 360.389 146.465V389.129C360.389 396.407 358.037 401.597 354.29 403.973C354.069 404.117 342.924 409.658 342.679 409.745C339.355 410.827 344.771 406.729 340.279 404.131Z" fill="#36474F"/>
<path d="M340.279 404.131L249.158 351.529C238.879 345.599 230.548 329.677 230.548 315.974V73.3333C230.548 66.3636 224.819 64.8244 228.287 62.3184C228.422 62.227 237.701 57.7152 237.854 57.6575C241.587 56.2145 245.584 55.5892 250.437 58.3886L341.558 110.996C351.832 116.926 360.163 132.847 360.163 146.551V389.192C360.163 396.474 357.811 401.664 354.064 404.04C353.843 404.18 342.924 409.639 342.679 409.721C339.355 410.827 344.771 406.729 340.279 404.131Z" fill="#36474F"/>
<path d="M340.279 404.131L249.158 351.529C238.879 345.598 230.548 329.677 230.548 315.974V73.3332C230.548 66.3635 224.819 64.8243 228.287 62.3183C228.422 62.2269 237.475 57.7969 237.628 57.7392C241.361 56.2962 245.358 55.6709 250.211 58.4751L341.332 111.077C351.611 117.013 359.942 132.929 359.942 146.633V389.273C359.942 396.556 357.59 401.746 353.843 404.122C353.622 404.261 342.924 409.639 342.679 409.721C339.355 410.827 344.771 406.729 340.279 404.131Z" fill="#36474F"/>
<path d="M331.577 408.244L240.466 355.642C230.192 349.711 221.856 333.79 221.856 320.086V77.4409C221.856 63.7372 230.192 57.4409 240.466 63.3716L331.577 115.979C341.856 121.914 350.168 137.835 350.168 151.515V394.179C350.168 407.888 341.856 414.179 331.577 408.244Z" fill="#ECEDED"/>
<path d="M338.966 408.634C336.96 408.634 334.786 407.97 332.501 406.647L241.39 354.045C231.635 348.417 223.703 333.184 223.703 320.086V77.441C223.703 68.658 227.383 62.9822 233.078 62.9822C235.089 62.9822 237.263 63.6508 239.548 64.9687L330.659 117.576C340.409 123.208 348.345 138.441 348.345 151.534V394.18C348.345 402.963 344.665 408.634 338.966 408.634Z" fill="#ECEDED"/>
<path d="M228.023 323.179V81.4718C228.023 71.4141 234.136 66.7917 241.678 71.1447L330.37 122.357C337.912 126.71 344.026 138.389 344.026 148.446V390.154C344.026 400.206 337.912 404.829 330.37 400.476L241.678 349.269C234.136 344.915 228.023 333.232 228.023 323.179Z" fill="#ECEDED"/>
<path d="M242.703 73.819C235.594 69.716 229.836 73.0013 229.836 81.159V325.584C229.836 333.761 235.608 343.679 242.703 347.782L329.345 397.787C336.45 401.895 342.212 398.609 342.212 390.452V146.036C342.212 137.883 336.44 127.946 329.345 123.843L242.703 73.819Z" fill="#455B65"/>
<path d="M357.181 231.279C354.564 232.789 352.448 231.188 352.448 227.701V207.955C352.448 204.473 354.564 200.423 357.181 198.913C359.793 197.402 361.914 199.004 361.914 202.491V222.212C361.914 225.724 359.788 229.769 357.181 231.279Z" fill="#455B65"/>
<path d="M268.398 334.531L293.29 349.1V345.069L268.398 330.5V334.531ZM279.187 331.765L303.511 345.81V341.784L279.192 327.739L279.187 331.765ZM265.512 328.84L248.884 319.167V323.193L265.512 332.852V328.84ZM276.301 326.075L248.884 309.875V313.9L276.301 330.101V326.075Z" fill="#ECEDED"/>
<path d="M242.424 304.882L224.146 293.819C224.146 299.663 224.146 311.082 224.146 314.742L242.424 325.219V304.882Z" fill="white"/>
<path d="M242.424 323.333L224.949 313.323C224.949 310.077 224.949 299.259 224.949 294.305L224.136 293.824C224.136 299.668 224.136 311.087 224.136 314.747L242.414 325.223L242.424 323.333Z" fill="#ECEDED"/>
<path d="M268.398 266.027L286.431 276.763V272.727L268.398 262.001V266.027ZM265.512 260.336L248.884 250.668V254.694L265.512 264.367V260.336ZM280.842 260.216L248.884 241.371V245.401L280.842 264.247V260.216Z" fill="#ECEDED"/>
<path d="M242.424 236.378L224.146 225.315C224.146 231.164 224.146 242.583 224.146 246.238L242.424 256.719V236.378Z" fill="white"/>
<path d="M242.424 254.834L224.949 244.829C224.949 241.577 224.949 230.765 224.949 225.805L224.136 225.324C224.136 231.173 224.136 242.592 224.136 246.248L242.414 256.729L242.424 254.834Z" fill="#ECEDED"/>
<path d="M227.681 238.129L232.01 247.595L240.091 239.115C240.37 238.816 240.178 238.061 239.706 237.633L237.229 235.377C236.897 235.079 236.551 235.05 236.392 235.31L232.01 242.703L230.11 238.148C230.045 237.957 229.936 237.784 229.792 237.642C229.649 237.501 229.475 237.394 229.283 237.33L228.018 237.08C227.58 236.993 227.402 237.523 227.681 238.129Z" fill="#FEC015"/>
<path d="M261.63 227.032L278.278 236.936V232.905L261.63 223.001V227.032ZM273.001 224.439L303.511 242.294V238.263L273.006 220.399L273.001 224.439ZM258.749 221.342L248.893 215.661V219.692L258.749 225.368V221.342ZM270.12 218.749L248.893 206.349V210.375L270.12 222.761V218.749Z" fill="#ECEDED"/>
<path d="M242.424 201.361L224.146 190.298C224.146 196.147 224.146 207.566 224.146 211.221L242.424 221.698V201.361Z" fill="white"/>
<path d="M242.424 219.817L224.949 209.807C224.949 206.556 224.949 195.743 224.949 190.784L224.136 190.303C224.136 196.152 224.136 207.571 224.136 211.226L242.414 221.702L242.424 219.817Z" fill="#ECEDED"/>
<path d="M268.398 196.186L286.431 206.917V202.891L268.398 192.155V196.186ZM265.512 190.476L248.884 180.803V184.829L265.512 194.521V190.476ZM280.842 190.356L248.884 171.51V175.565L280.842 194.411V190.356Z" fill="#ECEDED"/>
<path d="M242.424 166.537L224.146 155.474C224.146 161.318 224.146 172.737 224.146 176.397L242.424 186.873V166.537Z" fill="white"/>
<path d="M242.424 184.988L224.949 174.978C224.949 171.731 224.949 160.914 224.949 155.959L224.136 155.478C224.136 161.322 224.136 172.741 224.136 176.402L242.414 186.878L242.424 184.988Z" fill="#ECEDED"/>
<path d="M227.681 168.287L232.01 177.749L240.091 169.269C240.37 168.97 240.178 168.22 239.706 167.792L237.229 165.536C236.897 165.233 236.551 165.209 236.392 165.469L232.01 172.857L230.11 168.302C230.043 168.112 229.934 167.94 229.79 167.798C229.647 167.657 229.474 167.549 229.283 167.484L228.018 167.239C227.58 167.147 227.402 167.677 227.681 168.287Z" fill="#FEC015"/>
<path d="M227.681 202.631L232.01 212.097L240.091 203.617C240.37 203.319 240.178 202.563 239.706 202.135L237.229 199.879C236.897 199.581 236.551 199.552 236.392 199.812L232.01 207.205L230.11 202.65C230.045 202.459 229.936 202.286 229.792 202.145C229.649 202.003 229.475 201.896 229.283 201.832L228.018 201.582C227.58 201.496 227.402 202.02 227.681 202.631Z" fill="#FEC015"/>
<g style="mix-blend-mode:multiply" opacity="0.5">
<g style="mix-blend-mode:multiply" opacity="0.09">
<path d="M307.922 115.974C299.745 111.255 293.117 115.012 293.117 124.411V219.894C293.117 229.278 299.745 240.707 307.922 245.43L344.151 265.93C352.328 270.654 361.948 266.411 361.948 257.018V161.534C361.948 152.155 352.328 141.198 344.151 136.479L307.922 115.974Z" fill="#B1B6DC"/>
</g>
<g style="mix-blend-mode:multiply" opacity="0.18">
<path d="M308.388 117.138C300.25 112.438 293.655 116.2 293.655 125.536V219.971C293.655 229.307 300.25 240.683 308.388 245.377L343.665 265.339C351.803 270.033 361.092 265.849 361.092 256.512V162.097C361.092 152.765 351.803 141.813 343.665 137.119L308.388 117.138Z" fill="#B1B6DC"/>
</g>
<g style="mix-blend-mode:multiply" opacity="0.27">
<path d="M308.855 118.297C300.76 113.626 294.199 117.369 294.199 126.657V220.048C294.199 229.336 300.76 240.659 308.855 245.329L343.184 264.742C351.279 269.413 360.235 265.295 360.235 256.007V162.612C360.235 153.323 351.279 142.385 343.184 137.71L308.855 118.297Z" fill="#B1B6DC"/>
</g>
<g style="mix-blend-mode:multiply" opacity="0.36">
<path d="M309.321 119.461C301.27 114.81 294.738 118.533 294.738 127.777V220.13C294.738 229.374 301.27 240.635 309.321 245.286L342.698 264.151C350.75 268.802 359.379 264.747 359.379 255.493V163.141C359.379 153.901 350.75 142.967 342.698 138.316L309.321 119.461Z" fill="#B1B6DC"/>
</g>
<g style="mix-blend-mode:multiply" opacity="0.45">
<path d="M309.788 120.625C301.775 115.998 295.276 119.701 295.276 128.898V220.202C295.276 229.398 301.775 240.606 309.788 245.214L342.212 263.53C350.226 268.157 358.518 264.17 358.518 254.973V163.689C358.518 154.492 350.226 143.569 342.212 138.941L309.788 120.625Z" fill="#B1B6DC"/>
</g>
<g style="mix-blend-mode:multiply" opacity="0.55">
<path d="M310.245 121.789C302.27 117.181 295.815 120.87 295.815 130.019V220.298C295.815 229.437 302.28 240.601 310.245 245.204L341.712 262.972C349.687 267.58 357.648 263.655 357.648 254.507V164.228C357.648 155.089 349.687 144.165 341.712 139.557L310.245 121.789Z" fill="#B1B6DC"/>
</g>
<g style="mix-blend-mode:multiply" opacity="0.64">
<path d="M310.726 122.948C302.789 118.369 296.359 122.034 296.359 131.125V220.351C296.359 229.461 302.789 240.553 310.726 245.137L341.241 262.361C349.177 266.955 356.806 263.107 356.806 253.968V164.766C356.806 155.661 349.177 144.757 341.241 140.173L310.726 122.948Z" fill="#B1B6DC"/>
</g>
<g style="mix-blend-mode:multiply" opacity="0.73">
<path d="M311.207 124.098C303.314 119.543 296.912 123.189 296.912 132.275V220.428C296.912 229.49 303.314 240.529 311.207 245.089L340.769 261.765C348.653 266.325 355.94 262.53 355.94 253.487V165.305C355.94 156.248 348.643 145.349 340.745 140.774L311.207 124.098Z" fill="#B1B6DC"/>
</g>
<g style="mix-blend-mode:multiply" opacity="0.82">
<path d="M311.659 125.276C303.804 120.741 297.436 124.372 297.436 133.386V220.505C297.436 229.519 303.804 240.505 311.659 245.036L340.269 261.183C348.129 265.719 355.093 261.996 355.093 252.982V165.844C355.093 156.83 348.129 145.945 340.269 141.409L311.659 125.276Z" fill="#B1B6DC"/>
</g>
<g style="mix-blend-mode:multiply" opacity="0.91">
<path d="M312.131 126.44C304.314 121.929 297.979 125.541 297.979 134.507V220.606C297.979 229.576 304.314 240.5 312.131 245.012L339.788 260.596C347.599 265.108 354.218 261.452 354.218 252.482V166.383C354.218 157.417 347.58 146.536 339.788 142.025L312.131 126.44Z" fill="#B1B6DC"/>
</g>
<g style="mix-blend-mode:multiply" opacity="0.5">
<path d="M312.597 127.604C304.819 123.112 298.518 126.705 298.518 135.627V220.659C298.518 229.581 304.819 240.452 312.597 244.939L339.302 259.98C347.075 264.468 353.376 260.875 353.376 251.952V166.907C353.376 157.984 347.075 147.114 339.302 142.626L312.597 127.604Z" fill="#B1B6DC"/>
</g>
</g>
<path d="M364.814 270.207L303.992 235.137C300.144 232.924 297.061 226.994 297.061 221.885V128.783C297.061 126.186 294.925 125.613 296.219 124.68C296.267 124.646 301.399 122.342 301.457 122.323C302.201 121.981 303.018 121.827 303.836 121.874C304.653 121.921 305.447 122.167 306.147 122.592L366.974 157.667C370.822 159.88 373.91 165.81 373.91 170.919V264.021C373.91 266.734 373.035 268.667 371.64 269.552C371.553 269.605 365.81 272.26 365.719 272.289C364.473 272.727 366.488 271.173 364.814 270.207Z" fill="#455B65"/>
<path d="M364.814 270.207L303.992 235.137C300.144 232.924 297.061 226.994 297.061 221.885V128.783C297.061 126.186 294.925 125.613 296.219 124.68C296.267 124.646 301.318 122.376 301.371 122.352C302.115 122.011 302.932 121.857 303.75 121.905C304.567 121.953 305.361 122.2 306.06 122.626L366.892 157.701C370.74 159.909 373.828 165.844 373.828 170.952V264.069C373.828 266.782 372.948 268.716 371.553 269.605C371.472 269.654 365.81 272.28 365.719 272.309C364.473 272.727 366.488 271.173 364.814 270.207Z" fill="#455B65"/>
<path d="M364.814 270.207L303.992 235.137C300.144 232.924 297.061 226.994 297.061 221.885V128.783C297.061 126.186 294.925 125.613 296.219 124.68C296.267 124.646 301.231 122.405 301.289 122.386C302.033 122.044 302.85 121.889 303.667 121.936C304.485 121.983 305.278 122.23 305.979 122.655L366.806 157.73C370.654 159.942 373.742 165.873 373.742 170.981V264.069C373.742 266.782 372.866 268.715 371.471 269.601C371.39 269.653 365.81 272.246 365.699 272.275C364.473 272.727 366.488 271.173 364.814 270.207Z" fill="#455B65"/>
<path d="M364.814 270.207L303.992 235.137C300.144 232.924 297.061 226.994 297.061 221.885V128.783C297.061 126.186 294.925 125.613 296.219 124.68C296.267 124.646 301.149 122.439 301.202 122.415C301.947 122.073 302.764 121.92 303.581 121.968C304.399 122.015 305.192 122.263 305.892 122.689L366.714 157.768C370.562 159.981 373.65 165.916 373.65 171.024V264.112C373.65 266.825 372.775 268.759 371.375 269.644C371.294 269.697 365.801 272.261 365.709 272.289C364.473 272.727 366.488 271.173 364.814 270.207Z" fill="#455B65"/>
<path d="M364.814 270.207L303.992 235.137C300.144 232.924 297.061 226.994 297.061 221.885V128.783C297.061 126.186 294.925 125.613 296.219 124.68C296.267 124.646 301.063 122.467 301.12 122.443C301.865 122.103 302.682 121.951 303.499 121.998C304.317 122.046 305.11 122.293 305.81 122.718L366.642 157.792C370.49 160.005 373.578 165.935 373.578 171.044V264.141C373.578 266.859 372.698 268.793 371.303 269.678C371.221 269.73 365.81 272.261 365.719 272.289C364.473 272.727 366.488 271.173 364.814 270.207Z" fill="#455B65"/>
<path d="M364.814 270.207L303.992 235.137C300.144 232.924 297.061 226.994 297.061 221.885V128.783C297.061 126.186 294.925 125.613 296.219 124.68C296.267 124.646 300.981 122.496 301.029 122.477C301.774 122.136 302.59 121.982 303.408 122.03C304.226 122.078 305.019 122.325 305.719 122.751L366.546 157.821C370.394 160.034 373.482 165.969 373.482 171.072V264.175C373.482 266.888 372.607 268.821 371.212 269.706C371.125 269.759 365.8 272.26 365.709 272.289C364.473 272.727 366.488 271.173 364.814 270.207Z" fill="#455B65"/>
<path d="M364.814 270.207L303.992 235.137C300.144 232.924 297.061 226.994 297.061 221.885V128.783C297.061 126.186 294.925 125.613 296.219 124.68C296.267 124.646 300.899 122.53 300.952 122.506C301.697 122.166 302.514 122.013 303.331 122.061C304.148 122.109 304.942 122.356 305.642 122.78L366.474 157.855C370.322 160.067 373.41 165.998 373.41 171.106V264.204C373.41 266.917 372.53 268.855 371.135 269.74C371.053 269.793 365.81 272.261 365.719 272.289C364.473 272.727 366.488 271.173 364.814 270.207Z" fill="#455B65"/>
<path d="M364.814 270.207L303.992 235.137C300.144 232.924 297.061 226.994 297.061 221.885V128.783C297.061 126.186 294.925 125.613 296.219 124.68C296.267 124.646 300.813 122.559 300.87 122.54C301.615 122.198 302.432 122.045 303.249 122.093C304.067 122.14 304.86 122.388 305.56 122.814L366.378 157.883C370.226 160.096 373.314 166.027 373.314 171.135V264.237C373.314 266.95 372.438 268.884 371.043 269.769C370.962 269.822 365.801 272.26 365.709 272.289C364.473 272.727 366.488 271.173 364.814 270.207Z" fill="#455B65"/>
<path d="M364.814 270.207L303.992 235.137C300.144 232.924 297.061 226.993 297.061 221.885V128.783C297.061 126.185 294.925 125.613 296.219 124.68C296.267 124.646 300.731 122.592 300.784 122.568C301.528 122.227 302.345 122.074 303.163 122.121C303.98 122.169 304.774 122.417 305.474 122.843L366.306 157.917C370.154 160.125 373.242 166.06 373.242 171.169V264.266C373.242 266.979 372.366 268.917 370.966 269.802C370.885 269.855 365.81 272.26 365.719 272.289C364.473 272.727 366.488 271.173 364.814 270.207Z" fill="#455B65"/>
<path d="M364.814 270.206L303.992 235.137C300.144 232.924 297.061 226.993 297.061 221.885V128.783C297.061 126.185 294.925 125.613 296.219 124.68C296.267 124.646 300.644 122.621 300.702 122.602C301.446 122.259 302.263 122.105 303.081 122.153C303.899 122.201 304.692 122.449 305.392 122.876L366.224 157.946C370.072 160.158 373.16 166.089 373.16 171.197V264.3C373.16 267.013 372.28 268.946 370.885 269.831C370.803 269.884 365.81 272.236 365.719 272.289C364.473 272.727 366.488 271.173 364.814 270.206Z" fill="#455B65"/>
<path d="M364.814 270.206L303.992 235.137C300.144 232.924 297.061 226.993 297.061 221.885V128.783C297.061 126.185 294.925 125.613 296.219 124.68C296.267 124.646 300.548 122.655 300.62 122.631C301.365 122.29 302.182 122.136 302.999 122.184C303.817 122.232 304.61 122.479 305.31 122.905L366.137 157.98C369.985 160.187 373.073 166.123 373.073 171.231V264.329C373.073 267.041 372.198 268.975 370.803 269.865C370.716 269.913 365.81 272.27 365.719 272.27C364.473 272.727 366.488 271.173 364.814 270.206Z" fill="#455B65"/>
<path d="M364.814 270.207L303.992 235.137C300.144 232.924 297.061 226.994 297.061 221.885V128.783C297.061 126.186 294.925 125.613 296.219 124.68C296.267 124.646 300.481 122.684 300.548 122.665C301.292 122.323 302.109 122.168 302.926 122.215C303.744 122.262 304.538 122.509 305.238 122.934L366.041 158.009C369.889 160.221 372.977 166.152 372.977 171.26V264.362C372.977 267.075 372.097 269.009 370.702 269.894C370.62 269.947 365.796 272.26 365.704 272.299C364.473 272.727 366.488 271.173 364.814 270.207Z" fill="#455B65"/>
<path d="M364.814 270.206L303.992 235.137C300.144 232.924 297.061 226.993 297.061 221.885V128.783C297.061 126.185 294.925 125.613 296.219 124.68C296.267 124.646 300.394 122.717 300.452 122.693C301.196 122.352 302.013 122.199 302.831 122.246C303.649 122.294 304.442 122.542 305.142 122.968L365.969 158.037C369.817 160.25 372.905 166.185 372.905 171.294V264.391C372.905 267.104 372.029 269.038 370.635 269.923C370.553 269.976 365.825 272.26 365.719 272.289C364.473 272.727 366.488 271.173 364.814 270.206Z" fill="#455B65"/>
<path d="M364.814 270.207L303.992 235.137C300.144 232.924 297.061 226.994 297.061 221.885V128.783C297.061 126.186 294.925 125.613 296.219 124.68C296.267 124.646 300.312 122.756 300.365 122.727C301.109 122.385 301.926 122.231 302.744 122.278C303.561 122.325 304.355 122.572 305.055 122.997L365.887 158.071C369.735 160.284 372.823 166.214 372.823 171.323V264.42C372.823 267.138 371.948 269.071 370.548 269.956C370.466 270.009 365.81 272.26 365.738 272.289C364.473 272.727 366.488 271.173 364.814 270.207Z" fill="#455B65"/>
<path d="M364.814 270.206L303.992 235.137C300.144 232.924 297.061 226.993 297.061 221.885V128.783C297.061 126.185 294.925 125.613 296.219 124.68C296.267 124.646 300.226 122.756 300.283 122.756C301.028 122.415 301.845 122.261 302.663 122.309C303.48 122.357 304.274 122.604 304.973 123.03L365.805 158.1C369.653 160.312 372.737 166.248 372.737 171.351V264.454C372.737 267.166 371.861 269.1 370.466 269.985C370.384 270.038 365.81 272.26 365.719 272.289C364.473 272.727 366.488 271.173 364.814 270.206Z" fill="#455B65"/>
<path d="M364.814 270.206L303.992 235.137C300.144 232.924 297.061 226.993 297.061 221.885V128.783C297.061 126.185 294.925 125.613 296.219 124.68C296.267 124.646 300.144 122.809 300.202 122.785C300.947 122.445 301.763 122.292 302.581 122.34C303.398 122.387 304.191 122.634 304.891 123.059L365.719 158.133C369.567 160.346 372.655 166.277 372.655 171.385V264.483C372.655 267.2 371.779 269.134 370.384 270.019C370.298 270.072 365.81 272.26 365.719 272.289C364.473 272.727 366.488 271.173 364.814 270.206Z" fill="#455B65"/>
<path d="M364.814 270.207L303.992 235.137C300.144 232.924 297.061 226.994 297.061 221.885V128.783C297.061 126.186 294.925 125.613 296.219 124.68C296.267 124.646 300.067 122.838 300.115 122.819C300.86 122.477 301.677 122.324 302.494 122.372C303.312 122.419 304.105 122.667 304.805 123.093L365.637 158.162C369.485 160.375 372.573 166.311 372.573 171.414V264.516C372.573 267.229 371.693 269.163 370.298 270.048C370.216 270.101 365.81 272.261 365.719 272.289C364.473 272.727 366.488 271.173 364.814 270.207Z" fill="#455B65"/>
<path d="M364.814 270.207L303.992 235.137C300.144 232.924 297.061 226.993 297.061 221.885V128.783C297.061 126.186 294.925 125.613 296.219 124.68C296.267 124.646 299.976 122.871 300.033 122.847C300.778 122.506 301.595 122.353 302.412 122.4C303.23 122.448 304.023 122.696 304.723 123.122L365.56 158.196C369.408 160.409 372.496 166.339 372.496 171.448V264.55C372.496 267.263 371.621 269.201 370.226 270.086C370.144 270.139 365.82 272.265 365.728 272.294C364.473 272.727 366.488 271.173 364.814 270.207Z" fill="#455B65"/>
<path d="M364.814 270.207L303.992 235.137C300.144 232.924 297.061 226.994 297.061 221.885V128.783C297.061 126.186 294.925 125.613 296.219 124.68C296.267 124.646 299.894 122.9 299.947 122.881C300.691 122.54 301.508 122.386 302.326 122.434C303.143 122.482 303.937 122.73 304.637 123.155L365.459 158.249C369.307 160.462 372.395 166.392 372.395 171.501V264.579C372.395 267.292 371.52 269.225 370.12 270.11C370.038 270.163 365.791 272.26 365.709 272.289C364.473 272.727 366.488 271.173 364.814 270.207Z" fill="#455B65"/>
<path d="M364.814 270.207L303.992 235.137C300.144 232.924 297.061 226.994 297.061 221.885V128.783C297.061 126.186 294.925 125.613 296.219 124.68C296.267 124.646 299.807 122.934 299.865 122.91C300.61 122.569 301.426 122.415 302.244 122.463C303.062 122.511 303.855 122.758 304.555 123.184L365.377 158.249C369.225 160.457 372.308 166.392 372.308 171.501V264.608C372.308 267.321 371.433 269.259 370.038 270.144C369.956 270.197 365.801 272.26 365.709 272.289C364.473 272.727 366.488 271.173 364.814 270.207Z" fill="#455B65"/>
<path d="M364.814 270.206L303.992 235.137C300.144 232.924 297.061 226.993 297.061 221.885V128.783C297.061 126.185 294.925 125.613 296.219 124.68C296.267 124.646 299.726 122.963 299.783 122.943C300.527 122.601 301.344 122.447 302.162 122.494C302.979 122.541 303.773 122.788 304.473 123.213L365.3 158.287C369.148 160.5 372.236 166.431 372.236 171.539V264.641C372.236 267.354 371.361 269.288 369.966 270.173C369.879 270.226 365.81 272.26 365.719 272.289C364.473 272.727 366.488 271.173 364.814 270.206Z" fill="#455B65"/>
<path d="M364.814 270.207L303.992 235.137C300.144 232.924 297.061 226.993 297.061 221.885V128.783C297.061 126.185 294.925 125.613 296.219 124.68C296.267 124.646 299.644 122.996 299.697 122.972C300.441 122.631 301.258 122.478 302.076 122.525C302.893 122.573 303.687 122.821 304.386 123.247L365.218 158.321C369.066 160.529 372.155 166.464 372.155 171.573V264.67C372.155 267.383 371.274 269.317 369.879 270.207C369.798 270.255 365.81 272.26 365.719 272.289C364.473 272.727 366.488 271.173 364.814 270.207Z" fill="#455B65"/>
<path d="M361.573 271.765L300.745 236.652C296.897 234.444 293.809 228.509 293.809 223.4V130.317C293.809 125.209 296.912 122.862 300.745 125.074L361.573 160.144C365.421 162.357 368.509 168.292 368.509 173.4V266.498C368.509 271.606 365.401 273.954 361.573 271.765Z" fill="white"/>
<path d="M364.329 271.885C363.475 271.856 362.645 271.601 361.924 271.145L301.106 236.075C297.47 233.973 294.511 228.297 294.511 223.415V130.317C294.511 127.042 295.887 124.93 298.008 124.93C298.862 124.959 299.692 125.215 300.413 125.671L361.231 160.741C364.863 162.843 367.821 168.518 367.821 173.401V266.498C367.821 269.774 366.45 271.885 364.329 271.885Z" fill="#ECEDED"/>
<path d="M311.914 177.364L303.992 172.79C302.458 171.9 301.212 169.524 301.212 167.475V167.35C301.212 165.305 302.458 164.363 303.992 165.248L311.919 169.827C313.458 170.712 314.699 173.093 314.699 175.142V175.262C314.694 177.311 313.453 178.254 311.914 177.364Z" fill="#D73927"/>
<path d="M327.45 186.335L319.523 181.756C318.713 181.23 318.038 180.521 317.554 179.685C317.07 178.849 316.79 177.91 316.739 176.946V175.791C316.739 174.026 317.984 173.319 319.523 174.204L327.45 178.783C328.26 179.309 328.934 180.019 329.417 180.854C329.901 181.69 330.179 182.629 330.231 183.593V184.747C330.231 186.513 329.004 187.22 327.45 186.335Z" fill="#D73927"/>
<path d="M342.982 195.286L335.055 190.712C334.245 190.186 333.572 189.476 333.089 188.64C332.605 187.804 332.327 186.866 332.275 185.902V184.742C332.275 182.982 333.521 182.27 335.055 183.16L342.982 187.734C343.793 188.259 344.467 188.969 344.952 189.805C345.436 190.641 345.715 191.58 345.767 192.544V193.703C345.767 195.478 344.521 196.19 342.982 195.286Z" fill="#E8B121"/>
<path d="M358.518 204.271L350.591 199.692C349.052 198.807 347.811 196.426 347.811 194.401V194.276C347.811 192.227 349.052 191.289 350.591 192.174L358.518 196.729C360.053 197.614 361.298 199.995 361.298 202.044V202.164C361.298 204.218 360.053 205.156 358.518 204.271Z" fill="#E8B121"/>
<path d="M311.914 192.342L303.992 187.768C302.458 186.878 301.212 184.502 301.212 182.453V179.918C301.212 177.869 302.458 176.926 303.992 177.816L311.919 182.39C313.458 183.28 314.699 185.656 314.699 187.705V190.24C314.694 192.289 313.453 193.227 311.914 192.342Z" fill="url(#paint0_linear_382_27265)"/>
<path d="M327.45 201.313L319.523 196.729C318.713 196.204 318.038 195.494 317.554 194.658C317.07 193.822 316.79 192.884 316.739 191.919V188.35C316.739 186.585 317.984 185.878 319.523 186.763L327.45 191.342C328.26 191.868 328.934 192.578 329.417 193.414C329.9 194.25 330.179 195.188 330.231 196.152V199.721C330.231 201.486 329.004 202.198 327.45 201.313Z" fill="url(#paint1_linear_382_27265)"/>
<path d="M342.982 210.279L335.055 205.704C334.246 205.178 333.573 204.468 333.09 203.632C332.606 202.796 332.327 201.858 332.275 200.894V197.325C332.275 195.565 333.521 194.853 335.055 195.743L342.982 200.317C343.792 200.843 344.467 201.552 344.951 202.388C345.435 203.224 345.715 204.163 345.767 205.127V208.696C345.767 210.457 344.521 211.159 342.982 210.279Z" fill="url(#paint2_linear_382_27265)"/>
<path d="M358.518 219.249L350.591 214.67C349.052 213.785 347.811 211.404 347.811 209.355V206.83C347.811 204.781 349.052 203.838 350.591 204.723L358.518 209.302C360.053 210.187 361.298 212.568 361.298 214.617V217.152C361.298 219.192 360.053 220.134 358.518 219.249Z" fill="#E8B121"/>
<path d="M311.914 204.709L303.992 200.13C303.182 199.604 302.509 198.894 302.026 198.058C301.542 197.222 301.264 196.284 301.212 195.32V191.751C301.212 189.985 302.458 189.278 303.992 190.163L311.919 194.742C312.729 195.268 313.403 195.978 313.886 196.814C314.37 197.65 314.648 198.588 314.699 199.552V203.121C314.694 204.906 313.453 205.594 311.914 204.709Z" fill="url(#paint3_linear_382_27265)"/>
<path d="M327.45 213.675L319.523 209.1C318.713 208.575 318.038 207.865 317.554 207.029C317.07 206.193 316.791 205.255 316.739 204.29V200.721C316.739 198.961 317.984 198.249 319.523 199.139L327.45 203.713C328.259 204.24 328.933 204.95 329.416 205.785C329.899 206.621 330.178 207.559 330.231 208.523V212.087C330.231 213.852 329.004 214.56 327.45 213.675Z" fill="url(#paint4_linear_382_27265)"/>
<path d="M342.982 222.645L335.055 218.066C334.245 217.54 333.572 216.83 333.089 215.994C332.605 215.158 332.327 214.22 332.275 213.256V209.716C332.275 207.951 333.521 207.244 335.055 208.129L342.982 212.708C343.793 213.233 344.467 213.943 344.952 214.779C345.436 215.615 345.715 216.553 345.767 217.518V221.087C345.767 222.818 344.521 223.53 342.982 222.645Z" fill="url(#paint5_linear_382_27265)"/>
<path d="M358.518 231.611L350.591 227.032C349.781 226.506 349.107 225.796 348.624 224.961C348.141 224.125 347.862 223.186 347.811 222.222V218.653C347.811 216.893 349.052 216.181 350.591 217.071L358.518 221.645C359.327 222.172 360.001 222.882 360.484 223.717C360.967 224.553 361.246 225.491 361.298 226.455V230.024C361.298 231.789 360.053 232.501 358.518 231.611Z" fill="#E8B121"/>
<path d="M311.914 217.07L303.992 212.491C303.182 211.965 302.509 211.255 302.026 210.419C301.542 209.584 301.264 208.645 301.212 207.681V204.112C301.212 202.352 302.458 201.64 303.992 202.53L311.919 207.104C312.729 207.63 313.403 208.339 313.886 209.175C314.37 210.011 314.648 210.95 314.699 211.914V215.488C314.694 217.248 313.453 217.955 311.914 217.07Z" fill="url(#paint6_linear_382_27265)"/>
<path d="M327.45 226.041L319.523 221.462C318.713 220.937 318.038 220.227 317.554 219.391C317.07 218.555 316.79 217.617 316.739 216.652V213.083C316.739 211.318 317.984 210.611 319.523 211.496L327.45 216.075C328.26 216.601 328.934 217.311 329.417 218.147C329.9 218.982 330.179 219.921 330.231 220.885V224.454C330.231 226.214 329.004 226.926 327.45 226.041Z" fill="url(#paint7_linear_382_27265)"/>
<path d="M342.982 235.007L335.055 230.433C334.246 229.906 333.573 229.196 333.09 228.36C332.606 227.525 332.327 226.587 332.275 225.623V222.054C332.275 220.293 333.521 219.581 335.055 220.471L342.982 225.046C343.792 225.571 344.467 226.281 344.951 227.117C345.435 227.953 345.715 228.891 345.767 229.856V233.42C345.767 235.209 344.521 235.897 342.982 235.007Z" fill="url(#paint8_linear_382_27265)"/>
<path d="M311.914 229.437L303.992 224.858C302.458 223.968 301.212 221.592 301.212 219.543V217.008C301.212 214.959 302.458 214.021 303.992 214.906L311.919 219.48C313.458 220.37 314.699 222.751 314.699 224.795V227.33C314.694 229.379 313.453 230.322 311.914 229.437Z" fill="url(#paint9_linear_382_27265)"/>
<path d="M327.45 238.403L319.523 233.824C318.712 233.299 318.037 232.589 317.553 231.753C317.069 230.917 316.79 229.978 316.739 229.014V225.445C316.739 223.684 317.984 222.972 319.523 223.862L327.45 228.475C328.26 229.001 328.934 229.711 329.417 230.547C329.9 231.383 330.179 232.321 330.231 233.285V236.854C330.231 238.576 329.004 239.288 327.45 238.403Z" fill="url(#paint10_linear_382_27265)"/>
<path d="M342.982 247.374L335.055 242.794C334.245 242.268 333.572 241.558 333.089 240.723C332.605 239.887 332.327 238.949 332.275 237.984V234.415C332.275 232.65 333.521 231.943 335.055 232.828L342.982 237.407C343.793 237.932 344.467 238.642 344.952 239.478C345.436 240.314 345.715 241.253 345.767 242.217V245.791C345.767 247.547 344.521 248.259 342.982 247.374Z" fill="url(#paint11_linear_382_27265)"/>
<path d="M358.518 234.026L350.591 229.437C349.052 228.552 347.806 229.259 347.806 231.024V246.44C347.806 248.489 349.052 250.865 350.591 251.731L358.518 256.306C360.053 257.195 361.298 256.253 361.298 254.204V238.812C361.243 237.852 360.962 236.918 360.479 236.087C359.996 235.256 359.325 234.549 358.518 234.026Z" fill="#E8B121"/>
<g style="mix-blend-mode:color-dodge">
<path style="mix-blend-mode:color-dodge" d="M327.45 228.475L319.524 223.901C318.355 223.223 317.359 223.477 316.945 224.411C317.45 223.891 318.273 223.833 319.206 224.372L327.133 228.951C327.943 229.477 328.617 230.187 329.1 231.023C329.583 231.859 329.862 232.797 329.913 233.761V237.33C329.921 237.698 329.853 238.063 329.711 238.403C330.079 237.974 330.265 237.418 330.231 236.854V233.285C330.179 232.321 329.9 231.383 329.417 230.547C328.934 229.711 328.26 229.001 327.45 228.475Z" fill="url(#paint12_radial_382_27265)"/>
<path style="mix-blend-mode:color-dodge" d="M327.45 216.089L319.524 211.51C318.355 210.837 317.359 211.092 316.945 212.025C317.45 211.505 318.273 211.443 319.206 211.986L327.133 216.561C327.943 217.087 328.616 217.797 329.099 218.632C329.583 219.468 329.861 220.407 329.913 221.371V224.94C329.921 225.309 329.852 225.676 329.711 226.017C330.078 225.587 330.264 225.032 330.231 224.468V220.899C330.179 219.935 329.9 218.997 329.417 218.161C328.934 217.325 328.26 216.615 327.45 216.089Z" fill="url(#paint13_radial_382_27265)"/>
<path style="mix-blend-mode:color-dodge" d="M327.45 203.723L319.524 199.134C318.355 198.456 317.359 198.711 316.945 199.644C317.45 199.125 318.273 199.067 319.206 199.606L327.133 204.185C327.943 204.711 328.616 205.421 329.099 206.257C329.583 207.092 329.861 208.031 329.913 208.995V212.564C329.921 212.931 329.853 213.297 329.711 213.636C330.079 213.207 330.265 212.652 330.231 212.087V208.523C330.177 207.561 329.897 206.625 329.414 205.791C328.931 204.957 328.258 204.249 327.45 203.723Z" fill="url(#paint14_radial_382_27265)"/>
<path style="mix-blend-mode:color-dodge" d="M327.45 191.361L319.524 186.782C318.355 186.109 317.359 186.364 316.945 187.297C317.45 186.777 318.273 186.72 319.206 187.258L327.133 191.833C327.942 192.359 328.615 193.069 329.098 193.905C329.582 194.741 329.861 195.679 329.913 196.643V200.207C329.921 200.576 329.853 200.943 329.711 201.284C330.079 200.855 330.265 200.3 330.231 199.735V196.166C330.178 195.203 329.899 194.266 329.416 193.431C328.933 192.596 328.259 191.887 327.45 191.361Z" fill="url(#paint15_radial_382_27265)"/>
<path style="mix-blend-mode:color-dodge" d="M311.914 194.757L303.992 190.178C302.823 189.505 301.828 189.755 301.414 190.688C301.895 190.173 302.741 190.111 303.675 190.654L311.606 195.228C312.416 195.755 313.09 196.464 313.573 197.3C314.056 198.136 314.335 199.074 314.386 200.038V203.607C314.393 203.977 314.322 204.344 314.18 204.685C314.548 204.256 314.735 203.7 314.699 203.136V199.567C314.648 198.602 314.368 197.664 313.884 196.828C313.4 195.992 312.725 195.282 311.914 194.757Z" fill="url(#paint16_radial_382_27265)"/>
<path style="mix-blend-mode:color-dodge" d="M311.914 207.119L303.992 202.544C302.823 201.866 301.828 202.121 301.414 203.054C301.895 202.535 302.741 202.477 303.675 203.016L311.606 207.595C312.416 208.121 313.09 208.83 313.573 209.666C314.056 210.502 314.335 211.441 314.386 212.405V215.969C314.393 216.337 314.323 216.703 314.18 217.042C314.549 216.613 314.735 216.057 314.699 215.493V211.924C314.647 210.96 314.367 210.022 313.883 209.187C313.399 208.352 312.724 207.643 311.914 207.119Z" fill="url(#paint17_radial_382_27265)"/>
<path style="mix-blend-mode:color-dodge" d="M311.914 182.39L303.992 177.816C302.905 177.186 301.967 177.489 301.515 178.441C302.025 177.888 302.799 177.782 303.675 178.287L311.606 182.867C313.141 183.752 314.386 186.133 314.386 188.158V190.692C314.398 191.201 314.295 191.706 314.083 192.169C314.524 191.619 314.743 190.924 314.699 190.221V187.686C314.694 185.666 313.453 183.261 311.914 182.39Z" fill="url(#paint18_radial_382_27265)"/>
<path style="mix-blend-mode:color-dodge" d="M311.914 219.48L303.992 214.906C302.905 214.276 301.967 214.579 301.515 215.536C302.025 214.978 302.799 214.872 303.675 215.377L311.606 219.956C313.141 220.841 314.386 223.222 314.386 225.247V227.782C314.398 228.29 314.294 228.793 314.083 229.254C314.524 228.704 314.743 228.009 314.699 227.306V224.771C314.694 222.751 313.453 220.37 311.914 219.48Z" fill="url(#paint19_radial_382_27265)"/>
<path style="mix-blend-mode:color-dodge" d="M327.45 178.797L319.524 174.218C318.355 173.545 317.359 173.795 316.945 174.728C317.45 174.209 318.273 174.151 319.206 174.69L327.133 179.269C327.943 179.795 328.616 180.505 329.099 181.341C329.583 182.176 329.861 183.115 329.913 184.079V185.238C329.921 185.606 329.852 185.971 329.711 186.311C330.079 185.881 330.265 185.326 330.231 184.762V183.607C330.179 182.643 329.901 181.705 329.417 180.869C328.934 180.033 328.26 179.323 327.45 178.797Z" fill="url(#paint20_radial_382_27265)"/>
<path style="mix-blend-mode:color-dodge" d="M311.914 169.827L303.992 165.248C302.905 164.622 301.967 164.925 301.515 165.878C302.025 165.325 302.799 165.214 303.675 165.724L311.606 170.298C313.141 171.188 314.386 173.564 314.386 175.613V175.738C314.398 176.245 314.294 176.749 314.083 177.21C314.524 176.66 314.743 175.965 314.699 175.262V175.142C314.694 173.093 313.453 170.712 311.914 169.827Z" fill="url(#paint21_radial_382_27265)"/>
<path style="mix-blend-mode:color-dodge" d="M342.982 237.422L335.055 232.843C333.886 232.169 332.89 232.424 332.482 233.357C332.963 232.838 333.804 232.775 334.742 233.319L342.669 237.893C343.478 238.42 344.152 239.13 344.635 239.966C345.118 240.801 345.397 241.739 345.449 242.703V246.272C345.456 246.642 345.385 247.009 345.243 247.35C345.613 246.921 345.801 246.366 345.767 245.801V242.232C345.715 241.267 345.436 240.329 344.952 239.493C344.468 238.657 343.793 237.947 342.982 237.422Z" fill="url(#paint22_radial_382_27265)"/>
<path style="mix-blend-mode:color-dodge" d="M358.518 234.026L350.591 229.437C349.423 228.764 348.427 229.019 348.013 229.952C348.518 229.432 349.341 229.375 350.274 229.913L358.201 234.488C359.011 235.013 359.685 235.723 360.168 236.559C360.651 237.395 360.93 238.333 360.981 239.298V254.69C360.994 255.198 360.892 255.703 360.683 256.166C361.123 255.616 361.343 254.922 361.298 254.218V238.826C361.245 237.864 360.966 236.928 360.483 236.093C360 235.259 359.326 234.551 358.518 234.026Z" fill="url(#paint23_radial_382_27265)"/>
<path style="mix-blend-mode:color-dodge" d="M358.518 221.659L350.591 217.085C349.422 216.412 348.427 216.662 348.013 217.595C348.518 217.075 349.341 217.018 350.274 217.556L358.201 222.135C359.011 222.661 359.686 223.37 360.17 224.206C360.654 225.042 360.934 225.981 360.986 226.945V230.514C360.993 230.883 360.922 231.248 360.779 231.587C361.148 231.161 361.335 230.606 361.298 230.043V226.474C361.247 225.509 360.968 224.57 360.485 223.734C360.002 222.897 359.328 222.186 358.518 221.659Z" fill="url(#paint24_radial_382_27265)"/>
<path style="mix-blend-mode:color-dodge" d="M358.518 196.729L350.591 192.15C349.499 191.52 348.566 191.828 348.109 192.78C348.619 192.222 349.394 192.116 350.274 192.626L358.201 197.21C359.74 198.1 360.986 200.476 360.986 202.525V202.645C360.998 203.154 360.894 203.659 360.683 204.122C361.123 203.572 361.343 202.877 361.298 202.174V202.054C361.298 200 360.053 197.619 358.518 196.729Z" fill="url(#paint25_radial_382_27265)"/>
<path style="mix-blend-mode:color-dodge" d="M358.518 209.298L350.591 204.719C349.499 204.093 348.566 204.396 348.109 205.349C348.619 204.796 349.394 204.685 350.274 205.195L358.201 209.769C359.74 210.659 360.986 213.035 360.986 215.084V217.619C360.997 218.128 360.893 218.632 360.683 219.096C361.123 218.545 361.342 217.851 361.298 217.148V214.613C361.298 212.564 360.053 210.197 358.518 209.298Z" fill="url(#paint26_radial_382_27265)"/>
<path style="mix-blend-mode:color-dodge" d="M342.982 212.693L335.055 208.114C333.886 207.441 332.89 207.696 332.482 208.629C332.963 208.11 333.804 208.052 334.742 208.591L342.669 213.165C343.478 213.691 344.152 214.402 344.635 215.237C345.118 216.073 345.397 217.011 345.449 217.975V221.539C345.456 221.909 345.386 222.276 345.243 222.617C345.614 222.189 345.802 221.633 345.767 221.068V217.499C345.714 216.535 345.435 215.597 344.951 214.762C344.467 213.927 343.792 213.218 342.982 212.693Z" fill="url(#paint27_radial_382_27265)"/>
<path style="mix-blend-mode:color-dodge" d="M342.982 225.055L335.055 220.481C333.886 219.803 332.89 220.058 332.482 220.991C332.963 220.471 333.804 220.413 334.742 220.952L342.669 225.531C343.479 226.057 344.153 226.767 344.636 227.603C345.119 228.439 345.398 229.377 345.449 230.341V233.91C345.456 234.278 345.386 234.644 345.243 234.983C345.614 234.556 345.803 233.999 345.767 233.434V229.87C345.715 228.905 345.436 227.965 344.952 227.128C344.468 226.292 343.793 225.581 342.982 225.055Z" fill="url(#paint28_radial_382_27265)"/>
<path style="mix-blend-mode:color-dodge" d="M342.982 200.327L335.055 195.767C333.886 195.094 332.89 195.344 332.482 196.277C332.963 195.757 333.804 195.7 334.742 196.238L342.669 200.818C343.479 201.344 344.153 202.054 344.636 202.889C345.119 203.725 345.398 204.663 345.449 205.628V209.197C345.456 209.565 345.386 209.93 345.243 210.269C345.614 209.844 345.802 209.289 345.767 208.725V205.156C345.718 204.188 345.439 203.246 344.955 202.407C344.471 201.567 343.795 200.854 342.982 200.327Z" fill="url(#paint29_radial_382_27265)"/>
<path style="mix-blend-mode:color-dodge" d="M342.982 187.763L335.055 183.189C333.886 182.511 332.89 182.766 332.482 183.699C332.963 183.179 333.804 183.122 334.742 183.66L342.669 188.239C343.479 188.765 344.153 189.475 344.636 190.311C345.119 191.147 345.398 192.085 345.449 193.049V194.204C345.456 194.572 345.386 194.937 345.243 195.276C345.614 194.851 345.802 194.296 345.767 193.732V192.573C345.715 191.609 345.435 190.67 344.951 189.834C344.467 188.998 343.792 188.289 342.982 187.763Z" fill="url(#paint30_radial_382_27265)"/>
</g>
<path d="M359.682 192.434C359.109 192.421 358.549 192.255 358.061 191.953L302.866 160.096C301.082 159.067 299.735 156.546 299.735 154.233V141.361C299.735 138.99 301.178 137.912 302.506 137.912C303.081 137.925 303.642 138.091 304.131 138.393L359.307 170.245C361.087 171.275 362.433 173.8 362.433 176.113V188.98C362.453 191.351 361.019 192.434 359.682 192.434Z" fill="#455B65"/>
<path d="M357.58 187.378L304.613 156.806C303.29 156.041 302.208 153.992 302.208 152.227V144.723C302.208 142.958 303.285 142.15 304.613 142.915L357.58 173.492C358.903 174.257 359.985 176.306 359.985 178.071V185.575C359.976 187.33 358.903 188.143 357.58 187.378Z" fill="white"/>
<path d="M358.489 186.772L305.522 156.19C304.194 155.425 303.117 153.376 303.117 151.611V144.108C303.102 143.602 303.228 143.102 303.482 142.665C302.727 142.766 302.208 143.511 302.208 144.733V152.236C302.208 154.002 303.28 156.051 304.613 156.816L357.58 187.398C358.441 187.879 359.187 187.715 359.61 187.051C359.216 187.087 358.821 186.989 358.489 186.772Z" fill="#FEC015"/>
<path d="M255.372 124.257L258.586 122.443L244.829 105.397L241.664 107.181L238.499 101.746L224.762 102.934L227.994 108.441L241.674 107.263L255.372 124.257ZM246.537 134.8L260.25 134.199L255.372 124.266L241.707 125.228L246.537 134.8ZM236.811 129.187L241.621 125.199L227.994 108.441L223.117 112.742L236.811 129.187ZM241.621 128.292L236.811 133.516L225.579 120.048V129.004L241.626 148.994L257.768 147.518V138.643L246.623 139.182L241.621 128.292Z" fill="#E8B121"/>
<g style="mix-blend-mode:multiply" opacity="0.5">
<g style="mix-blend-mode:multiply" opacity="0.09">
<path d="M234.896 248.34C227.287 243.944 221.121 247.46 221.121 256.19V269.091C221.121 277.821 227.287 288.46 234.896 292.852L326.359 346.277C333.968 350.668 342.919 346.714 342.919 337.984V325.084C342.919 316.354 333.968 306.156 326.359 301.765L234.896 248.34Z" fill="#B1B6DC"/>
</g>
<g style="mix-blend-mode:multiply" opacity="0.18">
<path d="M234.483 248.956C226.912 244.584 220.779 248.085 220.779 256.772V268.696C220.779 277.383 226.912 287.97 234.483 292.342L325.493 345.507C333.064 349.875 341.707 345.988 341.707 337.292V325.368C341.707 316.681 333.049 306.488 325.493 302.121L234.483 248.956Z" fill="#B1B6DC"/>
</g>
<g style="mix-blend-mode:multiply" opacity="0.27">
<path d="M234.074 249.572C226.541 245.243 220.433 248.706 220.433 257.349V268.302C220.433 276.96 226.541 287.479 234.074 291.832L324.627 344.742C332.164 349.071 340.5 345.257 340.5 336.613V325.637C340.5 316.979 332.169 306.811 324.627 302.462L234.074 249.572Z" fill="#B1B6DC"/>
</g>
<g style="mix-blend-mode:multiply" opacity="0.36">
<path d="M233.665 250.187C226.166 245.858 220.091 249.326 220.091 257.926V267.917C220.091 276.522 226.166 287.003 233.665 291.327L323.766 343.958C331.26 348.287 339.288 344.511 339.288 335.911V325.93C339.288 317.33 331.26 307.171 323.766 302.842L233.665 250.187Z" fill="#B1B6DC"/>
</g>
<g style="mix-blend-mode:multiply" opacity="0.45">
<path d="M233.251 250.808C225.791 246.479 219.745 249.947 219.745 258.504V267.513C219.745 276.075 225.791 286.503 233.251 290.808L322.9 343.184C330.356 347.513 338.076 343.78 338.076 335.223V326.214C338.076 317.652 330.356 307.489 322.9 303.184L233.251 250.808Z" fill="#B1B6DC"/>
</g>
<g style="mix-blend-mode:multiply" opacity="0.55">
<path d="M232.842 251.424C225.421 247.138 219.403 250.567 219.403 259.086V267.119C219.403 275.637 225.421 286.012 232.842 290.298L322.034 342.414C329.456 346.695 336.864 343.044 336.864 334.531V326.493C336.864 317.979 329.456 307.821 322.034 303.535L232.842 251.424Z" fill="#B1B6DC"/>
</g>
<g style="mix-blend-mode:multiply" opacity="0.64">
<path d="M232.429 252.044C225.046 247.782 219.062 251.193 219.062 259.668V266.729C219.062 275.204 225.046 285.531 232.429 289.817L321.169 341.669C328.552 345.93 335.651 342.342 335.651 333.867V326.777C335.651 318.302 328.552 308.153 321.169 303.891L232.429 252.044Z" fill="#B1B6DC"/>
</g>
<g style="mix-blend-mode:multiply" opacity="0.73">
<path d="M232.02 252.655C224.67 248.412 218.716 251.808 218.716 260.24V266.334C218.716 274.761 224.67 285.036 232.02 289.278L320.303 340.865C327.648 345.108 334.439 341.582 334.439 333.169V327.08C334.439 318.653 327.648 308.513 320.303 304.271L232.02 252.655Z" fill="#B1B6DC"/>
</g>
<g style="mix-blend-mode:multiply" opacity="0.82">
<path d="M231.606 253.275C224.3 249.052 218.374 252.434 218.374 260.817V265.94C218.374 274.324 224.3 284.545 231.606 288.768L319.437 340.091C326.748 344.314 333.227 340.846 333.227 332.458V327.34C333.227 318.951 326.748 308.821 319.437 304.598L231.606 253.275Z" fill="#B1B6DC"/>
</g>
<g style="mix-blend-mode:multiply" opacity="0.91">
<path d="M231.197 253.891C223.925 249.692 218.033 253.054 218.033 261.399V265.546C218.033 273.891 223.925 284.059 231.197 288.254L318.571 339.321C325.844 343.521 332.039 340.115 332.039 331.77V327.623C332.039 319.278 325.863 309.153 318.571 304.954L231.197 253.891Z" fill="#B1B6DC"/>
</g>
<g style="mix-blend-mode:multiply" opacity="0.5">
<path d="M230.789 254.507C223.55 250.332 217.686 253.675 217.686 261.977V265.151C217.686 273.453 223.55 283.569 230.789 287.758L317.705 338.561C324.92 342.737 330.808 339.394 330.808 331.092V327.917C330.808 319.615 324.94 309.499 317.705 305.31L230.789 254.507Z" fill="#B1B6DC"/>
</g>
</g>
<path d="M334.675 352.871L228.158 290.966C221.424 287.085 215.935 276.58 215.935 267.619V261.255C215.935 252.294 221.438 248.138 228.158 252.02L334.675 313.92C341.409 317.801 346.892 328.306 346.892 337.267V343.631C346.892 352.573 341.395 356.748 334.675 352.871Z" fill="#D73927"/>
<path style="mix-blend-mode:color-dodge" d="M334.675 313.92L228.158 252.044C221.424 248.162 215.935 252.318 215.935 261.279V262.626C215.935 253.665 221.438 249.509 228.158 253.391L334.675 315.296C341.409 319.172 346.892 329.677 346.892 338.638V337.268C346.892 328.307 341.395 317.802 334.675 313.92Z" fill="url(#paint31_radial_382_27265)"/>
<path d="M280.74 308.114L297.388 318.018V313.987L280.74 304.083V308.114ZM292.107 305.522L330.486 327.801V323.775L292.107 301.496V305.522ZM277.859 302.424L248.893 285.493V289.519L277.859 306.45V302.424ZM289.23 299.831L248.893 276.2V280.226L289.23 303.857V299.831Z" fill="white"/>
<path d="M242.424 271.207L224.146 260.144C224.146 265.988 224.146 277.407 224.146 281.068L242.424 291.544V271.207Z" fill="white"/>
<path d="M242.424 289.658L224.949 279.648C224.949 276.402 224.949 265.584 224.949 260.63L224.136 260.149C224.136 265.993 224.136 277.412 224.136 281.072L242.414 291.548L242.424 289.658Z" fill="white"/>
<path d="M155.204 337.72V410.658L88.1962 370.149V296.633L155.204 337.72Z" fill="#FED56F"/>
<path d="M155.122 337.72V410.659L219.774 372.073V298.557L155.122 337.72Z" fill="#FEC015"/>
<path d="M219.774 298.557L155.123 337.72L88.1962 296.633L152.987 257.677L219.774 298.557Z" fill="#FCE085"/>
<path opacity="0.5" d="M219.774 298.557L155.123 337.72L88.1962 296.633L155.132 336.589L219.774 298.557Z" fill="url(#paint32_linear_382_27265)"/>
<path d="M127.441 321.803V341.366L112.059 332.284V312.14L127.441 321.803Z" fill="#D73927"/>
<path d="M192.01 282.64L127.359 321.803L112.059 312.14L176.844 273.184L192.01 282.64Z" fill="#D73927"/>
<path d="M143.386 365.502L148.783 382.761L145.286 380.673V401.255L141.491 398.989V378.412L137.989 376.325L143.386 365.502Z" fill="#D73927"/>
<path d="M124.877 368.504L130.274 357.681L135.671 374.939L132.169 372.852V393.434L128.374 391.168V370.591L124.877 368.504Z" fill="#D73927"/>
<path d="M157.354 268.422V313.492L114.579 288.46V243.03L157.354 268.422Z" fill="#FED56F"/>
<path d="M157.301 268.422V313.492L198.571 289.648V244.218L157.301 268.422Z" fill="#FBBF19"/>
<path d="M198.571 244.218L157.301 268.422L114.579 243.03L155.935 218.951L198.571 244.218Z" fill="#FCE085"/>
<path opacity="0.5" d="M198.571 244.218L157.301 268.422L114.579 243.03L157.306 267.724L198.571 244.218Z" fill="url(#paint33_linear_382_27265)"/>
<path d="M139.629 258.586V270.673L129.807 265.06V252.612L139.629 258.586Z" fill="#D73927"/>
<path d="M180.846 234.382L139.577 258.586L129.807 252.612L171.169 228.538L180.846 234.382Z" fill="#D73927"/>
<path d="M149.807 285.589L153.256 296.257L151.02 294.964V307.681L148.6 306.286V293.569L146.363 292.28L149.807 285.589Z" fill="#D73927"/>
<path d="M137.994 287.446L141.438 280.755L144.882 291.423L142.65 290.13V302.847L140.226 301.452V288.735L137.994 287.446Z" fill="#D73927"/>
<defs>
<linearGradient id="paint0_linear_382_27265" x1="312.119" y1="193.158" x2="291.253" y2="178.979" gradientUnits="userSpaceOnUse">
<stop stop-color="#E6E8F5"/>
<stop offset="1" stop-color="white"/>
</linearGradient>
<linearGradient id="paint1_linear_382_27265" x1="329.212" y1="200.775" x2="317.523" y2="177.72" gradientUnits="userSpaceOnUse">
<stop stop-color="#E6E8F5"/>
<stop offset="1" stop-color="white"/>
</linearGradient>
<linearGradient id="paint2_linear_382_27265" x1="344.817" y1="209.743" x2="333.127" y2="186.688" gradientUnits="userSpaceOnUse">
<stop stop-color="#E6E8F5"/>
<stop offset="1" stop-color="white"/>
</linearGradient>
<linearGradient id="paint3_linear_382_27265" x1="313.604" y1="204.118" x2="301.923" y2="181.061" gradientUnits="userSpaceOnUse">
<stop stop-color="#E6E8F5"/>
<stop offset="1" stop-color="white"/>
</linearGradient>
<linearGradient id="paint4_linear_382_27265" x1="329.212" y1="213.088" x2="317.523" y2="190.033" gradientUnits="userSpaceOnUse">
<stop stop-color="#E6E8F5"/>
<stop offset="1" stop-color="white"/>
</linearGradient>
<linearGradient id="paint5_linear_382_27265" x1="344.817" y1="222.056" x2="333.127" y2="199.001" gradientUnits="userSpaceOnUse">
<stop stop-color="#E6E8F5"/>
<stop offset="1" stop-color="white"/>
</linearGradient>
<linearGradient id="paint6_linear_382_27265" x1="313.604" y1="216.431" x2="301.923" y2="193.375" gradientUnits="userSpaceOnUse">
<stop stop-color="#E6E8F5"/>
<stop offset="1" stop-color="white"/>
</linearGradient>
<linearGradient id="paint7_linear_382_27265" x1="329.212" y1="225.401" x2="317.523" y2="202.346" gradientUnits="userSpaceOnUse">
<stop stop-color="#E6E8F5"/>
<stop offset="1" stop-color="white"/>
</linearGradient>
<linearGradient id="paint8_linear_382_27265" x1="344.817" y1="234.37" x2="333.127" y2="211.314" gradientUnits="userSpaceOnUse">
<stop stop-color="#E6E8F5"/>
<stop offset="1" stop-color="white"/>
</linearGradient>
<linearGradient id="paint9_linear_382_27265" x1="312.044" y1="230.139" x2="291.177" y2="215.96" gradientUnits="userSpaceOnUse">
<stop stop-color="#E6E8F5"/>
<stop offset="1" stop-color="white"/>
</linearGradient>
<linearGradient id="paint10_linear_382_27265" x1="329.212" y1="237.714" x2="317.523" y2="214.659" gradientUnits="userSpaceOnUse">
<stop stop-color="#E6E8F5"/>
<stop offset="1" stop-color="white"/>
</linearGradient>
<linearGradient id="paint11_linear_382_27265" x1="348.239" y1="251.375" x2="331.495" y2="230.914" gradientUnits="userSpaceOnUse">
<stop stop-color="#E6E8F5"/>
<stop offset="1" stop-color="white"/>
</linearGradient>
<radialGradient id="paint12_radial_382_27265" cx="0" cy="0" r="1" gradientUnits="userSpaceOnUse" gradientTransform="translate(324.1 231.451) scale(7.06386)">
<stop stop-color="white"/>
<stop offset="1"/>
</radialGradient>
<radialGradient id="paint13_radial_382_27265" cx="0" cy="0" r="1" gradientUnits="userSpaceOnUse" gradientTransform="translate(324.1 219.059) scale(7.06386)">
<stop stop-color="white"/>
<stop offset="1"/>
</radialGradient>
<radialGradient id="paint14_radial_382_27265" cx="0" cy="0" r="1" gradientUnits="userSpaceOnUse" gradientTransform="translate(324.1 206.672) scale(7.06386)">
<stop stop-color="white"/>
<stop offset="1"/>
</radialGradient>
<radialGradient id="paint15_radial_382_27265" cx="0" cy="0" r="1" gradientUnits="userSpaceOnUse" gradientTransform="translate(324.1 194.28) scale(7.06386)">
<stop stop-color="white"/>
<stop offset="1"/>
</radialGradient>
<radialGradient id="paint16_radial_382_27265" cx="0" cy="0" r="1" gradientUnits="userSpaceOnUse" gradientTransform="translate(308.53 197.681) scale(7.06385)">
<stop stop-color="white"/>
<stop offset="1"/>
</radialGradient>
<radialGradient id="paint17_radial_382_27265" cx="0" cy="0" r="1" gradientUnits="userSpaceOnUse" gradientTransform="translate(308.53 210.073) scale(7.06385)">
<stop stop-color="white"/>
<stop offset="1"/>
</radialGradient>
<radialGradient id="paint18_radial_382_27265" cx="0" cy="0" r="1" gradientUnits="userSpaceOnUse" gradientTransform="translate(308.582 185.261) scale(6.99858)">
<stop stop-color="white"/>
<stop offset="1"/>
</radialGradient>
<radialGradient id="paint19_radial_382_27265" cx="0" cy="0" r="1" gradientUnits="userSpaceOnUse" gradientTransform="translate(308.582 222.433) scale(6.99858)">
<stop stop-color="white"/>
<stop offset="1"/>
</radialGradient>
<radialGradient id="paint20_radial_382_27265" cx="0" cy="0" r="1" gradientUnits="userSpaceOnUse" gradientTransform="translate(324.1 180.479) scale(6.45266)">
<stop stop-color="white"/>
<stop offset="1"/>
</radialGradient>
<radialGradient id="paint21_radial_382_27265" cx="0" cy="0" r="1" gradientUnits="userSpaceOnUse" gradientTransform="translate(308.582 171.46) scale(6.38737)">
<stop stop-color="white"/>
<stop offset="1"/>
</radialGradient>
<radialGradient id="paint22_radial_382_27265" cx="0" cy="0" r="1" gradientUnits="userSpaceOnUse" gradientTransform="translate(339.669 240.442) scale(7.06388)">
<stop stop-color="white"/>
<stop offset="1"/>
</radialGradient>
<radialGradient id="paint23_radial_382_27265" cx="0" cy="0" r="1" gradientUnits="userSpaceOnUse" gradientTransform="translate(355.234 243.176) scale(10.6984)">
<stop stop-color="white"/>
<stop offset="1"/>
</radialGradient>
<radialGradient id="paint24_radial_382_27265" cx="0" cy="0" r="1" gradientUnits="userSpaceOnUse" gradientTransform="translate(355.234 224.649) scale(7.06383)">
<stop stop-color="white"/>
<stop offset="1"/>
</radialGradient>
<radialGradient id="paint25_radial_382_27265" cx="0" cy="0" r="1" gradientUnits="userSpaceOnUse" gradientTransform="translate(355.285 198.423) scale(6.38739)">
<stop stop-color="white"/>
<stop offset="1"/>
</radialGradient>
<radialGradient id="paint26_radial_382_27265" cx="0" cy="0" r="1" gradientUnits="userSpaceOnUse" gradientTransform="translate(355.285 212.224) scale(6.9986)">
<stop stop-color="white"/>
<stop offset="1"/>
</radialGradient>
<radialGradient id="paint27_radial_382_27265" cx="0" cy="0" r="1" gradientUnits="userSpaceOnUse" gradientTransform="translate(339.669 215.658) scale(7.06388)">
<stop stop-color="white"/>
<stop offset="1"/>
</radialGradient>
<radialGradient id="paint28_radial_382_27265" cx="0" cy="0" r="1" gradientUnits="userSpaceOnUse" gradientTransform="translate(339.669 228.05) scale(7.06387)">
<stop stop-color="white"/>
<stop offset="1"/>
</radialGradient>
<radialGradient id="paint29_radial_382_27265" cx="0" cy="0" r="1" gradientUnits="userSpaceOnUse" gradientTransform="translate(339.669 203.271) scale(7.06388)">
<stop stop-color="white"/>
<stop offset="1"/>
</radialGradient>
<radialGradient id="paint30_radial_382_27265" cx="0" cy="0" r="1" gradientUnits="userSpaceOnUse" gradientTransform="translate(339.669 189.469) scale(6.45267)">
<stop stop-color="white"/>
<stop offset="1"/>
</radialGradient>
<radialGradient id="paint31_radial_382_27265" cx="0" cy="0" r="1" gradientUnits="userSpaceOnUse" gradientTransform="translate(274.959 287.446) scale(123.771)">
<stop stop-color="#722056"/>
<stop offset="0.16" stop-color="#6D1F52"/>
<stop offset="0.36" stop-color="#5D1A46"/>
<stop offset="0.58" stop-color="#441333"/>
<stop offset="0.82" stop-color="#210A19"/>
<stop offset="1" stop-color="#010101"/>
</radialGradient>
<linearGradient id="paint32_linear_382_27265" x1="86.8927" y1="169.735" x2="160.226" y2="309.49" gradientUnits="userSpaceOnUse">
<stop stop-color="#B1B6DC"/>
<stop offset="0.15" stop-color="#B8BCDF"/>
<stop offset="0.35" stop-color="#CACDE8"/>
<stop offset="0.58" stop-color="#E6E8F5"/>
<stop offset="0.86" stop-color="#F6F6FB"/>
<stop offset="1" stop-color="white"/>
</linearGradient>
<linearGradient id="paint33_linear_382_27265" x1="114.329" y1="163.117" x2="160.336" y2="250.798" gradientUnits="userSpaceOnUse">
<stop stop-color="#B1B6DC"/>
<stop offset="0.15" stop-color="#B8BCDF"/>
<stop offset="0.35" stop-color="#CACDE8"/>
<stop offset="0.58" stop-color="#E6E8F5"/>
<stop offset="0.86" stop-color="#F6F6FB"/>
<stop offset="1" stop-color="white"/>
</linearGradient>
</defs>
</svg>
