<svg width="48" height="48" viewBox="0 0 48 48" fill="none" xmlns="http://www.w3.org/2000/svg">
<path d="M30.9938 20.879V41.2603H23.9456C23.5369 39.4753 21.9375 38.1459 20.0269 38.1459C18.1181 38.1459 16.5206 39.4753 16.1119 41.2603H12.3131C11.9062 39.4753 10.3069 38.1459 8.39813 38.1459C6.48938 38.1459 4.89 39.4753 4.48312 41.2603H1.91438C1.5825 41.2603 1.3125 40.9903 1.3125 40.6565V20.879C1.3125 19.7709 2.2125 18.8709 3.32062 18.8709H21.6619C22.2712 19.7728 22.8244 20.5547 23.2406 21.1284C23.6156 21.644 24.3844 21.644 24.7594 21.1284C25.1756 20.5547 25.7288 19.7728 26.3381 18.8709H28.9856C30.0956 18.8711 30.9938 19.7711 30.9938 20.879Z" fill="#F0C020"/>
<path d="M27.9207 18.8711C27.1332 20.0673 26.3869 21.1211 25.8225 21.8992C24.9207 23.1367 23.0757 23.133 22.1794 21.9011C21.615 21.123 20.8688 20.0673 20.0813 18.8711H21.6619C22.2713 19.773 22.8244 20.5548 23.2407 21.1286C23.6157 21.6442 24.3844 21.6442 24.7594 21.1286C25.1757 20.5548 25.7288 19.773 26.3382 18.8711H27.9207Z" fill="#E8A61E"/>
<path d="M25.3791 41.2599H23.9447C23.5369 39.4761 21.9379 38.1461 20.0272 38.1461C18.1189 38.1461 16.5197 39.4761 16.1119 41.2599H14.6775C15.1014 38.7146 17.289 36.7399 20.0272 36.7399C22.7616 36.7399 24.9553 38.7105 25.3791 41.2599Z" fill="#E8A61E"/>
<path d="M24.0491 42.1659C24.0491 44.3878 22.2491 46.1878 20.0273 46.1878C17.8074 46.1878 16.0074 44.3878 16.0074 42.1659C16.0074 41.8545 16.0436 41.5511 16.1119 41.2599C16.5197 39.4761 18.1187 38.1461 20.0273 38.1461C21.9377 38.1461 23.5369 39.4761 23.9447 41.2599C24.0131 41.5511 24.0491 41.8545 24.0491 42.1659Z" fill="#878787"/>
<path d="M20.0284 43.5637C20.8 43.5637 21.4255 42.9382 21.4255 42.1667C21.4255 41.3951 20.8 40.7696 20.0284 40.7696C19.2568 40.7696 18.6313 41.3951 18.6313 42.1667C18.6313 42.9382 19.2568 43.5637 20.0284 43.5637Z" fill="#EFEFEF"/>
<path d="M13.7475 41.2599H12.3131C11.9053 39.4761 10.3063 38.1461 8.39772 38.1461C6.48916 38.1461 4.89016 39.4761 4.48235 41.2599H3.04797C3.47191 38.7146 5.65947 36.7399 8.39772 36.7399C11.136 36.7399 13.3237 38.7146 13.7475 41.2599Z" fill="#E8A61E"/>
<path d="M12.4178 42.1659C12.4178 44.3878 10.6178 46.1878 8.39799 46.1878C6.17817 46.1878 4.37817 44.3878 4.37817 42.1659C4.37817 41.8545 4.41436 41.5511 4.48261 41.2599C4.89042 39.4761 6.48942 38.1461 8.39799 38.1461C10.3066 38.1461 11.9056 39.4761 12.3134 41.2599C12.3816 41.5511 12.4178 41.8545 12.4178 42.1659Z" fill="#878787"/>
<path d="M8.39755 43.5637C9.16913 43.5637 9.79461 42.9382 9.79461 42.1667C9.79461 41.3951 9.16913 40.7696 8.39755 40.7696C7.62597 40.7696 7.00049 41.3951 7.00049 42.1667C7.00049 42.9382 7.62597 43.5637 8.39755 43.5637Z" fill="#EFEFEF"/>
<path d="M46.6875 34.0982V40.6573C46.6875 40.9907 46.4182 41.2599 46.0848 41.2599H42.4205C42.0127 39.476 40.4137 38.1461 38.5051 38.1461C36.5966 38.1461 34.9976 39.476 34.5898 41.2599H30.9939V24.4233H39.4312C40.3995 24.4233 41.2453 25.0822 41.4823 26.0223L41.7315 27.0148L42.983 31.9828H44.5721C45.7413 31.9828 46.6875 32.9289 46.6875 34.0982Z" fill="#72C1E8"/>
<path d="M42.9833 31.9835H33.7737V27.014H41.7316L42.9833 31.9835Z" fill="#878787"/>
<path d="M43.8549 41.2599H42.4205C42.0127 39.4761 40.4137 38.1461 38.5051 38.1461C36.5966 38.1461 34.9976 39.4761 34.5898 41.2599H33.1554C33.5793 38.7146 35.7669 36.7399 38.5051 36.7399C41.2393 36.7399 43.431 38.7105 43.8549 41.2599Z" fill="#4BA5C8"/>
<path d="M42.525 42.1659C42.525 44.3878 40.725 46.1878 38.5052 46.1878C36.2854 46.1878 34.4854 44.3878 34.4854 42.1659C34.4854 41.8545 34.5215 41.5511 34.5898 41.2599C34.9976 39.4761 36.5966 38.1461 38.5052 38.1461C40.4137 38.1461 42.0127 39.4761 42.4205 41.2599C42.4888 41.5511 42.525 41.8545 42.525 42.1659Z" fill="#878787"/>
<path d="M38.5052 43.5637C39.2768 43.5637 39.9023 42.9382 39.9023 42.1667C39.9023 41.3951 39.2768 40.7696 38.5052 40.7696C37.7336 40.7696 37.1082 41.3951 37.1082 42.1667C37.1082 42.9382 37.7336 43.5637 38.5052 43.5637Z" fill="#EFEFEF"/>
<path d="M31.1044 8.91675C31.1044 11.3336 28.4081 15.7999 26.3381 18.8711C25.7288 19.773 25.1756 20.5549 24.7594 21.1286C24.3844 21.6443 23.6156 21.6443 23.2406 21.1286C22.8244 20.5549 22.2713 19.773 21.6619 18.8711C19.5919 15.7999 16.8956 11.3336 16.8956 8.91675C16.8956 4.99238 20.0756 1.81238 24 1.81238C27.9244 1.81238 31.1044 4.99238 31.1044 8.91675Z" fill="#FC5D3D"/>
<path d="M24 13.5368C26.5516 13.5368 28.62 11.4683 28.62 8.91675C28.62 6.3652 26.5516 4.29675 24 4.29675C21.4484 4.29675 19.38 6.3652 19.38 8.91675C19.38 11.4683 21.4484 13.5368 24 13.5368Z" fill="#EFEFEF"/>
<path d="M24 11.2355C25.2886 11.2355 26.3332 10.1909 26.3332 8.90228C26.3332 7.61366 25.2886 6.56903 24 6.56903C22.7114 6.56903 21.6667 7.61366 21.6667 8.90228C21.6667 10.1909 22.7114 11.2355 24 11.2355Z" fill="#EFEFEF"/>
<path d="M25.7023 29.4983V35.3449H6.60547V29.4983H11.3798V23.653H20.9282V29.4983H25.7023Z" fill="#FC5D3D"/>
<path d="M3.195 38.0524C2.93625 38.0524 2.72625 37.8426 2.72625 37.5838L2.72606 37.0213C2.72606 36.7626 2.93569 36.5526 3.19463 36.5524H3.19481C3.45356 36.5524 3.66356 36.762 3.66356 37.0209L3.66375 37.5834C3.66375 37.8422 3.45394 38.0522 3.195 38.0524ZM3.19369 35.6149C2.93494 35.6149 2.72494 35.4051 2.72494 35.1463L2.71875 22.0626C2.71875 21.8038 2.92838 21.5938 3.18731 21.5936H3.1875C3.44625 21.5936 3.65625 21.8034 3.65625 22.0622L3.66244 35.1459C3.66263 35.4047 3.45281 35.6147 3.19369 35.6149C3.19388 35.6149 3.19388 35.6149 3.19369 35.6149Z" fill="#F8E5B0"/>
<path d="M28.6237 38.0524C28.365 38.0524 28.1552 37.8426 28.155 37.5838L28.1486 24.4999C28.1484 24.2411 28.3582 24.0311 28.6172 24.0309H28.6173C28.8761 24.0309 29.0859 24.2408 29.0861 24.4995L29.0925 37.5834C29.0927 37.8422 28.8828 38.0522 28.6237 38.0524ZM28.6164 23.0936C28.3575 23.0936 28.1476 22.8838 28.1476 22.6251L28.1475 22.0626C28.1475 21.8036 28.3571 21.5938 28.616 21.5936H28.6162C28.8751 21.5936 29.085 21.8034 29.085 22.0622L29.0852 22.6247C29.0852 22.8834 28.8755 23.0934 28.6164 23.0936Z" fill="#F8E5B0"/>
<path d="M18.3783 26.0782C18.1194 26.0782 17.9095 25.8684 17.9095 25.6095V25.5144C17.9095 25.2555 18.1194 25.0457 18.3783 25.0457C18.6372 25.0457 18.847 25.2555 18.847 25.5144V25.6095C18.847 25.8684 18.637 26.0782 18.3783 26.0782Z" fill="#B25035"/>
<path d="M22.8661 31.7758C22.6072 31.7758 22.3973 31.566 22.3973 31.307V31.212C22.3973 30.953 22.6072 30.7432 22.8661 30.7432C23.125 30.7432 23.3348 30.953 23.3348 31.212V31.307C23.3348 31.566 23.1248 31.7758 22.8661 31.7758Z" fill="#B25035"/>
<path d="M22.066 33.7659C21.8071 33.7659 21.5973 33.5561 21.5973 33.2972V33.2021C21.5973 32.9431 21.8071 32.7333 22.066 32.7333C22.325 32.7333 22.5348 32.9431 22.5348 33.2021V33.2972C22.5348 33.5561 22.3248 33.7659 22.066 33.7659Z" fill="#B25035"/>
<path d="M19.3929 32.9379C19.134 32.9379 18.9242 32.7281 18.9242 32.4691V32.3741C18.9242 32.1151 19.134 31.9053 19.3929 31.9053C19.6519 31.9053 19.8617 32.1151 19.8617 32.3741V32.4691C19.8617 32.7281 19.6519 32.9379 19.3929 32.9379Z" fill="#B25035"/>
<path d="M10.4319 31.7195C10.1729 31.7195 9.96313 31.5097 9.96313 31.2508V31.1557C9.96313 30.8968 10.1729 30.687 10.4319 30.687C10.6908 30.687 10.9006 30.8968 10.9006 31.1557V31.2508C10.9006 31.5097 10.6908 31.7195 10.4319 31.7195Z" fill="#B25035"/>
<path d="M13.4221 27.1397C13.1632 27.1397 12.9534 26.9299 12.9534 26.6709V26.5759C12.9534 26.3169 13.1632 26.1071 13.4221 26.1071C13.6811 26.1071 13.8909 26.3169 13.8909 26.5759V26.6709C13.8909 26.9299 13.6811 27.1397 13.4221 27.1397Z" fill="#B25035"/>
<path d="M14.9441 28.2635C14.6852 28.2635 14.4753 28.0537 14.4753 27.7948V27.6997C14.4753 27.4408 14.6852 27.231 14.9441 27.231C15.203 27.231 15.4128 27.4408 15.4128 27.6997V27.7948C15.4128 28.0537 15.203 28.2635 14.9441 28.2635Z" fill="#B25035"/>
<path d="M8.93433 33.7659C8.67539 33.7659 8.46558 33.5561 8.46558 33.2972V33.2021C8.46558 32.9431 8.67539 32.7333 8.93433 32.7333C9.19326 32.7333 9.40308 32.9431 9.40308 33.2021V33.2972C9.40308 33.5561 9.19326 33.7659 8.93433 33.7659Z" fill="#B25035"/>
<path d="M12.7003 33.1684C12.4414 33.1684 12.2316 32.9585 12.2316 32.6996V32.6046C12.2316 32.3456 12.4414 32.1358 12.7003 32.1358C12.9593 32.1358 13.1691 32.3456 13.1691 32.6046V32.6996C13.1691 32.9585 12.9593 33.1684 12.7003 33.1684Z" fill="#B25035"/>
<path d="M33.6073 34.455C33.3484 34.455 33.1385 34.6648 33.1385 34.9237C33.1385 35.1826 33.3484 35.3925 33.6073 35.3925H34.4505C34.7094 35.3925 34.9192 35.1826 34.9192 34.9237C34.9192 34.6648 34.7094 34.455 34.4505 34.455H33.6073Z" fill="black"/>
<path d="M1.3125 29.9813C1.57138 29.9813 1.78125 29.7714 1.78125 29.5125C1.78125 29.2536 1.57138 29.0438 1.3125 29.0438C1.05362 29.0438 0.84375 29.2536 0.84375 29.5125C0.84375 29.7714 1.05362 29.9813 1.3125 29.9813Z" fill="black"/>
<path d="M46.6875 37.9425C46.9464 37.9425 47.1562 37.7326 47.1562 37.4738C47.1562 37.2149 46.9464 37.005 46.6875 37.005C46.4286 37.005 46.2188 37.2149 46.2188 37.4738C46.2188 37.7326 46.4286 37.9425 46.6875 37.9425Z" fill="black"/>
<path d="M44.5725 31.5131H43.3481C42.6339 28.6777 42.9328 29.8644 41.9362 25.9087C41.6475 24.7575 40.6162 23.955 39.4313 23.955H31.4625V20.8781C31.4625 19.5131 30.3506 18.4031 28.9856 18.4031H27.2128C28.3072 16.7379 29.2144 15.2135 29.9137 13.8637C31.0369 11.6756 31.5656 10.1044 31.5731 8.91749C31.5731 4.72405 28.182 1.34436 24 1.34436C19.8231 1.34436 16.4269 4.71842 16.4269 8.91749C16.4269 9.36374 16.5056 9.86436 16.665 10.4475C16.7306 10.6912 16.995 10.8431 17.2406 10.7756C17.49 10.7062 17.6362 10.4494 17.5687 10.2C17.5687 10.1981 17.5687 10.1981 17.5687 10.1962C17.4338 9.71061 17.3644 9.26811 17.3644 8.91749C17.3644 5.2483 20.3293 2.28392 24 2.27999C27.6692 2.28392 30.6356 5.2468 30.6356 8.91749C30.645 9.89061 30.0921 11.4937 29.0813 13.4325C27.8149 15.8805 26.0089 18.5996 24.3808 20.8537C24.1911 21.1093 23.8119 21.1131 23.6194 20.8537C22.0236 18.6448 20.2401 15.9634 18.9844 13.5581C18.8621 13.325 18.5734 13.2412 18.3525 13.3612C18.117 13.4829 18.036 13.7692 18.1537 13.9931C18.8439 15.3114 19.7276 16.7919 20.7879 18.4031H3.32062C1.95562 18.4031 0.84375 19.5131 0.84375 20.8781V27.6375C0.84375 27.8962 1.05375 28.1062 1.3125 28.1062C1.57125 28.1062 1.78125 27.8962 1.78125 27.6375V20.8781C1.78312 20.0325 2.47312 19.3406 3.32062 19.3406H21.4125C21.9336 20.106 22.4565 20.8462 22.8619 21.4031C23.4223 22.1797 24.579 22.176 25.1381 21.405C25.632 20.724 26.1562 19.973 26.5875 19.3406H28.9856C29.8331 19.3406 30.5231 20.0325 30.525 20.8781V24.4237V40.7925H24.3024C23.7099 38.9237 21.9684 37.6774 20.0276 37.6774C18.1294 37.6774 16.3611 38.8766 15.7545 40.7925H12.6713C12.0581 38.8817 10.3043 37.6774 8.39794 37.6774C6.42881 37.6774 4.70925 38.9467 4.125 40.7925H1.91438C1.84125 40.7925 1.78125 40.7306 1.78125 40.6556V31.3875C1.78125 31.1287 1.57125 30.9187 1.3125 30.9187C1.05375 30.9187 0.84375 31.1287 0.84375 31.3875V40.6556C0.84375 41.2481 1.32375 41.7281 1.91438 41.7281H3.93244C3.6705 44.3809 5.766 46.6566 8.39794 46.6566C11.0306 46.6566 13.125 44.3807 12.8634 41.7281H15.5619C15.3 44.3809 17.3955 46.6566 20.0274 46.6566C22.6611 46.6566 24.7568 44.3807 24.495 41.7281H34.0399C34.0256 41.8734 34.0168 42.0195 34.0168 42.1659C34.0168 44.6421 36.0302 46.6566 38.5052 46.6566C40.9802 46.6566 42.9938 44.6421 42.9938 42.1659C42.9938 42.0195 42.9849 41.8734 42.9707 41.7281H46.0854C46.6742 41.7281 47.1542 41.2462 47.1561 40.6575V39.3487C47.1561 39.09 46.9461 38.88 46.6873 38.88C46.4304 38.88 46.2204 39.0881 46.2186 39.345V39.3487V40.6575C46.2186 40.7325 46.1586 40.7906 46.0854 40.7906H42.7777C42.1989 38.9662 40.4923 37.6774 38.505 37.6774C36.5464 37.6774 34.8281 38.9321 34.2315 40.7906H31.4625V24.8925H39.4313C40.1869 24.8925 40.8431 25.4044 41.0269 26.1375L41.1296 26.5455H33.7736C33.5147 26.5455 33.3049 26.7553 33.3049 27.0142V31.9835C33.3049 32.2425 33.5147 32.4523 33.7736 32.4523H42.9832C42.9883 32.4523 42.9932 32.4508 42.9984 32.4506H44.5725C45.4781 32.4525 46.2171 33.1912 46.2188 34.0987V35.5987C46.2188 35.8556 46.4287 36.0675 46.6875 36.0675C46.9463 36.0675 47.1562 35.8556 47.1562 35.5987V34.0987C47.1562 32.6737 45.9973 31.5131 44.5725 31.5131ZM38.5052 45.7189C36.5473 45.7189 34.9543 44.1249 34.9543 42.1657C34.9543 41.8974 34.9851 41.6302 35.046 41.3689C35.0464 41.3674 35.0471 41.3659 35.0475 41.3644C35.4111 39.7706 36.8642 38.6156 38.5031 38.6156H38.5071C40.4068 38.6156 42.0566 40.1662 42.0566 42.1659C42.0564 44.1249 40.4634 45.7189 38.5052 45.7189ZM8.39794 45.7189C6.43988 45.7189 4.84688 44.1249 4.84688 42.1657C4.84688 40.2499 6.3825 38.6147 8.39794 38.6147C10.2806 38.6147 11.949 40.1514 11.949 42.1657C11.949 44.1249 10.3558 45.7189 8.39794 45.7189ZM20.0274 45.7189C18.0694 45.7189 16.4764 44.1249 16.4764 42.1657C16.4764 40.2412 18.0191 38.6147 20.0274 38.6147C22.0282 38.6147 23.5806 40.2231 23.5806 42.1657C23.5806 44.1249 21.9866 45.7189 20.0274 45.7189ZM34.2424 27.483H41.3659L42.3817 31.5148H34.2424V27.483Z" fill="black"/>
<path d="M20.0284 40.3008C18.9996 40.3008 18.1626 41.1378 18.1626 42.1667C18.1626 43.1955 18.9996 44.0325 20.0284 44.0325C21.0572 44.0325 21.8942 43.1955 21.8942 42.1667C21.8942 41.1378 21.0572 40.3008 20.0284 40.3008ZM20.0284 43.095C19.5165 43.095 19.1001 42.6785 19.1001 42.1667C19.1001 41.6548 19.5165 41.2383 20.0284 41.2383C20.5403 41.2383 20.9567 41.6548 20.9567 42.1667C20.9567 42.6785 20.5403 43.095 20.0284 43.095Z" fill="black"/>
<path d="M8.39755 40.3008C7.36874 40.3008 6.53174 41.1378 6.53174 42.1667C6.53174 43.1955 7.36874 44.0325 8.39755 44.0325C9.42636 44.0325 10.2634 43.1955 10.2634 42.1667C10.2634 41.1378 9.42636 40.3008 8.39755 40.3008ZM8.39755 43.095C7.88568 43.095 7.46924 42.6785 7.46924 42.1667C7.46924 41.6548 7.88568 41.2383 8.39755 41.2383C8.90943 41.2383 9.32586 41.6548 9.32586 42.1667C9.32586 42.6785 8.90943 43.095 8.39755 43.095Z" fill="black"/>
<path d="M38.5052 40.3008C37.4764 40.3008 36.6394 41.1378 36.6394 42.1667C36.6394 43.1955 37.4764 44.0325 38.5052 44.0325C39.534 44.0325 40.371 43.1955 40.371 42.1667C40.371 41.1378 39.5342 40.3008 38.5052 40.3008ZM38.5052 43.095C37.9933 43.095 37.5769 42.6785 37.5769 42.1667C37.5769 41.6548 37.9933 41.2383 38.5052 41.2383C39.0171 41.2383 39.4335 41.6548 39.4335 42.1667C39.4335 42.6785 39.0173 43.095 38.5052 43.095Z" fill="black"/>
<path d="M24 14.0055C26.8059 14.0055 29.0888 11.7227 29.0888 8.91675C29.0888 6.11082 26.8059 3.828 24 3.828C21.1941 3.828 18.9113 6.11082 18.9113 8.91675C18.9113 11.7227 21.1941 14.0055 24 14.0055ZM24 4.7655C26.289 4.7655 28.1513 6.62775 28.1513 8.91675C28.1513 11.2058 26.289 13.068 24 13.068C21.711 13.068 19.8488 11.2058 19.8488 8.91675C19.8488 6.62775 21.711 4.7655 24 4.7655Z" fill="black"/>
<path d="M17.9418 12.5156C18.1781 12.4125 18.2887 12.1369 18.1856 11.8987C18.0862 11.6681 17.8012 11.5556 17.5687 11.655C17.3405 11.756 17.219 12.0234 17.325 12.2719C17.4271 12.507 17.7005 12.6208 17.9418 12.5156Z" fill="black"/>
<path d="M23.5312 11.6619V11.9387C23.5312 12.1976 23.7411 12.4074 24 12.4074C24.2589 12.4074 24.4688 12.1976 24.4688 11.9387V11.6619C25.6262 11.4658 26.5431 10.5598 26.754 9.40741H27C27.2589 9.40741 27.4688 9.1976 27.4688 8.93866C27.4688 8.67972 27.2589 8.46991 27 8.46991H26.7653C26.5802 7.28341 25.6504 6.3431 24.4688 6.14285V5.93866C24.4688 5.67972 24.2589 5.46991 24 5.46991C23.7411 5.46991 23.5312 5.67972 23.5312 5.93866V6.14285C22.3498 6.3431 21.4198 7.28341 21.2347 8.46991H21C20.7411 8.46991 20.5312 8.67972 20.5312 8.93866C20.5312 9.1976 20.7411 9.40741 21 9.40741H21.246C21.4569 10.5596 22.3738 11.4656 23.5312 11.6619ZM23.5312 7.09966V7.38841C23.5312 7.64735 23.7411 7.85716 24 7.85716C24.2589 7.85716 24.4688 7.64735 24.4688 7.38841V7.09966C25.1323 7.27235 25.6522 7.8011 25.8118 8.46972H25.5501C25.2911 8.46972 25.0813 8.67953 25.0813 8.93847C25.0813 9.19741 25.2911 9.40722 25.5501 9.40722H25.7931C25.6142 10.0415 25.1079 10.5382 24.4686 10.7047V10.4885C24.4686 10.2296 24.2588 10.0198 23.9998 10.0198C23.7409 10.0198 23.5311 10.2296 23.5311 10.4885V10.7047C22.8917 10.5382 22.3856 10.0415 22.2066 9.40722H22.4496C22.7085 9.40722 22.9183 9.19741 22.9183 8.93847C22.9183 8.67953 22.7085 8.46972 22.4496 8.46972H22.1878C22.3477 7.8011 22.8677 7.27253 23.5312 7.09966Z" fill="black"/>
<path d="M11.9231 24.1219C12.1818 24.1219 12.3918 23.9119 12.3918 23.6531C12.3918 23.3944 12.1818 23.1844 11.9231 23.1844H11.3793C11.1213 23.1844 10.9106 23.397 10.9106 23.6531V29.0295H6.60559C6.34665 29.0295 6.13684 29.2393 6.13684 29.4983V35.3449C6.13684 35.6038 6.34665 35.8136 6.60559 35.8136H25.7025C25.9614 35.8136 26.1712 35.6038 26.1712 35.3449V29.4983C26.1712 29.2393 25.9614 29.0295 25.7025 29.0295H21.3956V23.6531C21.3956 23.3882 21.1809 23.1844 20.9268 23.1844H15.6731C15.4162 23.1844 15.2043 23.3944 15.2043 23.6531C15.2043 23.9119 15.4162 24.1219 15.6731 24.1219H15.6768H20.4581V29.0295C19.1004 29.0295 13.1927 29.0295 11.8481 29.0295V24.1219H11.9231ZM7.07415 29.967C15.8289 29.967 6.89603 29.9681 15.6851 29.9681V34.8761H7.07415V29.967ZM25.2335 34.8761H16.6226V29.9681C25.3597 29.9681 16.4983 29.967 25.2335 29.967V34.8761Z" fill="black"/>
<path d="M13.7981 24.1219C14.057 24.1219 14.2668 23.912 14.2668 23.6531C14.2668 23.3943 14.057 23.1844 13.7981 23.1844C13.5392 23.1844 13.3293 23.3943 13.3293 23.6531C13.3293 23.912 13.5392 24.1219 13.7981 24.1219Z" fill="black"/>
</svg>
