<svg width="481" height="481" viewBox="0 0 481 481" fill="none" xmlns="http://www.w3.org/2000/svg">
<path d="M82.2029 402.116C167.59 445.772 306.031 445.772 391.409 402.116C476.786 358.46 476.796 287.638 391.409 244.031C306.022 200.423 167.59 200.375 82.2029 244.031C-3.18422 287.686 -3.17459 358.47 82.2029 402.116Z" fill="#F5F5F5"/>
<path d="M361.452 332.381C366.137 335.084 375.334 334.151 381.991 330.303L420.394 307.994C427.061 304.146 428.658 298.836 423.973 296.123C419.288 293.41 410.101 294.372 403.434 298.22L365.05 320.548C358.383 324.367 356.777 329.677 361.452 332.381Z" fill="#EBEBEB"/>
<path d="M130.168 352.958L91.0918 330.399L130.168 307.84V352.958Z" fill="#EBEBEB"/>
<path d="M240.615 366.455L177.633 330.072L240.625 293.756L240.615 366.455Z" fill="#EBEBEB"/>
<path d="M77.3063 300.211C77.4218 291.072 71.0341 272.054 61.6931 260.077C52.352 248.1 37.518 239.24 26.936 242.732C17.0274 245.993 17.9413 258.942 29.822 267.667C41.7027 276.392 59.5478 287.378 64.6368 302.299L75.4593 320.577L77.3063 300.211Z" fill="#FFC10D"/>
<path opacity="0.1" d="M77.3063 300.211C77.4218 291.072 71.0341 272.054 61.6931 260.077C52.352 248.1 37.518 239.24 26.936 242.732C17.0274 245.993 17.9413 258.942 29.822 267.667C41.7027 276.392 59.5478 287.378 64.6368 302.299L75.4593 320.577L77.3063 300.211Z" fill="black"/>
<path d="M77.8354 312.727C77.6894 312.714 77.5517 312.654 77.4439 312.555C77.336 312.455 77.2639 312.323 77.239 312.179C71.467 280.904 46.5512 255.238 31.5151 249.456C31.4243 249.432 31.3396 249.388 31.2666 249.329C31.1936 249.269 31.1339 249.195 31.0914 249.111C31.0488 249.027 31.0244 248.935 31.0196 248.841C31.0148 248.747 31.0298 248.653 31.0636 248.565C31.0974 248.477 31.1493 248.397 31.2159 248.331C31.2824 248.264 31.3622 248.212 31.4501 248.178C31.538 248.144 31.632 248.129 31.726 248.134C31.8201 248.139 31.9121 248.163 31.9961 248.206C47.3208 254.103 72.7176 280.192 78.5473 311.938C78.564 312.024 78.5636 312.113 78.546 312.198C78.5285 312.284 78.4941 312.366 78.4449 312.438C78.3957 312.51 78.3327 312.572 78.2595 312.62C78.1862 312.668 78.1043 312.701 78.0182 312.718L77.8354 312.727Z" fill="white"/>
<path d="M72.9388 332.641C71.5343 327.484 65.3583 318.932 55.2958 311.804C44.1558 303.925 29.9952 300.192 26.7917 294.122C22.9437 286.83 29.1294 280.058 40.6445 281.616C52.1596 283.175 72.2462 299.182 75.2092 322.905L72.9388 332.641Z" fill="#FFC10D"/>
<path d="M75.238 327.272C75.1096 327.262 74.9869 327.214 74.8846 327.136C74.7822 327.057 74.7046 326.951 74.6608 326.83C65.416 299.98 45.1371 290.351 35.7094 289.014C35.5347 288.989 35.3767 288.897 35.2703 288.756C35.1638 288.615 35.1176 288.438 35.1419 288.263C35.1661 288.089 35.2588 287.931 35.3995 287.824C35.5402 287.718 35.7175 287.672 35.8922 287.696C46.3203 289.177 66.4935 298.99 75.9307 326.387C75.9865 326.556 75.9745 326.739 75.8973 326.899C75.8201 327.059 75.6837 327.183 75.517 327.244C75.4269 327.272 75.332 327.281 75.238 327.272Z" fill="white"/>
<path d="M418.403 274.17C418.403 274.17 419.682 254.93 431.034 240.596C442.385 226.263 441.693 220.394 433.862 217.508C426.031 214.622 407.888 231.89 411.89 254.93C415.892 277.97 418.403 274.17 418.403 274.17Z" fill="#FFC10D"/>
<path opacity="0.1" d="M418.403 274.17C418.403 274.17 419.682 254.93 431.034 240.596C442.385 226.263 441.693 220.394 433.862 217.508C426.031 214.622 407.888 231.89 411.89 254.93C415.892 277.97 418.403 274.17 418.403 274.17Z" fill="black"/>
<path d="M414.93 263.184C414.816 263.184 414.707 263.142 414.623 263.065C414.539 262.989 414.487 262.884 414.478 262.77C413.16 241.549 428.138 224.136 433.718 220.192C433.765 220.158 433.818 220.133 433.875 220.119C433.932 220.106 433.991 220.104 434.048 220.114C434.106 220.124 434.161 220.145 434.21 220.177C434.259 220.209 434.301 220.25 434.333 220.298C434.401 220.395 434.428 220.515 434.409 220.632C434.389 220.749 434.324 220.854 434.228 220.923C428.725 224.771 414.026 241.866 415.334 262.713C415.339 262.829 415.299 262.944 415.222 263.032C415.145 263.12 415.037 263.174 414.92 263.184H414.93Z" fill="white"/>
<path d="M415.315 290.101C420.427 291.771 425.664 293.032 430.976 293.872C439.769 295.257 443.655 291.053 443.655 291.053C443.655 291.053 440.192 282.809 435.199 280.471C440.601 281.685 445.76 283.802 450.457 286.734C450.457 286.734 455.824 286.82 457.96 278.624C457.96 278.624 454.786 273.689 444.107 271.024C444.107 271.024 450.601 269.389 459.961 271.775C460.663 272.054 463.655 261.462 464.559 256.575C465.464 251.688 463.501 251.765 459.692 250.716C455.882 249.668 443.251 246.868 440.865 248.956C438.48 251.044 437.268 258.22 437.268 258.22C436.322 255.282 436.199 252.142 436.912 249.139C436.912 249.139 433.487 247.802 428.157 249.35C423.809 250.611 423.597 253.574 423.79 256.921C424.047 259.829 424.694 262.69 425.714 265.425C425.714 265.425 422.318 261.077 422.212 251.64C422.212 251.64 413.304 256.065 411.784 264.916C410.899 269.716 409.725 283.79 415.315 290.101Z" fill="#FFC10D"/>
<path d="M416.989 288.388C417.082 288.388 417.174 288.362 417.254 288.312C417.334 288.263 417.398 288.193 417.441 288.109C424.531 273.362 450.918 256.229 460.365 254.391C460.429 254.38 460.49 254.356 460.545 254.32C460.599 254.285 460.646 254.239 460.683 254.185C460.72 254.132 460.746 254.071 460.759 254.007C460.772 253.944 460.772 253.878 460.76 253.814C460.732 253.685 460.655 253.572 460.546 253.499C460.436 253.425 460.303 253.397 460.173 253.42C450.553 255.296 423.751 272.66 416.546 287.677C416.49 287.795 416.482 287.932 416.525 288.056C416.568 288.18 416.659 288.282 416.777 288.34C416.844 288.37 416.916 288.386 416.989 288.388Z" fill="white"/>
<path d="M73.8624 339.451C72.7753 339.451 72.1211 338.557 72.1211 337.046V175.228L270.322 60.8176V221.981C270.254 223.327 269.87 224.638 269.201 225.807C268.533 226.977 267.599 227.973 266.474 228.715L75.44 338.961C74.9661 339.259 74.4221 339.429 73.8624 339.451Z" fill="#FAFAFA"/>
<path d="M269.726 61.7893V221.982C269.645 223.23 269.278 224.442 268.652 225.525C268.026 226.608 267.159 227.532 266.118 228.225L75.1611 338.47C74.7723 338.722 74.3247 338.868 73.8624 338.893C72.7945 338.893 72.6791 337.595 72.6791 337.046V175.555L269.726 61.7893ZM270.851 59.8653L71.5536 174.901V337.046C71.5536 338.97 72.5156 340.019 73.8624 340.019C74.5202 339.995 75.1603 339.799 75.719 339.451L266.686 229.197C267.898 228.405 268.907 227.34 269.63 226.087C270.354 224.833 270.772 223.427 270.851 221.982V59.8364V59.8653Z" fill="#E0E0E0"/>
<path d="M71.5632 174.901V201.982L270.851 86.9167V59.8364L71.5632 174.901Z" fill="#FFC10D"/>
<path d="M87.1861 176.344V180.192C87.1861 180.981 87.7536 181.308 88.4367 180.914L149.706 145.541V138.807L88.4367 174.18C88.0748 174.419 87.7734 174.739 87.5563 175.115C87.3393 175.49 87.2125 175.911 87.1861 176.344Z" fill="#FAFAFA"/>
<path d="M156.277 135.017C156.97 134.613 157.527 134.94 157.527 135.738V139.586C157.502 140.02 157.376 140.441 157.159 140.817C156.942 141.193 156.64 141.513 156.277 141.751L149.706 145.541V138.807L156.277 135.017Z" fill="#455A64"/>
<path d="M71.5536 166.176C71.6325 164.731 72.0508 163.324 72.7745 162.071C73.4982 160.817 74.5069 159.752 75.719 158.961L266.686 48.7061C268.985 47.3785 270.851 48.456 270.851 51.1111V59.8364L71.5536 174.901V166.176Z" fill="#455A64"/>
<path d="M248.696 63.6267C248.133 63.9989 247.665 64.4986 247.331 65.0852C246.997 65.6718 246.805 66.3289 246.772 67.0033C246.772 68.2539 247.648 68.7541 248.696 68.1385C249.26 67.7641 249.727 67.2627 250.062 66.6745C250.396 66.0863 250.587 65.4279 250.62 64.7522C250.659 63.492 249.783 63.0014 248.696 63.6267Z" fill="#FFC10D"/>
<path d="M254.93 60.048C254.367 60.4203 253.899 60.9199 253.565 61.5066C253.231 62.0932 253.039 62.7503 253.006 63.4246C253.006 64.6752 253.881 65.1755 254.93 64.5598C255.492 64.1843 255.959 63.6826 256.293 63.0947C256.627 62.5068 256.819 61.8489 256.854 61.1735C256.854 59.9229 255.969 59.4227 254.93 60.048Z" fill="#FFC10D"/>
<path d="M261.077 56.4694C260.514 56.8417 260.046 57.3413 259.712 57.928C259.378 58.5146 259.186 59.1717 259.153 59.846C259.153 61.0966 260.029 61.5969 261.077 60.9812C261.64 60.6057 262.106 60.104 262.44 59.5161C262.775 58.9281 262.967 58.2703 263.001 57.5949C263.03 56.3443 262.155 55.8441 261.077 56.4694Z" fill="#FFC10D"/>
<g opacity="0.1">
<path opacity="0.1" d="M208.321 104.541C207.079 105.354 206.045 106.448 205.305 107.735C204.564 109.022 204.138 110.465 204.059 111.948C204.059 114.671 205.983 115.796 208.321 114.411C209.565 113.601 210.6 112.509 211.343 111.223C212.085 109.938 212.513 108.495 212.592 107.013C212.602 104.291 210.678 103.184 208.321 104.541Z" fill="black"/>
<path opacity="0.1" d="M188.792 115.825C187.548 116.635 186.513 117.727 185.771 119.012C185.029 120.298 184.6 121.74 184.521 123.223C184.521 125.945 186.445 127.071 188.792 125.695C190.035 124.882 191.068 123.788 191.809 122.501C192.549 121.214 192.976 119.77 193.054 118.288C193.054 115.565 191.149 114.478 188.792 115.825Z" fill="black"/>
<path opacity="0.1" d="M227.859 93.3141C226.617 94.1249 225.584 95.2175 224.843 96.5029C224.103 97.7884 223.676 99.2304 223.598 100.712C223.598 103.434 225.522 104.56 227.859 103.175C229.104 102.365 230.14 101.273 230.882 99.9878C231.624 98.7022 232.052 97.2593 232.131 95.7768C232.131 93.0062 230.226 91.8999 227.859 93.3141Z" fill="black"/>
<path opacity="0.1" d="M247.407 81.9625C246.163 82.7723 245.128 83.8644 244.386 85.1499C243.643 86.4354 243.215 87.878 243.136 89.3603C243.136 92.0828 245.06 93.2083 247.407 91.823C248.651 91.0133 249.687 89.9212 250.429 88.6357C251.171 87.3501 251.599 85.9075 251.678 84.4252C251.678 81.7028 249.764 80.5965 247.407 81.9625Z" fill="black"/>
</g>
<path d="M91.39 204.088L137.768 177.306C140.067 175.979 141.933 177.056 141.933 179.711V224.242C141.855 225.687 141.436 227.094 140.713 228.347C139.989 229.601 138.98 230.666 137.768 231.457L91.39 258.23C89.0908 259.557 87.2245 258.48 87.2245 255.825V211.303C87.3035 209.858 87.7218 208.452 88.4455 207.198C89.1692 205.945 90.1779 204.879 91.39 204.088Z" fill="#E0E0E0"/>
<path d="M157.768 165.733L254.93 109.668C257.229 108.331 259.095 109.408 259.095 112.073V156.594C259.016 158.04 258.598 159.446 257.875 160.699C257.151 161.953 256.142 163.018 254.93 163.809L157.768 219.875C155.469 221.202 153.603 220.125 153.603 217.47V172.948C153.682 171.503 154.1 170.097 154.823 168.843C155.547 167.59 156.556 166.524 157.768 165.733Z" fill="#E0E0E0"/>
<path d="M91.39 271.765L165.118 229.196C167.426 227.869 169.293 228.812 169.293 231.303C169.19 232.702 168.759 234.057 168.036 235.259C167.312 236.46 166.316 237.475 165.127 238.22L91.39 280.789C89.0908 282.116 87.2245 281.173 87.2245 278.682C87.3273 277.283 87.758 275.928 88.4816 274.726C89.2053 273.525 90.2016 272.51 91.39 271.765Z" fill="#E0E0E0"/>
<path d="M91.39 287.561L165.118 244.993C167.426 243.665 169.293 244.608 169.293 247.099C169.19 248.498 168.759 249.853 168.036 251.055C167.312 252.257 166.316 253.271 165.127 254.016L91.39 296.585C89.0908 297.912 87.2245 296.969 87.2245 294.478C87.3273 293.079 87.758 291.724 88.4816 290.522C89.2053 289.321 90.2016 288.306 91.39 287.561Z" fill="#E0E0E0"/>
<path d="M91.39 303.347L165.118 260.779C167.426 259.451 169.293 260.394 169.293 262.886C169.19 264.285 168.759 265.64 168.036 266.841C167.312 268.043 166.316 269.057 165.127 269.803L91.39 312.371C89.0908 313.699 87.2245 312.756 87.2245 310.264C87.3273 308.865 87.758 307.51 88.4816 306.309C89.2053 305.107 90.2016 304.093 91.39 303.347Z" fill="#E0E0E0"/>
<path d="M126.263 249.803C126.312 248.936 126.564 248.092 126.998 247.34C127.433 246.589 128.037 245.949 128.764 245.474L256.623 171.659C257.398 171.266 258.255 171.06 259.124 171.06C259.994 171.06 260.851 171.266 261.626 171.659L264.444 173.285C265.17 173.76 265.775 174.4 266.207 175.152C266.64 175.904 266.89 176.747 266.936 177.614V275.623C266.888 276.489 266.638 277.332 266.205 278.084C265.773 278.836 265.169 279.475 264.444 279.952L136.604 353.766C135.829 354.16 134.972 354.365 134.103 354.365C133.234 354.365 132.377 354.16 131.602 353.766L128.783 352.14C128.056 351.665 127.451 351.026 127.016 350.274C126.582 349.522 126.33 348.678 126.282 347.811L126.263 249.803Z" fill="#FFC10D"/>
<path opacity="0.4" d="M126.984 247.34L134.084 251.438L266.195 175.151C265.772 174.39 265.168 173.745 264.435 173.275L261.664 171.659C260.892 171.266 260.039 171.061 259.172 171.061C258.306 171.061 257.452 171.266 256.681 171.659L128.764 245.474C128.023 245.936 127.41 246.578 126.984 247.34Z" fill="white"/>
<path opacity="0.1" d="M126.263 249.803V347.811C126.311 348.678 126.563 349.522 126.997 350.274C127.432 351.026 128.037 351.665 128.764 352.14L131.582 353.766C131.799 353.891 132.028 353.995 132.265 354.074C132.6 354.186 132.945 354.267 133.295 354.314C133.952 354.395 134.618 354.369 135.267 354.237C135.433 354.207 135.597 354.165 135.757 354.112L136.056 353.997C135.866 354.079 135.661 354.121 135.454 354.121C135.248 354.121 135.043 354.079 134.853 353.997C134.587 353.82 134.375 353.572 134.241 353.282C134.107 352.991 134.056 352.669 134.093 352.352V254.324C134.068 253.878 134.178 253.436 134.41 253.054C134.642 252.673 134.985 252.371 135.392 252.188L134.093 251.438L126.984 247.34C126.538 248.086 126.29 248.934 126.263 249.803Z" fill="black"/>
<path opacity="0.2" d="M134.093 251.438L193.304 273.564C195.352 274.327 197.598 274.37 199.674 273.687C201.749 273.003 203.53 271.633 204.723 269.802L214.228 255.238L266.676 174.882L216.123 255.786L266.936 275.671C266.894 276.554 266.625 277.412 266.157 278.162L215.988 256.036L204.906 273.689C203.678 275.65 201.785 277.103 199.573 277.782C197.361 278.46 194.978 278.319 192.862 277.383L184.993 273.91L134.853 354.016C134.587 353.839 134.375 353.591 134.241 353.301C134.107 353.01 134.056 352.688 134.093 352.371V350.745L184.771 273.852L134.093 251.438Z" fill="black"/>
<path d="M239.586 138.922V363.934C239.586 366.589 241.452 367.667 243.752 366.339L344.839 307.975C346.051 307.184 347.059 306.118 347.783 304.865C348.507 303.611 348.925 302.205 349.004 300.76V75.7479C349.004 73.0928 347.138 72.0154 344.839 73.3429L243.752 131.707C242.538 132.497 241.529 133.563 240.805 134.816C240.081 136.07 239.664 137.477 239.586 138.922Z" fill="#FAFAFA" stroke="#E0E0E0" stroke-width="1.16981" stroke-miterlimit="10"/>
<path d="M245.445 143.107C245.477 142.751 245.592 142.407 245.781 142.103C245.97 141.799 246.227 141.543 246.532 141.356L258.076 134.709C258.672 134.363 259.153 134.593 259.153 135.219C259.123 135.574 259.009 135.918 258.822 136.222C258.635 136.526 258.379 136.782 258.076 136.97L246.532 143.617C245.935 143.963 245.445 143.732 245.445 143.107Z" fill="#455A64"/>
<path d="M245.445 147.59C245.476 147.234 245.591 146.89 245.78 146.585C245.969 146.281 246.226 146.026 246.532 145.839L258.076 139.192C258.672 138.846 259.153 139.076 259.153 139.692C259.124 140.049 259.011 140.395 258.824 140.701C258.637 141.006 258.381 141.264 258.076 141.453L246.532 148.09C245.935 148.437 245.445 148.215 245.445 147.59Z" fill="#455A64"/>
<path d="M245.445 152.073C245.476 151.716 245.591 151.372 245.78 151.068C245.969 150.764 246.226 150.509 246.532 150.322L258.076 143.675C258.672 143.328 259.153 143.55 259.153 144.175C259.124 144.531 259.011 144.875 258.824 145.179C258.637 145.484 258.38 145.739 258.076 145.926L246.532 152.573C245.935 152.958 245.445 152.698 245.445 152.073Z" fill="#455A64"/>
<path d="M341.193 94.3723V92.5733C341.193 92.5515 341.188 92.5298 341.178 92.5104C341.168 92.4911 341.153 92.4747 341.134 92.463C341.116 92.4513 341.095 92.4447 341.073 92.4438C341.051 92.4429 341.029 92.4478 341.01 92.4579L339.625 93.0832C339.603 93.094 339.579 93.0997 339.554 93.1001C339.53 93.1005 339.506 93.0954 339.484 93.0853C339.462 93.0751 339.442 93.0602 339.427 93.0415C339.411 93.0228 339.4 93.0009 339.394 92.9774C339.32 92.7375 339.217 92.508 339.086 92.2943C339.06 92.2421 339.046 92.1844 339.046 92.126C339.046 92.0675 339.06 92.0099 339.086 91.9576L340.048 90.0914C340.072 90.0441 340.076 89.9894 340.06 89.939C340.043 89.8886 340.008 89.8466 339.961 89.822L338.999 89.2448C338.954 89.2217 338.901 89.2157 338.852 89.2281C338.802 89.2405 338.759 89.2703 338.73 89.3121L337.575 91.0437C337.541 91.0902 337.496 91.1276 337.444 91.1527C337.392 91.1778 337.335 91.19 337.277 91.188C337.025 91.186 336.773 91.2118 336.527 91.265C336.503 91.2723 336.479 91.2742 336.454 91.2706C336.43 91.2669 336.407 91.2578 336.386 91.2439C336.366 91.2301 336.349 91.2118 336.337 91.1904C336.324 91.1691 336.317 91.1453 336.315 91.1207L336.161 89.6104C336.161 89.5045 336.065 89.4564 335.979 89.5142L334.42 90.4088C334.371 90.4411 334.329 90.4836 334.298 90.5334C334.266 90.5831 334.245 90.6391 334.237 90.6974L334.083 92.429C334.063 92.5519 334.006 92.6658 333.92 92.7561C333.608 93.0547 333.318 93.3763 333.054 93.7181C333.017 93.7613 332.968 93.7925 332.913 93.8079C332.858 93.8233 332.8 93.8222 332.746 93.8047L331.784 93.4584C331.733 93.442 331.677 93.4436 331.626 93.4628C331.576 93.482 331.533 93.5177 331.505 93.5642L330.36 95.5459C330.337 95.593 330.329 95.6462 330.338 95.698C330.347 95.7498 330.371 95.7975 330.409 95.8345L331.217 96.5271C331.256 96.5666 331.284 96.6161 331.298 96.6704C331.311 96.7246 331.31 96.7815 331.294 96.835C331.145 97.2306 331.023 97.6355 330.928 98.0471C330.896 98.1637 330.829 98.2677 330.736 98.3453L329.312 99.3073C329.264 99.3441 329.225 99.3905 329.197 99.4436C329.169 99.4967 329.152 99.5552 329.148 99.6152V101.404C329.144 101.427 329.146 101.451 329.155 101.473C329.164 101.495 329.18 101.513 329.2 101.526C329.22 101.538 329.243 101.544 329.266 101.543C329.29 101.542 329.312 101.534 329.331 101.52L330.716 100.895C330.739 100.886 330.763 100.882 330.788 100.883C330.812 100.884 330.836 100.89 330.858 100.901C330.879 100.912 330.899 100.927 330.914 100.946C330.93 100.965 330.941 100.987 330.947 101.01C331.02 101.25 331.124 101.479 331.255 101.693C331.281 101.745 331.295 101.803 331.295 101.861C331.295 101.92 331.281 101.978 331.255 102.03L330.293 103.886C330.271 103.936 330.268 103.991 330.284 104.042C330.3 104.094 330.334 104.137 330.38 104.165L331.342 104.743C331.387 104.766 331.439 104.772 331.489 104.759C331.538 104.747 331.582 104.717 331.611 104.675L332.765 102.944C332.8 102.897 332.845 102.86 332.897 102.835C332.949 102.81 333.006 102.797 333.064 102.799C333.316 102.801 333.568 102.776 333.814 102.722C333.838 102.715 333.862 102.713 333.887 102.717C333.911 102.72 333.934 102.73 333.955 102.743C333.975 102.757 333.992 102.776 334.004 102.797C334.017 102.818 334.024 102.842 334.026 102.867L334.18 104.377C334.18 104.483 334.266 104.531 334.362 104.473L335.921 103.579C335.97 103.544 336.012 103.5 336.043 103.448C336.074 103.397 336.095 103.34 336.104 103.28L336.258 101.549C336.276 101.428 336.334 101.317 336.421 101.231C336.733 100.933 337.023 100.611 337.287 100.269C337.324 100.226 337.373 100.195 337.428 100.179C337.482 100.164 337.541 100.165 337.595 100.183L338.557 100.529C338.608 100.545 338.664 100.544 338.715 100.525C338.765 100.505 338.808 100.47 338.836 100.423L339.98 98.4415C340.005 98.3924 340.012 98.3365 340.002 98.2826C339.992 98.2287 339.964 98.1798 339.923 98.1433L339.124 97.4603C339.085 97.4208 339.057 97.3713 339.043 97.317C339.03 97.2628 339.031 97.2059 339.047 97.1524C339.196 96.7568 339.318 96.3519 339.413 95.9403C339.44 95.8214 339.508 95.7158 339.605 95.6421L341.029 94.6801C341.076 94.6425 341.114 94.5959 341.142 94.543C341.171 94.49 341.188 94.432 341.193 94.3723ZM335.103 100.048C333.651 100.895 332.477 100.212 332.477 98.5377C332.522 97.6239 332.784 96.7339 333.24 95.9411C333.697 95.1483 334.335 94.4754 335.103 93.9778C336.556 93.1409 337.729 93.8239 337.729 95.4978C337.683 96.4099 337.421 97.298 336.964 98.0891C336.507 98.8801 335.87 99.5515 335.103 100.048Z" fill="#37474F"/>
<path d="M294.295 138.72C306.108 131.9 315.68 137.431 315.68 151.072C315.68 164.714 306.108 181.289 294.295 188.109C282.482 194.93 272.91 189.399 272.91 175.767C272.91 162.135 282.482 145.541 294.295 138.72Z" fill="#455A64"/>
<path d="M294.151 149.456C297.999 147.244 301.087 149.033 301.087 153.458C300.955 155.864 300.258 158.204 299.053 160.29C297.848 162.376 296.169 164.148 294.151 165.464C290.303 167.677 287.205 165.887 287.205 161.462C287.337 159.056 288.035 156.715 289.242 154.629C290.449 152.542 292.131 150.77 294.151 149.456Z" fill="#FFC10D"/>
<path d="M307.84 173.045C307.84 165.781 302.732 162.828 296.44 166.464L292.448 168.735C286.157 172.371 281.048 181.241 281.048 188.485V190.476C282.236 190.856 283.476 191.047 284.723 191.044C288.098 190.929 291.385 189.934 294.257 188.158C299.751 184.782 304.399 180.191 307.84 174.738V173.045Z" fill="#FFC10D"/>
<path d="M274.997 208.398L313.612 186.109C314.757 185.445 315.69 185.916 315.69 187.167C315.638 187.865 315.423 188.541 315.062 189.141C314.701 189.741 314.204 190.248 313.612 190.62L275.007 212.91C273.853 213.583 272.919 213.102 272.919 211.861C272.969 211.161 273.183 210.483 273.544 209.881C273.905 209.28 274.403 208.771 274.997 208.398Z" fill="#FFC10D"/>
<path d="M270.851 224.348L317.739 197.21C318.893 196.546 319.827 197.018 319.827 198.268C319.774 198.967 319.558 199.644 319.195 200.244C318.833 200.844 318.334 201.351 317.739 201.722L270.851 228.86C269.697 229.524 268.764 229.052 268.764 227.802C268.816 227.103 269.032 226.426 269.395 225.826C269.757 225.226 270.256 224.719 270.851 224.348Z" fill="#455A64"/>
<path d="M318.99 219.086L332.121 211.505C332.814 211.111 333.371 211.294 333.371 211.919C333.319 212.302 333.18 212.669 332.963 212.989C332.746 213.309 332.458 213.575 332.121 213.766L318.99 221.347C318.307 221.741 317.739 221.558 317.739 220.943C317.792 220.558 317.932 220.191 318.149 219.869C318.365 219.547 318.653 219.279 318.99 219.086Z" fill="#37474F"/>
<path d="M253.391 252.458L272.679 241.327C273.824 240.664 274.757 241.202 274.757 242.53V255.767C274.717 256.489 274.508 257.192 274.147 257.818C273.787 258.445 273.284 258.978 272.679 259.375L253.391 270.505C252.246 271.169 251.313 270.63 251.313 269.302V256.065C251.353 255.343 251.561 254.641 251.922 254.014C252.283 253.387 252.786 252.854 253.391 252.458Z" fill="#FFC10D"/>
<path d="M256.469 254.305L269.601 246.724C270.293 246.33 270.851 246.513 270.851 247.128C270.8 247.513 270.661 247.882 270.444 248.204C270.227 248.526 269.938 248.793 269.601 248.985L256.469 256.566C255.777 256.96 255.219 256.777 255.219 256.162C255.269 255.776 255.409 255.408 255.626 255.086C255.843 254.764 256.131 254.496 256.469 254.305Z" fill="#FAFAFA"/>
<path d="M255.219 260.981V264.829C255.219 265.627 255.777 265.945 256.469 265.551L269.601 257.97C269.965 257.733 270.268 257.413 270.485 257.037C270.702 256.661 270.828 256.239 270.851 255.805V251.957C270.851 251.159 270.293 250.842 269.601 251.236L256.469 258.778C256.101 259.02 255.796 259.346 255.578 259.729C255.361 260.112 255.238 260.541 255.219 260.981Z" fill="#FAFAFA"/>
<path d="M284.656 234.411L303.896 223.28C305.05 222.617 305.983 223.155 305.983 224.483V237.72C305.944 238.443 305.735 239.147 305.372 239.774C305.009 240.401 304.503 240.933 303.896 241.327L284.656 252.458C283.501 253.122 282.578 252.583 282.578 251.255V238.018C282.615 237.296 282.823 236.592 283.184 235.965C283.545 235.338 284.05 234.806 284.656 234.411Z" fill="#FFC10D"/>
<path d="M287.734 236.258L300.865 228.677C301.549 228.283 302.106 228.466 302.106 229.081C302.055 229.465 301.917 229.832 301.702 230.154C301.487 230.476 301.201 230.744 300.865 230.938L287.734 238.518C287.042 238.913 286.484 238.73 286.484 238.105C286.536 237.721 286.676 237.355 286.893 237.035C287.109 236.714 287.398 236.448 287.734 236.258Z" fill="#FAFAFA"/>
<path d="M286.484 242.934V246.782C286.484 247.58 287.042 247.898 287.734 247.503L300.865 239.923C301.227 239.684 301.527 239.363 301.742 238.988C301.958 238.612 302.083 238.191 302.106 237.758V233.91C302.106 233.112 301.539 232.794 300.856 233.189L287.725 240.769C287.362 241.007 287.061 241.327 286.846 241.703C286.63 242.08 286.506 242.501 286.484 242.934Z" fill="#FAFAFA"/>
<path d="M315.921 216.363L335.161 205.224C336.306 204.56 337.239 205.098 337.239 206.426V219.673C337.199 220.395 336.99 221.097 336.629 221.724C336.269 222.351 335.765 222.884 335.161 223.28L315.921 234.411C314.766 235.074 313.833 234.536 313.833 233.208V219.971C313.873 219.248 314.082 218.544 314.445 217.917C314.808 217.29 315.313 216.758 315.921 216.363Z" fill="#FFC10D"/>
<path d="M318.99 218.211L332.121 210.678C332.814 210.274 333.371 210.457 333.371 211.082C333.322 211.466 333.183 211.833 332.965 212.154C332.748 212.475 332.459 212.74 332.121 212.929L318.99 220.51C318.307 220.914 317.739 220.731 317.739 220.106C317.784 219.714 317.921 219.338 318.138 219.009C318.355 218.679 318.647 218.406 318.99 218.211Z" fill="#FAFAFA"/>
<path d="M317.739 224.887V228.735C317.739 229.524 318.307 229.851 318.99 229.456L332.121 221.866C332.485 221.63 332.789 221.31 333.006 220.934C333.224 220.558 333.349 220.136 333.371 219.702V215.854C333.371 215.055 332.814 214.728 332.121 215.132L318.99 222.713C318.625 222.951 318.321 223.272 318.104 223.65C317.887 224.028 317.762 224.452 317.739 224.887Z" fill="#FAFAFA"/>
<path d="M255.478 282.828L333.112 238.008C335.421 236.681 337.277 237.624 337.277 240.115C337.177 241.515 336.747 242.871 336.023 244.073C335.299 245.275 334.302 246.289 333.112 247.032L255.478 291.852C253.179 293.179 251.313 292.236 251.313 289.745C251.416 288.346 251.846 286.991 252.57 285.789C253.294 284.588 254.29 283.573 255.478 282.828Z" fill="#E0E0E0"/>
<path d="M255.478 300.885L333.112 256.065C335.421 254.738 337.277 255.68 337.277 258.172C337.177 259.572 336.747 260.927 336.023 262.129C335.299 263.331 334.302 264.345 333.112 265.089L255.478 309.918C253.179 311.246 251.313 310.303 251.313 307.802C251.416 306.403 251.846 305.048 252.57 303.846C253.294 302.644 254.29 301.63 255.478 300.885Z" fill="#E0E0E0"/>
<path d="M280.75 308.86L307.84 293.218C308.994 292.554 309.928 293.093 309.928 294.42V303.145C309.888 303.869 309.679 304.572 309.316 305.199C308.953 305.826 308.448 306.359 307.84 306.753L280.75 322.395C279.596 323.059 278.663 322.52 278.663 321.193V312.467C278.702 311.744 278.911 311.04 279.274 310.413C279.637 309.787 280.143 309.254 280.75 308.86Z" fill="#FFC10D"/>
<path d="M257.171 284.165C256.608 284.54 256.14 285.041 255.806 285.629C255.472 286.217 255.281 286.876 255.247 287.551C255.247 288.792 256.123 289.302 257.171 288.677C257.735 288.303 258.203 287.801 258.537 287.213C258.871 286.625 259.062 285.966 259.095 285.291C259.124 284.05 258.249 283.54 257.171 284.165Z" fill="#FAFAFA"/>
<path d="M263.367 280.587C262.802 280.96 262.334 281.461 261.999 282.049C261.665 282.638 261.474 283.297 261.443 283.973C261.443 285.214 262.309 285.724 263.367 285.098C263.93 284.724 264.398 284.223 264.732 283.634C265.066 283.046 265.258 282.388 265.291 281.712C265.32 280.471 264.444 279.942 263.367 280.587Z" fill="#FAFAFA"/>
<path d="M269.552 277.056C268.989 277.43 268.521 277.932 268.187 278.52C267.853 279.108 267.662 279.766 267.628 280.442C267.628 281.683 268.504 282.193 269.552 281.568C270.116 281.193 270.584 280.692 270.918 280.104C271.252 279.516 271.443 278.857 271.476 278.181C271.505 276.892 270.63 276.383 269.552 277.056Z" fill="#FAFAFA"/>
<path d="M275.748 273.429C275.184 273.803 274.716 274.304 274.381 274.893C274.047 275.481 273.856 276.14 273.824 276.816C273.824 278.057 274.699 278.566 275.748 277.941C276.311 277.567 276.779 277.065 277.113 276.477C277.447 275.889 277.639 275.231 277.672 274.555C277.701 273.314 276.825 272.804 275.748 273.429Z" fill="#FAFAFA"/>
<path d="M281.933 269.851C281.37 270.225 280.902 270.726 280.568 271.315C280.234 271.903 280.043 272.561 280.009 273.237C280.009 274.478 280.885 274.988 281.933 274.362C282.497 273.988 282.965 273.487 283.299 272.898C283.633 272.31 283.824 271.652 283.857 270.976C283.886 269.735 283.011 269.225 281.933 269.851Z" fill="#FAFAFA"/>
<path d="M288.119 266.272C287.556 266.646 287.088 267.148 286.754 267.736C286.42 268.324 286.228 268.983 286.195 269.658C286.195 270.899 287.07 271.409 288.119 270.784C288.684 270.411 289.152 269.909 289.486 269.321C289.821 268.733 290.011 268.074 290.043 267.398C290.072 266.157 289.206 265.647 288.119 266.272Z" fill="#FAFAFA"/>
<path d="M294.314 262.693C293.751 263.068 293.283 263.569 292.949 264.157C292.615 264.745 292.423 265.404 292.39 266.08C292.39 267.321 293.266 267.83 294.314 267.205C294.878 266.831 295.345 266.329 295.68 265.741C296.014 265.153 296.205 264.495 296.238 263.819C296.296 262.626 295.392 262.068 294.314 262.693Z" fill="#FAFAFA"/>
<path d="M257.171 302.232C256.609 302.607 256.142 303.109 255.808 303.697C255.474 304.285 255.282 304.942 255.247 305.618C255.247 306.868 256.123 307.369 257.171 306.743C257.735 306.371 258.202 305.871 258.537 305.285C258.871 304.698 259.062 304.041 259.095 303.367C259.124 302.116 258.249 301.616 257.171 302.232Z" fill="#FAFAFA"/>
<path d="M263.367 298.653C262.803 299.027 262.335 299.528 262 300.116C261.666 300.705 261.475 301.363 261.443 302.039C261.443 303.29 262.309 303.79 263.367 303.165C263.93 302.792 264.398 302.293 264.732 301.706C265.066 301.119 265.258 300.462 265.291 299.788C265.32 298.537 264.444 298.037 263.367 298.653Z" fill="#FAFAFA"/>
<path d="M269.552 295.074C268.99 295.45 268.523 295.952 268.189 296.539C267.855 297.127 267.663 297.785 267.628 298.461C267.628 299.711 268.504 300.211 269.552 299.586C270.116 299.214 270.583 298.714 270.918 298.128C271.252 297.541 271.443 296.884 271.476 296.21C271.505 294.959 270.63 294.449 269.552 295.074Z" fill="#FAFAFA"/>
<path d="M275.748 291.486C275.184 291.86 274.717 292.362 274.382 292.95C274.048 293.538 273.857 294.197 273.824 294.872C273.824 296.123 274.699 296.623 275.748 295.998C276.311 295.626 276.779 295.126 277.113 294.539C277.447 293.953 277.639 293.296 277.672 292.621C277.701 291.38 276.825 290.87 275.748 291.486Z" fill="#FAFAFA"/>
<path d="M281.933 287.917C281.37 288.291 280.902 288.793 280.568 289.381C280.234 289.969 280.043 290.628 280.009 291.303C280.009 292.554 280.885 293.054 281.933 292.429C282.497 292.057 282.964 291.557 283.299 290.97C283.633 290.384 283.824 289.727 283.857 289.052C283.886 287.802 283.011 287.292 281.933 287.917Z" fill="#FAFAFA"/>
<path d="M288.119 284.338C287.556 284.713 287.088 285.214 286.754 285.802C286.42 286.391 286.228 287.049 286.195 287.725C286.195 288.975 287.07 289.475 288.119 288.85C288.685 288.478 289.154 287.977 289.488 287.388C289.823 286.8 290.013 286.14 290.043 285.464C290.072 284.223 289.206 283.713 288.119 284.338Z" fill="#FAFAFA"/>
<path d="M294.314 280.76C293.751 281.134 293.283 281.636 292.949 282.224C292.615 282.812 292.423 283.47 292.39 284.146C292.39 285.397 293.266 285.897 294.314 285.272C294.878 284.898 295.346 284.396 295.681 283.808C296.015 283.22 296.206 282.561 296.238 281.885C296.296 280.644 295.392 280.134 294.314 280.76Z" fill="#FAFAFA"/>
<path d="M381.135 321.433C377.81 321.456 374.539 320.593 371.659 318.932C364.723 314.92 360.75 306.551 360.75 295.94C360.75 277.296 372.602 255.854 387.686 247.119C395.834 242.414 403.925 241.905 410.476 245.685C417.402 249.687 421.385 258.066 421.385 268.667C421.385 287.311 409.533 308.764 394.401 317.498C390.399 319.947 385.825 321.304 381.135 321.433ZM401.01 256.613C398.668 256.779 396.404 257.523 394.42 258.778C383.453 265.079 374.218 282.116 374.218 295.94C374.218 301.539 375.786 305.791 378.412 307.301C381.404 309.033 385.57 307.147 387.773 305.868C398.768 299.528 408.042 282.491 408.042 268.667C408.042 263.069 406.474 258.826 403.848 257.306C402.982 256.822 402.001 256.583 401.01 256.613Z" fill="#455A64"/>
<path d="M410.399 271.65C410.399 261.173 403.8 257.306 403.8 257.306C406.426 258.826 407.994 263.078 407.994 268.667C407.994 282.491 398.72 299.528 387.725 305.868C385.522 307.147 381.366 309.033 378.364 307.301C378.364 307.301 383.934 310.764 391.63 306.561C402.77 300.49 410.399 285.474 410.399 271.65Z" fill="#37474F"/>
<path d="M399.817 140.731C399.75 138.935 398.989 137.235 397.695 135.988C396.401 134.741 394.673 134.044 392.876 134.044C391.079 134.044 389.351 134.741 388.057 135.988C386.763 137.235 386.002 138.935 385.935 140.731V251.082C385.985 251.701 386.199 252.294 386.556 252.802C386.913 253.31 387.4 253.712 387.965 253.968C389.486 254.737 391.167 255.137 392.871 255.137C394.576 255.137 396.256 254.737 397.777 253.968C398.345 253.714 398.834 253.313 399.193 252.805C399.552 252.297 399.767 251.702 399.817 251.082V140.75V140.731Z" fill="#37474F"/>
<path d="M394.276 165.397C394.2 164.005 393.797 162.651 393.1 161.444C392.403 160.238 391.431 159.212 390.264 158.451C389.852 158.149 389.365 157.966 388.856 157.922C388.347 157.878 387.836 157.974 387.378 158.201L370.274 168.061L369.86 168.302C369.797 168.328 369.739 168.363 369.687 168.408C369.396 168.605 369.122 168.827 368.869 169.071C367.905 170.033 367.318 171.31 367.216 172.668C367.115 174.026 367.505 175.376 368.316 176.47C369.127 177.565 370.304 178.331 371.633 178.629C372.962 178.927 374.354 178.738 375.555 178.095L375.882 177.903L393.112 167.984C393.517 167.694 393.839 167.302 394.043 166.848C394.248 166.393 394.328 165.892 394.276 165.397Z" fill="#455A64"/>
<path d="M394.276 193.025C394.198 191.635 393.795 190.283 393.098 189.078C392.401 187.874 391.43 186.85 390.264 186.089C389.854 185.784 389.367 185.598 388.858 185.552C388.348 185.506 387.836 185.602 387.378 185.83L367.311 197.374L366.897 197.614C366.835 197.641 366.777 197.677 366.724 197.72C366.431 197.914 366.157 198.137 365.906 198.384C365.28 199.008 364.807 199.769 364.526 200.607C364.244 201.445 364.162 202.337 364.285 203.213C364.408 204.088 364.734 204.923 365.236 205.651C365.737 206.379 366.402 206.98 367.176 207.407C368.012 207.851 368.943 208.082 369.889 208.081C370.832 208.085 371.761 207.854 372.592 207.407C372.708 207.349 372.813 207.273 372.919 207.215L393.121 195.671C393.534 195.375 393.86 194.973 394.063 194.507C394.266 194.041 394.34 193.529 394.276 193.025Z" fill="#455A64"/>
</svg>
